<svg viewBox="0 0 763 737" fill="none" xmlns="http://www.w3.org/2000/svg">
<path d="M748.696 15.2378H15.0328L15.0329 369.129H748.696V15.2378Z" fill="black"/>
<path d="M346.601 368.897H374.35C345.882 285.075 312.783 255.946 285.372 250.689C281.444 250.332 277.199 250.47 273.559 251.051L273.559 283.984C300.044 281.544 339.936 307.475 346.601 368.897Z" fill="#141100"/>
<path d="M214.4 368.898L222.366 368.897C218.548 321.848 242.222 284.644 274.018 283.974V250.994C231.982 257.706 209.5 323.538 214.4 368.898Z" fill="#141100"/>
<path d="M374.35 368.897C345.882 285.075 312.783 255.946 285.372 250.689C281.444 250.332 277.199 250.47 273.559 251.051L273.559 254.357C277.199 253.793 280.068 253.552 283.996 253.899C311.407 259.008 342.182 287.432 370.65 368.897L374.35 368.897Z" fill="#0F0D00"/>
<path d="M274.018 250.994C231.982 257.706 209.5 323.538 214.4 368.898H217.258C213.275 323.538 233.816 261.425 274.018 254.254V250.994Z" fill="#0F0D00"/>
<g filter="url(#filter0_d_403_409)">
<path d="M346.831 368.884C340.167 307.462 299.914 281.349 273.429 283.789" stroke="#322B01" stroke-width="0.917143"/>
</g>
<g filter="url(#filter1_d_403_409)">
<path d="M273.786 283.755C241.929 284.696 218.314 321.85 222.133 368.899" stroke="#322B01" stroke-width="0.917143"/>
</g>
<path d="M333.324 368.897H346.607C340.156 309.21 302.658 284.954 278.174 284.056V321.784C280.196 321.42 282.513 321.3 284.429 321.341C305.122 321.784 318.056 327.637 333.324 368.897Z" fill="#140B00"/>
<path d="M333.337 368.898L323.995 368.898C312.064 348.6 295.186 339.4 280.517 340.818V321.404C307.611 320.403 319.044 330.907 333.337 368.898Z" fill="#140600"/>
<path d="M323.995 368.897C313.865 351.532 298.716 340.77 283.568 340.663L283.568 368.897L323.995 368.897Z" fill="#140000"/>
<path d="M222.597 368.897L239.461 368.897C241.853 337.796 260.417 324.139 278.633 321.856V284.056C276.692 283.985 274.774 284.057 272.894 284.268C248.815 284.502 218.88 313.415 222.597 368.897Z" fill="#140B00"/>
<path d="M239.461 368.897H250.844C256.178 349.445 268.557 341.939 280.976 340.766V321.404C253.667 324.42 240.938 345.492 239.461 368.897Z" fill="#140600"/>
<path d="M284.027 340.662C268.229 340.559 255.422 351.046 250.856 368.897L284.027 368.897V340.662Z" fill="#140000"/>
<path d="M346.607 368.898C340.156 309.211 302.658 284.955 278.174 284.057V287.451C302.658 289.677 336.226 312.352 343.594 368.898H346.607Z" fill="#120A00"/>
<path d="M280.517 321.405C307.611 320.404 319.044 330.908 333.337 368.898H330.296C316.003 334.5 307.611 323.777 280.517 324.683V321.405Z" fill="#120500"/>
<path d="M323.995 368.898C313.865 351.533 298.716 340.771 283.568 340.663V343.478C296.092 343.478 311.114 353.363 320.785 368.898H323.995Z" fill="#120000"/>
<path d="M272.894 284.268C248.815 284.502 218.88 313.415 222.597 368.897H225.348C222.254 312.567 252.127 287.478 272.894 287.478C274.774 287.268 278.633 287.478 278.633 287.478V284.056C276.692 283.985 274.774 284.057 272.894 284.268Z" fill="#120A00"/>
<path d="M280.976 321.404C253.667 324.42 240.938 345.492 239.461 368.897H242.25C243.727 349.161 253.667 327.66 280.976 324.644V321.404Z" fill="#120500"/>
<path d="M284.027 340.662C268.229 340.559 255.422 351.046 250.856 368.897H253.898C259.113 352.094 269.504 344.051 284.027 343.445V340.662Z" fill="#120000"/>
<g filter="url(#filter2_d_403_409)">
<path d="M333.556 368.829C318.287 327.569 305.286 321.609 284.604 321.1C282.688 321.053 280.233 321.181 278.211 321.546" stroke="#321D01" stroke-width="0.917143"/>
<path d="M324.195 368.785C312.189 348.354 294.985 338.977 280.352 340.61" stroke="#320F01" stroke-width="0.917143"/>
</g>
<g filter="url(#filter3_d_403_409)">
<path d="M239.232 368.901C241.624 337.8 259.762 324.244 278.626 321.482" stroke="#321D01" stroke-width="0.917143"/>
<path d="M250.622 368.838C255.96 349.389 268.364 341.742 280.781 340.566" stroke="#320F01" stroke-width="0.917143"/>
</g>
<path d="M369.54 343.483H367.395L370.72 368.902L369.54 343.483Z" fill="#180C0C"/>
<path d="M353.891 312.761H351.746L355.071 343.364L353.891 312.761Z" fill="#180C0C"/>
<path d="M336.872 286.752H334.727L338.052 317.355L336.872 286.752Z" fill="#180C0C"/>
<path d="M321.682 268.73H319.537L322.861 294.149L321.682 268.73Z" fill="#180C0C"/>
<path d="M474.831 15.5664L462.756 44.9549C457.971 60.4228 442.699 278.564 439.287 367.982" stroke="#180C0C" stroke-width="1.83429"/>
<path d="M424.124 367.421C422.386 259.521 430.22 122.054 441.38 15.4585" stroke="#180C0C" stroke-width="1.83429"/>
<path d="M405.873 367.701L409.912 15.2373" stroke="#180C0C" stroke-width="1.83429"/>
<path d="M386.78 368.263L385.287 15.2373" stroke="#180C0C" stroke-width="1.83429"/>
<path d="M368.736 347.314L361.301 15.3628" stroke="#180C0C" stroke-width="1.83429"/>
<path d="M336.05 15.458L352.863 314.298" stroke="#180C0C" stroke-width="1.83429"/>
<path d="M300.652 15.458C319.418 102.292 329.015 194.948 335.72 286.785" stroke="#180C0C" stroke-width="1.83429"/>
<path d="M261.933 15.5342C264.905 24.8248 267.748 33.0544 272.574 44.6916L287.333 73.7119C292.858 87.4549 309.456 184.937 320.605 269.62" stroke="#180C0C" stroke-width="1.83429"/>
<path d="M748.716 331.208L748.716 293.255C730.627 318.902 717.619 346.245 709.132 368.898H730.482L748.716 331.208Z" fill="#180C0C"/>
<path d="M706.633 362.044C711.449 343.978 726.682 311.823 726.682 311.823L748.706 286.124L748.706 255.655C714.441 290.788 693.355 327.746 689.975 339.169C685.984 352.657 682.936 361.594 680.678 368.897H704.455C705.146 366.605 705.871 364.32 706.633 362.044Z" fill="#180C0C"/>
<path d="M703.335 295.909C712.146 279.324 738.908 251.232 738.908 251.232L748.706 243.894V217.171C718.558 239.164 697.615 260.79 692.883 269.147C669.329 310.748 672.149 304.756 661.896 358.281C659.353 361.802 657.333 365.335 655.646 368.898H674.043C683.427 345.47 688.818 319.575 703.335 295.909Z" fill="#180C0C"/>
<path d="M674.427 287.062C692.014 244.273 725.974 232.883 735.491 220.046C738.789 215.828 743.28 211.714 748.706 207.714V192.621C713.86 215.184 693.497 219.751 674.427 255.655C660.31 282.235 647.828 315.528 623.465 368.897L648.389 368.897C653.713 346.601 663.366 310.166 674.427 287.062Z" fill="#180C0C"/>
<path d="M673.407 247.472L657.468 271.162C650.51 296.067 639.418 323.791 618.17 368.898H599.166C609.181 343.356 621.102 315.134 630.744 298.679C642.073 256.54 660.152 220.279 673.407 208C698.744 184.528 717.069 174.857 748.706 158.485V181.361C710.487 206.877 680.116 224.058 673.407 247.472Z" fill="#180C0C"/>
<path d="M641.057 246.9C626.933 299.774 606.943 322.642 598.782 354.079L595.387 368.897H578.227L598.782 305.862L599.047 304.861C613.899 248.935 623.901 215.645 641.532 197.384C668.635 169.313 697.212 158.117 716.351 143.298L748.706 124.056V154.135C722.412 169.032 701.908 173.655 692.2 180.843C678.756 190.796 652.326 225.575 641.057 246.9Z" fill="#180C0C"/>
<path d="M610.839 242.547C612.656 224.881 633.595 199.02 637.516 192.797C656.343 162.918 709.636 143.729 748.706 120.798L748.706 96.1548L664.033 139.286C664.033 139.286 624.782 177.734 614.934 192.797C584.665 230.748 615.714 216.298 560.13 368.898H569.896C596.694 290.694 609.621 254.384 610.839 242.547Z" fill="#180C0C"/>
<path d="M585.689 202.958C587.911 192.427 625.668 134.598 672.604 116.536C693.309 108.569 734.4 78.7969 748.706 68.3198L748.706 90.5466C714.521 109.21 660.518 132.508 650.959 144.405C590.495 209.504 594.94 216.825 593.313 225.134C586.325 260.814 560.123 349.325 553.396 368.898H546.922C559.14 313.251 574.29 255.247 585.689 202.958Z" fill="#180C0C"/>
<path d="M575.769 225.575C569.639 260.29 547.059 331.076 541.819 368.898L534.3 368.898C547.013 303.583 560.977 218.389 587.267 164.006C615.968 121.792 710.801 83.7243 748.706 42.4419V62.7901C705.939 106.155 631.838 120.027 599.693 171.193C592.617 187.546 577.387 207.828 575.769 225.575Z" fill="#180C0C"/>
<path d="M543.858 262.291C567.375 107.188 588.533 160.512 737.203 15.2373H748.706V39.7878C699.541 78.795 630.109 110.605 587.845 155.905C558.553 188.95 539.889 321.31 530.919 368.898H527.25L535.096 315.594L543.858 262.291Z" fill="#180C0C"/>
<path d="M518.35 368.439L530.617 251.674C536.888 223.207 536.579 174.598 570.528 137.105C602.97 101.277 648.341 69.1809 687.87 28.2818C692.313 23.896 696.786 19.7134 701.313 15.2373H728.775C682.075 57.7866 642.001 92.2254 593.085 130.088C591.738 131.395 570.13 146.707 560.814 163.868C552.759 178.706 533.689 306.19 522.206 368.439H518.35Z" fill="#180C0C"/>
<path d="M563.468 132.795L594.894 106.362C619.253 88.0894 647.378 63.3965 692.627 15.2373H666.051L613.136 71.8583C556.14 123.238 538.944 130.805 531.377 164.281C523.811 197.756 531.377 164.281 518.129 236.856L508.325 368.898H513.722C524.957 233.296 528.146 200.737 563.468 132.795Z" fill="#180C0C"/>
<path d="M571.667 99.2841C610.508 64.3974 629.007 46.4677 649.364 20.7667L654.029 15.2373H627.18L609.035 37.1337C565.672 81.7562 537.49 110.564 528.832 131.576C514.718 165.826 510.742 187.897 506.281 229.114L493.515 368.089H500.882C510.054 249.538 520.372 170.471 524.047 166.3C528.856 148.007 531.903 138.047 542.047 124.277C552.909 112.627 559.353 107.207 571.667 99.2841Z" fill="#180C0C"/>
<path d="M551.389 88.0042C536.609 98.3831 525.642 102.381 519.946 125.162C508.758 158.39 486.192 368.135 486.192 368.135H480.956L495.794 226.018C502.37 167.421 508.146 138.67 513.566 121.623C522.505 80.0997 535.925 105.376 596.758 15.2373H615.883C582.208 62.2771 559.686 82.1777 551.389 88.0042Z" fill="#180C0C"/>
<path d="M482.806 230.052L470.445 367.509H474.008C474.008 367.509 490.91 190.457 492.925 179.646C502.629 92.5408 523.599 82.8102 530.882 78.1706C546.346 68.3207 565.723 40.5326 581.22 15.2466H567.104C551.361 40.1684 536.461 60.3653 512.199 84.5819C505.591 93.204 494.199 112.88 482.806 230.052Z" fill="#180C0C"/>
<path d="M505.819 70.0889C511.287 64.7807 515.472 61.2372 523.363 51.7313C532.735 38.3423 539.785 27.058 546.044 15.2373H536.718C527.285 33.2565 516.266 49.3339 500.351 69.6466C500.358 69.6252 490.881 82.0264 488.73 92.6489C478.982 143.717 476.102 172.965 471.65 227.345L460.91 368.781H463.967C463.967 368.781 480.882 145.775 493.06 92.6489C497.098 82.5103 499.895 76.7242 505.819 70.0889Z" fill="#180C0C"/>
<path d="M477.122 84.9077C481.194 68.7654 481.916 61.5861 487.363 54.8278C497.078 41.3656 504.087 29.6232 510.413 15.2373H502.066C483.025 57.3656 473.997 56.3351 471.87 84.9077C466.812 152.816 451.819 369.06 451.819 369.06H454.796C454.796 369.06 476.017 94.2031 477.122 84.9077Z" fill="#180C0C"/>
<path d="M26.9982 368.897C22.6902 364.294 20.0348 362.319 15.0328 359.471V350.045C25.6958 350.207 41.4632 365.801 40.324 368.897H26.9982Z" fill="#180C0C"/>
<path d="M43.7418 368.897L51.4886 368.897C32.8101 341.709 38.2256 344.314 15.0328 338.671L15.0328 347.961C15.0328 347.961 18.0443 347.202 21.6404 347.961C32.1215 350.172 36.8503 360.892 43.7418 368.897Z" fill="#180C0C"/>
<path d="M53.5392 368.896H60.6025C44.7979 347.894 46.5121 341.107 40.3798 337.106C26.5035 328.053 23.4116 327.815 15.0328 325.778L15.0328 334.847C15.7864 335.112 32.9564 339.588 39.2353 344.124C45.9928 349.005 41.6342 347.236 53.5392 368.896Z" fill="#180C0C"/>
<path d="M62.4253 368.897C49.2822 352.352 46.0071 332.804 33.8034 329.899C26.4252 323.943 18.6995 323.024 15.0328 321.953L15.0328 309.567C31.21 310.673 40.7586 321.804 45.7924 326.491C64.6429 344.046 55.9826 347.563 69.4886 368.897H62.4253Z" fill="#180C0C"/>
<path d="M15.0328 302.155L15.0328 292.866C70.9601 318.892 65.6147 326.71 83.3874 368.897H71.7671C71.7671 368.897 69.6547 364.031 66.0709 358.06C57.4126 323.999 31.9444 312.469 15.0328 302.155Z" fill="#180C0C"/>
<path d="M15.0328 289.297L15.0328 277.132C58.6737 299.857 66.926 299.359 75.4127 310.438C95.2355 336.316 96.2105 354.89 103.21 368.897L86.5773 368.897C84.026 361.228 84.8707 363.793 82.9317 358.06C81.5359 352.95 73.8178 333.439 73.8178 333.439C73.0904 332.096 73.2205 325.446 62.881 315.081C51.7532 303.926 49.3681 306.136 15.0328 289.297Z" fill="#180C0C"/>
<path d="M93.5803 328.847L101.862 361.58C101.862 361.58 101.733 362.431 104.805 368.897H118.248C110.025 326.157 104.546 318.006 94.3241 310.065C56.0455 280.329 58.5519 279.786 15.0328 261.555L15.0328 272.707C49.6352 291.928 84.3472 306.626 93.5803 328.847Z" fill="#180C0C"/>
<path d="M120.299 368.898H126.906L120.071 327.759C109.604 304.365 101.612 293.659 92.957 290.38L65.9376 270.991C50.4759 262.82 31.8055 249.121 15.0328 238.511L15.0328 257.611C30.5698 262.981 45.5761 272.064 61.7229 279.74C86.7314 291.629 89.4332 299.343 101.604 313.253C117.661 331.604 120.299 368.898 120.299 368.898Z" fill="#180C0C"/>
<path d="M78.2681 273.954C53.8614 268.877 36.9449 242.31 15.033 230.706V215.844C41.3072 232.364 61.3451 254.213 83.4849 266.202L108.451 283.82C116.635 288.09 121.021 300.434 128.501 324.884L136.476 368.897H128.501C128.501 368.897 128.26 328.836 114.603 308.738C104.25 293.504 101.615 288.686 78.2681 273.954Z" fill="#180C0C"/>
<path d="M109.831 281.498C134.563 301.087 137.19 336.243 139.908 368.898L154.322 368.897C151.295 332.522 145.237 294.92 119.698 270.961C80.8973 232.761 58.7178 215.782 15.0331 184.583L15.0331 208.103C35.5037 218.269 79.4446 257.43 109.831 281.498Z" fill="#180C0C"/>
<path d="M157.842 368.897L177.261 368.897C157.064 255.439 98.9304 212.729 15.0331 163.069L15.0331 177.166C47.8355 201.455 65.6991 210.432 93.5578 239.771C143.626 272.543 156.392 306.943 157.842 368.897Z" fill="#180C0C"/>
<path d="M181.818 368.897L199.818 368.897L197.736 357.677C196.953 352.277 196.298 347.017 194.805 341.89C165.55 241.411 121.849 192.116 15.0331 147.551L15.0331 155.947C94.0285 194.83 177.969 275.36 181.818 368.897Z" fill="#180C0C"/>
<path d="M204.074 368.898H214.408C213.991 360.95 213.711 355.898 214.157 345.674C199.864 253.598 168.706 222.146 144.321 204.31C85.9845 164.511 37.7026 135.624 15.033 121.702L15.033 140.518C28.5519 147.717 41.1179 154.755 52.8122 161.755C95.7308 183.047 136.674 191.596 174.921 271.142C191.585 301.86 202.471 335.61 204.074 368.898Z" fill="#180C0C"/>
<path d="M219.413 343.02V315.152C209.615 258.973 199.698 237.467 163.723 195.243C142.975 178.306 122.004 167.018 91.6912 148.245L15.0331 98.0908L15.0331 120.647L57.0724 139.505C57.0724 139.505 140.173 192.431 148.925 195.96C175.45 209.838 203.705 269.673 213.816 326.432C214.297 329.135 215.124 331.104 216 332.906L219.413 343.02Z" fill="#180C0C"/>
<path d="M227.321 311.189L226.633 291.938C188.418 152.974 166.525 193.854 15.0327 70.6963L15.0327 92.2067C34.9471 105.431 69.1705 127.689 91.9045 141.694C133.323 164.185 157.197 180.001 169.07 190.83C205.839 226.113 217.361 284.899 227.321 311.189Z" fill="#180C0C"/>
<path d="M237.257 295.986L236.182 277.584C214.905 210.031 198.58 179.992 184.771 170.737C144.528 143.767 101.576 109.117 58.7814 71.4408C44.7238 59.6368 30.7402 47.8384 15.0328 34.4795L15.0328 59.6937C41.4737 84.0542 77.6056 107.554 113.347 133.321C129.45 143.513 149.02 158.775 161.705 165.506C167.325 168.681 175.225 174.149 175.225 174.149C176.676 175.346 185.965 180.277 196.674 196.653C208.199 214.278 221.701 242.916 237.257 295.986Z" fill="#180C0C"/>
<path d="M191.642 162.654L155.649 142.178C123.858 122.079 88.0208 84.873 15.0328 24.3056L15.0328 15.2373L34.1166 15.2374L136.888 109.034C188.544 147.606 204.704 160.298 212.666 176.316C229.122 209.421 222.333 196.642 246.19 265.996L246.897 285.467L242.96 271.131C224.722 217.479 215.958 178.246 191.642 162.654Z" fill="#180C0C"/>
<path d="M179.58 133.129C137.972 101.392 118.045 84.9665 95.6221 60.9404L50.2601 15.2378L79.7678 15.2378L137.178 74.1014C184.102 115.189 214.583 141.7 224.956 161.967C241.865 195.003 245.732 217.294 256.44 257.354L257.784 278.994C247.522 242.042 241.626 219.794 232.606 196.205C226.295 178.346 222.431 168.657 211.178 155.725C199.385 144.962 192.513 140.063 179.58 133.129Z" fill="#180C0C"/>
<path d="M234.198 154.879C252.382 197.038 259.272 228.415 268.455 275.266L268.473 253.519C257.057 195.627 247.08 167.42 240.264 150.853C226.414 105.241 213.917 143.734 121.202 15.2373L99.4315 15.2373C154.146 87.3999 188.869 113.873 199.774 120.3C215.368 129.49 226.63 132.617 234.198 154.879Z" fill="#180C0C"/>
<path d="M280.832 256.467L280.501 274.471C276.698 248.766 270.937 226.333 265.645 206.979C248.743 120.853 227.034 112.787 219.388 108.729C194.13 95.3209 155.847 39.6541 140.122 15.2373L153.71 15.2373C183.712 57.0029 201.114 81.8573 238.543 113.663C245.845 121.746 259.751 140.482 280.832 256.467Z" fill="#180C0C"/>
<path d="M243.71 98.8805C237.819 94.0171 233.354 90.8122 224.699 81.9541C205.244 58.4774 194.414 41.6399 180.946 15.2378L190.977 15.2378C207.256 48.2794 221.891 68.5236 249.124 98.0121C249.115 97.9914 259.59 109.611 262.615 120.031C276.568 170.171 284.154 198.992 293.103 252.847L293.458 276.34C283.028 213.848 277.457 180.579 258.3 120.37C253.434 110.58 250.165 105.031 243.71 98.8805Z" fill="#180C0C"/>
<path d="M275.372 111.263C269.974 95.4919 266.829 88.5358 260.839 82.2253C243.443 61.8353 233.415 45.3435 220.817 15.2368L228.313 15.2368C261.771 86.2026 273.42 77.2206 278.778 110.996C290.49 163.342 302.354 221.695 307.138 257.234L306.667 281.742L303.928 257.203C295.459 195.21 277.998 120.799 275.372 111.263Z" fill="#180C0C"/>
<path d="M374.35 368.898L394.62 368.898C395.304 367.349 351.197 233.456 283.503 223.142C280.357 222.338 276.689 222.308 273.451 222.782V249.407C278 249.293 282.557 249.783 286.987 250.813C334.217 261.793 361.395 329.287 374.35 368.898Z" fill="#111400"/>
<path d="M421.77 368.897H397.372C382.018 313.597 355.532 253.397 300.277 224.637C295.443 221.658 290.024 221.576 285.047 220.648V201.79C366.058 201.79 400.539 306.953 421.77 368.897Z" fill="#0C1400"/>
<path d="M292.654 197.743C330.017 202.494 353.504 218.311 374.722 249.509C404.348 293.07 410.425 324.139 424.137 368.898H451.298C442.094 308.134 409.336 244.199 359.235 202.135C335.591 182.285 318.524 179.288 292.654 179.3V197.743Z" fill="#061400"/>
<path d="M365.026 174.401C338.879 161.136 327.772 157.036 297.972 157.606V175.529C313.042 176.559 329.032 179.037 349.396 190.697C397.238 218.09 415.527 261.851 439.222 311.782C447.089 328.359 452.251 364.53 453.618 368.897H478.009C466.581 311.782 442.303 263.444 418.954 228.471C403.129 204.768 388.608 186.365 365.026 174.401Z" fill="#001400"/>
<path d="M412.161 177.165C389.704 156.586 381.395 145.237 351.328 135.308C337.976 130.899 326.382 130.426 315.121 130.764V152.784C324.073 153.732 333.261 155.928 344.189 159.081C423.751 182.036 473.411 330.348 478.739 355.712C479.603 359.823 480.005 368.897 480.005 368.897H503.246C499.636 337.184 489.585 309.985 478.001 282.002C473.674 271.55 472.388 267.184 467.16 257.132C448.64 221.524 443.356 205.752 412.161 177.165Z" fill="#001405"/>
<path d="M424.309 183.349C405.859 162.729 401.493 156.779 371.212 140.833C354.305 131.929 335.971 128.417 318.999 127.917V108.306C337.086 107.897 355.756 110.094 369.17 117.665C417.926 145.183 447.715 186.559 478.588 232.102C509.721 278.027 525.536 336.502 525.536 368.897L505.419 368.897C501.609 329.12 497.216 326.049 488.167 296.628C479.118 267.206 472.856 260.736 461.28 238.609C449.685 216.445 440.987 201.99 424.309 183.349Z" fill="#00140B"/>
<path d="M528.368 368.897L552.94 368.897C552.94 298.129 521.047 248.785 474.655 189.514C430.282 132.823 375.002 79.6185 325.692 81.4067V106.097C339.118 106.691 354.342 107.466 368.839 113.696C396.851 125.735 516.902 219.545 528.368 368.897Z" fill="#001411"/>
<path d="M490.619 202.716C424.087 120.178 376.12 87.8689 366.233 84.2257C356.347 80.5825 344.361 78.399 334.624 78.5076V59.7812C343.713 59.3554 353.728 60.3982 364.509 63.0441C398.92 71.4897 449.608 112.98 493.829 166.465C538.049 219.949 574.884 280.216 581.782 368.897L557.688 368.897C557.688 301.852 517.601 241.252 490.619 202.716Z" fill="#001214"/>
<path d="M431.065 69.72C452.776 87.8116 479.318 105.145 511.365 143.509C547.797 187.121 594.436 271.587 602.301 317.234C604.743 331.406 606.835 368.897 606.835 368.897H586.314C580.793 340.764 581.151 311.972 570.623 285.554C558.524 255.195 537.389 219.218 520.937 194.822C504.486 170.426 431.065 80.6126 364.344 59.6846C360.514 58.4834 349.784 58.0011 346.088 57.5431V36.527C372.731 33.6659 409.355 51.6284 431.065 69.72Z" fill="#000C14"/>
<path d="M606.209 319.381C607.823 326.047 610.123 351.257 610.938 368.897L637.49 368.897C635.073 329.198 629.021 286.814 610.938 250.493C567.461 163.167 477.223 61.6272 403.3 26.7982C396.162 21.3756 364.023 15.2412 338.747 15.2412V32.2915C369.391 32.2915 413.269 48.819 430.769 64.9749C512.631 124.978 581.678 218.033 606.209 319.381Z" fill="#000614"/>
<path d="M438.362 15.2378H372.765C456.358 32.2784 529.145 113.106 596.683 214.953C629.978 265.162 640.751 337.463 642.289 368.898H665.699C642.289 168.56 513.222 58.5779 438.362 15.2378Z" fill="#000114"/>
<path d="M482.52 15.2378L442.28 15.2378C518.074 57.213 590.997 134.633 632.934 227.747C645.935 248.702 665.218 330.102 669.534 368.898H691.559C680.907 309.487 667.066 218.045 632.475 172.097C587.611 112.503 540.823 61.6894 482.52 15.2378Z" fill="#050014"/>
<path d="M633.009 121.679C589.256 64.7576 566.943 57.2134 526.34 15.2378L485.979 15.2378C485.979 15.2378 540.537 55.5049 575.887 95.2094C611.236 134.914 639.942 173.82 653.807 201.088C672.714 238.272 691.466 349.821 694.142 368.884H713.049C704.225 302.133 693.3 200.115 633.009 121.679Z" fill="#0B0014"/>
<path d="M736.224 368.898C702.565 131.01 672.124 114.406 561.019 15.2378L528.273 15.2378C568.954 51.7235 609.536 78.9429 639.255 120.475C698.837 203.74 703.967 283.087 716.315 368.898H736.224Z" fill="#100014"/>
<path d="M564.904 15.2656H593.06C672.997 47.9889 737.922 202.143 748.706 254.208V368.909H738.839C727.308 221.184 692.339 150.086 675.29 128.113C643.948 87.7193 639.441 77.267 564.904 15.2656Z" fill="#140012"/>
<path d="M639.636 15.2378C683.72 40.4986 737.388 112.407 748.705 153.878V242.988C720.32 144.942 674.427 53.3806 599.471 15.2378H639.636Z" fill="#14000C"/>
<path d="M748.716 149.39V73.5902C740.529 61.8924 731.255 45.5732 694.553 15.2651H643.812C657.826 19.3744 742.37 93.8914 748.716 149.39Z" fill="#140007"/>
<path d="M748.716 27.3808C743.028 19.9537 742.68 19.5372 736.393 15.2007H694.631C703.175 19.9704 727.554 36.6715 748.716 66.5252C748.716 54.0002 748.716 27.3808 748.716 27.3808Z" fill="#140001"/>
<path d="M200.555 368.898H211.453C208.076 323.431 231.274 249.407 273.909 249.407V222.686C236.245 229.652 196.299 307.55 200.555 368.898Z" fill="#111400"/>
<path d="M187.511 368.897H198.01C197.822 345.241 200.435 330.999 204.414 314.203C210.822 287.153 218.192 272.511 236.236 248.02C249.091 230.572 266.811 217.16 285.505 220.648V201.79C240.911 207.219 208.738 256.453 193.432 315.064C189.769 332.428 186.971 350.478 187.511 368.897Z" fill="#0C1400"/>
<path d="M175.19 368.898H185.037C186.598 325.169 191.278 321.884 196.111 297.361C199.833 278.47 236.08 197.917 293.112 197.743V179.3C283.205 179.305 272.38 181.823 264.828 185.57C240.295 197.743 214.627 228.596 196.877 266.493C179.667 303.237 176.107 334.147 175.19 368.898Z" fill="#061400"/>
<path d="M298.43 157.606C253.061 158.475 204 219.144 196.568 232.199C173.89 272.038 162.425 314.202 162.425 368.897L172.479 368.897C174.327 310.758 187.044 277.923 207.796 241.143C224.859 210.9 260.355 172.928 298.43 175.529V157.606Z" fill="#001400"/>
<path d="M148.979 368.898L160.383 368.898C161.31 292.255 183.332 217.174 249.766 174.411C270.09 161.329 290.417 150.122 315.58 152.785V130.747C283.101 130.747 236.27 160.814 204.967 195.365C173.22 238.197 155.356 284.412 151.154 335.623C150.233 346.847 148.861 356.881 148.979 368.898Z" fill="#001405"/>
<path d="M134.043 368.882L146.02 368.898C148.929 286.72 174.653 237.423 192.089 208.942C199.509 196.821 213.019 183.689 226.649 170.903C249.727 149.253 286.294 126.05 319.458 127.924V108.269C301.793 110.661 287.363 116.174 275.665 121.67C246.939 135.168 191.172 170.903 160.338 237.423C147.707 271.629 141.318 257.942 134.043 368.882Z" fill="#00140B"/>
<path d="M164.396 223.545C188.945 176.288 225.802 145.089 263.51 123.973C284.137 115.821 301.396 105.002 326.151 106.097V81.375C304.33 82.6444 282.539 94.4419 253.69 111.846C237.943 121.346 219.34 136.598 209.508 147.443C151.729 211.173 133.483 227.793 125.205 293.033C121.383 318.226 119.494 343.398 119.371 368.897L130.293 368.897L136.693 307.465C145.26 255.078 148.692 253.774 164.396 223.545Z" fill="#001411"/>
<path d="M216.57 137.406C185.137 169.46 148.396 209.394 143.747 224.847C139.483 232.976 131.695 244.116 129.13 255.213C129.13 255.213 113.943 331.74 117.747 368.897H104.987C105.861 338.637 104.709 321.985 108.065 290.425C111.88 254.544 117.325 242.694 126.805 222.101C136.284 201.508 175.472 163.153 200.507 137.406C228.301 108.82 251.313 92.3635 288.171 71.0552C304.975 61.3404 319.385 60.4604 335.082 59.7251V78.5003C306.669 78.8172 283.143 92.7235 253.69 109.081C240.022 116.671 227.41 126.351 216.57 137.406Z" fill="#001214"/>
<path d="M189.666 143.95C208.677 126.108 220.825 114.026 243.276 96.255C281.377 66.0947 305.977 55.5394 346.546 57.5431V36.527C319.766 36.527 309.153 34.9181 264.682 62.7963C243.54 76.0499 198.343 116.954 177.567 137.645C154.029 161.085 110.367 204.308 102.244 233.738C88.7471 276.615 88.856 324.322 86.7131 368.897L102.702 368.897C103.519 332.11 101.7 311.328 107.157 274.04C115.414 231.809 125.503 217.827 142.449 195.299L189.666 143.95Z" fill="#000C14"/>
<path d="M191.897 120.35C218.161 94.6579 237.739 80.5158 265.543 58.2642C291.842 37.2173 310.064 31.8411 339.205 32.2914V15.2368L296.545 15.2368C271.502 20.9974 208.395 87.4596 179.036 113.467C179.036 113.467 111.504 177.35 98.4391 199.579C86.9601 219.109 81.7789 232.851 78.9605 251.885C72.1365 297.972 73.0786 327.062 72.1365 368.897H84.6596C84.6596 368.897 85.0374 301.326 93.5457 259.194C97.0197 241.992 98.4391 230.76 106.849 215.625C117.774 190.615 165.634 146.042 191.897 120.35Z" fill="#000614"/>
<path d="M55.5093 283.966C57.8945 264.384 57.0131 253.607 62.4662 234.36C72.1594 200.147 125.677 141.857 139.313 129.576C174.609 97.7881 213.343 60.5116 256.851 15.2373H289.231C264.43 27.908 165.933 118.383 108.397 181.976C70.9419 223.375 72.5978 285.714 70.9419 324.22L69.6351 368.898H52.2995C52.2995 368.898 51.5078 316.819 55.5093 283.966Z" fill="#000114"/>
<path d="M154.582 110.976L253.863 15.2378L219.712 15.2378C147.783 96.9034 111.67 123.488 66.2907 179.194C41.9825 209.034 36.9673 244.502 32.4737 281.608L31.6054 368.898H49.3546C49.3546 368.898 48.9383 315.635 51.1803 281.608C57.0717 192.198 102.469 163.579 154.582 110.976Z" fill="#050014"/>
<path d="M138.616 65.1753C158.83 42.9906 171.614 33.7629 185.329 15.2378L216.53 15.2378C185.679 51.5542 157.871 79.2161 121.508 113.614C121.508 113.614 69.8048 164.51 52.1913 196.076C39.25 219.268 39.4295 226.658 30.6739 283.524C25.8029 315.16 30.0593 341.251 30.2412 368.898H15.0361V252.877C22.3443 219.887 24.8167 209.929 42.9972 181.588C66.0005 145.729 109.395 97.2452 138.616 65.1753Z" fill="#0B0014"/>
<path d="M27.446 162.579C22.6648 168.894 15.0329 183.438 15.0329 183.438L15.0328 243.743C15.0212 231.023 15.027 266.1 15.0328 243.743C19.0055 209.349 42.7027 174.992 42.7027 174.992C42.7027 174.992 97.8891 98.4131 132.487 67.5219C156.738 40.0795 165.001 36.572 183.068 15.2379L153.121 15.2378C132.487 37.8785 125.357 49.7402 108.261 68.7624C91.1654 87.7845 54.233 127.195 27.446 162.579Z" fill="#100014"/>
<path d="M15.0329 144.165C15.0329 144.165 35.2148 121.3 53.0753 99.3999C81.567 64.4647 102.713 39.3812 117.408 15.2373H148.221C148.221 15.2373 113.941 60.4622 57.3409 121.12C44.6408 134.731 33.5983 144.165 15.0329 179.554L15.0329 144.165Z" fill="#140012"/>
<path d="M114.866 15.2374C84.3251 58.4412 51.2259 98.1213 15.0328 141.781L15.0328 108.965C41.1341 81.8134 61.0435 45.4677 83.8986 15.2373L114.866 15.2374Z" fill="#14000C"/>
<path d="M81.6663 15.2373L50.9182 15.2375C34.3128 44.131 35.995 44.0725 15.0331 68.1113L15.0331 105.584C41.4331 75.8978 58.8419 45.0901 81.6663 15.2373Z" fill="#140007"/>
<path d="M48.4405 15.2363L26.1402 15.2366L15.033 31.5231L15.033 65.0746C28.9303 47.2236 31.0059 39.3556 48.4405 15.2363Z" fill="#140001"/>
<path d="M394.62 368.897C395.304 367.349 351.197 233.456 283.503 223.142C280.357 222.338 276.689 222.299 273.451 222.773V226.283C322.735 221.182 373.074 309.352 391.148 368.897H394.62Z" fill="#0D0F00"/>
<path d="M421.77 368.897C400.539 306.953 366.058 201.79 285.047 201.79V204.986C361.93 205.444 397.111 306.953 418.341 368.897H421.77Z" fill="#090F00"/>
<path d="M292.653 179.3C318.524 179.288 335.591 182.285 359.235 202.135C409.336 244.199 442.094 308.134 451.298 368.898H447.801C438.597 309.127 404.947 244.247 354.788 203.253C333.595 185.932 315.307 182.297 292.653 182.297V179.3Z" fill="#050F00"/>
<path d="M365.026 174.401C338.878 161.136 327.772 157.036 297.972 157.606L297.977 160.755C316.357 160.272 336.468 163.205 362.733 177.152C383.187 188.014 399.002 204.768 414.826 228.471C438.176 263.444 462.454 311.782 474.799 368.897H478.009C466.581 311.782 442.303 263.444 418.954 228.471C403.129 204.768 388.608 186.365 365.026 174.401Z" fill="#010F00"/>
<path d="M412.161 177.165C389.704 156.586 381.395 145.237 351.328 135.308C337.975 130.899 326.382 130.426 315.121 130.764V134.06C322.22 133.775 333.761 133.968 347.204 138.038C377.796 147.299 381.668 154.751 404.126 174.872C435.639 203.108 444.054 220.148 462.574 255.756C467.802 265.808 469.089 270.633 473.415 281.085C484.999 309.068 496.426 337.184 500.036 368.897H503.246C499.636 337.184 489.584 309.985 478.001 282.002C473.674 271.55 472.388 267.184 467.159 257.132C448.639 221.524 443.356 205.752 412.161 177.165Z" fill="#000F04"/>
<path d="M478.588 232.102C509.721 278.028 525.536 336.502 525.536 368.898H522.299C522.299 336.502 505.586 276.681 473.829 231.185L473.655 230.936C441.943 185.506 416.002 148.343 367.335 120.875C353.922 113.305 336.628 111.427 318.999 111.427V108.302C337.086 107.892 355.756 110.095 369.169 117.665C417.926 145.184 447.715 186.559 478.588 232.102Z" fill="#000F08"/>
<path d="M552.94 368.897C552.94 298.13 521.047 248.785 474.655 189.514C430.282 132.823 375.002 79.5926 325.692 81.3807V84.5106C371.522 83.1349 423.404 130.989 468.235 187.68C514.923 246.718 549.722 298.13 549.722 368.897H552.94Z" fill="#000F0D"/>
<path d="M364.508 63.0441C398.92 71.4897 449.608 112.98 493.829 166.465C538.049 219.949 574.884 280.216 581.782 368.897H578.423C571.525 280.216 532.833 219.49 488.613 166.006C444.392 112.522 395.376 74.5471 362.34 66.1015C351.585 63.352 343.713 62.7088 334.624 62.676L334.624 59.7811C343.713 59.3554 353.728 60.3982 364.508 63.0441Z" fill="#000D0F"/>
<path d="M431.065 69.72C452.776 87.8116 479.317 105.145 511.365 143.509C547.796 187.121 594.436 271.587 602.301 317.234C604.743 331.406 606.835 368.897 606.835 368.897H603.604C603.604 368.897 601.552 331.356 598.835 317.234C590.053 271.587 543.869 186.622 507.238 144.426C474.532 106.752 448.649 89.1873 426.938 71.0957C405.227 53.0042 369.789 37.6492 346.088 39.3357V36.527C372.731 33.6659 409.355 51.6284 431.065 69.72Z" fill="#00090F"/>
<path d="M637.49 368.897C635.073 329.198 629.021 286.814 610.938 250.493C567.461 163.167 477.223 61.6272 403.3 26.7982C396.162 21.3756 364.023 15.2412 338.747 15.2412V17.9691C363.646 19.0436 393.869 24.127 401.007 29.5496C474.93 65.7543 562.629 163.101 607.023 250.427C625.41 286.595 631.568 329.198 633.985 368.897H637.49Z" fill="#00050F"/>
<path d="M665.699 368.898C642.289 168.56 513.222 58.5779 438.362 15.2378H430.108C521.82 64.4301 640.452 184.081 662.164 368.898H665.699Z" fill="#00090F"/>
<path d="M691.559 368.898C680.907 309.488 667.066 218.045 632.475 172.097C587.611 112.503 540.823 61.6894 482.52 15.2378H476.558C535.32 61.6894 582.806 113.149 627.725 171.639C662.846 217.37 677.265 309.399 687.66 368.898H691.559Z" fill="#04000F"/>
<path d="M526.34 15.2378C566.943 57.2133 589.256 64.7575 633.009 121.679C693.3 200.115 704.226 302.133 713.049 368.884H709.076C699.755 294.901 688.456 200.115 628.165 121.679C584.412 64.7575 560.747 57.2133 521.061 15.2378H526.34Z" fill="#08000F"/>
<path d="M736.224 368.898C702.565 131.01 672.124 114.406 561.019 15.2378H554.599C667.08 113.488 699.484 135.49 732.096 368.898H736.224Z" fill="#0C000F"/>
<path d="M593.06 15.2656C672.997 47.9889 737.922 202.143 748.706 254.208V270.616C735.191 201.258 667.43 47.1538 584.806 15.2656H593.06Z" fill="#0F000E"/>
<path d="M639.636 15.2378C683.72 40.4986 737.388 112.407 748.705 153.878V165.849C737.237 116.805 677.148 39.5814 632.605 15.2378H639.636Z" fill="#0F0009"/>
<path d="M748.716 73.5902C740.529 61.8924 731.255 45.5732 694.553 15.2651H687.685C728.42 48.5523 739.629 67.3929 748.716 80.2405L748.716 73.5902Z" fill="#0F0005"/>
<path d="M736.393 15.2007C742.68 19.5372 743.028 19.9537 748.716 27.3808V33.9601C743.028 26.5329 736.26 19.5372 729.973 15.2007H736.393Z" fill="#0F0001"/>
<path d="M273.909 222.686C236.245 229.652 196.299 307.55 200.555 368.898H203.501C199.244 307.55 239.455 231.78 273.909 226.189V222.686Z" fill="#0D0F00"/>
<path d="M187.511 368.898C186.971 350.478 189.769 332.429 193.432 315.065C208.738 256.454 240.911 207.219 285.505 201.79V204.921C242.286 211.267 212.158 256.454 196.393 315.065C192.73 332.429 189.891 350.478 190.431 368.898H187.511Z" fill="#090F00"/>
<path d="M196.877 266.035C214.627 228.138 240.295 197.285 264.828 185.112C272.38 181.364 283.205 179.305 293.112 179.301L293.381 182.287C283.474 182.292 274.728 183.772 267.121 187.405C242.588 199.12 217.582 229.055 199.832 266.952C182.622 303.696 179.059 334.147 178.142 368.898H175.19C176.107 334.147 179.667 302.779 196.877 266.035Z" fill="#050F00"/>
<path d="M298.43 157.607C253.061 158.475 204 219.145 196.568 232.2C173.89 272.038 162.425 314.203 162.425 368.898H165.439C165.439 314.203 176.54 271.269 199.778 233.117C209.588 216.35 256.073 161.609 298.43 160.751V157.607Z" fill="#010F00"/>
<path d="M151.154 335.624C155.356 284.413 173.22 238.198 204.967 195.365C236.27 160.814 282.247 130.705 315.58 130.75V134.044C286.916 134.044 241.304 161.411 208.636 195.365C176.888 238.198 158.314 284.413 154.113 335.624C153.192 346.848 151.794 356.881 151.911 368.899H148.979C148.861 356.881 150.233 346.848 151.154 335.624Z" fill="#000F04"/>
<path d="M160.338 237.423C147.707 271.629 141.318 257.942 134.043 368.882H136.795C144.069 257.942 151.111 271.629 163.743 237.423C194.576 170.903 250.136 137.067 278.862 123.569C290.559 118.072 310.969 111.41 319.458 111.41V108.269C307.957 108.269 287.363 116.174 275.665 121.67C246.939 135.168 191.172 170.903 160.338 237.423Z" fill="#000F08"/>
<path d="M209.508 147.443C151.729 211.173 133.483 227.793 125.205 293.033C121.383 318.226 119.494 343.398 119.371 368.897H122.123C122.246 343.398 124.473 318.685 128.295 293.491C136.574 228.252 154.481 212.549 212.26 148.819C222.092 137.973 240.695 123.18 256.441 113.681C285.291 96.2762 310.314 84.4937 326.151 84.4937V81.3696C304.761 82.1489 282.539 94.4419 253.69 111.846C237.943 121.346 219.34 136.598 209.508 147.443Z" fill="#000F0D"/>
<path d="M200.507 137.407C228.301 108.821 251.313 92.364 288.171 71.0557C304.975 61.3409 319.385 60.4609 335.082 59.7256V62.6555C321.94 63.5938 308.734 63.7918 291.839 72.4314C255.972 92.7205 230.115 111.162 203.258 138.782C178.224 164.529 139.494 201.967 130.015 222.56C120.535 243.153 114.631 254.544 110.816 290.425C107.461 321.985 108.612 338.638 107.738 368.898H104.987C105.861 338.638 104.709 321.985 108.065 290.425C111.88 254.544 117.325 242.695 126.805 222.102C136.284 201.508 175.472 163.154 200.507 137.407Z" fill="#000D0F"/>
<path d="M177.567 137.645C154.029 161.085 110.367 204.308 102.244 233.738C88.7471 276.615 88.856 324.322 86.7131 368.897H89.4645C91.6075 324.322 91.4986 276.615 104.995 233.738C114.036 204.308 156.322 162.919 179.86 139.479C200.636 118.788 245.375 78.1171 266.517 64.8635C310.987 36.9853 319.766 39.3098 346.546 39.3098V36.527C319.766 36.527 309.153 34.9181 264.682 62.7963C243.54 76.0499 198.343 116.954 177.567 137.645Z" fill="#00090F"/>
<path d="M98.4391 199.579C86.9601 219.109 81.7789 232.851 78.9605 251.885C72.1365 297.972 73.0786 327.062 72.1365 368.897H75.1008C76.0428 327.062 74.8879 297.972 81.7119 251.885C84.5303 232.851 89.4161 220.308 101.19 200.954C114.714 178.726 181.788 114.843 181.788 114.843C209.771 88.8353 277.744 20.8307 296.545 18.4816C315.346 16.1324 339.789 18.023 339.789 18.023V15.2368H296.545C271.502 20.9974 208.395 87.4596 179.036 113.467C179.036 113.467 111.504 177.35 98.4391 199.579Z" fill="#00050F"/>
<path d="M55.0507 283.966C57.4359 264.384 57.0131 253.607 62.4662 234.36C72.1594 200.147 125.677 141.857 139.313 129.576C174.609 97.7881 213.343 60.5116 256.851 15.2373H260.519C217.011 60.5116 176.902 99.6224 141.606 131.41C127.97 143.691 75.3694 200.147 65.6762 234.36C60.2231 253.607 60.2896 264.384 57.9043 283.966C53.9028 316.819 55.0509 368.898 55.0509 368.898H52.2995C52.2995 368.898 51.0492 316.819 55.0507 283.966Z" fill="#00010F"/>
<path d="M32.4737 281.608L31.6054 368.898H34.2879L35.6636 281.608C40.8391 231.205 53.4472 198.105 68.9101 181.677C98.8213 141.22 164.393 83.7457 224.065 15.2378H219.712C147.783 96.9034 111.67 123.488 66.2907 179.194C41.9825 209.034 36.9673 244.502 32.4737 281.608Z" fill="#04000F"/>
<path d="M138.616 65.1752C158.831 42.9905 171.614 33.7628 185.329 15.2378H189.449C189.449 17.0625 183.721 23.9308 173.484 34.6924C146.129 61.5935 86.227 123.629 44.9232 183.881C32.4608 206.096 21.9982 221.241 15.0361 275.665V252.877C22.3443 219.887 24.8167 209.929 42.9972 181.588C66.0005 145.729 109.395 97.2452 138.616 65.1752Z" fill="#08000F"/>
<path d="M15.0329 183.438C15.0329 183.438 22.6648 168.894 27.446 162.579C54.233 127.195 91.1654 87.7845 108.261 68.7624C125.357 49.7402 132.487 37.8785 153.121 15.2378H156.726L112.608 68.7624C77.5319 108.378 25.2639 162.308 15.0329 191.136V183.438Z" fill="#0C000F"/>
<path d="M15.0328 144.165C15.0328 144.165 35.2147 121.3 53.0752 99.3999C81.5669 64.4647 102.712 39.3812 117.408 15.2373H121.226C100.941 48.6111 58.9771 97.809 15.0328 149.974V144.165Z" fill="#0F000E"/>
<path d="M83.8985 15.2373C61.0434 45.4677 41.134 81.8134 15.0327 108.965V114.441C46.7665 79.578 68.2475 41.6373 87.9524 15.2373H83.8985Z" fill="#0F0009"/>
<path d="M50.9181 15.2373C34.3127 44.1309 35.9949 44.0723 15.0331 68.1112V72.8883C31.7387 55.147 41.2902 40.5129 54.0065 15.2373H50.9181Z" fill="#0F0005"/>
<path d="M26.1401 15.2368L15.0329 31.5232V37.6874L30.3417 15.2368H26.1401Z" fill="#0F0001"/>
<g filter="url(#filter4_d_403_409)">
<path d="M374.567 368.829C361.612 329.218 334.412 261.749 287.234 250.636C282.807 249.594 278.156 249.069 273.607 249.183" stroke="#2B3201" stroke-width="0.917143"/>
<path d="M397.591 368.838C382.237 313.538 355.652 253.198 300.397 224.439C295.563 221.46 290.06 221.351 285.082 220.422" stroke="#1E3201" stroke-width="0.917143"/>
<path d="M292.728 197.521C330.091 202.272 353.706 218.212 374.924 249.411C404.55 292.971 410.644 324.071 424.355 368.829" stroke="#103201" stroke-width="0.917143"/>
<path d="M453.836 368.829C452.468 364.462 447.298 328.275 439.432 311.698C415.736 261.766 397.449 218.017 349.606 190.552C329.255 178.868 313.056 176.331 297.986 175.302" stroke="#023201" stroke-width="0.917143"/>
<path d="M480.234 368.887C480.234 368.887 479.832 359.812 478.968 355.701C473.64 330.337 423.624 182.109 344.446 158.917C333.531 155.72 324.095 153.503 315.143 152.556" stroke="#01320E" stroke-width="0.917143"/>
<path d="M505.645 368.874C501.836 329.097 497.444 326.021 488.395 296.6C479.346 267.178 473.095 260.7 461.519 238.572C449.924 216.408 441.224 201.922 424.545 183.281C406.096 162.661 401.735 156.65 371.454 140.704C354.547 131.801 335.975 128.194 319.003 127.693" stroke="#01321C" stroke-width="0.917143"/>
<path d="M528.597 368.884C517.132 219.532 397.018 125.836 369.129 113.571C354.629 107.351 339.123 106.463 325.697 105.87" stroke="#01322A" stroke-width="0.917143"/>
<path d="M557.919 368.898C557.919 301.853 517.817 241.17 490.835 202.634C424.303 120.096 376.306 87.8528 366.482 84.0715C356.658 80.2902 344.572 78.1688 334.836 78.2774" stroke="#012C32" stroke-width="0.917143"/>
<path d="M586.536 368.853C581.015 340.72 581.378 311.925 570.85 285.506C558.752 255.147 537.625 219.157 521.173 194.761C504.722 170.365 431.021 81.26 364.563 59.5088C360.73 58.2544 349.809 57.7725 346.113 57.3145" stroke="#011E32" stroke-width="0.917143"/>
<path d="M611.167 368.887C610.353 351.247 608.053 326.024 606.439 319.358C581.907 218.01 512.775 124.8 430.913 64.7968C413.413 48.6409 369.565 32.1522 338.921 32.0762" stroke="#011132" stroke-width="0.917143"/>
<path d="M374.937 15.4609C457.634 33.596 529.395 113.068 596.933 214.916C630.228 265.125 640.98 337.453 642.519 368.887" stroke="#010332" stroke-width="0.917143"/>
<path d="M443.11 15.438C518.535 57.4835 591.198 134.522 633.135 227.637C646.136 248.591 665.442 330.078 669.758 368.874" stroke="#0D0132" stroke-width="0.917143"/>
<path d="M486.609 15.4199C486.609 15.4199 540.723 55.43 576.122 95.1289C611.521 134.828 640.178 173.78 654.044 201.048C672.95 238.232 691.694 349.789 694.369 368.853" stroke="#1B0132" stroke-width="0.917143"/>
<path d="M528.78 15.3921C569.461 51.8778 609.776 78.8833 639.495 120.415C699.077 203.68 704.193 283.056 716.542 368.867" stroke="#290132" stroke-width="0.917143"/>
<path d="M565.482 15.4468C639.992 77.5254 644.201 87.6696 675.543 128.063C692.593 150.036 727.539 221.173 739.07 368.897" stroke="#32012D" stroke-width="0.917143"/>
<path d="M600.356 15.438C674.789 54.1852 719.796 143.438 748.486 241.406" stroke="#32011F" stroke-width="0.917143"/>
<path d="M645.025 15.4766C672.225 29.9239 741.628 100.365 748.487 146.124" stroke="#320111" stroke-width="0.917143"/>
<path d="M695.436 15.3965C703.672 20.0967 727.549 36.5266 748.53 65.8749" stroke="#320103" stroke-width="0.917143"/>
</g>
<g filter="url(#filter5_d_403_409)">
<path d="M211.225 368.881C207.884 323.26 231.061 249.173 273.911 249.178" stroke="#2B3201" stroke-width="0.917143"/>
<path d="M197.781 368.899C197.593 345.243 200.199 330.998 204.178 314.202C210.586 287.152 217.93 272.482 235.974 247.992C248.828 230.544 266.834 217.013 285.529 220.501" stroke="#1E3201" stroke-width="0.917143"/>
<path d="M184.807 368.895C186.368 325.166 191.049 321.888 195.881 297.365C199.604 278.474 236.083 197.689 293.116 197.515" stroke="#103201" stroke-width="0.917143"/>
<path d="M172.249 368.889C174.097 310.75 186.798 277.899 207.55 241.118C224.613 210.876 260.368 172.705 298.443 175.306" stroke="#023201" stroke-width="0.917143"/>
<path d="M160.155 368.895C161.081 292.253 183.277 216.948 249.49 174.328C269.813 161.247 290.442 149.899 315.605 152.562" stroke="#01320E" stroke-width="0.917143"/>
<path d="M145.791 368.889C148.7 286.711 174.399 237.407 191.835 208.925C199.255 196.805 212.72 183.648 226.35 170.862C249.428 149.212 286.315 125.827 319.478 127.701" stroke="#01321C" stroke-width="0.917143"/>
<path d="M130.062 368.875L136.466 307.432C145.033 255.045 148.461 253.738 164.164 223.51C188.713 176.252 225.702 144.882 263.41 123.766C284.037 115.615 301.409 104.773 326.164 105.868" stroke="#01322A" stroke-width="0.917143"/>
<path d="M117.513 368.875C113.71 331.718 128.909 255.164 128.909 255.164C131.474 244.067 139.275 232.887 143.54 224.759C148.189 209.305 184.872 169.402 216.305 137.348C227.146 126.293 239.795 116.543 253.431 108.962C282.77 92.6495 306.668 78.5903 335.082 78.2734" stroke="#012C32" stroke-width="0.917143"/>
<path d="M102.475 368.896C103.292 332.108 101.475 311.305 106.932 274.017C115.188 231.786 125.309 217.702 142.256 195.174L189.439 143.949C208.449 126.106 220.55 113.955 243 96.1841C281.101 66.0238 305.802 55.3202 346.319 57.3043" stroke="#011E32" stroke-width="0.917143"/>
<path d="M84.439 368.897C84.439 368.897 84.8121 301.295 93.3204 259.164C96.7944 241.961 98.1806 230.78 106.591 215.646C117.515 190.635 165.373 145.995 191.636 120.303C217.9 94.6105 237.481 80.4333 265.285 58.1817C291.584 37.1348 310.085 31.6122 339.227 32.0626" stroke="#011132" stroke-width="0.917143"/>
<path d="M288.393 15.4272C259.118 32.0575 165.802 118.652 108.008 182.062C70.831 223.454 72.3985 285.764 70.7121 324.249L69.4051 368.899" stroke="#010332" stroke-width="0.917143"/>
<path d="M253.363 15.4004L154.083 111.139C102.212 163.557 56.7676 192.36 50.9353 281.775C48.7155 315.807 49.1288 368.899 49.1288 368.899" stroke="#0D0132" stroke-width="0.917143"/>
<path d="M216.101 15.3872C185.283 51.688 157.437 79.2956 121.114 113.679C121.114 113.679 69.497 164.569 51.9025 196.121C38.9751 219.303 39.1914 226.717 30.4452 283.558C25.5794 315.181 29.8312 341.261 30.0129 368.896" stroke="#1B0132" stroke-width="0.917143"/>
<path d="M15.265 240.273C20.6094 206.68 42.3415 175.11 42.3415 175.11C42.3415 175.11 97.7224 98.238 132.321 67.3657C156.571 39.9401 164.547 36.6308 182.651 15.3726" stroke="#290132" stroke-width="0.917143"/>
<path d="M15.2357 178.678C33.801 143.29 44.4912 134.554 57.1914 120.943C113.791 60.2846 147.836 15.3647 147.836 15.3647" stroke="#32012D" stroke-width="0.917143"/>
<path d="M114.49 15.3613C83.9494 58.5651 51.4021 97.5526 15.209 141.212" stroke="#32011F" stroke-width="0.917143"/>
<path d="M81.2724 15.3735C58.448 45.2263 41.5939 75.3754 15.1939 105.062" stroke="#320111" stroke-width="0.917143"/>
<path d="M48.063 15.3696C30.6284 39.4889 29.1867 46.4231 15.2214 64.4612" stroke="#320103" stroke-width="0.917143"/>
</g>
<path d="M748.465 722.019H14.8027L14.8027 368.128H748.465V722.019Z" fill="black"/>
<path d="M346.37 368.36H374.12C345.652 452.182 312.553 481.311 285.142 486.568C281.214 486.925 276.969 486.787 273.329 486.206L273.329 453.273C299.814 455.713 339.706 429.782 346.37 368.36Z" fill="#141100"/>
<path d="M214.17 368.359L222.136 368.359C218.318 415.409 241.992 452.612 273.787 453.283V486.263C231.752 479.55 209.27 413.719 214.17 368.359Z" fill="#141100"/>
<path d="M374.12 368.36C345.652 452.182 312.553 481.311 285.141 486.568C281.213 486.925 276.968 486.787 273.329 486.206L273.329 482.9C276.969 483.464 279.838 483.705 283.766 483.358C311.177 478.249 341.952 449.825 370.42 368.36L374.12 368.36Z" fill="#0F0D00"/>
<path d="M273.787 486.263C231.752 479.55 209.27 413.719 214.17 368.359H217.028C213.045 413.719 233.586 475.831 273.787 483.003V486.263Z" fill="#0F0D00"/>
<g filter="url(#filter6_d_403_409)">
<path d="M346.601 368.373C339.937 429.795 299.684 455.908 273.199 453.468" stroke="#322B01" stroke-width="0.917143"/>
</g>
<g filter="url(#filter7_d_403_409)">
<path d="M273.556 453.502C241.699 452.561 218.084 415.407 221.903 368.357" stroke="#322B01" stroke-width="0.917143"/>
</g>
<path d="M333.094 368.36H346.377C339.926 428.047 302.428 452.302 277.944 453.201V415.473C279.966 415.837 282.283 415.957 284.199 415.916C304.892 415.473 317.826 409.62 333.094 368.36Z" fill="#140B00"/>
<path d="M333.107 368.359L323.765 368.359C311.834 388.657 294.956 397.857 280.287 396.439V415.852C307.381 416.854 318.814 406.349 333.107 368.359Z" fill="#140600"/>
<path d="M323.765 368.36C313.635 385.725 298.486 396.487 283.338 396.594L283.338 368.359L323.765 368.36Z" fill="#140000"/>
<path d="M222.367 368.36L239.231 368.36C241.623 399.461 260.187 413.118 278.403 415.401V453.201C276.461 453.272 274.544 453.199 272.664 452.989C248.585 452.755 218.65 423.842 222.367 368.36Z" fill="#140B00"/>
<path d="M239.23 368.36H250.614C255.948 387.811 268.326 395.318 280.746 396.491V415.853C253.437 412.837 240.707 391.764 239.23 368.36Z" fill="#140600"/>
<path d="M283.797 396.595C267.998 396.697 255.192 386.211 250.626 368.36L283.797 368.36V396.595Z" fill="#140000"/>
<path d="M346.377 368.359C339.926 428.046 302.428 452.302 277.944 453.2V449.806C302.428 447.579 335.996 424.905 343.364 368.359H346.377Z" fill="#120A00"/>
<path d="M280.287 415.852C307.381 416.853 318.814 406.349 333.107 368.359H330.066C315.773 402.757 307.381 413.48 280.287 412.574V415.852Z" fill="#120500"/>
<path d="M323.765 368.359C313.635 385.724 298.486 396.486 283.338 396.594V393.779C295.862 393.779 310.883 383.893 320.555 368.359H323.765Z" fill="#120000"/>
<path d="M272.664 452.989C248.585 452.755 218.65 423.842 222.367 368.36H225.118C222.024 424.69 251.897 449.779 272.664 449.779C274.544 449.989 278.403 449.779 278.403 449.779V453.201C276.461 453.272 274.544 453.199 272.664 452.989Z" fill="#120A00"/>
<path d="M280.746 415.853C253.437 412.837 240.707 391.764 239.23 368.36H242.02C243.497 388.096 253.437 409.597 280.746 412.613V415.853Z" fill="#120500"/>
<path d="M283.797 396.595C267.998 396.697 255.192 386.211 250.626 368.36H253.668C258.883 385.163 269.274 393.206 283.797 393.811V396.595Z" fill="#120000"/>
<g filter="url(#filter8_d_403_409)">
<path d="M333.325 368.428C318.057 409.688 305.056 415.648 284.374 416.157C282.458 416.204 280.002 416.076 277.98 415.711" stroke="#321D01" stroke-width="0.917143"/>
<path d="M323.965 368.472C311.959 388.902 294.755 398.28 280.122 396.647" stroke="#320F01" stroke-width="0.917143"/>
</g>
<g filter="url(#filter9_d_403_409)">
<path d="M239.002 368.356C241.394 399.457 259.532 413.013 278.396 415.774" stroke="#321D01" stroke-width="0.917143"/>
<path d="M250.392 368.419C255.73 387.868 268.134 395.515 280.55 396.691" stroke="#320F01" stroke-width="0.917143"/>
</g>
<path d="M369.31 393.774H367.165L370.49 368.355L369.31 393.774Z" fill="#180C0C"/>
<path d="M353.661 424.496H351.516L354.84 393.893L353.661 424.496Z" fill="#180C0C"/>
<path d="M336.642 450.505H334.497L337.822 419.901L336.642 450.505Z" fill="#180C0C"/>
<path d="M321.451 468.526H319.306L322.631 443.107L321.451 468.526Z" fill="#180C0C"/>
<path d="M474.601 721.69L462.525 692.302C457.741 676.834 442.469 458.693 439.057 369.275" stroke="#180C0C" stroke-width="1.83429"/>
<path d="M423.894 369.836C422.156 477.736 429.99 615.203 441.15 721.798" stroke="#180C0C" stroke-width="1.83429"/>
<path d="M405.643 369.555L409.682 722.02" stroke="#180C0C" stroke-width="1.83429"/>
<path d="M386.55 368.994L385.057 722.02" stroke="#180C0C" stroke-width="1.83429"/>
<path d="M368.506 389.943L361.07 721.894" stroke="#180C0C" stroke-width="1.83429"/>
<path d="M335.82 721.799L352.633 422.959" stroke="#180C0C" stroke-width="1.83429"/>
<path d="M300.422 721.799C319.188 634.965 328.785 542.309 335.49 450.472" stroke="#180C0C" stroke-width="1.83429"/>
<path d="M261.703 721.723C264.675 712.432 267.518 704.202 272.344 692.565L287.103 663.545C292.628 649.802 309.226 552.32 320.374 467.637" stroke="#180C0C" stroke-width="1.83429"/>
<path d="M748.486 406.049L748.486 444.001C730.397 418.355 717.389 391.012 708.902 368.359H730.252L748.486 406.049Z" fill="#180C0C"/>
<path d="M706.403 375.213C711.219 393.278 726.452 425.434 726.452 425.434L748.476 451.132L748.476 481.602C714.211 446.469 693.125 409.511 689.745 398.087C685.754 384.6 682.706 375.663 680.448 368.359H704.225C704.916 370.651 705.641 372.937 706.403 375.213Z" fill="#180C0C"/>
<path d="M703.105 441.347C711.915 457.933 738.678 486.025 738.678 486.025L748.476 493.363V520.086C718.327 498.093 697.385 476.467 692.653 468.11C669.099 426.509 671.919 432.5 661.665 378.976C659.122 375.455 657.103 371.922 655.416 368.359H673.813C683.197 391.787 688.588 417.682 703.105 441.347Z" fill="#180C0C"/>
<path d="M674.197 450.195C691.783 492.984 725.744 504.374 735.261 517.211C738.558 521.429 743.05 525.543 748.476 529.543V544.636C713.63 522.073 693.267 517.506 674.197 481.602C660.08 455.021 647.598 421.729 623.234 368.359L648.159 368.359C653.483 390.655 663.136 427.091 674.197 450.195Z" fill="#180C0C"/>
<path d="M673.177 489.785L657.238 466.095C650.28 441.19 639.187 413.466 617.94 368.359H598.936C608.951 393.901 620.872 422.122 630.514 438.577C641.843 480.717 659.922 516.978 673.177 529.257C698.514 552.729 716.839 562.4 748.476 578.771V555.896C710.257 530.38 679.886 513.199 673.177 489.785Z" fill="#180C0C"/>
<path d="M640.827 490.356C626.703 437.482 606.713 414.615 598.551 383.178L595.157 368.359H577.997L598.551 431.395L598.817 432.396C613.669 488.322 623.671 521.612 641.302 539.873C668.405 567.944 696.982 579.14 716.121 593.959L748.476 613.201V583.122C722.182 568.225 701.678 563.601 691.969 556.414C678.526 546.461 652.096 511.681 640.827 490.356Z" fill="#180C0C"/>
<path d="M610.609 494.71C612.426 512.376 633.364 538.237 637.286 544.46C656.113 574.339 709.406 593.528 748.476 616.459L748.476 641.102L663.803 597.971C663.803 597.971 624.552 559.523 614.704 544.46C584.435 506.509 615.484 520.959 559.9 368.359H569.666C596.464 446.563 609.391 482.873 610.609 494.71Z" fill="#180C0C"/>
<path d="M585.459 534.299C587.681 544.829 625.437 602.659 672.374 620.72C693.079 628.687 734.17 658.46 748.476 668.937L748.476 646.71C714.291 628.047 660.288 604.748 650.728 592.852C590.265 527.753 594.71 520.432 593.083 512.123C586.095 476.443 559.892 387.932 553.166 368.359H546.692C558.91 424.006 574.06 482.01 585.459 534.299Z" fill="#180C0C"/>
<path d="M575.539 511.681C569.409 476.967 546.829 406.181 541.589 368.359L534.07 368.359C546.783 433.674 560.747 518.868 587.037 573.251C615.738 615.465 710.57 653.533 748.476 694.815V674.467C705.709 631.102 631.608 617.23 599.463 566.064C592.387 549.711 577.157 529.429 575.539 511.681Z" fill="#180C0C"/>
<path d="M543.628 474.966C567.145 630.068 588.303 576.745 736.973 722.02H748.476V697.469C699.311 658.462 629.879 626.652 587.614 581.352C558.323 548.307 539.659 415.947 530.689 368.359H527.02L534.865 421.663L543.628 474.966Z" fill="#180C0C"/>
<path d="M518.12 368.818L530.387 485.582C536.658 514.05 536.349 562.658 570.298 600.152C602.74 635.98 648.111 668.076 687.64 708.975C692.083 713.361 696.556 717.543 701.083 722.02H728.545C681.845 679.47 641.771 645.031 592.855 607.169C591.508 605.862 569.899 590.55 560.584 573.389C552.529 558.551 533.459 431.067 521.976 368.818H518.12Z" fill="#180C0C"/>
<path d="M563.238 604.462L594.663 630.895C619.023 649.167 647.148 673.86 692.397 722.02H665.82L612.906 665.398C555.91 614.018 538.714 606.452 531.147 572.976C523.581 539.501 531.147 572.976 517.899 500.401L508.095 368.359H513.492C524.727 503.961 527.916 536.52 563.238 604.462Z" fill="#180C0C"/>
<path d="M571.437 637.973C610.278 672.859 628.777 690.789 649.134 716.49L653.798 722.02H626.95L608.804 700.123C565.441 655.501 537.26 626.693 528.602 605.681C514.488 571.43 510.512 549.36 506.05 508.142L493.285 369.168H500.652C509.824 487.719 520.141 566.786 523.817 570.956C528.625 589.25 531.673 599.21 541.817 612.98C552.679 624.629 559.122 630.05 571.437 637.973Z" fill="#180C0C"/>
<path d="M551.159 649.253C536.378 638.874 525.412 634.876 519.716 612.095C508.528 578.867 485.961 369.122 485.961 369.122H480.725L495.564 511.239C502.14 569.835 507.916 598.587 513.336 615.634C522.275 657.157 535.694 631.881 596.528 722.02H615.653C581.978 674.98 559.456 655.079 551.159 649.253Z" fill="#180C0C"/>
<path d="M482.576 507.205L470.215 369.747H473.777C473.777 369.747 490.68 546.8 492.695 557.611C502.399 644.716 523.369 654.447 530.652 659.086C546.116 668.936 565.493 696.724 580.99 722.01H566.873C551.131 697.088 536.231 676.892 511.969 652.675C505.361 644.053 493.969 624.377 482.576 507.205Z" fill="#180C0C"/>
<path d="M505.589 667.168C511.057 672.476 515.242 676.02 523.133 685.526C532.505 698.915 539.555 710.199 545.814 722.02H536.488C527.055 704 516.036 687.923 500.121 667.61C500.127 667.632 490.651 655.23 488.5 644.608C478.752 593.54 475.872 564.292 471.42 509.912L460.68 368.476H463.737C463.737 368.476 480.652 591.482 492.829 644.608C496.867 654.747 499.665 660.533 505.589 667.168Z" fill="#180C0C"/>
<path d="M476.891 652.349C480.963 668.491 481.686 675.671 487.133 682.429C496.848 695.891 503.857 707.634 510.183 722.02H501.836C482.795 679.891 473.767 680.922 471.639 652.349C466.582 584.44 451.589 368.197 451.589 368.197H454.566C454.566 368.197 475.787 643.054 476.891 652.349Z" fill="#180C0C"/>
<path d="M26.768 368.36C22.46 372.963 19.8047 374.938 14.8026 377.786V387.212C25.4657 387.05 41.2331 371.456 40.0938 368.36H26.768Z" fill="#180C0C"/>
<path d="M43.5116 368.36L51.2585 368.36C32.5799 395.548 37.9955 392.943 14.8027 398.585L14.8027 389.296C14.8027 389.296 17.8141 390.055 21.4103 389.296C31.8913 387.084 36.6201 376.365 43.5116 368.36Z" fill="#180C0C"/>
<path d="M53.309 368.361H60.3723C44.5677 389.363 46.282 396.15 40.1496 400.151C26.2733 409.204 23.1814 409.442 14.8026 411.479L14.8026 402.41C15.5562 402.145 32.7263 397.669 39.0051 393.133C45.7627 388.252 41.4041 390.021 53.309 368.361Z" fill="#180C0C"/>
<path d="M62.1952 368.359C49.0521 384.905 45.7769 404.453 33.5732 407.358C26.1951 413.313 18.4693 414.233 14.8026 415.304L14.8026 427.69C30.9799 426.584 40.5285 415.453 45.5622 410.766C64.4127 393.211 55.7524 389.694 69.2585 368.359H62.1952Z" fill="#180C0C"/>
<path d="M14.8026 435.102L14.8026 444.391C70.7299 418.364 65.3846 410.547 83.1572 368.36H71.5369C71.5369 368.36 69.4246 373.226 65.8407 379.197C57.1825 413.258 31.7142 424.788 14.8026 435.102Z" fill="#180C0C"/>
<path d="M14.8026 447.96L14.8026 460.125C58.4435 437.4 66.6958 437.898 75.1825 426.819C95.0054 400.941 95.9803 382.367 102.98 368.359L86.3471 368.359C83.7959 376.028 84.6406 373.463 82.7015 379.197C81.3058 384.307 73.5876 403.818 73.5876 403.818C72.8602 405.16 72.9903 411.811 62.6508 422.176C51.523 433.331 49.1379 431.121 14.8026 447.96Z" fill="#180C0C"/>
<path d="M93.3502 408.41L101.632 375.676C101.632 375.676 101.503 374.825 104.575 368.36H118.018C109.795 411.1 104.316 419.251 94.094 427.192C55.8154 456.928 58.3217 457.471 14.8026 475.702L14.8026 464.55C49.4051 445.329 84.117 430.63 93.3502 408.41Z" fill="#180C0C"/>
<path d="M120.069 368.359H126.676L119.841 409.498C109.374 432.892 101.382 443.598 92.7268 446.877L65.7074 466.266C50.2457 474.437 31.5753 488.136 14.8026 498.746L14.8026 479.646C30.3397 474.276 45.346 465.193 61.4927 457.517C86.5012 445.628 89.203 437.914 101.374 424.004C117.431 405.653 120.069 368.359 120.069 368.359Z" fill="#180C0C"/>
<path d="M78.0379 463.303C53.6312 468.38 36.7148 494.947 14.8028 506.551V521.413C41.0771 504.893 61.1149 483.044 83.2548 471.055L108.221 453.437C116.405 449.167 120.79 436.823 128.271 412.373L136.246 368.359H128.271C128.271 368.359 128.03 408.42 114.373 428.519C104.02 443.753 101.385 448.571 78.0379 463.303Z" fill="#180C0C"/>
<path d="M109.601 455.758C134.333 436.169 136.96 401.014 139.678 368.359L154.092 368.359C151.064 404.735 145.007 442.337 119.468 466.296C80.6671 504.496 58.4876 521.475 14.8029 552.674L14.8029 529.154C35.2736 518.987 79.2144 479.827 109.601 455.758Z" fill="#180C0C"/>
<path d="M157.612 368.359L177.031 368.36C156.833 481.818 98.7002 524.528 14.8029 574.188L14.8029 560.091C47.6054 535.801 65.4689 526.825 93.3276 497.486C143.396 464.714 156.161 430.314 157.612 368.359Z" fill="#180C0C"/>
<path d="M181.588 368.36L199.588 368.36L197.506 379.58C196.722 384.979 196.068 390.24 194.575 395.367C165.32 495.846 121.618 545.141 14.8029 589.706L14.8029 581.309C93.7983 542.427 177.739 461.897 181.588 368.36Z" fill="#180C0C"/>
<path d="M203.844 368.359H214.178C213.761 376.307 213.481 381.359 213.927 391.583C199.634 483.659 168.475 515.11 144.091 532.947C85.7543 572.746 37.4725 601.633 14.8028 615.555L14.8028 596.738C28.3218 589.54 40.8877 582.502 52.582 575.501C95.5006 554.21 136.444 545.661 174.691 466.115C191.355 435.397 202.24 401.647 203.844 368.359Z" fill="#180C0C"/>
<path d="M219.183 394.237V422.105C209.385 478.284 199.468 499.79 163.493 542.013C142.744 558.951 121.774 570.239 91.461 589.012L14.803 639.166L14.803 616.609L56.8422 597.752C56.8422 597.752 139.943 544.826 148.694 541.296C175.22 527.418 203.475 467.584 213.586 410.825C214.067 408.122 214.894 406.153 215.77 404.351L219.183 394.237Z" fill="#180C0C"/>
<path d="M227.091 426.068L226.403 445.319C188.188 584.283 166.294 543.403 14.8026 666.561L14.8026 645.05C34.7169 631.826 68.9403 609.568 91.6743 595.563C133.093 573.072 156.967 557.256 168.84 546.427C205.609 511.144 217.131 452.358 227.091 426.068Z" fill="#180C0C"/>
<path d="M237.027 441.27L235.952 459.673C214.675 527.226 198.349 557.265 184.541 566.52C144.298 593.49 101.345 628.14 58.5513 665.816C44.4937 677.62 30.51 689.418 14.8027 702.777L14.8027 677.563C41.2435 653.203 77.3755 629.703 113.117 603.936C129.219 593.744 148.79 578.482 161.475 571.751C167.095 568.576 174.995 563.108 174.995 563.108C176.446 561.91 185.735 556.98 196.444 540.604C207.969 522.979 221.471 494.341 237.027 441.27Z" fill="#180C0C"/>
<path d="M191.411 574.603L155.418 595.079C123.627 615.178 87.7906 652.384 14.8027 712.951L14.8026 722.02L33.8865 722.019L136.658 628.223C188.314 589.651 204.474 576.958 212.436 560.941C228.892 527.836 222.103 540.614 245.96 471.261L246.666 451.79L242.73 466.126C224.491 519.777 215.728 559.011 191.411 574.603Z" fill="#180C0C"/>
<path d="M179.35 604.128C137.741 635.865 117.815 652.29 95.3919 676.316L50.03 722.019L79.5377 722.019L136.948 663.155C183.872 622.068 214.352 595.557 224.726 575.29C241.635 542.254 245.502 519.963 256.21 479.903L257.554 458.263C247.292 495.215 241.396 517.463 232.376 541.052C226.065 558.911 222.201 568.6 210.948 581.532C199.154 592.295 192.282 597.194 179.35 604.128Z" fill="#180C0C"/>
<path d="M233.968 582.378C252.152 540.219 259.042 508.842 268.225 461.99L268.243 483.738C256.826 541.63 246.85 569.837 240.033 586.404C226.184 632.015 213.687 593.523 120.971 722.02L99.2014 722.02C153.916 649.857 188.639 623.384 199.544 616.957C215.137 607.767 226.4 604.64 233.968 582.378Z" fill="#180C0C"/>
<path d="M280.602 480.79L280.271 462.785C276.468 488.491 270.707 510.923 265.415 530.277C248.512 616.404 226.803 624.47 219.158 628.528C193.9 641.936 155.616 697.603 139.892 722.02L153.48 722.02C183.482 680.254 200.884 655.4 238.313 623.594C245.615 615.51 259.521 596.775 280.602 480.79Z" fill="#180C0C"/>
<path d="M243.48 638.376C237.589 643.24 233.124 646.445 224.469 655.303C205.014 678.779 194.184 695.617 180.716 722.019L190.747 722.019C207.026 688.977 221.661 668.733 248.893 639.245C248.885 639.265 259.36 627.645 262.384 617.226C276.338 567.085 283.923 538.265 292.872 484.41L293.228 460.917C282.798 523.409 277.227 556.678 258.069 616.887C253.203 626.677 249.935 632.226 243.48 638.376Z" fill="#180C0C"/>
<path d="M275.142 625.993C269.744 641.765 266.599 648.721 260.609 655.032C243.213 675.422 233.185 691.913 220.587 722.02L228.082 722.02C261.541 651.054 273.19 660.036 278.548 626.261C290.26 573.915 302.124 515.562 306.908 480.023L306.437 455.515L303.698 480.054C295.229 542.047 277.768 616.458 275.142 625.993Z" fill="#180C0C"/>
<path d="M374.12 368.359L394.39 368.359C395.073 369.908 350.967 503.801 283.273 514.114C280.127 514.918 276.459 514.949 273.221 514.475V487.85C277.77 487.964 282.327 487.474 286.757 486.444C333.987 475.464 361.165 407.97 374.12 368.359Z" fill="#111400"/>
<path d="M421.54 368.36H397.141C381.788 423.66 355.302 483.86 300.047 512.62C295.213 515.598 289.794 515.681 284.817 516.609V535.467C365.827 535.467 400.309 430.304 421.54 368.36Z" fill="#0C1400"/>
<path d="M292.423 539.513C329.786 534.763 353.274 518.946 374.492 487.748C404.118 444.187 410.195 413.117 423.906 368.359H451.068C441.864 429.122 409.106 493.058 359.005 535.122C335.361 554.972 318.294 557.969 292.423 557.957V539.513Z" fill="#061400"/>
<path d="M364.796 562.856C338.648 576.121 327.542 580.221 297.742 579.65V561.727C312.812 560.698 328.801 558.22 349.166 546.56C397.008 519.167 415.296 475.406 438.992 425.475C446.858 408.898 452.021 372.726 453.388 368.36H477.779C466.351 425.475 442.073 473.813 418.724 508.786C402.899 532.489 388.378 550.892 364.796 562.856Z" fill="#001400"/>
<path d="M411.931 560.092C389.474 580.671 381.165 592.02 351.098 601.949C337.745 606.358 326.152 606.831 314.891 606.493V584.472C323.843 583.525 333.031 581.329 343.958 578.176C423.521 555.221 473.18 406.909 478.509 381.545C479.373 377.434 479.775 368.359 479.775 368.359H503.016C499.406 400.073 489.354 427.271 477.771 455.254C473.444 465.707 472.158 470.073 466.929 480.125C448.409 515.733 443.126 531.505 411.931 560.092Z" fill="#001405"/>
<path d="M424.078 553.908C405.629 574.528 401.263 580.478 370.982 596.424C354.075 605.328 335.74 608.84 318.769 609.34V628.951C336.856 629.36 355.526 627.162 368.939 619.592C417.696 592.073 447.485 550.698 478.358 505.155C509.491 459.23 525.306 400.755 525.306 368.36L505.188 368.36C501.379 408.137 496.986 411.207 487.937 440.629C478.887 470.05 472.625 476.52 461.05 498.648C449.455 520.812 440.757 535.267 424.078 553.908Z" fill="#00140B"/>
<path d="M528.138 368.36L552.71 368.36C552.71 439.128 520.817 488.472 474.425 547.743C430.052 604.434 374.772 657.638 325.462 655.85V631.16C338.887 630.566 354.112 629.791 368.609 623.561C396.621 611.522 516.672 517.712 528.138 368.36Z" fill="#001411"/>
<path d="M490.389 534.541C423.856 617.079 375.89 649.388 366.003 653.031C356.117 656.674 344.13 658.858 334.394 658.749V677.476C343.483 677.901 353.498 676.859 364.278 674.213C398.69 665.767 449.378 624.276 493.599 570.792C537.819 517.308 574.654 457.041 581.552 368.359L557.458 368.359C557.458 435.405 517.371 496.004 490.389 534.541Z" fill="#001214"/>
<path d="M430.835 667.537C452.546 649.445 479.087 632.112 511.135 593.748C547.566 550.136 594.206 465.67 602.071 420.023C604.513 405.851 606.605 368.359 606.605 368.359H586.084C580.563 396.493 580.921 425.284 570.393 451.703C558.294 482.062 537.159 518.039 520.707 542.435C504.256 566.831 430.835 656.644 364.113 677.572C360.284 678.773 349.554 679.256 345.858 679.714V700.73C372.501 703.591 409.125 685.628 430.835 667.537Z" fill="#000C14"/>
<path d="M605.979 417.876C607.593 411.21 609.893 386 610.708 368.359L637.26 368.359C634.843 408.059 628.791 450.443 610.708 486.764C567.231 574.089 476.993 675.63 403.07 710.459C395.932 715.881 363.793 722.016 338.517 722.016V704.965C369.161 704.965 413.039 688.438 430.539 672.282C512.401 612.279 581.447 519.224 605.979 417.876Z" fill="#000614"/>
<path d="M438.132 722.019H372.535C456.128 704.978 528.915 624.151 596.453 522.304C629.748 472.094 640.521 399.794 642.059 368.359H665.468C642.059 568.697 512.991 678.679 438.132 722.019Z" fill="#000114"/>
<path d="M482.29 722.019L442.049 722.019C517.844 680.044 590.766 602.624 632.703 509.51C645.705 488.555 664.987 407.155 669.304 368.359H691.329C680.677 427.769 666.836 519.211 632.245 565.16C587.381 624.754 540.593 675.567 482.29 722.019Z" fill="#050014"/>
<path d="M632.779 615.578C589.026 672.499 566.712 680.043 526.11 722.019L485.749 722.019C485.749 722.019 540.307 681.752 575.656 642.047C611.006 602.343 639.712 563.437 653.577 536.169C672.484 498.985 691.236 387.436 693.912 368.373H712.819C703.995 435.124 693.07 537.142 632.779 615.578Z" fill="#0B0014"/>
<path d="M735.994 368.359C702.335 606.247 671.894 622.851 560.789 722.019L528.043 722.019C568.724 685.533 609.306 658.314 639.025 616.782C698.607 533.517 703.737 454.17 716.085 368.359H735.994Z" fill="#100014"/>
<path d="M564.674 721.991H592.83C672.767 689.268 737.692 535.114 748.475 483.049V368.348H738.609C727.078 516.073 692.109 587.171 675.06 609.144C643.718 649.538 639.21 659.99 564.674 721.991Z" fill="#140012"/>
<path d="M639.406 722.019C683.49 696.758 737.158 624.849 748.475 583.379V494.269C720.09 592.315 674.197 683.876 599.241 722.019H639.406Z" fill="#14000C"/>
<path d="M748.486 587.867V663.667C740.299 675.364 731.025 691.684 694.322 721.992H643.582C657.596 717.882 742.139 643.365 748.486 587.867Z" fill="#140007"/>
<path d="M748.486 709.876C742.798 717.303 742.45 717.72 736.163 722.056H694.401C702.945 717.286 727.324 700.585 748.486 670.732C748.486 683.257 748.486 709.876 748.486 709.876Z" fill="#140001"/>
<path d="M200.325 368.359H211.223C207.846 413.826 231.044 487.85 273.679 487.85V514.571C236.015 507.604 196.069 429.707 200.325 368.359Z" fill="#111400"/>
<path d="M187.281 368.36H197.779C197.591 392.016 200.205 406.258 204.184 423.054C210.592 450.104 217.962 464.746 236.006 489.237C248.861 506.685 266.58 520.097 285.275 516.609V535.467C240.68 530.038 208.508 480.804 193.202 422.193C189.539 404.829 186.74 386.779 187.281 368.36Z" fill="#0C1400"/>
<path d="M174.96 368.359H184.807C186.368 412.088 191.048 415.373 195.881 439.896C199.603 458.787 235.849 539.339 292.882 539.514V557.957C282.975 557.952 272.15 555.434 264.598 551.687C240.065 539.514 214.397 508.66 196.647 470.764C179.437 434.019 175.877 403.11 174.96 368.359Z" fill="#061400"/>
<path d="M298.2 579.65C252.83 578.782 203.769 518.113 196.338 505.058C173.66 465.219 162.195 423.055 162.195 368.36L172.249 368.36C174.097 426.499 186.814 459.333 207.566 496.114C224.629 526.356 260.125 564.329 298.2 561.727V579.65Z" fill="#001400"/>
<path d="M148.749 368.359L160.153 368.359C161.08 445.002 183.102 520.083 249.536 562.846C269.86 575.928 290.187 587.135 315.349 584.472V606.51C282.871 606.51 236.04 576.443 204.737 541.892C172.99 499.06 155.126 452.845 150.924 401.634C150.003 390.41 148.631 380.376 148.749 368.359Z" fill="#001405"/>
<path d="M133.813 368.375L145.79 368.359C148.699 450.537 174.423 499.834 191.859 528.315C199.278 540.436 212.788 553.568 226.418 566.354C249.497 588.004 286.064 611.207 319.227 609.333V628.988C301.563 626.596 287.133 621.083 275.435 615.587C246.709 602.089 190.942 566.354 160.108 499.834C147.477 465.628 141.088 479.314 133.813 368.375Z" fill="#00140B"/>
<path d="M164.165 513.711C188.715 560.969 225.572 592.168 263.279 613.284C283.907 621.435 301.166 632.255 325.921 631.16V655.882C304.1 654.612 282.309 642.815 253.46 625.41C237.713 615.911 219.11 600.659 209.278 589.814C151.499 526.083 133.253 509.464 124.975 444.224C121.153 419.031 119.264 393.859 119.141 368.36L130.062 368.36L136.463 429.792C145.03 482.178 148.462 483.483 164.165 513.711Z" fill="#001411"/>
<path d="M216.339 599.851C184.907 567.797 148.166 527.863 143.517 512.41C139.252 504.281 131.465 493.141 128.9 482.044C128.9 482.044 113.713 405.517 117.516 368.359H104.757C105.631 398.619 104.479 415.272 107.835 446.832C111.65 482.713 117.095 494.563 126.574 515.156C136.054 535.749 175.242 574.104 200.276 599.851C228.071 628.436 251.082 644.893 287.941 666.202C304.745 675.916 319.155 676.796 334.852 677.532V658.757C306.438 658.44 282.913 644.533 253.46 628.176C239.792 620.585 227.18 610.906 216.339 599.851Z" fill="#001214"/>
<path d="M189.436 593.307C208.447 611.149 220.595 623.231 243.045 641.002C281.147 671.162 305.746 681.717 346.316 679.714V700.73C319.535 700.73 308.923 702.339 264.452 674.461C243.31 661.207 198.113 620.303 177.337 599.612C153.799 576.172 110.137 532.948 102.014 503.519C88.517 460.642 88.6259 412.934 86.4829 368.359L102.472 368.359C103.289 405.147 101.47 425.929 106.927 463.217C115.183 505.448 125.273 519.43 142.219 541.957L189.436 593.307Z" fill="#000C14"/>
<path d="M191.667 616.907C217.931 642.599 237.509 656.741 265.313 678.993C291.612 700.04 309.834 705.416 338.975 704.965V722.02L296.315 722.02C271.272 716.259 208.165 649.797 178.806 623.79C178.806 623.79 111.274 559.907 98.2089 537.678C86.7299 518.148 81.5488 504.406 78.7303 485.371C71.9063 439.285 72.8484 410.195 71.9063 368.36H84.4295C84.4295 368.36 84.8073 435.931 93.3155 478.062C96.7895 495.265 98.2089 506.497 106.619 521.632C117.544 546.642 165.404 591.215 191.667 616.907Z" fill="#000614"/>
<path d="M55.2791 453.29C57.6643 472.873 56.7829 483.65 62.236 502.897C71.9292 537.109 125.447 595.4 139.083 607.681C174.379 639.469 213.112 676.745 256.621 722.02H289.001C264.2 709.349 165.703 618.874 108.167 555.281C70.7118 513.882 72.3676 451.543 70.7118 413.037L69.405 368.359H52.0693C52.0693 368.359 51.2776 420.438 55.2791 453.29Z" fill="#000114"/>
<path d="M154.352 626.281L253.633 722.019L219.482 722.019C147.553 640.353 111.44 613.769 66.0606 558.063C41.7523 528.222 36.7372 492.755 32.2435 455.649L31.3753 368.359H49.1245C49.1245 368.359 48.7081 421.622 50.9502 455.649C56.8415 545.059 102.239 573.677 154.352 626.281Z" fill="#050014"/>
<path d="M138.386 672.082C158.6 694.266 171.383 703.494 185.099 722.019L216.3 722.019C185.448 685.703 157.641 658.041 121.278 623.643C121.278 623.643 69.5747 572.746 51.9612 541.181C39.0198 517.988 39.1994 510.599 30.4437 453.733C25.5727 422.097 29.8291 396.006 30.011 368.359H14.8059V484.38C22.1142 517.37 24.5865 527.328 42.767 555.669C65.7703 591.528 109.165 640.012 138.386 672.082Z" fill="#0B0014"/>
<path d="M27.2158 574.678C22.4346 568.363 14.8027 553.819 14.8027 553.819L14.8027 493.514C14.791 506.234 14.7969 471.157 14.8027 493.514C18.7754 527.907 42.4726 562.265 42.4726 562.265C42.4726 562.265 97.6589 638.844 132.257 669.735C156.508 697.177 164.771 700.685 182.838 722.019L152.891 722.019C132.257 699.378 125.127 687.517 108.031 668.494C90.9353 649.472 54.0028 610.061 27.2158 574.678Z" fill="#100014"/>
<path d="M14.8028 593.091C14.8028 593.091 34.9846 615.957 52.8451 637.857C81.3368 672.792 102.482 697.876 117.177 722.02H147.991C147.991 722.02 113.711 676.795 57.1108 616.136C44.4106 602.526 33.3681 593.091 14.8028 557.703L14.8028 593.091Z" fill="#140012"/>
<path d="M114.636 722.019C84.0949 678.816 50.9958 639.136 14.8027 595.476L14.8027 628.291C40.9039 655.443 60.8133 691.789 83.6684 722.02L114.636 722.019Z" fill="#14000C"/>
<path d="M81.4361 722.02L50.688 722.019C34.0826 693.126 35.7648 693.184 14.803 669.145L14.8029 631.673C41.2029 661.359 58.6117 692.167 81.4361 722.02Z" fill="#140007"/>
<path d="M48.2103 722.021L25.91 722.02L14.8028 705.734L14.8028 672.182C28.7001 690.033 30.7757 697.901 48.2103 722.021Z" fill="#140001"/>
<path d="M394.39 368.359C395.073 369.908 350.967 503.801 283.273 514.115C280.127 514.919 276.459 514.958 273.221 514.484V510.973C322.505 516.075 372.843 427.904 390.918 368.359H394.39Z" fill="#0D0F00"/>
<path d="M421.539 368.36C400.309 430.304 365.827 535.467 284.817 535.467V532.271C361.7 531.812 396.881 430.304 418.111 368.36H421.539Z" fill="#090F00"/>
<path d="M292.423 557.957C318.294 557.969 335.36 554.972 359.004 535.122C409.106 493.058 441.864 429.122 451.068 368.359H447.571C438.367 428.13 404.716 493.01 354.558 534.004C333.365 551.324 315.077 554.96 292.423 554.96V557.957Z" fill="#050F00"/>
<path d="M364.796 562.856C338.648 576.121 327.541 580.221 297.742 579.65L297.747 576.502C316.127 576.984 336.238 574.052 362.503 560.104C382.957 549.243 398.771 532.489 414.596 508.786C437.945 473.813 462.224 425.475 474.569 368.36H477.779C466.351 425.475 442.073 473.813 418.723 508.786C402.899 532.489 388.378 550.892 364.796 562.856Z" fill="#010F00"/>
<path d="M411.931 560.092C389.473 580.671 381.165 592.02 351.098 601.949C337.745 606.358 326.151 606.831 314.891 606.493V603.197C321.99 603.481 333.531 603.289 346.974 599.219C377.566 589.958 381.438 582.505 403.895 562.384C435.409 534.149 443.824 517.108 462.344 481.5C467.572 471.448 468.858 466.624 473.185 456.172C484.769 428.189 496.196 400.073 499.806 368.359H503.016C499.406 400.073 489.354 427.271 477.771 455.254C473.444 465.707 472.157 470.073 466.929 480.125C448.409 515.733 443.126 531.505 411.931 560.092Z" fill="#000F04"/>
<path d="M478.358 505.155C509.491 459.229 525.306 400.755 525.306 368.359H522.069C522.069 400.755 505.356 460.576 473.598 506.072L473.425 506.321C441.713 551.751 415.772 588.913 367.105 616.382C353.692 623.952 336.398 625.829 318.769 625.829V628.955C336.855 629.364 355.526 627.162 368.939 619.592C417.695 592.073 447.484 550.698 478.358 505.155Z" fill="#000F08"/>
<path d="M552.71 368.36C552.71 439.127 520.817 488.472 474.425 547.743C430.052 604.433 374.772 657.664 325.462 655.876V652.746C371.292 654.122 423.174 606.268 468.005 549.577C514.692 490.539 549.492 439.127 549.492 368.36H552.71Z" fill="#000F0D"/>
<path d="M364.278 674.213C398.69 665.767 449.378 624.276 493.599 570.792C537.819 517.308 574.654 457.041 581.552 368.359H578.193C571.295 457.041 532.603 517.766 488.383 571.251C444.162 624.735 395.146 662.71 362.11 671.155C351.355 673.905 343.482 674.548 334.393 674.581L334.393 677.476C343.482 677.901 353.498 676.859 364.278 674.213Z" fill="#000D0F"/>
<path d="M430.835 667.537C452.546 649.445 479.087 632.112 511.135 593.748C547.566 550.136 594.206 465.67 602.071 420.023C604.513 405.851 606.605 368.359 606.605 368.359H603.374C603.374 368.359 601.322 405.901 598.605 420.023C589.823 465.67 543.639 550.635 507.008 592.831C474.302 630.504 448.418 648.069 426.708 666.161C404.997 684.253 369.559 699.608 345.857 697.921V700.73C372.501 703.591 409.124 685.628 430.835 667.537Z" fill="#00090F"/>
<path d="M637.26 368.359C634.843 408.059 628.79 450.443 610.707 486.764C567.231 574.089 476.993 675.63 403.07 710.459C395.932 715.881 363.793 722.016 338.517 722.016V719.288C363.416 718.213 393.639 713.13 400.777 707.707C474.7 671.503 562.399 574.155 606.793 486.83C625.18 450.662 631.337 408.059 633.754 368.359H637.26Z" fill="#00050F"/>
<path d="M665.468 368.359C642.059 568.697 512.992 678.679 438.132 722.019H429.878C521.59 672.827 640.222 553.176 661.934 368.359H665.468Z" fill="#00090F"/>
<path d="M691.329 368.359C680.677 427.769 666.836 519.211 632.245 565.16C587.381 624.754 540.593 675.567 482.29 722.019H476.328C535.09 675.567 582.576 624.108 627.495 565.618C662.616 519.887 677.035 427.858 687.43 368.359H691.329Z" fill="#04000F"/>
<path d="M526.11 722.019C566.713 680.043 589.026 672.499 632.779 615.578C693.07 537.142 703.995 435.124 712.819 368.373H708.846C699.525 442.356 688.226 537.142 627.935 615.578C584.182 672.499 560.517 680.043 520.831 722.019H526.11Z" fill="#08000F"/>
<path d="M735.994 368.359C702.335 606.247 671.894 622.851 560.789 722.019H554.369C666.849 623.768 699.254 601.767 731.866 368.359H735.994Z" fill="#0C000F"/>
<path d="M592.83 721.991C672.767 689.268 737.692 535.114 748.475 483.049V466.641C734.96 535.999 667.2 690.103 584.576 721.991H592.83Z" fill="#0F000E"/>
<path d="M639.406 722.019C683.49 696.758 737.158 624.849 748.475 583.379V571.408C737.007 620.452 676.918 697.675 632.375 722.019H639.406Z" fill="#0F0009"/>
<path d="M748.486 663.667C740.298 675.364 731.025 691.684 694.322 721.992H687.455C728.19 688.705 739.399 669.864 748.486 657.016L748.486 663.667Z" fill="#0F0005"/>
<path d="M736.163 722.056C742.45 717.72 742.798 717.303 748.486 709.876V703.297C742.798 710.724 736.03 717.72 729.743 722.056H736.163Z" fill="#0F0001"/>
<path d="M273.679 514.571C236.015 507.604 196.068 429.707 200.325 368.359H203.271C199.014 429.707 239.225 505.477 273.679 511.068V514.571Z" fill="#0D0F00"/>
<path d="M187.281 368.359C186.74 386.779 189.539 404.828 193.202 422.192C208.508 480.803 240.68 530.038 285.275 535.467V532.336C242.056 525.989 211.928 480.803 196.163 422.192C192.5 404.828 189.661 386.779 190.201 368.359H187.281Z" fill="#090F00"/>
<path d="M196.647 471.222C214.397 509.119 240.065 539.972 264.598 552.145C272.15 555.892 282.975 557.951 292.882 557.956L293.151 554.97C283.244 554.965 274.498 553.485 266.891 549.852C242.358 538.137 217.352 508.201 199.602 470.305C182.392 433.56 178.829 403.109 177.912 368.359H174.96C175.877 403.109 179.437 434.478 196.647 471.222Z" fill="#050F00"/>
<path d="M298.2 579.65C252.83 578.781 203.769 518.112 196.338 505.057C173.66 465.219 162.195 423.054 162.195 368.359H165.209C165.209 423.054 176.31 465.988 199.548 504.14C209.358 520.907 255.842 575.647 298.2 576.506V579.65Z" fill="#010F00"/>
<path d="M150.924 401.633C155.126 452.844 172.99 499.059 204.737 541.891C236.04 576.442 282.017 606.552 315.349 606.507V603.212C286.686 603.212 241.074 575.845 208.406 541.891C176.658 499.059 158.084 452.844 153.882 401.633C152.962 390.409 151.564 380.375 151.681 368.358H148.749C148.631 380.375 150.003 390.409 150.924 401.633Z" fill="#000F04"/>
<path d="M160.108 499.834C147.477 465.628 141.088 479.314 133.813 368.375H136.565C143.839 479.314 150.881 465.628 163.512 499.834C194.346 566.354 249.905 600.19 278.632 613.688C290.329 619.185 310.739 625.847 319.227 625.847V628.988C307.727 628.988 287.133 621.083 275.435 615.587C246.709 602.089 190.941 566.354 160.108 499.834Z" fill="#000F08"/>
<path d="M209.278 589.814C151.499 526.084 133.253 509.464 124.975 444.224C121.153 419.031 119.264 393.859 119.141 368.36H121.893C122.016 393.859 124.243 418.572 128.065 443.766C136.344 509.005 154.25 524.708 212.029 588.438C221.862 599.283 240.465 614.076 256.211 623.576C285.06 640.981 310.084 652.763 325.921 652.763V655.887C304.531 655.108 282.309 642.815 253.46 625.41C237.713 615.911 219.11 600.659 209.278 589.814Z" fill="#000F0D"/>
<path d="M200.276 599.85C228.071 628.436 251.082 644.893 287.941 666.201C304.745 675.916 319.155 676.796 334.852 677.531V674.601C321.71 673.663 308.504 673.465 291.609 664.825C255.742 644.536 229.884 626.095 203.028 598.474C177.993 572.728 139.264 535.29 129.784 514.697C120.305 494.104 114.401 482.713 110.586 446.831C107.231 415.272 108.382 398.619 107.508 368.359H104.757C105.631 398.619 104.479 415.272 107.835 446.831C111.65 482.713 117.095 494.562 126.574 515.155C136.054 535.748 175.242 574.103 200.276 599.85Z" fill="#000D0F"/>
<path d="M177.337 599.612C153.799 576.172 110.137 532.948 102.014 503.519C88.517 460.642 88.6259 412.934 86.4829 368.359H89.2343C91.3773 412.934 91.2684 460.642 104.765 503.519C113.805 532.948 156.092 574.338 179.63 597.778C200.406 618.469 245.145 659.14 266.286 672.393C310.757 700.272 319.535 697.947 346.316 697.947V700.73C319.535 700.73 308.923 702.339 264.452 674.461C243.31 661.207 198.113 620.303 177.337 599.612Z" fill="#00090F"/>
<path d="M98.2089 537.678C86.7299 518.148 81.5488 504.406 78.7303 485.371C71.9063 439.285 72.8484 410.195 71.9063 368.36H74.8706C75.8127 410.195 74.6578 439.285 81.4818 485.371C84.3002 504.406 89.1859 516.949 100.96 536.303C114.484 558.531 181.557 622.414 181.557 622.414C209.541 648.422 277.514 716.426 296.315 718.775C315.116 721.124 339.559 719.234 339.559 719.234V722.02H296.315C271.272 716.259 208.165 649.797 178.806 623.79C178.806 623.79 111.274 559.907 98.2089 537.678Z" fill="#00050F"/>
<path d="M54.8205 453.29C57.2058 472.873 56.7829 483.65 62.236 502.897C71.9292 537.109 125.447 595.4 139.083 607.681C174.379 639.469 213.112 676.745 256.621 722.02H260.289C216.781 676.745 176.672 637.634 141.376 605.846C127.74 593.566 75.1392 537.109 65.446 502.897C59.9929 483.65 60.0594 472.873 57.6742 453.29C53.6727 420.438 54.8208 368.359 54.8208 368.359H52.0693C52.0693 368.359 50.819 420.438 54.8205 453.29Z" fill="#00010F"/>
<path d="M32.2435 455.649L31.3752 368.359H34.0577L35.4335 455.649C40.609 506.052 53.217 539.151 68.6799 555.58C98.5911 596.037 164.163 653.511 223.835 722.019H219.482C147.553 640.353 111.44 613.769 66.0606 558.063C41.7523 528.222 36.7372 492.755 32.2435 455.649Z" fill="#04000F"/>
<path d="M138.386 672.082C158.6 694.266 171.383 703.494 185.099 722.019H189.219C189.219 720.194 183.491 713.326 173.254 702.564C145.899 675.663 85.9968 613.628 44.6931 553.376C32.2307 531.161 21.768 516.016 14.8059 461.592V484.38C22.1142 517.37 24.5865 527.328 42.767 555.669C65.7703 591.528 109.165 640.012 138.386 672.082Z" fill="#08000F"/>
<path d="M14.8027 553.819C14.8027 553.819 22.4346 568.363 27.2158 574.678C54.0028 610.061 90.9352 649.472 108.031 668.494C125.127 687.517 132.257 699.378 152.891 722.019H156.496L112.378 668.494C77.3017 628.879 25.0337 574.949 14.8027 546.121V553.819Z" fill="#0C000F"/>
<path d="M14.8027 593.091C14.8027 593.091 34.9845 615.957 52.8451 637.857C81.3367 672.792 102.482 697.876 117.177 722.02H120.996C100.711 688.646 58.747 639.448 14.8027 587.283V593.091Z" fill="#0F000E"/>
<path d="M83.6683 722.02C60.8132 691.789 40.9038 655.443 14.8026 628.291V622.816C46.5363 657.679 68.0173 695.619 87.7222 722.02H83.6683Z" fill="#0F0009"/>
<path d="M50.688 722.02C34.0826 693.126 35.7647 693.185 14.8029 669.146V664.369C31.5085 682.11 41.06 696.744 53.7763 722.02H50.688Z" fill="#0F0005"/>
<path d="M25.9099 722.02L14.8027 705.734V699.569L30.1116 722.02H25.9099Z" fill="#0F0001"/>
<g filter="url(#filter10_d_403_409)">
<path d="M374.337 368.428C361.382 408.039 334.182 475.508 287.003 486.62C282.576 487.663 277.926 488.188 273.377 488.074" stroke="#2B3201" stroke-width="0.917143"/>
<path d="M397.36 368.419C382.007 423.718 355.422 484.059 300.167 512.818C295.333 515.797 289.83 515.906 284.852 516.834" stroke="#1E3201" stroke-width="0.917143"/>
<path d="M292.497 539.735C329.86 534.985 353.476 519.044 374.694 487.846C404.32 444.285 410.413 413.186 424.125 368.428" stroke="#103201" stroke-width="0.917143"/>
<path d="M453.606 368.428C452.238 372.795 447.068 408.982 439.201 425.559C415.506 475.491 397.219 519.24 349.376 546.705C329.025 558.389 312.826 560.925 297.756 561.955" stroke="#023201" stroke-width="0.917143"/>
<path d="M480.004 368.37C480.004 368.37 479.602 377.445 478.738 381.556C473.41 406.92 423.394 555.148 344.216 578.34C333.301 581.537 323.865 583.754 314.913 584.701" stroke="#01320E" stroke-width="0.917143"/>
<path d="M505.415 368.383C501.605 408.16 497.214 411.236 488.165 440.657C479.116 470.079 472.864 476.557 461.289 498.685C449.694 520.849 440.994 535.335 424.315 553.976C405.865 574.596 401.505 580.607 371.224 596.553C354.317 605.456 335.745 609.063 318.773 609.564" stroke="#01321C" stroke-width="0.917143"/>
<path d="M528.367 368.373C516.901 517.725 396.788 611.421 368.899 623.686C354.399 629.906 338.893 630.793 325.467 631.387" stroke="#01322A" stroke-width="0.917143"/>
<path d="M557.688 368.359C557.688 435.404 517.587 496.086 490.605 534.623C424.072 617.161 376.076 649.404 366.252 653.185C356.428 656.967 344.342 659.088 334.605 658.979" stroke="#012C32" stroke-width="0.917143"/>
<path d="M586.306 368.404C580.785 396.537 581.148 425.332 570.62 451.75C558.521 482.109 537.395 518.1 520.943 542.496C504.492 566.892 430.791 655.997 364.333 677.748C360.5 679.002 349.579 679.484 345.883 679.942" stroke="#011E32" stroke-width="0.917143"/>
<path d="M610.937 368.369C610.122 386.01 607.822 411.233 606.209 417.899C581.677 519.247 512.544 612.457 430.683 672.46C413.183 688.616 369.335 705.105 338.691 705.181" stroke="#011132" stroke-width="0.917143"/>
<path d="M374.706 721.796C457.403 703.661 529.165 624.188 596.703 522.341C629.998 472.132 640.75 399.804 642.289 368.37" stroke="#010332" stroke-width="0.917143"/>
<path d="M442.88 721.819C518.304 679.773 590.967 602.735 632.904 509.62C645.906 488.665 665.211 407.179 669.528 368.383" stroke="#0D0132" stroke-width="0.917143"/>
<path d="M486.379 721.837C486.379 721.837 540.493 681.827 575.892 642.128C611.291 602.429 639.948 563.477 653.813 536.209C672.72 499.025 691.463 387.467 694.139 368.404" stroke="#1B0132" stroke-width="0.917143"/>
<path d="M528.549 721.865C569.231 685.379 609.546 658.374 639.265 616.841C698.847 533.577 703.963 454.201 716.312 368.39" stroke="#290132" stroke-width="0.917143"/>
<path d="M565.251 721.81C639.762 659.731 643.971 649.587 675.313 609.194C692.363 587.22 727.308 516.084 738.839 368.359" stroke="#32012D" stroke-width="0.917143"/>
<path d="M600.126 721.819C674.558 683.072 719.566 593.819 748.256 495.851" stroke="#32011F" stroke-width="0.917143"/>
<path d="M644.794 721.78C671.995 707.333 741.397 636.892 748.256 591.133" stroke="#320111" stroke-width="0.917143"/>
<path d="M695.206 721.86C703.442 717.16 727.319 700.73 748.3 671.382" stroke="#320103" stroke-width="0.917143"/>
</g>
<g filter="url(#filter11_d_403_409)">
<path d="M210.994 368.376C207.654 413.997 230.831 488.084 273.681 488.079" stroke="#2B3201" stroke-width="0.917143"/>
<path d="M197.551 368.357C197.363 392.014 199.969 406.259 203.948 423.055C210.356 450.104 217.7 464.775 235.743 489.265C248.598 506.713 266.604 520.243 285.299 516.755" stroke="#1E3201" stroke-width="0.917143"/>
<path d="M184.577 368.362C186.138 412.09 190.819 415.369 195.651 439.892C199.374 458.783 235.853 539.568 292.885 539.742" stroke="#103201" stroke-width="0.917143"/>
<path d="M172.019 368.368C173.867 426.507 186.568 459.358 207.32 496.138C224.383 526.381 260.138 564.552 298.213 561.951" stroke="#023201" stroke-width="0.917143"/>
<path d="M159.924 368.361C160.851 445.004 183.047 520.308 249.26 562.928C269.583 576.01 290.212 587.358 315.375 584.695" stroke="#01320E" stroke-width="0.917143"/>
<path d="M145.561 368.368C148.47 450.546 174.169 499.85 191.605 528.332C199.025 540.452 212.49 553.609 226.12 566.395C249.198 588.045 286.085 611.43 319.248 609.555" stroke="#01321C" stroke-width="0.917143"/>
<path d="M129.832 368.382L136.236 429.825C144.803 482.211 148.231 483.518 163.934 513.747C188.483 561.004 225.472 592.374 263.179 613.491C283.807 621.642 301.179 632.484 325.934 631.389" stroke="#01322A" stroke-width="0.917143"/>
<path d="M117.283 368.382C113.479 405.539 128.679 482.093 128.679 482.093C131.244 493.19 139.045 504.369 143.31 512.498C147.959 527.952 184.642 567.855 216.075 599.909C226.915 610.964 239.565 620.713 253.2 628.295C282.54 644.607 306.438 658.667 334.852 658.983" stroke="#012C32" stroke-width="0.917143"/>
<path d="M102.245 368.361C103.062 405.149 101.245 425.952 106.702 463.24C114.958 505.471 125.079 519.555 142.025 542.083L189.209 593.308C208.219 611.151 220.32 623.301 242.77 641.073C280.871 671.233 305.572 681.937 346.089 679.953" stroke="#011E32" stroke-width="0.917143"/>
<path d="M84.2089 368.36C84.2089 368.36 84.582 435.962 93.0902 478.093C96.5642 495.296 97.9504 506.477 106.361 521.611C117.285 546.621 165.143 591.262 191.406 616.954C217.67 642.646 237.251 656.824 265.055 679.075C291.354 700.122 309.855 705.645 338.997 705.194" stroke="#011132" stroke-width="0.917143"/>
<path d="M288.163 721.83C258.888 705.199 165.572 618.605 107.777 555.195C70.6009 513.802 72.1683 451.493 70.4819 413.007L69.1749 368.358" stroke="#010332" stroke-width="0.917143"/>
<path d="M253.133 721.856L153.852 626.118C101.982 573.7 56.5374 544.897 50.7051 455.482C48.4853 421.45 48.8986 368.358 48.8986 368.358" stroke="#0D0132" stroke-width="0.917143"/>
<path d="M215.871 721.87C185.053 685.569 157.207 657.961 120.884 623.578C120.884 623.578 69.2669 572.688 51.6723 541.136C38.7449 517.954 38.9612 510.54 30.215 453.698C25.3493 422.076 29.6011 395.996 29.7828 368.361" stroke="#1B0132" stroke-width="0.917143"/>
<path d="M15.0348 496.984C20.3792 530.577 42.1114 562.147 42.1114 562.147C42.1114 562.147 97.4923 639.019 132.091 669.891C156.341 697.317 164.316 700.626 182.421 721.884" stroke="#290132" stroke-width="0.917143"/>
<path d="M15.0055 558.579C33.5709 593.967 44.2611 602.703 56.9612 616.314C113.561 676.972 147.606 721.892 147.606 721.892" stroke="#32012D" stroke-width="0.917143"/>
<path d="M114.26 721.896C83.7192 678.692 51.172 639.704 14.9789 596.045" stroke="#32011F" stroke-width="0.917143"/>
<path d="M81.0423 721.883C58.2179 692.031 41.3637 661.881 14.9637 632.195" stroke="#320111" stroke-width="0.917143"/>
<path d="M47.8328 721.887C30.3982 697.768 28.9565 690.834 14.9913 672.796" stroke="#320103" stroke-width="0.917143"/>
</g>
<defs>
<filter id="filter0_d_403_409" x="263.387" y="269.174" width="97.8996" height="109.759" filterUnits="userSpaceOnUse" color-interpolation-filters="sRGB">
<feFlood flood-opacity="0" result="BackgroundImageFix"/>
<feColorMatrix in="SourceAlpha" type="matrix" values="0 0 0 0 0 0 0 0 0 0 0 0 0 0 0 0 0 0 127 0" result="hardAlpha"/>
<feOffset dx="2" dy="-2"/>
<feGaussianBlur stdDeviation="6"/>
<feComposite in2="hardAlpha" operator="out"/>
<feColorMatrix type="matrix" values="0 0 0 0 1 0 0 0 0 1 0 0 0 0 1 0 0 0 1 0"/>
<feBlend mode="normal" in2="BackgroundImageFix" result="effect1_dropShadow_403_409"/>
<feBlend mode="normal" in="SourceGraphic" in2="effect1_dropShadow_403_409" result="shape"/>
</filter>
<filter id="filter1_d_403_409" x="207.269" y="269.296" width="76.5309" height="109.64" filterUnits="userSpaceOnUse" color-interpolation-filters="sRGB">
<feFlood flood-opacity="0" result="BackgroundImageFix"/>
<feColorMatrix in="SourceAlpha" type="matrix" values="0 0 0 0 0 0 0 0 0 0 0 0 0 0 0 0 0 0 127 0" result="hardAlpha"/>
<feOffset dx="-2" dy="-2"/>
<feGaussianBlur stdDeviation="6"/>
<feComposite in2="hardAlpha" operator="out"/>
<feColorMatrix type="matrix" values="0 0 0 0 1 0 0 0 0 1 0 0 0 0 1 0 0 0 1 0"/>
<feBlend mode="normal" in2="BackgroundImageFix" result="effect1_dropShadow_403_409"/>
<feBlend mode="normal" in="SourceGraphic" in2="effect1_dropShadow_403_409" result="shape"/>
</filter>
<filter id="filter2_d_403_409" x="268.129" y="305.632" width="79.8563" height="72.3853" filterUnits="userSpaceOnUse" color-interpolation-filters="sRGB">
<feFlood flood-opacity="0" result="BackgroundImageFix"/>
<feColorMatrix in="SourceAlpha" type="matrix" values="0 0 0 0 0 0 0 0 0 0 0 0 0 0 0 0 0 0 127 0" result="hardAlpha"/>
<feOffset dx="2" dy="-3"/>
<feGaussianBlur stdDeviation="6"/>
<feComposite in2="hardAlpha" operator="out"/>
<feColorMatrix type="matrix" values="0 0 0 0 1 0 0 0 0 1 0 0 0 0 1 0 0 0 1 0"/>
<feBlend mode="normal" in2="BackgroundImageFix" result="effect1_dropShadow_403_409"/>
<feBlend mode="normal" in="SourceGraphic" in2="effect1_dropShadow_403_409" result="shape"/>
</filter>
<filter id="filter3_d_403_409" x="224.775" y="306.029" width="66.0489" height="71.9302" filterUnits="userSpaceOnUse" color-interpolation-filters="sRGB">
<feFlood flood-opacity="0" result="BackgroundImageFix"/>
<feColorMatrix in="SourceAlpha" type="matrix" values="0 0 0 0 0 0 0 0 0 0 0 0 0 0 0 0 0 0 127 0" result="hardAlpha"/>
<feOffset dx="-2" dy="-3"/>
<feGaussianBlur stdDeviation="6"/>
<feComposite in2="hardAlpha" operator="out"/>
<feColorMatrix type="matrix" values="0 0 0 0 1 0 0 0 0 1 0 0 0 0 1 0 0 0 1 0"/>
<feBlend mode="normal" in2="BackgroundImageFix" result="effect1_dropShadow_403_409"/>
<feBlend mode="normal" in="SourceGraphic" in2="effect1_dropShadow_403_409" result="shape"/>
</filter>
<filter id="filter4_d_403_409" x="263.596" y="0.998047" width="499.344" height="377.973" filterUnits="userSpaceOnUse" color-interpolation-filters="sRGB">
<feFlood flood-opacity="0" result="BackgroundImageFix"/>
<feColorMatrix in="SourceAlpha" type="matrix" values="0 0 0 0 0 0 0 0 0 0 0 0 0 0 0 0 0 0 127 0" result="hardAlpha"/>
<feOffset dx="2" dy="-2"/>
<feGaussianBlur stdDeviation="6"/>
<feComposite in2="hardAlpha" operator="out"/>
<feColorMatrix type="matrix" values="0 0 0 0 1 0 0 0 0 1 0 0 0 0 1 0 0 0 1 0"/>
<feBlend mode="normal" in2="BackgroundImageFix" result="effect1_dropShadow_403_409"/>
<feBlend mode="normal" in="SourceGraphic" in2="effect1_dropShadow_403_409" result="shape"/>
</filter>
<filter id="filter5_d_403_409" x="0.812134" y="1.02832" width="355.53" height="377.894" filterUnits="userSpaceOnUse" color-interpolation-filters="sRGB">
<feFlood flood-opacity="0" result="BackgroundImageFix"/>
<feColorMatrix in="SourceAlpha" type="matrix" values="0 0 0 0 0 0 0 0 0 0 0 0 0 0 0 0 0 0 127 0" result="hardAlpha"/>
<feOffset dx="-2" dy="-2"/>
<feGaussianBlur stdDeviation="6"/>
<feComposite in2="hardAlpha" operator="out"/>
<feColorMatrix type="matrix" values="0 0 0 0 1 0 0 0 0 1 0 0 0 0 1 0 0 0 1 0"/>
<feBlend mode="normal" in2="BackgroundImageFix" result="effect1_dropShadow_403_409"/>
<feBlend mode="normal" in="SourceGraphic" in2="effect1_dropShadow_403_409" result="shape"/>
</filter>
<filter id="filter6_d_403_409" x="263.157" y="358.324" width="97.8996" height="109.759" filterUnits="userSpaceOnUse" color-interpolation-filters="sRGB">
<feFlood flood-opacity="0" result="BackgroundImageFix"/>
<feColorMatrix in="SourceAlpha" type="matrix" values="0 0 0 0 0 0 0 0 0 0 0 0 0 0 0 0 0 0 127 0" result="hardAlpha"/>
<feOffset dx="2" dy="2"/>
<feGaussianBlur stdDeviation="6"/>
<feComposite in2="hardAlpha" operator="out"/>
<feColorMatrix type="matrix" values="0 0 0 0 1 0 0 0 0 1 0 0 0 0 1 0 0 0 1 0"/>
<feBlend mode="normal" in2="BackgroundImageFix" result="effect1_dropShadow_403_409"/>
<feBlend mode="normal" in="SourceGraphic" in2="effect1_dropShadow_403_409" result="shape"/>
</filter>
<filter id="filter7_d_403_409" x="207.039" y="358.32" width="76.5309" height="109.64" filterUnits="userSpaceOnUse" color-interpolation-filters="sRGB">
<feFlood flood-opacity="0" result="BackgroundImageFix"/>
<feColorMatrix in="SourceAlpha" type="matrix" values="0 0 0 0 0 0 0 0 0 0 0 0 0 0 0 0 0 0 127 0" result="hardAlpha"/>
<feOffset dx="-2" dy="2"/>
<feGaussianBlur stdDeviation="6"/>
<feComposite in2="hardAlpha" operator="out"/>
<feColorMatrix type="matrix" values="0 0 0 0 1 0 0 0 0 1 0 0 0 0 1 0 0 0 1 0"/>
<feBlend mode="normal" in2="BackgroundImageFix" result="effect1_dropShadow_403_409"/>
<feBlend mode="normal" in="SourceGraphic" in2="effect1_dropShadow_403_409" result="shape"/>
</filter>
<filter id="filter8_d_403_409" x="267.899" y="359.24" width="79.8563" height="72.3853" filterUnits="userSpaceOnUse" color-interpolation-filters="sRGB">
<feFlood flood-opacity="0" result="BackgroundImageFix"/>
<feColorMatrix in="SourceAlpha" type="matrix" values="0 0 0 0 0 0 0 0 0 0 0 0 0 0 0 0 0 0 127 0" result="hardAlpha"/>
<feOffset dx="2" dy="3"/>
<feGaussianBlur stdDeviation="6"/>
<feComposite in2="hardAlpha" operator="out"/>
<feColorMatrix type="matrix" values="0 0 0 0 1 0 0 0 0 1 0 0 0 0 1 0 0 0 1 0"/>
<feBlend mode="normal" in2="BackgroundImageFix" result="effect1_dropShadow_403_409"/>
<feBlend mode="normal" in="SourceGraphic" in2="effect1_dropShadow_403_409" result="shape"/>
</filter>
<filter id="filter9_d_403_409" x="224.545" y="359.298" width="66.0489" height="71.9302" filterUnits="userSpaceOnUse" color-interpolation-filters="sRGB">
<feFlood flood-opacity="0" result="BackgroundImageFix"/>
<feColorMatrix in="SourceAlpha" type="matrix" values="0 0 0 0 0 0 0 0 0 0 0 0 0 0 0 0 0 0 127 0" result="hardAlpha"/>
<feOffset dx="-2" dy="3"/>
<feGaussianBlur stdDeviation="6"/>
<feComposite in2="hardAlpha" operator="out"/>
<feColorMatrix type="matrix" values="0 0 0 0 1 0 0 0 0 1 0 0 0 0 1 0 0 0 1 0"/>
<feBlend mode="normal" in2="BackgroundImageFix" result="effect1_dropShadow_403_409"/>
<feBlend mode="normal" in="SourceGraphic" in2="effect1_dropShadow_403_409" result="shape"/>
</filter>
<filter id="filter10_d_403_409" x="263.366" y="358.286" width="499.344" height="377.973" filterUnits="userSpaceOnUse" color-interpolation-filters="sRGB">
<feFlood flood-opacity="0" result="BackgroundImageFix"/>
<feColorMatrix in="SourceAlpha" type="matrix" values="0 0 0 0 0 0 0 0 0 0 0 0 0 0 0 0 0 0 127 0" result="hardAlpha"/>
<feOffset dx="2" dy="2"/>
<feGaussianBlur stdDeviation="6"/>
<feComposite in2="hardAlpha" operator="out"/>
<feColorMatrix type="matrix" values="0 0 0 0 1 0 0 0 0 1 0 0 0 0 1 0 0 0 1 0"/>
<feBlend mode="normal" in2="BackgroundImageFix" result="effect1_dropShadow_403_409"/>
<feBlend mode="normal" in="SourceGraphic" in2="effect1_dropShadow_403_409" result="shape"/>
</filter>
<filter id="filter11_d_403_409" x="0.58197" y="358.334" width="355.53" height="377.894" filterUnits="userSpaceOnUse" color-interpolation-filters="sRGB">
<feFlood flood-opacity="0" result="BackgroundImageFix"/>
<feColorMatrix in="SourceAlpha" type="matrix" values="0 0 0 0 0 0 0 0 0 0 0 0 0 0 0 0 0 0 127 0" result="hardAlpha"/>
<feOffset dx="-2" dy="2"/>
<feGaussianBlur stdDeviation="6"/>
<feComposite in2="hardAlpha" operator="out"/>
<feColorMatrix type="matrix" values="0 0 0 0 1 0 0 0 0 1 0 0 0 0 1 0 0 0 1 0"/>
<feBlend mode="normal" in2="BackgroundImageFix" result="effect1_dropShadow_403_409"/>
<feBlend mode="normal" in="SourceGraphic" in2="effect1_dropShadow_403_409" result="shape"/>
</filter>
</defs>
</svg>
