<svg preserveAspectRatio="none" viewBox="0 0 317 424" fill="none" xmlns="http://www.w3.org/2000/svg">
<g filter="url(#filter0_d_101_43)">
<path d="M113.838 422.23H58.6719V386.77H113.838L136.013 421.192L158.188 386.77L180.362 421.192L200.374 386.77H256.622V422.23H200.374M113.838 422.23L136.013 386.77L158.188 421.192L180.362 386.77L200.374 422.23M113.838 422.23H200.374" stroke="url(#paint0_linear_101_43)" stroke-width="2"/>
<path d="M255.144 39.0259V31.5778C255.144 31.5778 212.676 18.9768 173.074 15.8454M57.194 38.961V31.5778C57.194 31.5778 99.4447 18.6037 139.431 15.7135" stroke="url(#paint1_linear_101_43)" stroke-width="5"/>
<path d="M285.278 328.287C282.619 308.854 294.321 305.615 294.321 290.716C294.321 275.818 286.002 274.114 285.278 262.214C284.38 247.45 294.321 238.247 294.321 227.235C294.321 216.223 285.613 210.247 285.278 198.085C284.911 184.733 294.609 177.756 294.321 164.401C294.053 151.999 285.777 146.994 285.278 134.603C284.702 120.299 294.321 121 294.321 99.6234" stroke="url(#paint2_linear_101_43)" stroke-width="2.75127"/>
<path d="M29.8168 328.287C32.4763 308.854 20.7744 305.615 20.7744 290.716C20.7744 275.818 29.0927 274.114 29.8168 262.214C30.7151 247.45 20.7744 238.247 20.7744 227.235C20.7744 216.223 29.4825 210.247 29.8168 198.085C30.1838 184.733 20.4864 177.756 20.7744 164.401C21.0419 151.999 29.3178 146.994 29.8168 134.603C30.3928 120.299 20.7744 121 20.7744 99.6234" stroke="url(#paint3_linear_101_43)" stroke-width="2.75127"/>
<path d="M294.022 328.287C291.363 308.982 303.064 305.764 303.064 290.964C303.064 276.163 294.746 274.471 294.022 262.649C293.124 247.982 303.064 238.839 303.064 227.899C303.064 216.96 294.356 211.024 294.022 198.941C293.655 185.677 303.353 178.746 303.064 165.479C302.797 153.159 294.521 148.187 294.022 135.877C293.446 121.667 303.064 120.364 303.064 99.1278" stroke="url(#paint4_linear_101_43)" stroke-width="2.75127"/>
<path d="M21.0668 328.287C23.7263 308.982 12.0244 305.764 12.0244 290.964C12.0244 276.163 20.3427 274.471 21.0668 262.649C21.9651 247.982 12.0244 238.839 12.0244 227.899C12.0244 216.96 20.7325 211.024 21.0668 198.941C21.4338 185.677 11.7364 178.746 12.0244 165.479C12.2919 153.159 20.5678 148.187 21.0668 135.877C21.6428 121.667 12.0244 120.364 12.0244 99.1278" stroke="url(#paint5_linear_101_43)" stroke-width="2.75127"/>
<path d="M139.92 39.0261C139.92 34.345 138.06 29.8557 134.75 26.5457C131.44 23.2356 126.951 21.3761 122.27 21.3761C117.588 21.3761 113.099 23.2356 109.789 26.5457C106.479 29.8557 104.62 34.345 104.62 39.0261" stroke="url(#paint6_linear_101_43)" stroke-width="4"/>
<path d="M207.719 39.026C207.719 34.3449 205.86 29.8556 202.55 26.5456C199.24 23.2356 194.75 21.3761 190.069 21.3761C185.388 21.3761 180.899 23.2356 177.589 26.5456C174.279 29.8556 172.42 34.3449 172.42 39.026" stroke="url(#paint7_linear_101_43)" stroke-width="4"/>
<circle cx="156.169" cy="21.376" r="16.57" stroke="url(#paint8_linear_101_43)" stroke-width="5"/>
<path d="M277 55.8878H302.628V95.5873" stroke="url(#paint9_linear_101_43)" stroke-width="6.87817"/>
<path d="M38.5928 55.8878H12.9649V95.5873" stroke="url(#paint10_linear_101_43)" stroke-width="6.87817"/>
<path d="M276 330.02H294.884V360.958H276V330.02Z" fill="url(#paint11_linear_101_43)" stroke="url(#paint12_linear_101_43)" stroke-width="1.37563"/>
<path d="M39.5928 330.02H20.7091V360.958H39.5928V330.02Z" fill="url(#paint13_linear_101_43)" stroke="url(#paint14_linear_101_43)" stroke-width="1.37563"/>
<path d="M277 369.373H302.628V329.674" stroke="url(#paint15_linear_101_43)" stroke-width="6.87817"/>
<path d="M38.5928 369.373H12.9649V329.674" stroke="url(#paint16_linear_101_43)" stroke-width="6.87817"/>
<path d="M276 64.4193H294.884V95.3577H276V64.4193Z" fill="url(#paint17_linear_101_43)" stroke="url(#paint18_linear_101_43)" stroke-width="1.37563"/>
<path d="M39.5928 64.4193H20.7091V95.3577H39.5928V64.4193Z" fill="url(#paint19_linear_101_43)" stroke="url(#paint20_linear_101_43)" stroke-width="1.37563"/>
<path d="M312.447 97.8395H275.147V327.859H312.447V97.8395Z" stroke="url(#paint21_linear_101_43)" stroke-width="4.1269"/>
<path d="M2.65001 97.8395H39.95V327.859H2.65001V97.8395Z" stroke="url(#paint22_linear_101_43)" stroke-width="4.1269"/>
<path d="M40.1469 40.5634H275.147V385.563H40.1469V40.5634Z" stroke="url(#paint23_linear_101_43)" stroke-width="4.1269"/>
</g>
<defs>
<filter id="filter0_d_101_43" x="0.586548" y="0.30603" width="315.924" height="422.924" filterUnits="userSpaceOnUse" color-interpolation-filters="sRGB">
<feFlood flood-opacity="0" result="BackgroundImageFix"/>
<feColorMatrix in="SourceAlpha" type="matrix" values="0 0 0 0 0 0 0 0 0 0 0 0 0 0 0 0 0 0 127 0" result="hardAlpha"/>
<feOffset dx="1" dy="-1"/>
<feGaussianBlur stdDeviation="0.5"/>
<feColorMatrix type="matrix" values="0 0 0 0 1 0 0 0 0 0.941176 0 0 0 0 0.6 0 0 0 1 0"/>
<feBlend mode="normal" in2="BackgroundImageFix" result="effect1_dropShadow_101_43"/>
<feBlend mode="normal" in="SourceGraphic" in2="effect1_dropShadow_101_43" result="shape"/>
</filter>
<linearGradient id="paint0_linear_101_43" x1="56.0197" y1="386.449" x2="60.4099" y2="438.712" gradientUnits="userSpaceOnUse">
<stop stop-color="#AD9200"/>
<stop offset="0.288903" stop-color="#FFE86B"/>
<stop offset="0.713309" stop-color="#C7A800"/>
<stop offset="1" stop-color="#FFEC85"/>
</linearGradient>
<linearGradient id="paint1_linear_101_43" x1="54.5418" y1="15.5026" x2="56.4469" y2="49.999" gradientUnits="userSpaceOnUse">
<stop stop-color="#AD9200"/>
<stop offset="0.288903" stop-color="#FFE86B"/>
<stop offset="0.713309" stop-color="#C7A800"/>
<stop offset="1" stop-color="#FFEC85"/>
</linearGradient>
<linearGradient id="paint2_linear_101_43" x1="284.759" y1="330.356" x2="314.414" y2="327.745" gradientUnits="userSpaceOnUse">
<stop stop-color="#AD9200"/>
<stop offset="0.288903" stop-color="#FFE86B"/>
<stop offset="0.713309" stop-color="#C7A800"/>
<stop offset="1" stop-color="#FFEC85"/>
</linearGradient>
<linearGradient id="paint3_linear_101_43" x1="30.3365" y1="330.356" x2="0.680771" y2="327.745" gradientUnits="userSpaceOnUse">
<stop stop-color="#AD9200"/>
<stop offset="0.288903" stop-color="#FFE86B"/>
<stop offset="0.713309" stop-color="#C7A800"/>
<stop offset="1" stop-color="#FFEC85"/>
</linearGradient>
<linearGradient id="paint4_linear_101_43" x1="293.502" y1="330.361" x2="323.159" y2="327.755" gradientUnits="userSpaceOnUse">
<stop stop-color="#AD9200"/>
<stop offset="0.288903" stop-color="#FFE86B"/>
<stop offset="0.713309" stop-color="#C7A800"/>
<stop offset="1" stop-color="#FFEC85"/>
</linearGradient>
<linearGradient id="paint5_linear_101_43" x1="21.5865" y1="330.361" x2="-8.07021" y2="327.755" gradientUnits="userSpaceOnUse">
<stop stop-color="#AD9200"/>
<stop offset="0.288903" stop-color="#FFE86B"/>
<stop offset="0.713309" stop-color="#C7A800"/>
<stop offset="1" stop-color="#FFEC85"/>
</linearGradient>
<linearGradient id="paint6_linear_101_43" x1="104.147" y1="21.2164" x2="109.969" y2="46.0484" gradientUnits="userSpaceOnUse">
<stop stop-color="#AD9200"/>
<stop offset="0.288903" stop-color="#FFE86B"/>
<stop offset="0.713309" stop-color="#C7A800"/>
<stop offset="1" stop-color="#FFEC85"/>
</linearGradient>
<linearGradient id="paint7_linear_101_43" x1="171.947" y1="21.2164" x2="177.769" y2="46.0483" gradientUnits="userSpaceOnUse">
<stop stop-color="#AD9200"/>
<stop offset="0.288903" stop-color="#FFE86B"/>
<stop offset="0.713309" stop-color="#C7A800"/>
<stop offset="1" stop-color="#FFEC85"/>
</linearGradient>
<linearGradient id="paint8_linear_101_43" x1="136.588" y1="1.96092" x2="158.349" y2="48.3663" gradientUnits="userSpaceOnUse">
<stop stop-color="#AD9200"/>
<stop offset="0.288903" stop-color="#FFE86B"/>
<stop offset="0.713309" stop-color="#C7A800"/>
<stop offset="1" stop-color="#FFEC85"/>
</linearGradient>
<linearGradient id="paint9_linear_101_43" x1="276.657" y1="55.5286" x2="304.675" y2="94.1003" gradientUnits="userSpaceOnUse">
<stop stop-color="#AD9200"/>
<stop offset="0.288903" stop-color="#FFE86B"/>
<stop offset="0.713309" stop-color="#C7A800"/>
<stop offset="1" stop-color="#FFEC85"/>
</linearGradient>
<linearGradient id="paint10_linear_101_43" x1="38.9362" y1="55.5286" x2="10.9177" y2="94.1003" gradientUnits="userSpaceOnUse">
<stop stop-color="#AD9200"/>
<stop offset="0.288903" stop-color="#FFE86B"/>
<stop offset="0.713309" stop-color="#C7A800"/>
<stop offset="1" stop-color="#FFEC85"/>
</linearGradient>
<linearGradient id="paint11_linear_101_43" x1="275.747" y1="329.74" x2="297.932" y2="358.617" gradientUnits="userSpaceOnUse">
<stop stop-color="#AD9200"/>
<stop offset="0.288903" stop-color="#FFE86B"/>
<stop offset="0.713309" stop-color="#C7A800"/>
<stop offset="1" stop-color="#FFEC85"/>
</linearGradient>
<linearGradient id="paint12_linear_101_43" x1="275.747" y1="329.74" x2="297.932" y2="358.617" gradientUnits="userSpaceOnUse">
<stop stop-color="#AD9200"/>
<stop offset="0.288903" stop-color="#FFE86B"/>
<stop offset="0.713309" stop-color="#C7A800"/>
<stop offset="1" stop-color="#FFEC85"/>
</linearGradient>
<linearGradient id="paint13_linear_101_43" x1="39.8458" y1="329.74" x2="17.6609" y2="358.617" gradientUnits="userSpaceOnUse">
<stop stop-color="#AD9200"/>
<stop offset="0.288903" stop-color="#FFE86B"/>
<stop offset="0.713309" stop-color="#C7A800"/>
<stop offset="1" stop-color="#FFEC85"/>
</linearGradient>
<linearGradient id="paint14_linear_101_43" x1="39.8458" y1="329.74" x2="17.6609" y2="358.617" gradientUnits="userSpaceOnUse">
<stop stop-color="#AD9200"/>
<stop offset="0.288903" stop-color="#FFE86B"/>
<stop offset="0.713309" stop-color="#C7A800"/>
<stop offset="1" stop-color="#FFEC85"/>
</linearGradient>
<linearGradient id="paint15_linear_101_43" x1="276.657" y1="329.314" x2="304.675" y2="367.886" gradientUnits="userSpaceOnUse">
<stop stop-color="#AD9200"/>
<stop offset="0.288903" stop-color="#FFE86B"/>
<stop offset="0.713309" stop-color="#C7A800"/>
<stop offset="1" stop-color="#FFEC85"/>
</linearGradient>
<linearGradient id="paint16_linear_101_43" x1="38.9362" y1="329.314" x2="10.9177" y2="367.886" gradientUnits="userSpaceOnUse">
<stop stop-color="#AD9200"/>
<stop offset="0.288903" stop-color="#FFE86B"/>
<stop offset="0.713309" stop-color="#C7A800"/>
<stop offset="1" stop-color="#FFEC85"/>
</linearGradient>
<linearGradient id="paint17_linear_101_43" x1="275.747" y1="64.1394" x2="297.932" y2="93.0159" gradientUnits="userSpaceOnUse">
<stop stop-color="#AD9200"/>
<stop offset="0.288903" stop-color="#FFE86B"/>
<stop offset="0.713309" stop-color="#C7A800"/>
<stop offset="1" stop-color="#FFEC85"/>
</linearGradient>
<linearGradient id="paint18_linear_101_43" x1="275.747" y1="64.1394" x2="297.932" y2="93.0159" gradientUnits="userSpaceOnUse">
<stop stop-color="#AD9200"/>
<stop offset="0.288903" stop-color="#FFE86B"/>
<stop offset="0.713309" stop-color="#C7A800"/>
<stop offset="1" stop-color="#FFEC85"/>
</linearGradient>
<linearGradient id="paint19_linear_101_43" x1="39.8458" y1="64.1394" x2="17.6609" y2="93.0159" gradientUnits="userSpaceOnUse">
<stop stop-color="#AD9200"/>
<stop offset="0.288903" stop-color="#FFE86B"/>
<stop offset="0.713309" stop-color="#C7A800"/>
<stop offset="1" stop-color="#FFEC85"/>
</linearGradient>
<linearGradient id="paint20_linear_101_43" x1="39.8458" y1="64.1394" x2="17.6609" y2="93.0159" gradientUnits="userSpaceOnUse">
<stop stop-color="#AD9200"/>
<stop offset="0.288903" stop-color="#FFE86B"/>
<stop offset="0.713309" stop-color="#C7A800"/>
<stop offset="1" stop-color="#FFEC85"/>
</linearGradient>
<linearGradient id="paint21_linear_101_43" x1="274.647" y1="95.7582" x2="380.1" y2="132.225" gradientUnits="userSpaceOnUse">
<stop stop-color="#AD9200"/>
<stop offset="0.288903" stop-color="#FFE86B"/>
<stop offset="0.713309" stop-color="#C7A800"/>
<stop offset="1" stop-color="#FFEC85"/>
</linearGradient>
<linearGradient id="paint22_linear_101_43" x1="40.4498" y1="95.7582" x2="-65.0027" y2="132.225" gradientUnits="userSpaceOnUse">
<stop stop-color="#AD9200"/>
<stop offset="0.288903" stop-color="#FFE86B"/>
<stop offset="0.713309" stop-color="#C7A800"/>
<stop offset="1" stop-color="#FFEC85"/>
</linearGradient>
<linearGradient id="paint23_linear_101_43" x1="278.295" y1="37.4417" x2="39.1249" y2="384.86" gradientUnits="userSpaceOnUse">
<stop stop-color="#AD9200"/>
<stop offset="0.288903" stop-color="#FFE86B"/>
<stop offset="0.713309" stop-color="#C7A800"/>
<stop offset="1" stop-color="#FFEC85"/>
</linearGradient>
</defs>
</svg>
