<svg class="hoverer" viewBox="0 0 123 106" fill="none" xmlns="http://www.w3.org/2000/svg">
<defs>
  <linearGradient id="grad-rail"  x1="0%" y1="0%" x2="100%" y2="0%">
    <stop offset="0%" style="stop-color:hsl(0, 0%, 30%);" />
    <stop offset="25%" style="stop-color:hsl(0, 0%, 85%);" />
    <!-- <stop offset="95%" style="stop-color:hsl(0, 0%, 85%);" /> -->
    <stop offset="100%" style="stop-color:hsl(0, 0%, 90%);" />
  </linearGradient>
  <linearGradient id="grad-rim"  x1="0%" y1="0%" x2="100%" y2="0%">
    <stop offset="0%" style="stop-color:hsl(0, 0%, 25%);" />
    <stop offset="50%" style="stop-color:hsl(0, 0%, 85%);" />
    <!-- <stop offset="80%" style="stop-color:hsl(0, 0%, 85%);" /> -->
    <stop offset="100%" style="stop-color:hsl(0, 0%, 100%);" />
  </linearGradient>
  <linearGradient id="grad-body"  x1="0%" y1="0%" x2="100%" y2="0%">
    <stop offset="0%" style="stop-color:hsl(0, 0%, 20%);" />
    <!-- <stop offset="25%" style="stop-color:hsl(0, 0%, 70%);" /> -->
    <stop offset="75%" style="stop-color:hsl(0, 0%, 70%);" />
    <stop offset="100%" style="stop-color:hsl(0, 0%, 90%);" />
  </linearGradient>
</defs>
<path d="M115.501 9.52334L114.357 9.52334L114.357 9.52334L115.501 9.52334ZM7.15321 9.47743H6.00927V9.42742L6.01363 9.37761L7.15321 9.47743ZM20.5219 4.34231L8.48478 42.725L6.30173 42.0404L18.3388 3.65769L20.5219 4.34231ZM104.952 4.06848L116.779 42.0425L114.594 42.7228L102.767 4.74881L104.952 4.06848ZM87.3836 2.90175L60.8901 35.6668L59.1111 34.2282L85.6045 1.46323L87.3836 2.90175ZM34.9005 1.17682L60.4696 34.0181L58.6643 35.4236L33.0953 2.58232L34.9005 1.17682ZM8.29715 9.62919V59.9195H6.00927V9.62919H8.29715ZM116.645 8.47461V62.9195H114.357V8.47461H116.645ZM61.0101 2.65738V58.7079H58.7222V2.65738H61.0101ZM114.357 9.52334C114.357 9.52044 114.36 9.46471 114.268 9.33824C114.168 9.20176 113.981 9.01682 113.656 8.79809C113.001 8.35722 111.967 7.89601 110.539 7.43914C107.698 6.53048 103.58 5.72489 98.5627 5.04871C88.5463 3.69873 75.1487 2.89024 61.6985 2.73921C48.2465 2.58817 34.7917 3.09536 24.657 4.36328C19.5803 4.99842 15.3951 5.81764 12.4732 6.81669C11.0075 7.31782 9.92684 7.84214 9.21937 8.36561C8.50334 8.89541 8.31617 9.31026 8.29278 9.57724L6.01363 9.37761C6.1184 8.18148 6.88983 7.24321 7.85853 6.52644C8.8358 5.80334 10.166 5.18764 11.733 4.65185C14.8765 3.57704 19.2441 2.73476 24.373 2.0931C34.6495 0.807426 48.2175 0.299815 61.7242 0.451474C75.2327 0.603154 88.7297 1.41487 98.8683 2.78132C103.929 3.46335 108.203 4.29004 111.236 5.26003C112.744 5.74249 114.016 6.28222 114.934 6.90042C115.81 7.49009 116.645 8.34744 116.645 9.52334L114.357 9.52334ZM109.097 11.779C110.996 11.282 112.422 10.7724 113.349 10.274C113.814 10.024 114.096 9.80699 114.249 9.64211C114.397 9.48254 114.357 9.44809 114.357 9.52334H116.645C116.645 10.2063 116.323 10.7698 115.927 11.1968C115.537 11.6185 115.014 11.9766 114.433 12.2891C113.268 12.9154 111.637 13.4793 109.676 13.9924L109.097 11.779ZM8.29715 9.47743C8.29715 9.5477 8.35364 9.86349 9.12547 10.3732C9.85229 10.8531 10.964 11.3322 12.4148 11.7961L11.718 13.9753C10.1963 13.4888 8.85138 12.9339 7.86475 12.2823C6.9231 11.6605 6.00927 10.7474 6.00927 9.47743H8.29715Z" fill="url('#grad-rail')"/>
<path d="M0.312561 67.1713C18.1832 55.4371 107.386 57.0133 122.849 69.1365C115.508 83.6721 112.983 91.6151 111.366 105.396C101.058 96.9879 21.1176 97.3113 11.8613 103.456C9.83022 88.4572 7.34859 80.4969 0.312561 67.1713Z" fill="url('#grad-body')"/>
<path d="M0.312561 67.1712C18.1832 55.437 107.386 57.0133 122.849 69.1364L117.919 62.3986C95.9294 51.2 20.2339 53.6356 4.87801 60.4334L0.312561 67.1712Z" fill="url('#grad-rim')"/>
</svg>
