<!-- NEW -->
<svg class="horn-player-middle" viewBox="0 0 93 119" fill="none" xmlns="http://www.w3.org/2000/svg">
<defs>
  <linearGradient id="grad-horn-player" x1="0%" y1="30%" x2="90%" y2="0%">
      <stop offset="0%" style="stop-color:hsl(9, 70%, 58%);" />
      <stop offset="60%" style="stop-color:hsl(9, 70%, 65%);" />
      <stop offset="100%" style="stop-color:hsl(9, 80%, 70%);" />
    </linearGradient>
</defs>
<g id="m-HORN-PLAYER-middle">
<g id="middle">
<path id="middle-section" d="M9.40093 49.1072C8.29426 53.9298 9.76138 62.2197 10.8 67.1936C9.19538 74.5625 9.01516 86.1684 10.4396 94.8997C10.4396 94.8997 22.5864 107.613 46.8575 103.004C69.2298 98.7561 69.7506 85.7999 69.7506 85.7999C71.4263 78.6249 67.8434 67.2874 64.9573 60.7097C63.9835 52.6402 62.018 46.4478 58.7255 39.7039L9.40093 49.1072Z" fill="url('#grad-horn-player')"/>
<path id="flab-lines" d="M10.5232 94.8074C12.1481 96.1456 13.2253 96.5223 15.3712 96.6956M10.8165 67.3911C12.4427 68.7268 13.4765 69.1495 15.5533 69.2811M64.8397 60.9318C64.0261 62.2851 63.2989 62.9702 62.02 63.3861" stroke="#3C220E" stroke-width="0.74" stroke-linecap="round"/>
</g>
<g id="claws-arms-horn">
<g id="arms-left">
<path id="arms" d="M56.2344 54.1976C51.0351 55.4828 47.2232 55.5877 45.5314 54.1976L42.7692 46.63C43.7989 44.5345 45.9616 42.3239 49.7463 40.1132" stroke="#3C220E" stroke-width="0.74188" stroke-linecap="round"/>
<path id="arms_2" d="M56.0169 61.7438C48.6277 63.2175 45.5639 66.1651 45.1754 67.6387C45.1754 67.6387 44.9146 72.0202 46.465 74.6392C48.319 77.771 57.9994 77.2183 57.9994 77.2183" stroke="#3C220E" stroke-width="0.74188" stroke-linecap="round"/>
<path id="arms_3" d="M56.9553 85.7999C52.0892 86.5368 48.723 88.5291 47.7358 90.2212C46.7487 91.9133 47.6309 96.8597 48.723 98.5659C49.8151 100.272 59.6742 100.539 60.3795 99.2481" stroke="#3C220E" stroke-width="0.74188" stroke-linecap="round"/>
</g>
<g id="horn">
<path id="HORN-100" fill-rule="evenodd" clip-rule="evenodd" d="M39.9995 26.3156C34.2433 26.3989 35.1035 35.3237 35.1035 40.5445C35.1805 41.016 38.3886 99.6164 38.5415 103.895C38.6944 108.173 42.7368 116.834 48.808 116.012C54.8411 115.195 56.2295 111.374 55.7234 101.738C55.6985 101.264 53.3471 61.483 52.4398 38.3743C52.2027 32.3328 51.2846 25.8754 43.9109 25.5794L50.1065 24.8229C52.4491 28.5073 57.3152 29.9811 60.5595 28.5994C72.9947 22.7965 63.4428 4.74285 53.3505 8.9799C49.4332 11.2638 48.2293 13.3121 47.9438 18.3751L31.6863 26.7679L31.07 26.0201L29.5609 27.1358L29.9165 28.7099L31.7027 29.133L32.0759 28.2628L39.9995 26.3156ZM43.9162 28.27C39.2875 28.4808 41.0965 34.5868 41.0965 40.0501C41.17 40.5266 44.4201 102.944 44.5578 103.399C45.0568 107.722 45.5644 111.046 48.8081 110.736C52.1864 110.413 51.1563 107.538 50.9573 102.131C50.1794 80.9873 49.9572 59.7946 48.9067 38.6658C48.6382 33.2652 48.336 28.0687 43.9162 28.27Z" fill="#FFD700"/>
<path id="leading-edge" d="M47.9435 18.3752C48.1238 20.77 48.6644 22.9807 49.926 24.8229" stroke="#69512F" stroke-width="0.360448"/>
</g>
<g id="claws-n-arms-right">
<g id="right-lower-arm">
<path id="claw" d="M40.4254 100.722C42.8711 101.447 39.2936 103.301 34.1743 101.543C35.5915 104.934 35.7434 106.956 34.8311 110.786C39.1133 114.539 46.3223 110.786 43.7992 109.565C44.5201 110.049 41.6365 111.775 39.1133 109.012C45.7816 109.012 43.2585 105.88 41.9969 104.775C43.9794 107.907 39.8342 106.617 37.4913 103.854C41.6778 104.461 44.3345 100.473 40.4254 100.722Z" fill="#3C220E"/>
<path id="arm" d="M22.7937 92.3137C30.8907 95.0215 33.1395 100.275 34.0255 101.494C35.1451 103.033 36.4146 106.864 34.6378 110.57C33.7066 112.512 26.9108 110.57 21.4093 104.918" stroke="#3C220E" stroke-width="0.74188" stroke-linecap="round"/>
</g>
<g id="right-middle-arm">
<path id="claw_2" d="M41.0956 80.2733C43.6187 78.1536 39.2933 77.51 34.9679 77.8785L34.4273 86.7211C38.7526 88.7475 42.8978 88.3791 41.456 85.8C40.9476 87.4724 39.132 87.9955 36.9111 84.8789C38.7526 82.1156 42.7176 83.2209 41.456 83.7735C44.7 83.0367 39.8181 81.1945 36.9111 80.2733C38.2197 79.9863 41.8164 78.1441 41.0956 80.2733Z" fill="#3C220E"/>
<path id="arm_2" d="M21.6313 87.1948C29.7694 88.1958 32.4075 88.035 34.3185 86.6411C36.2295 85.2473 34.8438 77.8338 34.8438 77.8338C33.7063 76.7731 29.0205 72.2729 21.6313 70.9834" stroke="#3C220E" stroke-width="0.74188" stroke-linecap="round"/>
</g>
<g id="right-top-w-arm">
<path id="claw_3" d="M39.834 60.9302C41.8165 58.5354 37.1307 57.5694 31.6682 57.5695L30.1019 66.2726C32.8053 67.5622 39.2934 63.0739 39.2934 66.9434C40.3747 64.7327 37.8516 63.5774 34.4273 64.062C36.9505 61.4779 41.0956 63.3251 39.2934 64.4304C42.3572 64.4304 38.7527 60.1934 35.0174 61.4779C38.5725 58.7196 40.3747 59.2723 39.834 60.9302Z" fill="#3C220E"/>
<path id="arm_3" d="M19.6489 48.5872C26.1369 51.5348 28.3603 53.9995 31.229 57.7735L30.4174 65.9503C27.0381 68.299 25.2358 67.7462 19.6489 66.8251" stroke="#3C220E" stroke-width="0.74188" stroke-linecap="round"/>
</g>
<path id="left-bottom-claw" d="M40.7351 90.0368C35.7099 91.0475 39.7545 92.9971 45.0605 92.8001C42.6004 95.3531 38.1118 94.5832 40.0142 93.537C37.6224 94.8523 39.6538 95.9731 45.6011 96.1161C40.7351 98.8794 39.2933 97.9584 39.2933 95.7478C36.9748 101.249 45.3357 98.8534 48.5001 98.2662L47.8907 90.36C43.1851 90.4943 37.9954 92.3127 40.7351 90.0368Z" fill="#3C220E"/>
<path id="left-middle-claw" d="M38.6034 74.6146C36.2393 75.7218 38.2911 78.5787 46.5588 75.0332L44.8803 67.5621C41.6362 67.9928 37.2962 71.0624 39.5003 67.9928C36.0299 70.4746 39.8841 70.5849 43.5306 70.4399C39.3273 72.337 36.6535 72.9987 38.7358 70.7605C35.4812 72.0742 37.2365 74.7419 43.6081 73.1774C40.9748 75.2975 37.3053 76.3143 38.6034 74.6146Z" fill="#3C220E"/>
<path id="left-top-claw" d="M42.1769 48.403C39.4385 47.907 36.2295 45.6398 37.4911 47.482C34.5562 46.295 38.2088 44.681 42.9783 46.4625L46.0021 54.2989C40.8692 55.8541 35.691 54.2981 39.2933 56.8772C35.0458 57.5899 36.9756 51.5091 42.5305 51.0963C39.5888 51.0499 36.7947 49.1691 37.1306 52.0874C37.1306 52.0874 34.9329 49.1965 42.1769 48.403Z" fill="#3C220E"/>
</g>
</g>
</g>
</svg>
