<!-- new -->
<svg class="horn-player-bottom" viewBox="0 0 64 50" fill="none" xmlns="http://www.w3.org/2000/svg">
<defs>
    <linearGradient id="grad-horn-player" x1="0%" y1="30%" x2="90%" y2="0%">
      <stop offset="0%" style="stop-color:hsl(9, 70%, 58%);" />
      <stop offset="60%" style="stop-color:hsl(9, 70%, 65%);" />
      <stop offset="100%" style="stop-color:hsl(9, 80%, 70%);" />
    </linearGradient>
  </defs>
<g id="m-HORN-PLAYER-bottom">
<path id="bottom" d="M62.9842 15.906C63.5249 12.5901 64.2738 5.95814 61.7506 0.799957L2.43957 9.89975C0.834938 17.9325 -0.033226 22.8211 2.43957 30.6888C4.92769 38.6053 10.5719 45.2482 14.8996 47.7512C18.1776 49.6472 21.1496 49.8493 24.544 47.7512C27.4923 45.8249 26.7697 41.2106 26.7697 41.2106C28.8185 42.0513 32.3525 42.486 34.7287 41.2106C34.7287 41.2106 37.3786 46.6137 41.088 47.5996C44.2185 49.4279 46.2009 49.6284 50.4357 47.4479C53.0502 45.0422 51.6157 40.2438 51.6157 40.2438C56.1787 28.3975 56.605 33.0216 60.9522 25.9113C62.645 23.1425 63.3912 18.6748 62.9842 15.906Z" fill="url('#grad-horn-player')"/>
<path id="suit" d="M26.8019 42.159C30.186 43.0689 32.3453 42.77 34.9202 41.8798C43.0941 35.1472 46.8729 36.4101 53.3381 36.4101C55.9664 29.395 61.3915 30.2134 63.0459 19.5282C49.5533 23.9995 40.6316 23.9995 29.5794 23.0674C26.8019 28.0024 21.029 27.0535 14.2222 20.6692C10.4333 20.3053 4.92751 19.7303 0.875226 18.8191C0.555746 24.4457 1.13217 30.452 5.16183 37.3489C14.009 36.4415 18.1279 34.4913 26.8019 42.159Z" fill="url(#paint0_linear_177_165)"/>
<path id="l-shoe" d="M19.9382 49.3004C14.1407 49.75 11.5646 46.0591 7.54114 40.7958C7.54114 40.7958 11.4145 41.5044 13.5052 42.1724C18.737 43.8439 21.5886 43.5363 26.4375 41.7853C26.4713 41.9778 26.9538 42.2098 26.9538 42.2098C27.4635 46.8063 23.9145 48.9919 19.9382 49.3004Z" fill="#DBDADA"/>
<path id="r-shoe" d="M45.7874 49.2176C40.6557 49.609 36.3827 44.5805 34.9579 41.8314C34.9579 41.8314 38.2425 42.4327 40.0931 43.0141C44.7241 44.4688 49.2986 43.7318 51.7903 40.8359C53.4066 46.7624 49.4484 48.9384 45.7874 49.2176Z" fill="#EAEAEA"/>
</g>
<defs>
<linearGradient id="paint0_linear_177_165" x1="0.875214" y1="26.3101" x2="62.8898" y2="26.9685" gradientUnits="userSpaceOnUse">
<stop stop-color="#DADADA"/>
<stop offset="1" stop-color="white"/>
</linearGradient>
</defs>
</svg>
