<svg viewBox="0 0 233 341" preserveAspectRatio="none" fill="none" xmlns="http://www.w3.org/2000/svg">
  <defs>
    <radialGradient id="rad-bg-grad-vangie" cx="54%" cy="29%" fx="54%"  fy="29%">
      <stop offset="0%" stop-color="hsl(43, 100%, 100%)" />
      <stop offset="100%" stop-color="hsl(43, 100%, 94%)" />
    </radialGradient>
  </defs>
<path d="M0.0039978 0.460938H232.004V322.97C221.154 324.711 216.448 330.486 215.583 340.461L15.0379 340.424C14.8038 330.419 9.99124 324.316 0.0039978 322.888V0.460938Z" fill="url(#rad-bg-grad-vangie)"/>
<g opacity="0.95">
<path d="M72.2764 180.681C74.1473 174.363 75.8771 170.712 79.4221 164.126L89.8161 177.994C94.0257 197.109 93.2002 212.204 91.3377 235.503C124.671 192.984 134.975 176.129 147.654 167.25L167.866 154.519L171.908 161.877C184.688 171.436 192.442 175.733 214.374 187.426C222.431 194.862 227.758 200.037 232.004 204.546V322.989C221.584 324.355 216.288 330.687 215.54 340.461H15.1152C15.5619 331.146 9.05296 323.541 0.091507 323.051L0.091512 308.308C1.72582 304.906 3.59943 301.479 5.92345 297.591C5.56479 291.172 5.52106 287.167 5.92345 278.787C8.20501 265.701 10.0111 253.568 13.0692 233.413C15.6587 223.864 18.1085 219.395 23.0731 211.952L30.6272 208.886C34.8696 204.216 37.6587 203.026 43.2853 203.164C55.1543 188.423 61.5168 183.338 72.2764 180.681Z" fill="#252240"/>
<path d="M71.9429 181.088C72.009 183.039 60.3347 206.812 60.4568 206.024C59.7892 206.677 65.4752 214.408 65.8976 216.652C65.8976 218.696 56.4822 222.784 55.0161 226.258C53.5499 229.733 55.0161 265.501 55.0161 265.501L75.3686 218.287C72.0868 247.077 68.8425 263.631 53.5499 295.955M43.7315 340.287L53.5499 295.955M87.2577 181.088C85.2316 193.801 84.5447 200.685 80.6078 211.542M51.3889 340.287C54.1017 298.388 78.6666 273.267 80.6078 211.542M80.6078 211.542L90.2803 246.084C83.2396 266.847 79.2827 278.175 71.9429 289.005C72.6939 297.987 73.7557 302.23 77.5852 307.4L66.2689 340.083M75.3686 239.952L79.9665 246.084L87.2577 239.952M137.434 185.585C133.573 198.79 130.471 206.195 130.381 218.287M96.1241 340.287C93.3795 321.96 92.0727 304.828 87.2577 301.677C88.3246 284.498 88.089 275.067 87.2577 258.347C87.2577 253.151 97.9377 246.084 108.618 243.018C117.484 232.799 128.202 231.11 129.172 229.733C131.187 226.871 130.381 218.287 130.381 218.287M130.381 218.287C130.381 218.287 134.876 218.384 138.844 219.309C141.582 219.947 143.857 221.603 145.091 221.353C146.374 221.093 149.152 212.418 153.756 202.754C159.999 189.647 168.265 174.548 168.265 174.548L165.242 158.197C169.878 171.669 172.397 180.581 177.534 185.585C183.162 193.92 185.628 199.138 177.534 218.287C153.825 239.236 151.765 251.898 168.265 276.129L177.534 292.071C176.764 307.251 177.616 325.108 183.982 340.083M28.8198 271.224C35.1567 294.475 36.0543 316.924 31.4077 340.287M55.8221 267.34L53.5499 295.955" stroke="black" stroke-width="0.693386"/>
<path d="M105.799 254.26C105.799 257.991 102.818 261.011 99.1468 261.011C95.4754 261.011 92.4943 257.991 92.4943 254.26C92.4943 250.53 95.4754 247.51 99.1468 247.51C102.818 247.51 105.799 250.53 105.799 254.26Z" stroke="black" stroke-width="0.397736"/>
<path d="M113.457 315.983C113.457 319.714 110.476 322.734 106.804 322.734C103.133 322.734 100.152 319.714 100.152 315.983C100.152 312.253 103.133 309.233 106.804 309.233C110.476 309.233 113.457 312.253 113.457 315.983Z" stroke="black" stroke-width="0.397736"/>
<path d="M83.7864 321.238C84.8358 324.268 83.7444 327.324 81.4725 328.134C79.2006 328.943 76.4643 327.251 75.4149 324.221C74.3655 321.191 75.4569 318.135 77.7288 317.325C80.0007 316.516 82.737 318.208 83.7864 321.238Z" stroke="black" stroke-width="0.397736"/>
<path d="M77.5887 276.129C77.5887 277.73 77.1253 279.17 76.3862 280.205C75.6467 281.241 74.6432 281.858 73.5555 281.858C72.4677 281.858 71.4642 281.241 70.7248 280.205C69.9856 279.17 69.5223 277.73 69.5223 276.129C69.5223 274.529 69.9856 273.089 70.7248 272.054C71.4642 271.018 72.4677 270.401 73.5555 270.401C74.6432 270.401 75.6467 271.018 76.3862 272.054C77.1253 273.089 77.5887 274.529 77.5887 276.129Z" stroke="black" stroke-width="0.397736"/>
</g>
<path d="M110.244 200.783C99.277 194.975 91.7517 189.767 89.8025 177.807L158.04 127.944L159.604 131.857C158.109 139.349 163.593 140.348 168.08 137.851C168.08 137.851 163.261 161.825 162.097 165.321C161.1 168.318 129.689 192.292 129.689 192.292L110.244 200.783Z" fill="#CC7F5A"/>
<path d="M90.5002 180.54L80.7875 166.664L77.813 162.739C76.6035 161.721 76.396 161.05 75.9695 159.671L75.947 159.599C74.9063 156.236 74.2435 151.16 74.2435 151.16C74.2435 151.16 73.618 150.232 72.4587 149.002C69.299 145.647 69.0447 142.007 68.8892 137.423C68.6064 129.085 64.3282 127.022 64.3282 117.798C66.9062 108.182 66.113 105.435 66.113 105.435C66.113 105.435 63.9785 102.461 64.1412 98.7626C64.3178 94.7482 67.6994 91.8941 67.6994 91.8941C66.2171 82.0756 67.4904 75.3781 72.4587 66.9708C130.724 10.7307 151.984 68.2937 182.915 108.771C184.821 120.621 178.053 130.858 174.563 132.357C172.804 134.387 165.166 139.534 155.128 145.746C132.459 159.777 97.5518 179.246 90.5002 180.54Z" fill="#E8956E"/>
<g filter="url(#filter0_f_2_749)">
<path d="M79.2108 94.0516C75.863 88.4197 73.6334 80.6129 81.7778 60.2974C77.2016 65.8303 76.6286 66.783 74.0659 66.7735C74.0659 66.7735 70.6431 73.0085 69.5049 77.567C68.1486 82.9988 69.7032 91.8929 69.7032 91.8929C64.4314 96.0201 64.032 99.136 68.315 106.219C68.315 106.219 66.1671 113.735 66.1227 117.601C66.0586 123.175 68.7006 131.927 68.7006 131.927C70.6837 141.161 76.9301 144.684 76.8312 139.384C71.6621 127.087 69.5606 120.577 70.6837 111.321L79.2108 94.0516Z" fill="#CD7E59"/>
<path d="M79.2108 94.0516C75.863 88.4197 73.6334 80.6129 81.7778 60.2974C77.2016 65.8303 76.6286 66.783 74.0659 66.7735C74.0659 66.7735 70.6431 73.0085 69.5049 77.567C68.1486 82.9988 69.7032 91.8929 69.7032 91.8929C64.4314 96.0201 64.032 99.136 68.315 106.219C68.315 106.219 66.1671 113.735 66.1227 117.601C66.0586 123.175 68.7006 131.927 68.7006 131.927C70.6837 141.161 76.9301 144.684 76.8312 139.384C71.6621 127.087 69.5606 120.577 70.6837 111.321L79.2108 94.0516Z" stroke="#CD7E59" stroke-width="0.693386"/>
</g>
<g filter="url(#filter1_f_2_749)">
<path d="M134.329 110.144C134.329 110.144 116.946 111.361 119.059 117.601C120.733 122.543 131.751 122.115 131.751 122.115C131.751 122.115 141.209 121.839 141.864 117.601C142.493 113.53 134.329 110.144 134.329 110.144Z" fill="#FEA77E"/>
<path d="M114.498 58.5288C107.122 65.0223 106.368 80.1158 109.54 83.0595C112.713 86.0032 138.097 72.8547 139.088 66.3786C140.079 59.9025 136.501 55.7415 130.957 53.4264C124.752 50.8348 119.531 54.0982 114.498 58.5288Z" fill="#FEA77E"/>
<path d="M94.8667 108.179C88.8522 110.041 88.7156 119.987 86.9338 133.495" stroke="#FFAD86" stroke-width="3" stroke-linecap="round"/>
</g>
<g filter="url(#filter2_f_2_749)">
<path d="M116.68 145.468C112.525 143.633 108.932 139.429 102.6 132.124C102.61 134.187 102.159 134.901 100.815 135.656" stroke="#381A0C" stroke-width="0.693386"/>
</g>
<g filter="url(#filter3_f_2_749)">
<path d="M87.727 136.636C92.2932 134.515 93.6567 134.458 93.6766 136.636" stroke="#381A0C" stroke-width="0.693386"/>
</g>
<path d="M89.1095 180.842C83.0847 176.195 80.9993 173.108 79.7891 166.66L77.8117 162.735C76.6023 161.718 76.3948 161.047 75.9683 159.668L75.9458 159.595C74.9051 156.232 74.2422 151.157 74.2422 151.157C74.2422 151.157 73.6167 150.229 72.4575 148.998C69.2978 145.643 69.4401 143.573 69.2846 138.99L68.0947 131.532C68.3392 132.031 68.5294 132.549 68.6784 133.082C69.5364 135.109 71.398 138.734 74.6388 141.541C75.9194 142.04 78.0709 141.274 79.0015 139.382C80.7321 141.188 81.7199 141.255 83.9592 141.541C86.4857 141.863 86.3388 138.008 90.1066 140.167C93.8745 142.326 92.0851 140.582 94.271 140.952C95.5042 141.161 98.6338 138.99 98.6338 138.99C98.6338 138.99 100.22 137.616 101.212 136.242C102.203 134.868 114.498 147.821 114.498 147.821C114.498 147.821 118.555 152.907 120.646 151.157C123.224 148.998 118.751 143.219 121.835 140.167C126.991 135.065 150.986 123.486 151.978 121.524C153.329 118.85 151.978 113.87 151.978 113.87C154.751 116.235 156.464 115.45 159.885 113.882L159.91 113.87C159.91 113.87 157.516 116.223 156.539 117.795C154.319 121.369 158.324 123.486 158.324 128.392C156.539 140.952 163.908 140.167 163.908 140.167C162.322 142.373 151.978 152.156 146.227 154.511C142.933 157.933 140.908 159.595 134.725 166.66C129.157 169.732 127.259 173.529 126.991 175.295C126.723 177.061 123.224 175.491 123.224 175.491C123.224 175.491 122.137 177.725 120.646 180.005C119.542 181.692 115.818 182.967 111.722 183.223C108.739 183.41 107.334 181.733 104.385 182.216C103.079 182.43 102.511 183.641 101.212 183.393C99.8135 183.128 100.027 181.135 98.6338 180.842C98.1035 180.731 95.6592 180.842 95.6592 180.842C93.8752 181.434 91.7645 181.591 89.1095 180.842Z" fill="#A25700"/>
<g filter="url(#filter4_f_2_749)">
<path d="M131.053 143.182C131.802 145.452 136.491 150.666 138.202 151.799M132.153 140.017C134.233 144.674 138.672 149.104 142.003 153.248M134.169 138.258C136.118 143.494 140.613 147.994 144.753 151.49M137.286 135.797C138.841 139.892 146.123 148.581 149.484 151.053M140.402 132.455C140.582 133.951 140.829 134.591 141.869 134.917M141.869 131.049C145.554 136.346 150.205 142.086 154.8 145.492M146.269 131.049C146.077 133.294 155.255 142.322 156.669 143.116M100.776 161.893C103.278 168.056 108.646 176.348 112.509 182.116M103.16 161.893C106.075 168.484 111.721 176.89 115.992 182.643M105.726 161.893C108.142 167.241 113.399 174.886 116.909 178.951M107.743 160.662C110.483 165.756 116.001 173.329 119.842 177.72M108.843 158.904C111.863 163.783 117.448 171.194 121.675 174.73M99.1186 141.162L103.666 146.965" stroke="#EA8C00" stroke-width="0.754678"/>
</g>
<path d="M81.5298 159.817C78.9826 157.758 78.2254 156.696 78.4307 152.643C79.6137 145.163 102.027 149.481 104.654 152.819C105.935 158.369 102.885 160.942 102.223 162.429C97.7701 160.244 96.0824 158.463 90.2471 158.309C86.1749 158.705 83.7249 158.879 81.5298 159.817Z" fill="#E8956E"/>
<g filter="url(#filter5_f_2_749)">
<path d="M78.7593 152.394C88.9638 154.619 95.3417 154.298 104.118 152.668" stroke="#654932" stroke-width="1.2" stroke-linecap="round"/>
</g>
<g filter="url(#filter6_f_2_749)">
<path d="M86.7369 158.563C88.9991 158.986 90.3003 158.99 92.8725 158.838" stroke="#381A0C" stroke-linecap="round"/>
</g>
<path d="M184.909 82.2777C184.039 85.9669 186.043 87.7343 183.339 90.3238C188.064 100.495 187.109 107.554 182.716 108.771C182.716 108.771 180.441 105.91 178.353 105.631C175.984 105.314 174.631 106.66 172.801 108.182C170.462 110.127 168.835 114.854 168.835 114.854C165.391 112.423 163.444 111.848 159.911 113.873C159.911 113.873 157.028 116.04 154.953 115.836C151.716 115.516 150.597 112.481 149.797 109.36C148.943 106.023 151.582 100.725 151.582 100.725C156.213 98.7682 151.976 92.1102 141.865 78.1565L145.236 74.8203L142.857 68.148C142.109 63.4399 140.962 60.7427 137.106 55.7845C131.655 52.4382 128.706 50.8438 124.613 51.0746C116.624 51.9455 113.905 52.7662 113.111 54.9995L116.68 55.7845C111.449 60.5334 108.801 61.9009 105.179 59.3169C101.587 62.4688 99.2835 63.9365 93.8752 65.2043C88.5079 64.8253 85.5761 64.2175 80.787 60.8869C77.1273 65.0864 75.3792 66.0802 72.4582 66.9705C72.4582 66.9705 71.9691 60.439 74.243 57.3545C76.0532 54.8989 80.787 53.0371 80.787 53.0371C80.787 53.0371 80.5187 50.7401 80.787 49.3084C81.3756 46.1685 85.0302 43.5364 87.7277 40.4596C90.1389 37.7095 90.6756 36.3434 93.8752 34.546C96.6365 32.9949 98.8893 34.0184 101.807 32.7798C105.324 31.2873 110.737 29.5435 110.737 29.5435C110.737 29.5435 113.549 26.8034 116.289 26.2074C119.115 25.5927 120.577 26.5043 123.428 26.9923C128.312 27.8283 131.537 25.1233 136.12 26.9923C138.742 28.0618 139.558 28.6574 142.069 29.9623C145.386 31.6863 149.972 30.999 153.185 32.9059C159.154 36.4481 162.766 39.7371 167.288 44.9733C170.703 48.9283 172.895 51.0618 175.809 55.392C178.56 59.4795 180.767 66.9705 180.767 66.9705C183.345 74.2316 184.909 79.1377 184.909 82.2777Z" fill="#654932"/>
<g filter="url(#filter7_f_2_749)">
<path d="M93.8744 66.1995C88.5124 66.72 84.5728 64.2138 79.7837 60.8832C83.5354 58.6934 85.3747 57.1566 88.3109 54.0146C92.0414 56.6483 94.4387 56.8079 99.0193 55.7808C99.5364 52.7799 100.459 51.5017 103.184 49.8934C105.645 51.8579 107.229 52.26 110.323 52.0521C111.278 50.6177 111.702 49.7706 112.107 48.1272C118.17 33.4536 126.478 33.1837 141.853 33.605C144.629 34.1775 145.714 35.3523 147.604 37.5299C141.853 40.2774 129.761 41.8992 126.584 46.1648C131.066 45.2202 133.474 44.9552 137.491 45.1835C134.846 47.3754 133.744 48.6479 133.128 51.0709C138.357 51.0494 141.051 51.5739 145.621 53.0334L144.233 54.9958C171.09 66.3886 173.936 70.4057 176.953 77.1716C173.053 72.0214 168.313 69.395 153.157 65.3968C161.458 71.9017 169.418 73.2467 175.962 79.5265C170.013 78.7415 167.43 81.2701 161.684 79.5265L167.633 84.0402C167.633 84.0402 163.208 83.8701 162.874 85.8064C162.511 87.9053 167.633 88.5538 167.633 88.5538L163.667 89.7313C171.763 93.7366 175.545 96.0849 177.548 100.917C174.693 100.575 172.915 100.493 168.823 100.917L171.797 103.272C166.652 102.758 164.632 102.737 162.874 103.272C164.852 104.474 166.995 104.792 170.608 105.431H163.667C165.029 107.144 167.024 107.67 171.797 108.178C169.459 110.123 167.831 114.851 167.831 114.851C164.388 112.419 162.441 111.844 158.908 113.87C158.908 113.87 156.025 116.037 153.95 115.832C150.712 115.513 149.593 112.477 148.794 109.356C147.939 106.019 150.579 100.721 150.579 100.721C155.209 98.7645 150.972 92.1064 140.862 78.1528L144.233 74.8166L141.853 68.1443C141.105 63.4362 139.959 60.739 136.102 55.7808C130.651 52.4345 127.702 50.8401 123.609 51.0709C115.621 51.9418 112.902 52.7625 112.107 54.9958L116.68 55.7808C111.449 60.5297 108.8 62.8961 105.178 60.3121C101.586 63.464 98.8389 65.7176 93.8744 66.1995Z" fill="#946136"/>
</g>
<path d="M165.463 138.989C167.999 138.078 169.245 136.638 174.585 132.317C172.414 143.512 171.661 149.908 166.851 156.455C164.666 159.474 163.801 159.877 157.927 163.323C162.547 153.329 163.15 148.902 165.463 138.989Z" fill="#715035"/>
<g filter="url(#filter8_f_2_749)">
<path d="M159.513 132.123C159.204 135.797 159.507 137.279 161.298 138.402C165.956 140.316 169.203 137.343 174.981 132.123" stroke="#381A0C" stroke-width="0.693386"/>
<g filter="url(#filter9_f_2_749)">
<path d="M175.974 125.645C171.077 130.427 168.376 132.995 165.066 133.691" stroke="#381A0C" stroke-width="0.693386"/>
</g>
<g filter="url(#filter10_f_2_749)">
<path d="M172.998 112.104C180.379 108.265 181.296 110.671 180.931 117.796" stroke="#381A0C" stroke-width="0.693386"/>
</g>
<g filter="url(#filter11_f_2_749)">
<path d="M163.282 114.459C160.511 116.921 159.599 118.235 162.092 120.15" stroke="#381A0C" stroke-width="0.693386"/>
</g>
<g filter="url(#filter12_f_2_749)">
<path d="M165.264 119.955C166.684 123.599 166.17 125.073 163.678 127.019C164.649 128.138 166.018 127.88 168.834 127.019C171.313 125.932 172.456 124.795 174.189 122.113C174.547 120.719 174.463 119.879 173.396 118.188" stroke="#381A0C" stroke-width="0.693386"/>
</g>
</g>
<g filter="url(#filter13_f_2_749)">
<path d="M101.212 108.575C104.773 106.632 106.688 106.944 109.938 110.341" stroke="#381A0C" stroke-width="0.693386"/>
</g>
<g filter="url(#filter14_f_2_749)">
<path d="M100.815 98.1743C108.01 97.282 111.962 97.2772 118.861 98.1743C123.139 100.968 125.408 103.031 129.173 107.79" stroke="#381A0C" stroke-width="0.693386"/>
</g>
<g filter="url(#filter15_f_2_749)">
<path d="M105.178 108.967C107.247 110.239 108.233 111.111 109.739 112.892" stroke="#381A0C" stroke-width="0.693386"/>
</g>
<path d="M116.87 101.704C114.706 101.296 116.866 101.585 114.693 101.227C112.313 101.816 110.716 104.613 112.903 107.592H117.663C119.051 106.61 119.25 103.078 116.87 101.704Z" fill="#405560"/>
<ellipse cx="115.277" cy="105.013" rx="0.991527" ry="0.953379" fill="#253035"/>
<path d="M106.181 106.024C103.487 104.102 100.266 100.331 101.609 96.9967C107.514 96.373 110.886 96.3068 117.077 96.9967C121.95 100.038 124.165 101.785 126.397 105.043C117.077 101.51 113.872 102.512 106.181 106.024Z" fill="#715035"/>
<path d="M105.971 105.967C110.91 103.674 117.922 99.4815 123.422 104.74" stroke="#381A0C" stroke-width="0.693386"/>
<path d="M110.532 92.873C109.342 92.873 105.045 92.4542 101.608 94.0505C100.486 95.2762 100.54 95.9647 101.608 97.1905H119.059C120.825 97.1905 121.66 95.8992 123.422 96.013C126.452 96.2086 129.173 100.33 129.173 100.33C131.808 95.3595 132.984 93.3526 130.363 91.3031C126.595 89.5369 124.371 89.8802 120.249 91.3031C118.729 89.6292 117.774 88.7438 115.49 88.7519C114.102 88.7519 113.215 91.3795 110.532 92.873Z" fill="#AB7C36"/>
<path d="M85.3473 105.43C78.7698 101.883 74.8077 101.966 67.3015 105.43L65.3185 101.702L66.5083 98.758L78.4066 97.3843L85.3473 101.702V105.43Z" fill="#715035"/>
<g filter="url(#filter16_f_2_749)">
<path d="M66.9049 104.451C71.1685 99.3154 80.9325 99.9277 85.5456 104.451V102.293C85.5456 102.293 87.1685 104.541 87.5286 106.218C88.3512 110.047 83.5625 111.527 83.5625 115.441C83.5625 128.786 76.4235 132.711 79.7947 138.991C79.7947 138.991 80.5138 139.786 81.5343 140.364" stroke="#381A0C" stroke-width="0.693386"/>
</g>
<path d="M79.9945 103.275C78.2024 101.928 77.1219 101.68 75.0364 102.294C73.4765 103.784 73.2581 104.868 74.4414 107.396H79.9945C80.5715 106.036 80.5909 105.143 79.9945 103.275Z" fill="#405560"/>
<path d="M77.2171 98.1712C68.9143 98.0424 65.5299 98.6137 65.5171 102.685C63.2211 99.0913 62.7682 95.8027 67.6985 92.0876C70.4746 91.3026 71.9883 91.1176 74.6391 91.3026C76.0272 91.3995 75.4323 95.4238 85.3476 98.1712C86.4545 99.7346 86.643 100.479 85.3476 101.311C81.9763 100.919 79.9933 98.9562 77.2171 98.1712Z" fill="#AB7C36"/>
<path d="M68.69 104.912C74.365 101.454 79.4508 101.802 84.5545 104.912L84.3562 106.628" stroke="#381A0C" stroke-width="0.693386"/>
<ellipse cx="76.8408" cy="105.022" rx="0.991527" ry="0.841053" fill="#253035"/>
<path d="M113.788 194.44L111.211 196.781C102.233 192.564 95.9947 186.079 92.794 181.304L90.5504 180.904C93.7912 200.283 93.2926 211.771 91.2983 235.745C106.57 216.919 117.363 209.027 132.182 190.294C125.731 192.586 121.777 193.186 113.788 194.44Z" fill="#504E63"/>
<path d="M111.38 196.787V202.498C105.187 205.014 102.042 207.5 96.7599 213.008C93.4089 219.187 92.2963 226.754 91.2991 235.245" stroke="black" stroke-width="0.451116"/>
<path d="M109.52 199.319C109.52 200.596 108.502 201.626 107.253 201.626C106.004 201.626 104.986 200.596 104.986 199.319C104.986 198.042 106.004 197.012 107.253 197.012C108.502 197.012 109.52 198.042 109.52 199.319Z" stroke="black" stroke-width="0.451116"/>
<defs>
<filter id="filter0_f_2_749" x="62.048" y="57.0764" width="23.0516" height="88.1349" filterUnits="userSpaceOnUse" color-interpolation-filters="sRGB">
<feFlood flood-opacity="0" result="BackgroundImageFix"/>
<feBlend mode="normal" in="SourceGraphic" in2="BackgroundImageFix" result="shape"/>
<feGaussianBlur stdDeviation="1.5" result="effect1_foregroundBlur_2_749"/>
</filter>
<filter id="filter1_f_2_749" x="78.4336" y="45.507" width="70.4653" height="96.4879" filterUnits="userSpaceOnUse" color-interpolation-filters="sRGB">
<feFlood flood-opacity="0" result="BackgroundImageFix"/>
<feBlend mode="normal" in="SourceGraphic" in2="BackgroundImageFix" result="shape"/>
<feGaussianBlur stdDeviation="3.5" result="effect1_foregroundBlur_2_749"/>
</filter>
<filter id="filter2_f_2_749" x="97.6454" y="128.189" width="22.1743" height="20.5966" filterUnits="userSpaceOnUse" color-interpolation-filters="sRGB">
<feFlood flood-opacity="0" result="BackgroundImageFix"/>
<feBlend mode="normal" in="SourceGraphic" in2="BackgroundImageFix" result="shape"/>
<feGaussianBlur stdDeviation="1.5" result="effect1_foregroundBlur_2_749"/>
</filter>
<filter id="filter3_f_2_749" x="85.5809" y="132.677" width="10.4424" height="6.27301" filterUnits="userSpaceOnUse" color-interpolation-filters="sRGB">
<feFlood flood-opacity="0" result="BackgroundImageFix"/>
<feBlend mode="normal" in="SourceGraphic" in2="BackgroundImageFix" result="shape"/>
<feGaussianBlur stdDeviation="1" result="effect1_foregroundBlur_2_749"/>
</filter>
<filter id="filter4_f_2_749" x="96.8216" y="128.833" width="62.0321" height="56.035" filterUnits="userSpaceOnUse" color-interpolation-filters="sRGB">
<feFlood flood-opacity="0" result="BackgroundImageFix"/>
<feBlend mode="normal" in="SourceGraphic" in2="BackgroundImageFix" result="shape"/>
<feGaussianBlur stdDeviation="1" result="effect1_foregroundBlur_2_749"/>
</filter>
<filter id="filter5_f_2_749" x="77.1592" y="150.794" width="28.5591" height="4.78278" filterUnits="userSpaceOnUse" color-interpolation-filters="sRGB">
<feFlood flood-opacity="0" result="BackgroundImageFix"/>
<feBlend mode="normal" in="SourceGraphic" in2="BackgroundImageFix" result="shape"/>
<feGaussianBlur stdDeviation="0.5" result="effect1_foregroundBlur_2_749"/>
</filter>
<filter id="filter6_f_2_749" x="83.2368" y="155.063" width="13.1357" height="7.36664" filterUnits="userSpaceOnUse" color-interpolation-filters="sRGB">
<feFlood flood-opacity="0" result="BackgroundImageFix"/>
<feBlend mode="normal" in="SourceGraphic" in2="BackgroundImageFix" result="shape"/>
<feGaussianBlur stdDeviation="1.5" result="effect1_foregroundBlur_2_749"/>
</filter>
<filter id="filter7_f_2_749" x="76.7837" y="30.5059" width="103.765" height="88.3398" filterUnits="userSpaceOnUse" color-interpolation-filters="sRGB">
<feFlood flood-opacity="0" result="BackgroundImageFix"/>
<feBlend mode="normal" in="SourceGraphic" in2="BackgroundImageFix" result="shape"/>
<feGaussianBlur stdDeviation="1.5" result="effect1_foregroundBlur_2_749"/>
</filter>
<filter id="filter8_f_2_749" x="157.061" y="107.941" width="26.2844" height="33.3921" filterUnits="userSpaceOnUse" color-interpolation-filters="sRGB">
<feFlood flood-opacity="0" result="BackgroundImageFix"/>
<feBlend mode="normal" in="SourceGraphic" in2="BackgroundImageFix" result="shape"/>
<feGaussianBlur stdDeviation="1" result="effect1_foregroundBlur_2_749"/>
</filter>
<filter id="filter9_f_2_749" x="163.995" y="124.396" width="13.2213" height="10.6334" filterUnits="userSpaceOnUse" color-interpolation-filters="sRGB">
<feFlood flood-opacity="0" result="BackgroundImageFix"/>
<feBlend mode="normal" in="SourceGraphic" in2="BackgroundImageFix" result="shape"/>
<feGaussianBlur stdDeviation="0.5" result="effect1_foregroundBlur_2_749"/>
</filter>
<filter id="filter10_f_2_749" x="171.838" y="108.941" width="10.5068" height="9.87268" filterUnits="userSpaceOnUse" color-interpolation-filters="sRGB">
<feFlood flood-opacity="0" result="BackgroundImageFix"/>
<feBlend mode="normal" in="SourceGraphic" in2="BackgroundImageFix" result="shape"/>
<feGaussianBlur stdDeviation="0.5" result="effect1_foregroundBlur_2_749"/>
</filter>
<filter id="filter11_f_2_749" x="159.289" y="113.2" width="5.22317" height="8.22522" filterUnits="userSpaceOnUse" color-interpolation-filters="sRGB">
<feFlood flood-opacity="0" result="BackgroundImageFix"/>
<feBlend mode="normal" in="SourceGraphic" in2="BackgroundImageFix" result="shape"/>
<feGaussianBlur stdDeviation="0.5" result="effect1_foregroundBlur_2_749"/>
</filter>
<filter id="filter12_f_2_749" x="162.177" y="117.003" width="13.5498" height="12.1082" filterUnits="userSpaceOnUse" color-interpolation-filters="sRGB">
<feFlood flood-opacity="0" result="BackgroundImageFix"/>
<feBlend mode="normal" in="SourceGraphic" in2="BackgroundImageFix" result="shape"/>
<feGaussianBlur stdDeviation="0.5" result="effect1_foregroundBlur_2_749"/>
</filter>
<filter id="filter13_f_2_749" x="99.0459" y="105.032" width="13.1428" height="7.54883" filterUnits="userSpaceOnUse" color-interpolation-filters="sRGB">
<feFlood flood-opacity="0" result="BackgroundImageFix"/>
<feBlend mode="normal" in="SourceGraphic" in2="BackgroundImageFix" result="shape"/>
<feGaussianBlur stdDeviation="1" result="effect1_foregroundBlur_2_749"/>
</filter>
<filter id="filter14_f_2_749" x="98.7725" y="95.1566" width="32.6722" height="14.8489" filterUnits="userSpaceOnUse" color-interpolation-filters="sRGB">
<feFlood flood-opacity="0" result="BackgroundImageFix"/>
<feBlend mode="normal" in="SourceGraphic" in2="BackgroundImageFix" result="shape"/>
<feGaussianBlur stdDeviation="1" result="effect1_foregroundBlur_2_749"/>
</filter>
<filter id="filter15_f_2_749" x="102.996" y="106.672" width="9.00732" height="8.44403" filterUnits="userSpaceOnUse" color-interpolation-filters="sRGB">
<feFlood flood-opacity="0" result="BackgroundImageFix"/>
<feBlend mode="normal" in="SourceGraphic" in2="BackgroundImageFix" result="shape"/>
<feGaussianBlur stdDeviation="1" result="effect1_foregroundBlur_2_749"/>
</filter>
<filter id="filter16_f_2_749" x="63.6381" y="97.4787" width="27.3323" height="46.1873" filterUnits="userSpaceOnUse" color-interpolation-filters="sRGB">
<feFlood flood-opacity="0" result="BackgroundImageFix"/>
<feBlend mode="normal" in="SourceGraphic" in2="BackgroundImageFix" result="shape"/>
<feGaussianBlur stdDeviation="1.5" result="effect1_foregroundBlur_2_749"/>
</filter>
</defs>
</svg>
