<svg viewBox="0 0 233 341" preserveAspectRatio="none" fill="none" xmlns="http://www.w3.org/2000/svg">
  <defs>
    <radialGradient id="rad-bg-grad-mr-c" cx="48%" cy="29%" fx="48%" fy="29%">
      <stop offset="0%" stop-color="hsl(43, 100%, 100%)" />
      <stop offset="100%" stop-color="hsl(43, 100%, 94%)" />
    </radialGradient>
  </defs>
<path d="M219.187 326.785L219.187 340.49L13.0955 340.49L13.0955 326.76L0.34375 326.76L0.34375 14.2376L13.1209 14.2376L13.1209 0.490234L219.002 0.490234L219.002 14.2543L231.762 14.2543L231.762 326.785L219.187 326.785Z" fill="url(#rad-bg-grad-mr-c)"/>
<path d="M76.1132 178.182C77.1648 165.402 77.9022 155.191 76.9705 142.189L141.826 137.396C136.642 154.891 138.157 164.16 142.179 179.968C131.581 191.054 123.427 193.279 106.431 192.819C92.6328 191.481 85.8091 188.691 76.1132 178.182Z" fill="#D88C69"/>
<path d="M69.4389 61.1221C75.0741 43.4166 83.3015 37.9266 101.874 31.5471L123.127 35.328C139.086 48.7002 142.932 58.7083 145.644 78.6007L148.106 98.77C149.558 114.808 145.929 121.016 141.97 132.583C135.394 146.816 131.262 159.101 122.727 164.859C114.193 170.617 108.658 170.247 98.4207 166.019C90.3382 162.681 87.338 157.506 82.3895 150.251C72.1062 135.175 66.414 103.279 65.7673 102.198C66.1212 85.1434 67.5086 76.1235 69.4389 61.1221Z" fill="#E4936C"/>
<path d="M100.412 113.031C101.132 111.507 101.557 111.032 102.35 110.824C103.547 111.021 104.174 111.248 105.166 111.971C105.166 111.971 104.672 113.388 103.416 113.644C102.205 113.891 100.412 113.031 100.412 113.031Z" fill="#432925"/>
<path d="M115.402 113.041C113.226 113.439 112.259 113.327 111.239 112.192C111.886 111.004 112.571 110.573 114.499 110.325C115.96 111.223 116.1 111.827 115.402 113.041Z" fill="#432925"/>
<path d="M117.27 104.195C119.154 105.962 123.155 113.719 121.108 113.462M124.245 121.378C124.711 118.899 121.612 113.355 121.108 113.462M121.108 113.462C121.108 113.462 119.54 117.067 115.459 117.226" stroke="#6F4640" stroke-width="0.783617" stroke-linecap="round"/>
<path d="M98.6114 103.026C95.8323 108.131 95.0718 110.401 95.3771 113.215M95.3771 113.215C91.3452 117.243 90.2534 119.227 90.1805 122.324M95.3771 113.215C97.346 116.464 98.6128 117.281 101.169 116.925" stroke="#6F4640" stroke-width="0.783617" stroke-linecap="round"/>
<path d="M111.26 88.3909C111.416 91.7721 112.272 93.593 114.668 96.7602" stroke="#6F4640" stroke-width="0.783617" stroke-linecap="round"/>
<path d="M102.28 89.3392C102.706 92.9261 102.017 94.6594 100.117 97.55" stroke="#6F4640" stroke-width="0.783617" stroke-linecap="round"/>
<path d="M108.136 118.66L108.513 128.018" stroke="#6F4640" stroke-width="0.783617" stroke-linecap="round"/>
<path d="M98.8257 141.615C106.465 146.017 110.782 145.819 118.555 140.806" stroke="#6F4640" stroke-width="0.783617" stroke-linecap="round"/>
<g filter="url(#filter0_f_588_2)">
<path d="M118.301 89.331C124.406 80.768 131.176 83.3655 138.848 88.152" stroke="#816651" stroke-width="4" stroke-linecap="round"/>
</g>
<path d="M119.222 90.7719C127.257 85.3803 130.836 85.0349 138.12 93.1229" stroke="#432925" stroke-width="2.15495" stroke-linecap="round"/>
<path d="M124.857 88.0162C124.156 94.4278 131.634 94.3146 132.389 89.2548C129.483 87.6328 127.837 87.2374 124.857 88.0162Z" fill="#432925"/>
<path d="M76.7536 93.8881C85.1827 87.2451 88.1605 86.7406 95.2705 91.5501" stroke="#432925" stroke-width="2.15495" stroke-linecap="round"/>
<g filter="url(#filter1_f_588_2)">
<path d="M74.6801 91.5204C79.7327 82.9309 89.4078 84.376 97.08 89.1625" stroke="#816651" stroke-width="4" stroke-linecap="round"/>
</g>
<path d="M82.7689 90.8018C83.0452 97.6484 92.212 96.5868 90.5764 89.3387C87.4737 88.5284 85.753 88.5587 82.7689 90.8018Z" fill="#432925"/>
<path d="M67.6015 93.3212C66.8229 96.1699 66.2162 98.2262 65.7541 102.161C65.5769 99.0172 65.6098 97.082 65.8883 93.3914C65.083 83.0999 64.8299 77.0683 66.4641 65.1337C68.4736 57.8867 70.1376 53.6151 75.8294 45.2179C79.5605 36.8107 82.5574 34.2143 90.932 29.5904C100.419 25.8772 105.949 25.594 116.217 28.5538C124.964 34.1039 128.69 35.865 133.248 41.7038C142.64 54.1248 144.193 61.343 147.223 74.1997C147.636 78.5748 147.778 80.9452 147.651 84.8182L147.861 90.031C148.829 94.4485 149.277 96.8913 149.846 101.166L148.33 101.636C147.195 93.8527 146.484 89.3478 144.169 79.3528C143.457 70.3909 142.409 65.3954 139.602 56.5273C135.176 47.152 131.068 43.7898 120.827 38.1951C107.146 34.7051 99.8228 34.85 87.497 39.5614C82.0744 43.9216 79.6152 45.487 76.0086 49.6584C71.7143 55.9099 70.5131 58.8985 70.2328 63.4321C69.2748 68.4 68.8594 71.2957 69.675 77.8733C68.2778 83.6125 67.841 87.0024 67.6015 93.3212Z" fill="#3A1C0E" stroke="black" stroke-width="0.0979521"/>
<path d="M72.4231 81.6674L72.8204 91.5137C78.6585 79.2846 91.7697 80.8743 99.8291 90.4065L99.8112 90.3481C98.668 86.62 98.0216 84.5119 93.6852 80.7958C96.8825 79.8362 95.6988 78.3926 95.6521 77.2342C92.1016 75.9715 87.7283 75.8186 81.1409 78.9894C77.1334 79.1147 75.3937 78.9313 72.4231 81.6674Z" fill="#6F4640"/>
<path d="M122.441 80.1971C116.496 84.1087 114.483 86.0762 115.497 88.7972C123.586 81.0364 128.425 79.305 138.23 86.3183C140.265 86.334 141.075 85.8798 142.19 84.6089C140.856 81.9027 139.41 80.3493 135.764 77.5237C133.975 77.2903 133.343 77.8178 132.785 79.773C132.785 79.773 125.728 73.5762 121.289 75.4097C119.598 76.1083 117.495 76.4289 117.567 78.2696C117.648 80.3291 122.441 80.1971 122.441 80.1971Z" fill="#6F4640"/>
<path d="M102.714 130.939C100.497 131.085 90.7945 137.537 90.7945 137.537C95.1534 135.315 102.887 135.246 104.625 135.175C106.223 135.109 108.551 136.603 108.551 136.603C108.551 136.603 111.476 134.723 113.508 134.811C116.995 134.962 126.734 136.632 126.734 136.632C124.077 133.108 114.876 130.108 112.175 130.551C110.637 130.804 108.359 131.843 108.359 131.843C108.359 131.843 104.93 130.793 102.714 130.939Z" fill="#6F4640"/>
<g filter="url(#filter2_d_588_2)">
<path d="M60.5722 103.058C61.5923 101.24 62.8851 101.024 65.8099 102.21L72.1222 134.213C71.9905 135.448 71.8789 136.176 71.6282 137.522C69.3883 138.572 68.2794 138.765 67.2014 136.692C66.074 132.53 65.3672 130.531 66.8268 127.304C61.7284 119.163 58.4644 106.813 60.5722 103.058Z" fill="#D58E6C"/>
</g>
<path d="M65.2809 106.332C63.8882 106.646 63.3605 107.124 62.6905 108.301C62.6905 108.301 61.8827 104.902 63.2663 104.758C64.2563 104.655 65.2809 106.332 65.2809 106.332Z" fill="#6F4640"/>
<path d="M72.0979 136.892C71.3395 138.145 69.6403 138.804 68.6862 138.215C70.7226 138.131 71.4864 133.601 71.5542 130.567L72.2224 134.252C72.2224 134.252 72.6309 136.011 72.0979 136.892Z" fill="#6F4640"/>
<g filter="url(#filter3_d_588_2)">
<path d="M153.47 102.048C152.344 100.295 151.04 100.157 148.191 101.517L143.788 133.843C143.992 135.068 144.147 135.788 144.477 137.117C146.775 138.029 147.894 138.156 148.847 136.021C149.725 131.799 150.314 129.821 148.666 126.688C153.272 118.254 155.797 105.669 153.47 102.048Z" fill="#D58E6C"/>
</g>
<path d="M148.964 105.599C150.373 105.829 150.928 106.275 151.666 107.409C151.666 107.409 152.271 103.968 150.881 103.907C149.887 103.864 148.964 105.599 148.964 105.599Z" fill="#6F4640"/>
<path d="M143.971 136.515C144.802 137.721 146.538 138.276 147.455 137.631C145.417 137.67 144.386 133.194 144.139 130.169L143.69 133.888C143.69 133.888 143.387 135.668 143.971 136.515Z" fill="#6F4640"/>
<g filter="url(#filter4_f_588_2)">
<path d="M97.0062 52.1082C96.2869 50.2345 96.5054 48.7714 97.3893 46.9781C103.484 34.6126 113.474 34.3777 117.264 48.4864C117.785 50.4266 117.918 51.9008 116.881 53.6165C114.668 57.2769 98.6251 56.3248 97.0062 52.1082Z" fill="#F3B091"/>
</g>
<g filter="url(#filter5_f_588_2)">
<path d="M73.4567 107.791C72.4116 106.721 71.5387 105.478 72.8898 104.356C75.7479 101.982 91.6975 99.4908 92.5506 101.059C93.2192 102.289 93.8145 103.15 93.1175 104.494C91.6304 107.363 75.8086 110.197 73.4567 107.791Z" fill="#F3A987"/>
</g>
<g filter="url(#filter6_f_588_2)">
<path d="M123.171 104.734C122.429 103.164 121.898 101.433 123.49 100.465C126.858 98.4164 142.935 99.8584 143.365 101.973C143.702 103.63 144.061 104.826 143.046 106.242C140.881 109.264 124.841 108.268 123.171 104.734Z" fill="#F3A987"/>
</g>
<g filter="url(#filter7_f_588_2)">
<path d="M65.7694 102.252C67.9511 128.654 75.118 141.513 85.997 155.641C77.8739 137.559 72.7993 118.164 65.7694 102.252Z" fill="#DB8861"/>
</g>
<g filter="url(#filter8_f_588_2)">
<path d="M147.916 106.036C147.002 134.717 136.636 149.829 126.926 161.187C136.564 142.124 143.032 130.401 147.916 106.036Z" fill="#DB8861"/>
</g>
<g filter="url(#filter9_f_588_2)">
<path d="M77.1941 142.459C94.839 177.673 125.782 180.632 142.31 135.697" stroke="#4C2A1A" stroke-width="0.5" stroke-linecap="round"/>
</g>
<path d="M163.271 177.017L220.317 195.068C226.185 200.211 228.54 205.406 232.344 223.565V326.594H219.649V339.889H13.7926L13.7085 326.131H0.925598L1.00962 214.808C5.30389 204.445 12.626 196.577 18.6446 188.677L17.0426 195.416L56.9023 189.514L65.2324 175.281L75.1644 173.545L92.7359 256.625C119.727 217.722 125.552 194.084 143.819 160.99L163.271 177.017Z" fill="#513731"/>
<path d="M11.3772 296.161L10.0348 325.634" stroke="black" stroke-width="1.11492"/>
<path d="M199.665 304.117L201.554 339.288" stroke="black" stroke-width="1.11492"/>
<path d="M39.2534 271.913L47.6332 264.84L55.7337 271.913V284.711L47.6332 291.447L39.2534 284.711V271.913Z" fill="#D8B600"/>
<path d="M36.0842 306.023L44.4641 298.95L52.5646 306.023V318.821L44.4641 325.557L36.0842 318.821V306.023Z" fill="#D8B600"/>
<path d="M36.8336 339.485L42.1342 335.011L47.2581 339.485H36.8336Z" fill="#D8B600"/>
<path d="M37.9857 239.848L46.3655 232.776L54.466 239.848V252.646L46.3655 259.382L37.9857 252.646V239.848Z" fill="#D8B600"/>
<path d="M15.8008 271.576L21.8225 264.84L27.8441 271.576V285.048L21.8225 291.447L15.8008 285.048V271.576Z" fill="#F5DF6A"/>
<path d="M15.8008 305.686L21.8225 298.95L27.8441 305.686V319.158L21.8225 325.557L15.8008 319.158V305.686Z" fill="#F5DF6A"/>
<path d="M17.4479 339.422L21.528 334.921L25.6081 339.422H17.4479Z" fill="#F5DF6A"/>
<path d="M17.7023 239.512L23.7239 232.776L29.7456 239.512V252.983L23.7239 259.382L17.7023 252.983V239.512Z" fill="#F5DF6A"/>
<path d="M140.849 157.996L143.447 162.486C132.949 187.477 131.445 206.32 113.591 225.679C113.043 209.626 108.196 194.825 100.776 186.303C86.7259 197.358 88.6855 202.736 84.6572 222.666L73.8368 171.976L100.776 186.303L140.849 157.996Z" fill="white"/>
<path d="M113.714 225.911C113.532 212.867 112.568 197.715 100.778 186.263C87.2203 193.465 85.5598 202.889 84.7039 222.52L93.0372 257.858L113.714 225.911Z" fill="#342428"/>
<path d="M64.228 210.307L74.5351 173.692L66.0124 174.516L55.0739 211.193L64.228 210.307Z" fill="#914B4B"/>
<path d="M130.453 221.149L137.108 179.193L144.081 160.773L159.927 171.347L147.884 216.033L130.453 221.149Z" fill="#914B4B"/>
<ellipse cx="111.235" cy="300.574" rx="12.6772" ry="13.6444" fill="#D8B600"/>
<path d="M120.877 336.715C120.877 338.99 120.623 339.393 120.623 339.393C111.985 339.393 104.029 339.393 95.6274 339.335C95.5586 338.894 95.5231 337.311 95.5231 336.715C95.5231 329.18 101.199 323.071 108.2 323.071C115.202 323.071 120.877 329.18 120.877 336.715Z" fill="#D8B600"/>
<path d="M153.036 339.484C153.036 335.865 151.7 331.326 149.323 328.767C146.945 326.208 143.721 324.771 140.359 324.771C136.997 324.771 133.772 326.208 131.395 328.767C129.017 331.326 127.682 335.865 127.682 339.484L140.359 339.484H153.036Z" fill="#D8B600"/>
<ellipse cx="141.026" cy="302.619" rx="12.6772" ry="13.6444" fill="#D8B600"/>
<ellipse cx="141.66" cy="267.828" rx="12.6772" ry="13.6444" fill="#D8B600"/>
<ellipse cx="174.621" cy="271.921" rx="12.6772" ry="13.6444" fill="#D8B600"/>
<ellipse cx="173.987" cy="308.762" rx="12.6772" ry="13.6444" fill="#D8B600"/>
<path d="M185.447 339.484C184.817 337.882 183.902 335.341 182.737 334.087C180.36 331.528 177.135 330.091 173.773 330.091C170.411 330.091 167.186 331.528 164.809 334.087C163.644 335.341 162.729 337.882 162.099 339.484H173.773H185.447Z" fill="#C4C4C4"/>
<ellipse cx="212.969" cy="307.737" rx="9.82483" ry="10.5744" fill="#F5DF6A"/>
<path d="M219.617 339.418C219.617 336.614 219.617 328.247 219.617 328.247C218.686 327.937 217.708 327.775 216.715 327.775C214.109 327.775 211.61 328.889 209.768 330.872C207.925 332.855 206.89 336.614 206.89 339.418L216.715 339.418H219.617Z" fill="#D8B600"/>
<rect x="66.2307" y="322.406" width="8.24018" height="8.86885" fill="#D8B600"/>
<rect x="71.3016" y="288.637" width="8.24018" height="8.86885" fill="#D8B600"/>
<rect x="76.3724" y="254.865" width="8.24018" height="8.86885" fill="#C4C4C4"/>
<rect x="161.31" y="209.839" width="8.87404" height="9.55107" fill="#C4C4C4"/>
<rect x="114.404" y="233.717" width="8.87404" height="9.55107" fill="#C4C4C4"/>
<path d="M4.39149 242.585L2.48991 250.09H1.28699V237.408L4.39149 242.585Z" fill="#B39703"/>
<path d="M7.56088 232.352L5.6593 239.857L1.28699 233.124V220.272L7.56088 232.352Z" fill="#B39703"/>
<path d="M8.82829 230.306L1.28699 215.988V214.152L3.56236 209.256L10.7299 222.802L8.82829 230.306Z" fill="#B39703"/>
<path d="M12.2225 220.861L4.69983 207.421L8.1129 201.913L14.4156 212.767L12.2225 220.861Z" fill="#B39703"/>
<path d="M15.3943 210.629L9.55376 200.453L13.2323 195.181L17.586 202.536L15.3943 210.629Z" fill="#B39703"/>
<rect x="98.5576" y="250.091" width="6.97246" height="6.13997" fill="#C4C4C4"/>
<path d="M101.06 215.19C101.785 214.165 103.364 212.618 101.788 211.973" stroke="#D8B600" stroke-width="1.85735" stroke-linecap="round"/>
<path d="M95.9584 214.951C95.3152 213.865 93.8597 212.182 95.48 211.68" stroke="#D8B600" stroke-width="1.85735" stroke-linecap="round"/>
<path d="M98.6556 215.015C98.7048 213.733 98.2423 211.074 99.4332 210.499" stroke="#D8B600" stroke-width="1.85735" stroke-linecap="round"/>
<path d="M99.7548 219.395L99.5556 224.587" stroke="#D8B600" stroke-width="1.85735" stroke-linecap="round"/>
<path d="M102.606 221.799C102.308 219.384 102.733 219.122 103.383 217.282" stroke="#D8B600" stroke-width="1.85735" stroke-linecap="round"/>
<path d="M94.013 221.414C94.4949 219.034 94.0906 218.735 93.584 216.843" stroke="#D8B600" stroke-width="1.85735" stroke-linecap="round"/>
<path d="M97.0022 219.272L96.803 224.464" stroke="#D8B600" stroke-width="1.85735" stroke-linecap="round"/>
<ellipse cx="201.56" cy="283.176" rx="7.28939" ry="7.84552" fill="#F5DF6A"/>
<path d="M196.489 264.757L201.243 259.299L205.997 264.757V270.897H196.489V264.757Z" fill="#C4C4C4"/>
<path d="M201.56 270.556V276.353" stroke="#C4C4C4" stroke-width="2.47647"/>
<ellipse cx="221.843" cy="284.54" rx="7.28939" ry="7.84552" fill="#F5DF6A"/>
<path d="M216.772 266.121L221.526 260.663L226.28 266.121V272.261H216.772V266.121Z" fill="#C4C4C4"/>
<path d="M221.843 271.919V277.717" stroke="#C4C4C4" stroke-width="2.47647"/>
<ellipse cx="69.4" cy="245.996" rx="6.97246" ry="7.50441" fill="#C4C4C4"/>
<rect x="63.6952" y="224.164" width="11.4095" height="9.55107" fill="#C4C4C4"/>
<path d="M69.4 233.716V238.492" stroke="black" stroke-width="2.47647"/>
<ellipse cx="25.6636" cy="220.878" rx="6.97246" ry="7.50441" fill="#F5DF6A"/>
<rect x="20.8875" y="199.975" width="9.55213" height="7.69372" stroke="#B39703" stroke-width="1.85735"/>
<path d="M25.6636 208.598V213.374" stroke="black" stroke-width="2.47647"/>
<ellipse cx="45.9471" cy="218.83" rx="6.97246" ry="7.50441" fill="#C4C4C4"/>
<rect x="41.171" y="197.927" width="9.55213" height="7.69372" stroke="#B29703" stroke-width="1.85735"/>
<path d="M45.9473 206.551V211.326" stroke="black" stroke-width="2.47647"/>
<ellipse cx="218.991" cy="251.114" rx="6.97246" ry="7.50441" fill="#F5DF6A"/>
<rect x="214.215" y="230.211" width="9.55213" height="7.69372" stroke="#D8B600" stroke-width="1.85735"/>
<path d="M218.991 238.834V243.61" stroke="#B39703" stroke-width="2.47647"/>
<ellipse cx="164.479" cy="245.996" rx="6.97246" ry="7.50441" fill="#F5DF6A"/>
<rect x="159.703" y="225.093" width="9.55213" height="7.69372" stroke="#D8B600" stroke-width="1.85735"/>
<path d="M164.479 233.716V238.492" stroke="#B39703" stroke-width="2.47647"/>
<ellipse cx="116.94" cy="272.942" rx="6.97246" ry="7.50441" fill="#F5DF6A"/>
<rect x="112.163" y="252.041" width="9.55213" height="7.69372" stroke="#D8B600" stroke-width="1.85735"/>
<path d="M116.939 260.664V265.439" stroke="#B39703" stroke-width="2.47647"/>
<ellipse cx="93.4866" cy="284.541" rx="6.97246" ry="7.50441" fill="#F5DF6A"/>
<rect x="88.7105" y="263.638" width="9.55213" height="7.69372" stroke="#D8B600" stroke-width="1.85735"/>
<path d="M93.4866 272.261V277.037" stroke="#B39703" stroke-width="2.47647"/>
<ellipse cx="85.8802" cy="320.701" rx="6.97246" ry="7.50441" fill="#F5DF6A"/>
<rect x="81.1042" y="299.798" width="9.55213" height="7.69372" stroke="#D8B600" stroke-width="1.85735"/>
<path d="M85.8802 308.422V313.197" stroke="#B39703" stroke-width="2.47647"/>
<ellipse cx="182.861" cy="247.702" rx="6.97246" ry="7.50441" fill="#F5DF6A"/>
<rect x="178.085" y="226.8" width="9.55213" height="7.69372" stroke="#D8B600" stroke-width="1.85735"/>
<path d="M182.861 235.423V240.198" stroke="#B39703" stroke-width="2.47647"/>
<ellipse cx="201.243" cy="249.406" rx="6.97246" ry="7.50441" fill="#F5DF6A"/>
<rect x="196.467" y="228.504" width="9.55213" height="7.69372" stroke="#D8B600" stroke-width="1.85735"/>
<path d="M201.243 237.127V241.902" stroke="#B39703" stroke-width="2.47647"/>
<path d="M11.7294 199.746L15.4417 188.956L64.0333 176.428L59.8912 189.158L11.7294 199.746Z" fill="#E5CE88" stroke="#E2AA00" stroke-width="2.90218"/>
<path d="M161.081 176.103L218.486 190.717L214.553 201.417L157.837 187.569L161.081 176.103Z" fill="#E5CE88" stroke="#E2AA00" stroke-width="2.90218"/>
<defs>
<filter id="filter0_f_588_2" x="109.301" y="74.7214" width="38.5476" height="23.6098" filterUnits="userSpaceOnUse" color-interpolation-filters="sRGB">
<feFlood flood-opacity="0" result="BackgroundImageFix"/>
<feBlend mode="normal" in="SourceGraphic" in2="BackgroundImageFix" result="shape"/>
<feGaussianBlur stdDeviation="3.5" result="effect1_foregroundBlur_588_2"/>
</filter>
<filter id="filter1_f_588_2" x="65.6799" y="76.3195" width="40.4003" height="24.2012" filterUnits="userSpaceOnUse" color-interpolation-filters="sRGB">
<feFlood flood-opacity="0" result="BackgroundImageFix"/>
<feBlend mode="normal" in="SourceGraphic" in2="BackgroundImageFix" result="shape"/>
<feGaussianBlur stdDeviation="3.5" result="effect1_foregroundBlur_588_2"/>
</filter>
<filter id="filter2_d_588_2" x="59.1386" y="101.472" width="13.7672" height="38.3857" filterUnits="userSpaceOnUse" color-interpolation-filters="sRGB">
<feFlood flood-opacity="0" result="BackgroundImageFix"/>
<feColorMatrix in="SourceAlpha" type="matrix" values="0 0 0 0 0 0 0 0 0 0 0 0 0 0 0 0 0 0 127 0" result="hardAlpha"/>
<feOffset dy="0.783617"/>
<feGaussianBlur stdDeviation="0.391808"/>
<feComposite in2="hardAlpha" operator="out"/>
<feColorMatrix type="matrix" values="0 0 0 0 0 0 0 0 0 0 0 0 0 0 0 0 0 0 0.25 0"/>
<feBlend mode="normal" in2="BackgroundImageFix" result="effect1_dropShadow_588_2"/>
<feBlend mode="normal" in="SourceGraphic" in2="effect1_dropShadow_588_2" result="shape"/>
</filter>
<filter id="filter3_d_588_2" x="143.004" y="100.602" width="12.1291" height="38.7069" filterUnits="userSpaceOnUse" color-interpolation-filters="sRGB">
<feFlood flood-opacity="0" result="BackgroundImageFix"/>
<feColorMatrix in="SourceAlpha" type="matrix" values="0 0 0 0 0 0 0 0 0 0 0 0 0 0 0 0 0 0 127 0" result="hardAlpha"/>
<feOffset dy="0.783617"/>
<feGaussianBlur stdDeviation="0.391808"/>
<feComposite in2="hardAlpha" operator="out"/>
<feColorMatrix type="matrix" values="0 0 0 0 0 0 0 0 0 0 0 0 0 0 0 0 0 0 0.25 0"/>
<feBlend mode="normal" in2="BackgroundImageFix" result="effect1_dropShadow_588_2"/>
<feBlend mode="normal" in="SourceGraphic" in2="effect1_dropShadow_588_2" result="shape"/>
</filter>
<filter id="filter4_f_588_2" x="89.5756" y="30.7987" width="35.085" height="32.0889" filterUnits="userSpaceOnUse" color-interpolation-filters="sRGB">
<feFlood flood-opacity="0" result="BackgroundImageFix"/>
<feBlend mode="normal" in="SourceGraphic" in2="BackgroundImageFix" result="shape"/>
<feGaussianBlur stdDeviation="3.5" result="effect1_foregroundBlur_588_2"/>
</filter>
<filter id="filter5_f_588_2" x="66.1994" y="94.5691" width="33.2302" height="20.1276" filterUnits="userSpaceOnUse" color-interpolation-filters="sRGB">
<feFlood flood-opacity="0" result="BackgroundImageFix"/>
<feBlend mode="normal" in="SourceGraphic" in2="BackgroundImageFix" result="shape"/>
<feGaussianBlur stdDeviation="3" result="effect1_foregroundBlur_588_2"/>
</filter>
<filter id="filter6_f_588_2" x="116.454" y="93.4752" width="33.2588" height="20.5597" filterUnits="userSpaceOnUse" color-interpolation-filters="sRGB">
<feFlood flood-opacity="0" result="BackgroundImageFix"/>
<feBlend mode="normal" in="SourceGraphic" in2="BackgroundImageFix" result="shape"/>
<feGaussianBlur stdDeviation="3" result="effect1_foregroundBlur_588_2"/>
</filter>
<filter id="filter7_f_588_2" x="64.7694" y="101.252" width="22.2275" height="55.3884" filterUnits="userSpaceOnUse" color-interpolation-filters="sRGB">
<feFlood flood-opacity="0" result="BackgroundImageFix"/>
<feBlend mode="normal" in="SourceGraphic" in2="BackgroundImageFix" result="shape"/>
<feGaussianBlur stdDeviation="0.5" result="effect1_foregroundBlur_588_2"/>
</filter>
<filter id="filter8_f_588_2" x="125.926" y="105.036" width="22.9906" height="57.1517" filterUnits="userSpaceOnUse" color-interpolation-filters="sRGB">
<feFlood flood-opacity="0" result="BackgroundImageFix"/>
<feBlend mode="normal" in="SourceGraphic" in2="BackgroundImageFix" result="shape"/>
<feGaussianBlur stdDeviation="0.5" result="effect1_foregroundBlur_588_2"/>
</filter>
<filter id="filter9_f_588_2" x="72.944" y="131.447" width="73.6159" height="41.9535" filterUnits="userSpaceOnUse" color-interpolation-filters="sRGB">
<feFlood flood-opacity="0" result="BackgroundImageFix"/>
<feBlend mode="normal" in="SourceGraphic" in2="BackgroundImageFix" result="shape"/>
<feGaussianBlur stdDeviation="2" result="effect1_foregroundBlur_588_2"/>
</filter>
</defs>
</svg>
