<svg viewBox="0 0 234 341" preserveAspectRatio="none" fill="none" xmlns="http://www.w3.org/2000/svg">
  <defs>
    <radialGradient id="rad-bg-grad-albie" cy="29%"  fy="29%">
      <stop offset="0%" stop-color="hsl(43, 100%, 100%)" />
      <stop offset="100%" stop-color="hsl(43, 100%, 94%)" />
    </radialGradient>
  </defs>
<path d="M1.15134 340.461L1.15134 0.460938H233.055V340.461H1.15134Z" fill="url(#rad-bg-grad-albie)"/>
<path d="M152.265 134.998L153.132 125.86L159.197 129.034C159.197 129.034 159.948 132.271 158.427 134.036C156.66 136.085 152.265 134.998 152.265 134.998Z" fill="#232020"/>
<path d="M156.664 130.057C154.883 129.515 153.432 126.304 153.432 126.304L151.04 124.131L152.345 108.923L156.911 101.971C156.911 101.971 162.76 98.6854 166.044 100.232C167.088 100.725 166.679 101.109 167.448 101.971C170.009 104.839 165.867 121.461 163.869 124.131C161.805 126.891 159.963 131.059 156.664 130.057Z" fill="#D6815A" stroke="black" stroke-width="0.252049"/>
<path d="M166.161 109.544C165.714 114.805 165.16 117.557 162.832 121.599" stroke="#5D2C16" stroke-width="0.252049"/>
<path d="M155.848 105.1L154.157 113.407C156.859 110.64 158.553 110.485 161.766 111.717C164.98 112.949 159.794 107.353 159.794 107.353C163.912 102.404 165.44 102.643 166.839 108.197C167.481 103.294 166.895 101.425 163.457 100.313L155.848 105.1Z" fill="#5D2C16"/>
<path d="M74.7298 112.119C73.4115 109.627 72.8029 108.058 72.0786 104.785C70.5804 93.0536 71.1514 85.5858 72.0786 72.3239L85.3975 54.9479L125.159 48.1649L146.979 54.9479L153.283 90.3164C153.916 101.023 155.332 107.295 153.777 116.962C153.986 129.431 153.847 137.807 149.57 143.559C149.57 143.559 145.024 153.12 140.19 157.662C133.667 163.793 121.652 166.681 113.521 170.743C108.325 171.121 105.355 170.517 99.9442 167.836C91.5851 161.128 88.1279 156.801 81.1241 145.549L80.9782 145.025C78.2947 135.378 76.177 127.765 74.7298 112.119Z" fill="#D98C68" stroke="#232020" stroke-width="0.252049"/>
<g filter="url(#filter0_f_36_23)">
<path d="M125.203 118.363C122.913 116.142 122.424 113.586 125.203 111.595C128.385 109.316 133.819 109.698 137.588 111.595C141.749 113.689 143.105 117.705 139.348 120.08C135.388 122.581 128.252 121.322 125.203 118.363Z" fill="#E29C7D"/>
</g>
<g filter="url(#filter1_f_36_23)">
<path d="M119.659 73.1289C117.369 69.5815 116.879 65.4993 119.659 62.3202C122.84 58.6803 128.275 59.2911 132.044 62.3202C136.205 65.6647 137.561 72.0788 133.803 75.8704C129.844 79.8654 122.708 77.854 119.659 73.1289Z" fill="#E29C7D"/>
</g>
<path d="M72.4043 91.6678L75.8628 84.0159C74.2176 91.154 73.7056 95.0724 74.1335 101.788C74.9661 108.545 76.3722 111.601 78.8272 117.092C80.2021 116.949 78.7595 130.807 83.7678 143.256C88.7762 155.705 95.7387 161.663 106.989 164.977C109.149 165.896 108.527 164.444 106.989 159.169C109.306 163.874 111.068 164.336 115.141 164.977C120.749 163.79 123.814 162.017 129.222 158.066C143.401 153.278 148.387 147.777 152.843 135.028H155.559C149.676 152.575 148.379 162.787 137.437 170.652C133.567 173.139 125.197 179.082 119.658 179.961C114.3 180.811 110.408 183.047 101.997 174.064C93.5869 165.081 85.4056 157.145 80.0623 143.256C75.6026 131.664 75.2002 124.916 75.0061 111.684C72.2279 109.171 72.0601 106.411 71.1691 101.788L72.4043 91.6678Z" fill="#CF7D59"/>
<path d="M98.5356 149.336C103.458 150.267 105.945 150.163 109.734 148.492" stroke="black" stroke-width="1.26025" stroke-linecap="round"/>
<path d="M98.2914 143.297C98.2914 143.297 99.7291 142.417 100.764 142.23C102.166 141.976 102.971 142.923 104.38 142.711C105.56 142.534 106.027 142.2 107.212 142.061C108.569 141.902 110.647 142.723 110.647 142.723" stroke="black" stroke-width="1.26025" stroke-linecap="round"/>
<path d="M112.904 135.439L102.867 131.707L100.754 132.552C100.754 132.552 98.0791 132.209 96.4226 132.552C93.2285 133.212 90.8232 135.402 89.5554 137.302C88.2877 139.202 88.4696 140.76 88.8159 143.003C89.3115 144.707 90.144 145.583 92.6193 147.014C92.6193 147.014 94.5932 144.149 96.4226 143.003C97.9484 142.046 99.414 142.622 100.754 141.419C101.344 140.89 101.276 140.103 102.022 139.836C102.996 139.487 103.48 140.535 104.452 140.891C107.21 141.901 111.847 142.264 111.847 142.264C116.638 142.491 118.639 143.411 120.51 147.014C120.51 147.014 123.131 147.243 124.665 146.273C124.665 146.273 126.393 144.03 125.933 141.632C125.267 138.168 123.405 136.892 120.088 135.686C117.451 134.728 112.904 135.439 112.904 135.439Z" fill="#232020"/>
<path d="M98.3433 126.922C97.1425 127.639 95.1135 123.784 96.2226 120.373C97.1693 117.461 97.9406 115.86 98.3433 112.825C98.7176 110.005 98.3433 105.54 98.3433 105.54C96.8941 106.729 96.2983 107.637 95.4045 109.446C93.5423 114.456 93.3585 117.157 93.5235 121.914C93.5235 121.914 90.5983 126.66 91.7883 129.427C93.3608 133.082 101.621 132.124 101.621 132.124L105.477 129.427C108.317 129.923 109.789 129.605 112.224 128.078C112.224 128.078 109.056 126.489 107.019 126.922C105.262 127.296 104.951 129.253 103.163 129.427C101.052 129.632 99.7903 128.473 98.3433 126.922Z" fill="#5D2C16"/>
<path d="M124.853 97.8226C121.496 97.4346 119.685 98.1719 116.721 98.6255C116.721 98.6255 116.382 103.897 121.135 103.897C125.888 103.897 124.853 97.8226 124.853 97.8226Z" fill="#232020"/>
<path d="M112.002 100.399C121.708 96.0649 125.25 96.3979 133.134 102.054" stroke="black" stroke-width="1.5123" stroke-linecap="round"/>
<path d="M90.6836 99.8551C87.0863 98.4065 85.7155 98.3917 83.4469 99.8551C83.4469 99.8551 82.9972 104.478 87.3812 104.478C91.7651 104.478 90.6836 99.8551 90.6836 99.8551Z" fill="#232020"/>
<path d="M80.7935 103.897C85.5518 96.8318 88.8272 97.1459 95.4092 102.913" stroke="black" stroke-width="1.5123" stroke-linecap="round"/>
<path d="M97.7678 105.664C90.4046 93.4333 85.67 92.1558 76.2412 98.9289C75.9822 91.2296 79.176 89.8124 89.0702 89.4285C94.1704 92.0923 96.2869 93.3158 99.9126 97.3785C99.7415 101.914 99.4922 103.971 97.7678 105.664Z" fill="#232020"/>
<path d="M112.554 89.4247C110.362 90.3491 108.654 91.8092 109.075 94.149C109.414 96.0387 112.554 97.6253 112.554 97.6253C120.749 93.3522 125.328 94.7427 134.733 97.6253C137.482 97.2985 129.847 91.9748 125.6 90.2383C120.876 88.3065 116.395 87.8046 112.554 89.4247Z" fill="#232020"/>
<path d="M114.773 105.587C116.691 108.079 119.918 108.437 126.282 108.782" stroke="black" stroke-width="1.0082" stroke-linecap="round"/>
<g filter="url(#filter2_f_36_23)">
<path d="M76.6308 84.1802C76.6308 84.1802 83.367 80.0379 83.0693 75.9778C82.8392 72.8394 78.3819 69.4207 78.3819 69.4207L75.3431 77.1037L76.6308 84.1802Z" fill="#CF7C56"/>
</g>
<path d="M157.781 103.709C155.387 107.793 154.789 109.952 154.302 113.703L151.693 106.316C152.049 101.096 151.386 98.5779 147.779 95.2353C147.779 95.2353 145.033 90.6752 144.3 87.4138C143.481 83.7712 144.3 77.8542 144.3 77.8542C145.407 75.6638 145.949 74.3024 146.474 71.1191C146.448 67.2948 145.745 65.1537 142.778 61.3422C140.251 58.3513 138.57 56.9944 133.21 57.4315C130.471 57.4916 128.705 57.7395 124.73 58.9523C124.73 58.9523 119.147 61.4602 115.38 61.3422C112.023 61.2371 107.118 58.9523 107.118 58.9523C107.118 58.9523 107.43 60.4626 107.118 61.3422C106.237 63.821 101.257 63.821 100.377 61.3422C100.065 60.4626 100.377 58.9523 100.377 58.9523C95.1665 61.9281 92.1604 63.0803 86.4608 63.0803C80.7829 65.1647 78.7097 67.9279 76.676 75.2471C77.3845 81.7549 76.8662 85.2977 73.4144 91.3246C73.1121 97.7474 72.6489 100.113 71.6749 103.709L65.804 100.45C65.804 100.45 62.6014 95.1279 62.325 91.3246C62.0341 87.3221 64.7168 81.3304 64.7168 81.3304C64.7168 81.3304 62.6328 79.4727 62.325 77.8542C61.892 75.5776 64.7168 72.4227 64.7168 72.4227C64.7168 72.4227 63.9827 67.696 64.7168 64.8184C65.5442 61.5753 69.0656 57.4315 69.0656 57.4315C66.0059 56.2449 64.7814 55.2995 65.804 51.7826C71.3574 44.1947 75.1905 39.8508 84.5038 31.7944L88.2003 33.098C95.5104 27.4409 99.6567 26.9157 107.118 29.6218C108.353 25.5447 114.848 24.834 124.73 23.1039V24.6247H133.21C138.635 26.4605 139.532 28.4305 141.473 31.7944C150.9 33.3501 155.005 34.6747 155.607 39.6159C159.529 46.1523 160.954 49.5804 162.782 55.4761C164.867 57.2514 165.919 58.5233 167.566 61.3422C169.586 63.1336 169.371 66.3996 168.87 72.4227C172.458 76.7963 173.514 79.2708 173.654 83.7203L170.827 87.4138L172.567 93.2799C171.179 97.1819 169.436 98.7321 164.739 100.45C161.981 102.178 160.458 102.887 157.781 103.709Z" fill="#232020"/>
<path d="M76.6763 179.338C82.7274 178.866 85.8791 177.786 90.6442 172.958C89.8906 180.227 91.1384 187.113 90.6442 193.314L94.0706 197.616C90.9656 224.649 91.0565 239.168 99.2381 262.28C106.441 281.316 110.262 291.948 115.827 310.677C109.855 319.526 106.977 325.431 102.508 337.293C102.818 338.128 103.092 339.14 103.336 340.279H64.7943C61.3932 317.826 57.7856 296.551 56.4977 295.756C54.813 294.716 24.5194 314.833 1.05899 331.524L1.05903 238.637C6.39955 235.497 12.2298 231.054 14.927 227.2C17.001 227.305 33.3591 208.39 43.1533 194.093C44.8443 191.624 51.1349 188.111 51.1349 188.111C58.7956 184.897 64.5254 182.963 76.6763 179.338Z" fill="#2F2222"/>
<path d="M65.3599 327.971C72.2718 338.498 68.1984 331.402 73.1884 340.146" stroke="black" stroke-width="0.784364"/>
<path d="M126.826 262.45L142.804 199.272L126.826 183.987H93.5123L90.7928 190.441C88.1449 220.351 89.2738 236.192 96.9117 262.45L115.071 313.273L126.826 262.45Z" fill="#4F3B3B"/>
<path d="M116.561 230.646C108.987 246.568 106.751 265.237 108.738 296.152" stroke="black" stroke-width="0.784364"/>
<path d="M140.48 200.861C135.171 198.713 132.182 197.895 126.777 199.004C123.747 206.831 123.608 210.596 126.777 215.945C133.044 210.684 135.999 207.35 140.48 200.861Z" fill="#FBF4F2" stroke="black" stroke-width="0.272671"/>
<path d="M92.4957 196.548C97.8054 194.401 90.0293 191.916 95.4342 193.025C98.4643 200.852 109.539 196.548 107.912 216.424C101.646 211.163 96.9774 203.037 92.4957 196.548Z" fill="#FBF4F2"/>
<path d="M126.777 199.468C131.333 198.348 134.089 198.613 139.214 200.002C133.291 193.041 131.887 190.65 121.9 183.92H108.662L95.6558 186.009C93.7002 191.154 91.7276 192.328 93.5049 195.609C97.1035 198.928 105.425 200.002 107.188 216.641C108.947 219.577 112.582 228.92 116.094 231.493C117.461 225.857 120.119 222.586 126.777 216.641C124.2 211.079 123.691 207.545 126.777 199.468Z" fill="black"/>
<ellipse cx="112.623" cy="212.941" rx="1.87072" ry="1.8692" fill="#ECECEC"/>
<path d="M114.315 180.613C104.751 177.966 102.518 174.354 95.1678 167.397C91.417 170.404 89.1096 173.16 89.1096 184.581C89.6223 188.838 87.7823 199.792 89.1096 200.287C90.739 200.895 98.7319 186.738 108.125 184.212C113.344 182.809 121.96 183.876 121.96 183.876C132.177 189.382 135.144 194.873 141.827 203.877C151.74 181.778 158.389 166.504 161.606 143.046L155.514 140.002C145.339 167.63 134.5 175.352 114.315 180.613Z" fill="#FBF4F2"/>
<path d="M152.516 149.037L159.18 153.507M146.23 160.536C149.343 162.336 153.266 165.454 155.727 168.294" stroke="#5D2C16" stroke-width="1.36336" stroke-linecap="round"/>
<path d="M135.447 172.277C139.626 172.78 145.561 177.17 150.054 184.56" stroke="#5D2C16" stroke-width="1.63603" stroke-linecap="round"/>
<path d="M120.999 179.225C128.213 182.95 137.065 191.891 143.148 200.086" stroke="#5D2C16" stroke-width="1.63603" stroke-linecap="round"/>
<path d="M106.047 178.074C107.666 182.118 92.0633 182.122 89.3457 188.302" stroke="#5D2C16" stroke-width="1.63603" stroke-linecap="round"/>
<path d="M100.68 173.967C98.9504 174.472 94.923 175.084 90.7953 173.967" stroke="#5D2C16" stroke-width="1.63603" stroke-linecap="round"/>
<path d="M68.4124 182.051L55.338 206.233L73.1415 210.403L61.4579 232.083C73.8071 279.882 85.9435 294.784 111.548 312.331" stroke="black" stroke-width="0.818015" stroke-linecap="round"/>
<path d="M179.547 154.29C171.54 148.189 167.052 144.771 161.635 143.038C159.05 157.783 155.411 166.205 151.455 180.174C150.359 184.044 137.705 213.34 127.801 235.671C122.566 258.084 125.313 263.63 125.313 263.63L115.65 309.075L101.661 336.421V340.271H232.95V170.261C230.9 169.774 228.95 169.415 227.313 169.231C225.05 169.231 221.583 167.423 216.367 167.423C212.114 167.423 210.868 165.808 207.411 165.274C201.053 164.291 198.503 162.712 192.484 160.433C187.538 158.561 187.555 160.391 179.547 154.29Z" fill="#2F2222"/>
<path d="M195.728 264.547C208.569 259.186 231.801 265.153 230.821 268.356" stroke="black" stroke-width="0.818015" stroke-linecap="round"/>
<path d="M117.161 330.635C159.263 299.04 185.422 270.797 217.228 281.642" stroke="black" stroke-width="0.818015" stroke-linecap="round"/>
<path d="M227.359 188.161C221.785 199.294 220.077 210.777 219.029 230.116" stroke="black" stroke-width="0.818015" stroke-linecap="round"/>
<path d="M182.609 156.497C189.556 174.948 195.039 198.814 193.373 203.475C191.707 208.136 175.047 215.793 175.047 215.793C175.047 215.793 182.609 224.116 182.609 227.446C182.609 230.775 147.059 262.07 147.059 262.07" stroke="black" stroke-width="1.09069" stroke-linecap="round"/>
<path d="M64.1547 210.41C57.6438 217.117 56.4915 224.88 54.4755 238.79" stroke="black" stroke-width="0.818015" stroke-linecap="round"/>
<path d="M19.6074 226.392C26.5894 240.391 33.2989 248.731 42.7334 260.67" stroke="black" stroke-width="0.818015" stroke-linecap="round"/>
<path d="M24.3964 219.214C33.3462 238.133 37.9346 245.855 45.1488 253.109" stroke="black" stroke-width="0.818015" stroke-linecap="round"/>
<path d="M29.1853 212.037C34.7266 226.731 38.5914 234.22 46.745 246.33" stroke="black" stroke-width="0.818015" stroke-linecap="round"/>
<path d="M14.4193 249.52C20.3847 256.001 24.0374 258.508 31.1808 260.685" stroke="black" stroke-width="0.818015" stroke-linecap="round"/>
<path d="M38.7633 201.27C40.4713 216.538 42.528 224.337 48.3413 236.76" stroke="black" stroke-width="0.818015" stroke-linecap="round"/>
<path d="M54.3167 211.837C50.3501 219.408 42.8665 269.763 56.0433 294.016" stroke="black" stroke-width="1.56873" stroke-linecap="round"/>
<path d="M29.0531 253.816C35.36 263.315 38.8949 267.344 45.197 271.56" stroke="black" stroke-width="0.784364"/>
<path d="M16.1378 228.007C18.2511 235.804 20.4802 239.951 26.2277 246.961" stroke="black" stroke-width="0.784364"/>
<path d="M2.41565 241.718C12.4764 261.791 20.3474 269.222 37.9322 276.399" stroke="black" stroke-width="0.784364"/>
<path d="M19.3668 271.56C24.5302 277.268 28.3902 279.504 37.125 281.642" stroke="black" stroke-width="0.784364"/>
<path d="M29.8602 290.917C24.6135 282.852 17.229 281.959 10.4875 274.786C6.24819 270.275 3.79738 266.526 1.33905 262.487" stroke="black" stroke-width="0.784364"/>
<path d="M6.85517 292.127C5.04764 289.015 3.22327 286.278 1.26318 283.79" stroke="black" stroke-width="0.784364"/>
<path d="M8.87312 316.726C6.24579 312.567 3.7764 308.846 1.38477 305.475" stroke="black" stroke-width="0.784364"/>
<path d="M1.44269 302.645C5.58491 307.951 8.45258 308.163 15.7342 314.71" stroke="black" stroke-width="0.784364"/>
<path d="M9.27685 322.372C6.33884 318.802 3.91252 315.905 1.33658 312.833" stroke="black" stroke-width="0.784364"/>
<path d="M61.1989 278.078C74.2704 309.724 83.8846 321.56 103.503 336.286" stroke="black" stroke-width="0.784364"/>
<path d="M233.059 193.905C221.22 223.584 223.988 230.768 230.618 260.321C231.39 270.785 232.109 279.952 232.932 288.452" stroke="black" stroke-width="0.784364"/>
<path d="M115.071 313.645C108.302 321.93 102.625 337.85 102.625 337.85L102.033 340.151" stroke="black" stroke-width="0.784364"/>
<path d="M113.953 331.51C110.456 331.51 107.621 334.343 107.621 337.837C107.621 338.691 107.79 339.505 108.096 340.248H119.81C120.116 339.505 120.286 338.691 120.286 337.837C120.286 334.343 117.45 331.51 113.953 331.51Z" fill="#C4C4C4"/>
<defs>
<filter id="filter0_f_36_23" x="120.021" y="106.749" width="24.8057" height="17.944" filterUnits="userSpaceOnUse" color-interpolation-filters="sRGB">
<feFlood flood-opacity="0" result="BackgroundImageFix"/>
<feBlend mode="normal" in="SourceGraphic" in2="BackgroundImageFix" result="shape"/>
<feGaussianBlur stdDeviation="1.63832" result="effect1_foregroundBlur_36_23"/>
</filter>
<filter id="filter1_f_36_23" x="114.477" y="56.5374" width="24.8057" height="24.744" filterUnits="userSpaceOnUse" color-interpolation-filters="sRGB">
<feFlood flood-opacity="0" result="BackgroundImageFix"/>
<feBlend mode="normal" in="SourceGraphic" in2="BackgroundImageFix" result="shape"/>
<feGaussianBlur stdDeviation="1.63832" result="effect1_foregroundBlur_36_23"/>
</filter>
<filter id="filter2_f_36_23" x="72.8226" y="66.9002" width="12.7768" height="19.8006" filterUnits="userSpaceOnUse" color-interpolation-filters="sRGB">
<feFlood flood-opacity="0" result="BackgroundImageFix"/>
<feBlend mode="normal" in="SourceGraphic" in2="BackgroundImageFix" result="shape"/>
<feGaussianBlur stdDeviation="1.26025" result="effect1_foregroundBlur_36_23"/>
</filter>
</defs>
</svg>
