<svg viewBox="0 0 233 341" preserveAspectRatio="none" fill="none" xmlns="http://www.w3.org/2000/svg">
  <defs>
    <radialGradient id="rad-bg-grad-mona" cx="51%" cy="29%" fx="51%"  fy="29%">
      <stop offset="0%" stop-color="hsl(43, 100%, 100%)" />
      <stop offset="100%" stop-color="hsl(43, 100%, 94%)" />
    </radialGradient>
  </defs>
<path d="M232.634 0.106812H0.634033V340.107H232.634V0.106812Z" fill="url(#rad-bg-grad-mona)"/>
<path d="M109.539 178.19L106.031 159.296L157.6 134.698L164.09 187.815C163.007 208.52 164.09 227.298 150.409 242.893C139.442 250.474 132.601 254.902 119.713 256.596C100.763 254.881 91.18 250.201 76.404 242.986L76.2125 242.893C64.338 233.527 60.4678 227.285 67.0915 211.343C82.7486 192.265 91.9521 184.405 109.539 178.19Z" fill="#E8956E"/>
<g filter="url(#filter0_f_2_676)">
<path d="M149.012 144.13L105.837 167.042C126.309 195.745 142.124 203.207 153.586 167.042C155.229 151.991 157.62 144.13 157.62 144.13H149.012Z" fill="#C77648"/>
</g>
<path d="M156.709 226.686L185.858 186.444C201.922 195.805 220.502 204.979 225.256 210.389C230.011 215.799 232.634 226.011 232.634 226.011V340.106H0.634056L0.634033 287.83C7.33503 267.038 18.7576 227.68 35.3036 213.964C52.6123 199.615 84.5235 192.831 84.5235 192.831C72.5531 246.961 108.778 255.535 133.393 247.159C143.906 243.582 150.04 237.257 156.709 226.686Z" fill="#671D1D"/>
<path d="M116.947 254.493C96.7426 277.186 83.3276 300.812 79.4286 321.413" stroke="#370000"/>
<path d="M124.079 254.493C108.114 272.425 97.0905 289.742 91.9995 303.85" stroke="#370000"/>
<path d="M132.4 252.008C122.41 263.23 116.027 270.89 110.737 280.211" stroke="#370000"/>
<path d="M109.527 254.126C87.4168 278.961 73.3758 305.266 70.9104 332.785" stroke="#370000"/>
<path d="M102.931 252.845C79.6966 276.906 64.363 310.825 63.3837 339.526" stroke="#370000"/>
<path d="M97.6046 250.48C72.5944 274.972 56.3376 312.899 56.3376 339.539" stroke="#370000"/>
<path d="M92.5272 246.944C66.1098 270.457 49.2526 314.905 49.2526 339.504" stroke="#370000"/>
<path d="M88.014 242.228C57.0465 269.646 42.3941 315.943 41.9728 339.497" stroke="#370000"/>
<path d="M84.1643 237.218C47.5677 270.354 37.5073 311.947 33.1107 339.469" stroke="#370000"/>
<path d="M232.148 245.443C182.39 214.638 147.862 269.6 114.333 318.858L103.355 339.272" stroke="#370000"/>
<path d="M232.148 238.991C190.994 209.477 143.492 263.563 107.396 318.858L95.9415 339.274" stroke="#370000"/>
<path d="M232.148 233.047C198.546 201.896 140.014 259.521 100.606 318.816L88.628 339.279" stroke="#370000"/>
<path d="M231.602 225.933C200.484 196.327 137.471 255.302 94.1339 318.858L81.427 339.267" stroke="#370000"/>
<path d="M222.645 208.826C192.047 194.465 141.264 243.722 98.0926 295.507L66.5541 339.241" stroke="#370000"/>
<path d="M228.893 217.708C191.691 191.112 125.332 267.755 87.4168 318.465L73.4611 339.247" stroke="#370000"/>
<path d="M184.253 304.499C184.253 304.499 181.63 324.492 181.63 337.315" stroke="#370000"/>
<path d="M83.8743 54.9377L107.08 45.3534L134.019 51.2105L159.459 80.1762L156.411 144.746C140.021 156.993 124.769 162.14 112.923 164.803C99.4533 166.932 99.6155 156.816 86.9576 144.746C80.925 136.759 79.7492 118.478 79.3304 99.3096C78.9116 80.141 79.4763 65.1597 83.8743 54.9377Z" fill="#E8956E"/>
<g filter="url(#filter1_f_2_676)">
<path d="M115.005 57.9448C109.422 54.3799 101.562 54.9627 95.2983 57.9448C92.3738 62.191 92.7629 64.5716 95.2983 68.8176C102.645 72.5014 107.034 72.578 115.005 71.6695C117.308 68.393 119.262 60.6624 115.005 57.9448Z" fill="#EFAB8B"/>
<path d="M128.473 109.28C127.323 107.142 120.888 106.963 120.097 109.28C119.307 111.597 121.065 120.837 125.353 119.974C129.321 119.176 129.622 111.419 128.473 109.28Z" fill="#EFAB8B"/>
<path d="M88.566 115.695L93.8155 111.135" stroke="#FFCDB5" stroke-width="3" stroke-linecap="round"/>
<path d="M99.8334 120.378C99.8335 112.461 105.249 100.585 105.249 100.585C105.249 100.585 107.632 112.989 107.632 120.378C107.632 122.729 105.662 124.073 103.733 124.073C101.804 124.073 99.8334 122.729 99.8334 120.378Z" fill="#EFAB8B"/>
</g>
<g filter="url(#filter2_f_2_676)">
<path d="M167.078 91.5072C163.869 71.6621 139.603 54.2472 139.603 54.2472C134.715 57.5607 134.147 65.7274 134.147 65.7274C134.147 65.7274 137.492 72.8999 144.797 74.8577C152.102 76.8156 140.804 89.0008 145.629 91.5072C150.455 94.0135 149.79 98.3102 149.79 98.3102C148.703 108.823 143.466 119.256 144.465 123.553C145.463 127.85 149.297 127.915 150.622 131.788C152.704 137.878 147.959 148.156 147.959 148.156C151.23 145.906 158.719 140.532 161.745 138.227L167.078 91.5072Z" fill="#C87445"/>
</g>
<g filter="url(#filter3_f_2_676)">
<path d="M106.819 158.867C103.036 159.181 99.6067 157.892 93.498 152.624C96.8282 157.797 100.159 160.65 103.138 163.326C113.61 169.219 142.404 157.663 160.365 145.975C160.365 145.975 156.513 137.466 154.319 131.398C152.924 127.538 148.886 127.474 147.834 123.193C146.783 118.912 152.298 108.517 153.443 98.0425C153.443 98.0425 154.144 93.7617 149.061 91.2645C143.978 88.7673 155.879 76.6267 148.185 74.6761C140.49 72.7254 136.967 65.5792 136.967 65.5792C136.967 65.5792 135.499 59.4269 140.648 56.1256C140.648 56.1256 133.695 53.0531 130.131 57.1958C127.386 63.9527 127.327 67.2127 130.131 72.0005C135.108 75.627 138.13 76.645 143.978 76.6381C146.906 78.0137 147.065 79.4192 146.783 82.1676C143.262 88.0515 139.942 89.2122 133.111 89.8375L143.978 94.6535C148.462 93.3788 148.847 94.8781 149.061 98.0425C149.668 102.819 149.352 105.221 147.834 109.101C147.089 119.231 137.668 122.479 137.668 126.047C137.668 129.614 144.284 130.149 147.834 134.608C127.167 153.065 117.378 159.939 106.819 158.867Z" fill="#D68151"/>
</g>
<g filter="url(#filter4_f_2_676)">
<path d="M120.919 133.877C121.946 135.21 122.56 136.704 122.56 138.301" stroke="#935836" stroke-width="1.43163" stroke-linecap="round"/>
</g>
<g opacity="0.46" filter="url(#filter5_f_2_676)">
<path d="M113.856 129.777C112.948 132.009 105.879 133.088 103.838 132.094C103.339 130.942 101.938 131.088 100.529 129.777L101.539 128.351C103.097 125.937 104.338 126.188 106.959 125.321L107.03 125.322C110.265 125.393 111.248 125.415 112.707 126.925C113.465 126.056 113.531 124.955 113.528 123.538C115.424 124.665 114.765 127.544 113.856 129.777Z" fill="#633922"/>
</g>
<g filter="url(#filter6_f_2_676)">
<path d="M102.197 143.323C105.74 144.192 107.968 143.992 112.05 143.323C108.45 145.806 106.532 145.653 103.772 145.209" stroke="#935836" stroke-width="2" stroke-linecap="round"/>
</g>
<path d="M94.9709 137.086C104.66 139.135 110.75 138.561 118.784 136.551" stroke="#935836" stroke-width="2.305" stroke-linecap="round"/>
<g filter="url(#filter7_f_2_676)">
<path d="M113.693 89.4937C110.748 89.6866 107.564 96.0601 108.109 98.9403C108.158 99.4908 107.011 103.199 108.109 106.248C109.694 110.651 113.693 106.248 113.693 106.248C115.656 104.58 109.259 98.9403 115.663 94.6626C119.865 89.5637 127.161 92.0713 132.907 94.6626L128.801 96.8015L128.309 98.9403H132.907C137.996 97.7553 139.536 96.8298 139.64 94.6626C139.016 93.4382 138.6 92.8645 137.67 92.1672L137.667 92.1667C129.279 90.471 123.114 89.2247 113.693 89.4937Z" fill="#673C23"/>
</g>
<path d="M115.828 98.0513C120.699 94.3483 124.06 93.9798 131.265 96.6255" stroke="#3C220E" stroke-width="1.78954" stroke-linecap="round"/>
<g filter="url(#filter8_f_2_676)">
<path d="M120.426 104.29C125.09 104.736 127.62 104.3 131.922 101.795" stroke="#7D4A2D" stroke-width="1.43163" stroke-linecap="round"/>
</g>
<path d="M122.397 94.7687C125.408 94.593 126.113 94.849 129.13 95.9793C128.309 102.234 121.575 102.032 122.397 94.7687Z" fill="#3C220E"/>
<path d="M84.7891 99.2992C87.5815 96.1645 91.0668 94.5237 95.4638 95.9131L97.763 98.4081" stroke="#3C220E" stroke-width="1.78954" stroke-linecap="round"/>
<path d="M95.792 97.3372C94.8066 96.4461 92.7885 95.6991 90.8652 96.4461C90.8652 96.4461 89.8798 100.052 92.8359 100.545C94.9708 100.902 95.792 98.7629 95.792 97.3372Z" fill="#3C220E"/>
<g filter="url(#filter9_f_2_676)">
<path d="M87.5807 93.4164C85.3137 94.6323 84.6706 95.2107 82.9823 97.516C81.6785 96.0623 81.7699 95.1241 82.1612 93.4164C86.8677 91.318 89.544 91.0809 94.3139 90.5645C97.7844 92.1768 99.2812 93.1921 99.7334 95.5553C99.9389 96.3627 99.9004 96.7421 98.9122 96.9813L95.4635 93.4164C92.6487 92.4065 90.9767 92.1995 87.5807 93.4164Z" fill="#3C220E"/>
</g>
<g filter="url(#filter10_f_2_676)">
<path d="M91.1936 104.112L95.4626 103.578" stroke="#7D4A2D" stroke-width="1.78954" stroke-linecap="round"/>
</g>
<g filter="url(#filter11_f_2_676)">
<path d="M97.0685 125.176C97.0824 127.514 99.5168 128.15 100.638 128.804" stroke="#7D4A2D" stroke-width="0.715814" stroke-linecap="round"/>
</g>
<g filter="url(#filter12_f_2_676)">
<path d="M107.763 165.13C125.451 163.859 146.731 156.548 155.495 148.995" stroke="#6E4A39" stroke-width="0.5" stroke-linecap="round"/>
</g>
<path d="M88.1303 59.0128C96.0042 54.9042 97.7151 52.5542 107.31 51.351C119.764 51.6036 125.405 52.5055 139.319 57.4483C155.981 74.3804 161.162 82.2417 162.352 95.5455L157.063 143.504C145.227 186.02 169.166 234.864 150.693 278.475C158.626 278.475 181.368 246.725 181.909 240.113C181.909 240.113 189.479 202.463 189.479 195.73C189.479 171.562 191.005 151.767 191.112 126.036C187.488 84.4991 182.479 69.6137 178.7 64.0064C171.771 48.549 165.748 41.9355 152.038 32.9917C138.252 28.6375 131.668 26.8043 123.623 27.2879C114.051 27.6293 108.675 28.8128 99.0662 33.3482C85.6798 43.5741 80.2889 50.0484 73.1478 62.4022C66.0765 79.9297 64.6063 84.4119 63.1083 101.616C61.0344 113.297 61.1757 120.269 61.0344 136.552C62.1558 155.131 61.148 163.879 63.136 176.048C63.112 188.572 63.3045 187.63 66.3977 197.985C81.1086 191.882 99.5149 194.554 111.272 181.292C110.22 175.766 110.198 173.462 109.145 166.867C109.145 166.867 108.547 165.746 107.329 164.898C100.791 164.049 97.0843 156.643 93.498 151.784C87.5781 143.763 85.1734 143.733 82.1915 133.038L79.5587 103.933C79.5943 101.843 78.7153 100.531 80.298 97.6947C78.621 91.3125 80.058 83.5617 81.2781 67.7285C84.4689 63.6198 87.0674 64.5058 88.1303 59.0128Z" fill="#452F31"/>
<g filter="url(#filter13_f_2_676)">
<path d="M156.95 39.4079C147.221 33.1577 141.978 31.7407 132.919 32.0999C141.435 36.5576 146.15 39.7472 154.494 46.1812C152.946 43.3762 152.33 42.0225 154.494 42.4381C154.492 40.2899 155.099 39.6966 156.95 39.4079Z" fill="#98522B"/>
<path d="M178.7 203.215C177.717 194.489 178.111 189.222 181.857 178.618C183.666 186.227 184.324 191.401 184.488 203.215L181.857 196.62L178.7 203.215Z" fill="#98522B"/>
<path d="M170.807 201.254C170.895 196.424 172.062 193.871 175.367 189.49C176.44 205.316 177.652 215.984 175.367 221.93L172.736 215.157C171.438 213.981 169.929 214.858 165.895 219.079C166.594 214.909 167.687 212.495 172.736 207.849C173.092 203.432 173.065 201.331 170.807 201.254Z" fill="#98522B"/>
<path d="M63.136 101.344C64.1162 87.8975 65.5864 80.4273 72.4476 63.9928C67.7849 77.5444 69.9914 85.0456 72.0848 92.8818C72.9505 95.3148 74.2296 95.296 77.8732 92.8818L68.2259 103.755C69.552 109.408 69.5701 111.796 68.2259 114.627C63.0442 118.25 61.8073 118.196 62.1558 108.316C62.6459 103.755 62.6375 103.483 63.136 101.344Z" fill="#98522B"/>
</g>
<path d="M110.255 183.217C119.716 201.504 138.809 201.504 153.781 189.301" stroke="#FFE03C" stroke-width="2" stroke-dasharray="1 2.5"/>
<defs>
<filter id="filter0_f_2_676" x="101.837" y="140.13" width="59.7835" height="55.3173" filterUnits="userSpaceOnUse" color-interpolation-filters="sRGB">
<feFlood flood-opacity="0" result="BackgroundImageFix"/>
<feBlend mode="normal" in="SourceGraphic" in2="BackgroundImageFix" result="shape"/>
<feGaussianBlur stdDeviation="2" result="effect1_foregroundBlur_2_676"/>
</filter>
<filter id="filter1_f_2_676" x="80.066" y="48.4849" width="55.9922" height="82.5884" filterUnits="userSpaceOnUse" color-interpolation-filters="sRGB">
<feFlood flood-opacity="0" result="BackgroundImageFix"/>
<feBlend mode="normal" in="SourceGraphic" in2="BackgroundImageFix" result="shape"/>
<feGaussianBlur stdDeviation="3.5" result="effect1_foregroundBlur_2_676"/>
</filter>
<filter id="filter2_f_2_676" x="130.147" y="50.2472" width="40.9311" height="101.909" filterUnits="userSpaceOnUse" color-interpolation-filters="sRGB">
<feFlood flood-opacity="0" result="BackgroundImageFix"/>
<feBlend mode="normal" in="SourceGraphic" in2="BackgroundImageFix" result="shape"/>
<feGaussianBlur stdDeviation="2" result="effect1_foregroundBlur_2_676"/>
</filter>
<filter id="filter3_f_2_676" x="89.498" y="51.0294" width="74.8668" height="117.885" filterUnits="userSpaceOnUse" color-interpolation-filters="sRGB">
<feFlood flood-opacity="0" result="BackgroundImageFix"/>
<feBlend mode="normal" in="SourceGraphic" in2="BackgroundImageFix" result="shape"/>
<feGaussianBlur stdDeviation="2" result="effect1_foregroundBlur_2_676"/>
</filter>
<filter id="filter4_f_2_676" x="118.203" y="131.161" width="7.07341" height="9.85571" filterUnits="userSpaceOnUse" color-interpolation-filters="sRGB">
<feFlood flood-opacity="0" result="BackgroundImageFix"/>
<feBlend mode="normal" in="SourceGraphic" in2="BackgroundImageFix" result="shape"/>
<feGaussianBlur stdDeviation="1" result="effect1_foregroundBlur_2_676"/>
</filter>
<filter id="filter5_f_2_676" x="99.5289" y="122.538" width="16.2186" height="10.9265" filterUnits="userSpaceOnUse" color-interpolation-filters="sRGB">
<feFlood flood-opacity="0" result="BackgroundImageFix"/>
<feBlend mode="normal" in="SourceGraphic" in2="BackgroundImageFix" result="shape"/>
<feGaussianBlur stdDeviation="0.5" result="effect1_foregroundBlur_2_676"/>
</filter>
<filter id="filter6_f_2_676" x="96.1966" y="137.323" width="21.4215" height="14.1463" filterUnits="userSpaceOnUse" color-interpolation-filters="sRGB">
<feFlood flood-opacity="0" result="BackgroundImageFix"/>
<feBlend mode="normal" in="SourceGraphic" in2="BackgroundImageFix" result="shape"/>
<feGaussianBlur stdDeviation="2.5" result="effect1_foregroundBlur_2_676"/>
</filter>
<filter id="filter7_f_2_676" x="105.632" y="87.4571" width="36.0085" height="22.748" filterUnits="userSpaceOnUse" color-interpolation-filters="sRGB">
<feFlood flood-opacity="0" result="BackgroundImageFix"/>
<feBlend mode="normal" in="SourceGraphic" in2="BackgroundImageFix" result="shape"/>
<feGaussianBlur stdDeviation="1" result="effect1_foregroundBlur_2_676"/>
</filter>
<filter id="filter8_f_2_676" x="117.71" y="99.0788" width="16.9276" height="8.08038" filterUnits="userSpaceOnUse" color-interpolation-filters="sRGB">
<feFlood flood-opacity="0" result="BackgroundImageFix"/>
<feBlend mode="normal" in="SourceGraphic" in2="BackgroundImageFix" result="shape"/>
<feGaussianBlur stdDeviation="1" result="effect1_foregroundBlur_2_676"/>
</filter>
<filter id="filter9_f_2_676" x="79.9051" y="88.5645" width="21.9283" height="10.9515" filterUnits="userSpaceOnUse" color-interpolation-filters="sRGB">
<feFlood flood-opacity="0" result="BackgroundImageFix"/>
<feBlend mode="normal" in="SourceGraphic" in2="BackgroundImageFix" result="shape"/>
<feGaussianBlur stdDeviation="1" result="effect1_foregroundBlur_2_676"/>
</filter>
<filter id="filter10_f_2_676" x="88.2988" y="100.683" width="10.0587" height="6.32434" filterUnits="userSpaceOnUse" color-interpolation-filters="sRGB">
<feFlood flood-opacity="0" result="BackgroundImageFix"/>
<feBlend mode="normal" in="SourceGraphic" in2="BackgroundImageFix" result="shape"/>
<feGaussianBlur stdDeviation="1" result="effect1_foregroundBlur_2_676"/>
</filter>
<filter id="filter11_f_2_676" x="94.7106" y="122.818" width="8.28561" height="8.34363" filterUnits="userSpaceOnUse" color-interpolation-filters="sRGB">
<feFlood flood-opacity="0" result="BackgroundImageFix"/>
<feBlend mode="normal" in="SourceGraphic" in2="BackgroundImageFix" result="shape"/>
<feGaussianBlur stdDeviation="1" result="effect1_foregroundBlur_2_676"/>
</filter>
<filter id="filter12_f_2_676" x="105.513" y="146.745" width="52.2324" height="20.635" filterUnits="userSpaceOnUse" color-interpolation-filters="sRGB">
<feFlood flood-opacity="0" result="BackgroundImageFix"/>
<feBlend mode="normal" in="SourceGraphic" in2="BackgroundImageFix" result="shape"/>
<feGaussianBlur stdDeviation="1" result="effect1_foregroundBlur_2_676"/>
</filter>
<filter id="filter13_f_2_676" x="59.1012" y="29.0482" width="128.387" height="195.882" filterUnits="userSpaceOnUse" color-interpolation-filters="sRGB">
<feFlood flood-opacity="0" result="BackgroundImageFix"/>
<feBlend mode="normal" in="SourceGraphic" in2="BackgroundImageFix" result="shape"/>
<feGaussianBlur stdDeviation="1.5" result="effect1_foregroundBlur_2_676"/>
</filter>
</defs>
</svg>
