<svg viewBox="0 0 161 202" fill="none" xmlns="http://www.w3.org/2000/svg">
<g id="programmer-gear">
<path id="legs" d="M108.573 42.9537C109.204 81.3112 107.745 102.273 98.5565 137.684M41.5244 158.548C56.1752 123.498 58.9918 98.2508 59.7502 57.564C61.8228 96.9615 62.958 119.065 74.4819 158.532M2.69269 190.827C15.3459 158.139 19.4852 130.782 21.7861 88.5449C25.4663 129.348 27.951 155.172 40.9022 191.142" stroke="#5A2E2E" stroke-width="4" stroke-miterlimit="16"/>
<g id="monitors">
<g id="left">
<path id="left_2" d="M56.4303 3.75684L17.1458 4.75709L12.7318 4.37377L16.7207 91.9772L21.0739 91.493L59.5083 59.2763L56.4303 3.75684Z" fill="#5A2E2E"/>
<path id="left-screen" d="M18.7546 9.15641L21.9145 85.3295L57.9381 56.5115L55.5387 6.56726L18.7546 9.15641Z" fill="#393939"/>
<path id="content" d="M25.3456 18.0112L50.983 15.4675M25.5238 22.2331L51.1736 19.4227M25.7132 26.5132L51.4646 23.3309M25.8836 31.2099L51.6725 27.3638M26.0351 36.0771L51.8388 31.3136M26.2318 41.4291L52.0883 35.2634M26.4328 46.9289L52.2546 39.4626M26.6412 52.6104L52.4625 43.3708M26.8116 58.0647L52.687 47.032M27.0957 63.9L52.9399 50.7757M27.3798 70.7535L53.1929 54.9242" stroke="#B8AE77" stroke-width="0.74" stroke-linecap="round" stroke-dasharray="1.48 1.48"/>
</g>
<g id="middle">
<path id="middle_2" d="M108.098 44.517L107.788 2.31354L56.4423 3.68464L56.4423 4.03281L59.321 58.9868L60.0507 58.9868L108.098 44.517Z" fill="#5A2E2E"/>
<path id="middle-screen" d="M60.2901 55.5269L58.1311 6.46306L107.52 4.64551L107.757 42.5882L60.2901 55.5269Z" fill="#393939"/>
<path id="content_2" d="M62 13.2331L103 11M62.0944 16.1103L103.057 13.7425M62.0945 18.8389L103.134 16.1082M62.2704 21.7636L103.139 18.7099M62.3894 24.9938L103.161 21.4503M62.5737 28.4736L103.109 24.3486M62.6889 31.9072L103.153 27.1228M62.8677 35.7326L103.155 29.8793M62.8677 39.657L103.153 32.7598M63.0945 44.2L103.153 35.6981M63.242 48.3611L103.191 38.8043" stroke="#B8AE77" stroke-width="0.74" stroke-linecap="round" stroke-dasharray="1.48 1.48"/>
</g>
<g id="right">
<path id="right_2" d="M159.765 0.755859L108.524 2.31777L107.668 2.31777L108.038 44.1916L108.94 44.1916L160.433 38.2422L159.765 0.755859Z" fill="#5A2E2E"/>
<path id="right-screen" d="M109.082 4.59151L158.397 2.99982L158.93 36.4143L109.327 41.9998L109.082 4.59151Z" fill="#393939"/>
<path id="content_3" d="M112.094 10.736L152.55 9M112.094 12.7736L152.06 11M112.094 14.7059L151.654 13M112.094 16.8467L151.884 15.2206M112.094 18.9451L151.431 17.25M112.095 21.502L150.983 19.7M112.094 23.9862L151.004 22M112.094 26.6311L151.476 24.3M112.094 29.4347L149.596 26.71M112.094 32.5558L149.42 29M112.094 35.678L148.985 31.4995" stroke="#B8AE77" stroke-width="0.74" stroke-linecap="round" stroke-dasharray="1.48 1.48"/>
</g>
</g>
<g id="keyboard">
<g id="outline">
<path d="M83.4907 128.859C103.214 118.548 117.207 115.94 147.54 118.811C148.306 118.883 149.011 119.632 148.971 120.322L146.75 132.506L146.645 134.332C135.43 132.79 119.17 131.93 112.105 141.276C112.105 141.276 83.2598 132.863 83.0063 132.371L82.9794 129.731C82.8904 129.158 83.4907 128.859 83.4907 128.859Z" fill="#FFFBE4"/>
<path d="M146.75 132.506L148.971 120.322C149.011 119.632 148.306 118.883 147.54 118.811C117.207 115.94 103.214 118.548 83.4907 128.859C83.4907 128.859 82.8904 129.158 82.9794 129.731M146.75 132.506C130.324 129.768 117.988 133.109 112.211 139.445M146.75 132.506L146.645 134.332C135.43 132.79 119.17 131.93 112.105 141.276M112.211 139.445L84.1113 130.881C84.1113 130.881 83.1101 130.572 82.9794 129.731M112.211 139.445L112.105 141.276M82.9794 129.731L83.0063 132.371C83.2598 132.863 112.105 141.276 112.105 141.276M85.3704 130.506L111.093 138.158C116.307 134.064 122.027 131.606 130.314 130.919M134.113 130.732L128.606 119.259M134.113 130.732C132.788 130.756 131.524 130.819 130.314 130.919M134.113 130.732C137.41 130.671 141.085 130.846 145.237 131.263M130.314 130.919L122.292 119.4" stroke="black" stroke-width="0.251632"/>
</g>
<path id="Vector" d="M126.55 131.331L124.603 129.247M124.603 129.247L122.679 127.189M124.603 129.247C123.262 129.467 121.952 129.744 120.625 130.085M124.603 129.247C128.288 128.643 132.2 128.472 137.305 128.597M122.679 127.189L120.984 125.374M122.679 127.189C121.145 127.424 119.658 127.713 118.219 128.055M122.679 127.189C127.039 126.52 131.775 126.285 136.858 126.504M120.984 125.374L119.233 123.501M120.984 125.374C119.267 125.609 117.626 125.895 116.057 126.23M120.984 125.374C125.591 124.745 130.736 124.492 136.469 124.684M119.233 123.501L117.58 121.732M119.233 123.501C117.446 123.764 115.69 124.086 113.969 124.469M119.233 123.501C124.587 122.715 130.224 122.462 136.052 122.734M117.58 121.732L116.788 120.884M117.58 121.732C116.558 121.861 115.549 122.009 114.552 122.174M117.58 121.732C118.54 121.611 119.513 121.506 120.498 121.416M116.788 120.884L116.034 120.077M116.788 120.884C115.764 121.012 114.758 121.156 113.769 121.315M116.788 120.884C117.78 120.76 118.789 120.65 119.814 120.555M109.786 120.939L109.794 120.946M109.794 120.946L110.851 121.838M109.794 120.946C106.711 121.545 103.78 122.301 100.969 123.212M109.794 120.946C112.749 120.373 115.842 119.943 119.103 119.66M110.851 121.838L111.843 122.675M110.851 121.838C109.834 122.04 108.835 122.259 107.853 122.494M110.851 121.838C111.808 121.649 112.78 121.474 113.769 121.315M111.843 122.675L113.969 124.469M111.843 122.675C110.849 122.878 109.867 123.101 108.896 123.343M111.843 122.675C112.736 122.493 113.639 122.326 114.552 122.174M113.969 124.469L116.057 126.23M113.969 124.469C112.25 124.85 110.565 125.292 108.919 125.794M116.057 126.23L118.219 128.055M116.057 126.23C114.433 126.577 112.887 126.975 111.415 127.422M118.219 128.055L120.625 130.085M118.219 128.055C116.816 128.388 115.459 128.772 114.148 129.204M120.625 130.085L122.965 132.059M120.625 130.085C119.473 130.381 118.308 130.725 117.101 131.122M103.698 122.389L105.002 123.239M105.002 123.239L106.256 124.057M105.002 123.239C104.094 123.496 103.201 123.768 102.322 124.056M105.002 123.239C105.936 122.975 106.886 122.726 107.853 122.494M106.256 124.057L108.919 125.794M106.256 124.057C104.574 124.549 102.924 125.102 101.3 125.717M106.256 124.057C107.127 123.803 108.007 123.565 108.896 123.343M108.919 125.794L111.415 127.422M108.919 125.794C107.344 126.274 105.804 126.81 104.302 127.401M111.415 127.422L114.148 129.204M111.415 127.422C109.892 127.884 108.447 128.398 107.08 128.959M114.148 129.204L115.797 130.28M114.148 129.204C112.784 129.654 111.471 130.158 110.21 130.714M115.797 130.28L120.032 133.042M115.797 130.28L111.979 131.613M115.797 130.28L115.932 130.233M98.3714 124.075L98.41 124.097M98.41 124.097L99.863 124.912M98.41 124.097C96.4581 124.815 94.5624 125.611 92.7115 126.486M98.41 124.097C99.2522 123.787 100.105 123.493 100.969 123.212M99.863 124.912L101.3 125.717M99.863 124.912C98.9174 125.262 97.9878 125.63 97.0732 126.016M99.863 124.912C100.671 124.613 101.49 124.328 102.322 124.056M101.3 125.717L104.302 127.401M101.3 125.717C99.5284 126.389 97.7883 127.136 96.0721 127.958M104.302 127.401L107.08 128.959M104.302 127.401C103.783 127.605 103.269 127.816 102.76 128.033M107.08 128.959L108.488 129.748M107.08 128.959C106.642 129.138 106.211 129.323 105.788 129.512M108.488 129.748L110.21 130.714M108.488 129.748L103.837 132.158M108.488 129.748L108.504 129.74M110.21 130.714L116.853 134.439M110.21 130.714C108.686 131.385 107.238 132.133 105.867 132.956M92.6178 126.445L92.7115 126.486M92.7115 126.486L94.3889 127.221M92.7115 126.486C90.1555 127.694 87.6849 129.051 85.2699 130.557M94.3889 127.221L96.0721 127.958M94.3889 127.221C93.6143 127.59 92.8503 127.972 92.0963 128.368M94.3889 127.221C95.2696 126.801 96.164 126.4 97.0732 126.016M96.0721 127.958L99.5916 129.501M96.0721 127.958C94.5563 128.685 93.059 129.471 91.5751 130.318M99.5916 129.501L99.6271 129.516M99.5916 129.501C97.5732 130.513 95.6386 131.639 93.7964 132.88M99.5916 129.501C100.626 128.982 101.683 128.492 102.76 128.033M113.851 136.094L105.867 132.956M105.867 132.956L103.837 132.158M105.867 132.956C104.601 133.716 103.401 134.54 102.269 135.426M103.837 132.158L102.012 131.441M103.837 132.158L103.812 132.171M102.012 131.441L98.5103 130.064M102.012 131.441C100.56 132.283 99.2192 133.189 97.9842 134.15M102.012 131.441C103.196 130.754 104.453 130.11 105.788 129.512M90.4167 127.668L92.0963 128.368M92.0963 128.368L93.8213 129.087M92.0963 128.368C91.2964 128.788 90.5077 129.223 89.7293 129.673M95.5112 131.692L91.5751 130.318M91.5751 130.318L89.7293 129.673M91.5751 130.318C90.8523 130.73 90.1326 131.157 89.4154 131.598M89.7293 129.673L88.0115 129.073M89.7293 129.673C88.9452 130.126 88.1716 130.595 87.4075 131.078M102.712 128.009L102.76 128.033M102.76 128.033L105.788 129.512M105.788 129.512L105.805 129.52M98.6023 126.79L97.0732 126.016M97.0732 126.016L95.5911 125.266M103.586 124.844L102.322 124.056M102.322 124.056L100.969 123.212M100.969 123.212L100.94 123.195M108.966 123.4L108.896 123.343M108.896 123.343L107.853 122.494M107.853 122.494L106.839 121.67M114.557 122.179L114.552 122.174M114.552 122.174L113.769 121.315M113.769 121.315L113.008 120.482M120.507 121.429L120.498 121.416M120.498 121.416L119.814 120.555M120.498 121.416C125.243 120.985 130.288 120.92 135.724 121.201M119.814 120.555L119.103 119.66M119.814 120.555C121.813 120.37 123.877 120.242 126.011 120.17M119.103 119.66L119.063 119.609M119.103 119.66C123.128 119.31 127.408 119.181 131.994 119.278M126.48 121.048L126.011 120.17M126.011 120.17L125.567 119.341M126.011 120.17C128.019 120.103 130.089 120.087 132.225 120.123M132.477 121.046L132.225 120.123M132.225 120.123L131.994 119.278M132.225 120.123C133.304 120.141 134.4 120.173 135.514 120.217M131.994 119.278L131.986 119.248M131.994 119.278C133.09 119.301 134.204 119.336 135.336 119.385M138.647 121.386L138.647 121.383M138.647 121.383L138.535 120.369M138.647 121.383C137.66 121.312 136.686 121.251 135.724 121.201M138.647 121.383C139.516 121.446 140.395 121.517 141.284 121.597M138.535 120.369L138.444 119.549M138.535 120.369C137.514 120.308 136.507 120.257 135.514 120.217M138.535 120.369C140.5 120.487 142.517 120.645 144.591 120.843M144.528 121.931L144.529 121.91M144.529 121.91L144.591 120.843M144.529 121.91C143.421 121.794 142.324 121.689 141.284 121.597M144.529 121.91C145.508 122.013 146.496 122.124 147.463 122.243M144.591 120.843L144.593 120.805M144.591 120.843C145.641 120.944 146.706 121.054 147.785 121.176M135.336 119.385C139.33 119.557 143.551 119.888 148.03 120.381M135.336 119.385L135.514 120.217M135.336 119.385L135.334 119.378M135.514 120.217L135.724 121.201M147.785 121.176L147.786 121.176M147.785 121.176L145.494 130.232M147.785 121.176L147.971 120.44M145.216 131.278L145.494 130.232M145.494 130.232L141.445 129.863M141.421 129.861L141.445 129.863M141.445 129.863L141.465 130.919M141.445 129.863L141.423 128.746M141.391 128.014L141.409 128.015M141.409 128.015L145.893 128.426M141.409 128.015L141.423 128.746M141.409 128.015L141.385 126.812M141.436 126.1L146.262 126.579M141.383 123.854L146.942 124.457M135.724 121.201L136.052 122.734M141.284 121.597L141.314 123.117M141.423 128.746C139.964 128.679 138.596 128.628 137.305 128.597M141.423 128.746C141.477 128.748 141.531 128.751 141.585 128.753M141.385 126.812L141.314 123.117M141.385 126.812C139.847 126.67 138.338 126.568 136.858 126.504M141.385 126.812C141.392 126.812 141.399 126.813 141.406 126.814M141.314 123.117C139.544 122.943 137.79 122.815 136.052 122.734M141.314 123.117C141.319 123.117 141.324 123.117 141.328 123.118M137.771 130.775L137.305 128.597M137.305 128.597L136.858 126.504M136.858 126.504L136.469 124.684M136.469 124.684L136.052 122.734M136.469 124.684C138.041 124.736 139.658 124.823 141.32 124.944" stroke="black" stroke-width="0.251632"/>
</g>
<g id="keyboard_2">
<g id="outline_2">
<path d="M77.9395 101.056C97.6623 90.7453 111.656 88.1364 141.988 91.0078C142.754 91.0803 143.46 91.8293 143.42 92.5184L141.199 104.703L141.093 106.529C129.879 104.986 113.619 104.127 106.554 113.473C106.554 113.473 77.7086 105.06 77.4551 104.568L77.4282 101.927C77.3392 101.355 77.9395 101.056 77.9395 101.056Z" fill="#FFFBE4"/>
<path d="M141.199 104.703L143.42 92.5184C143.46 91.8293 142.754 91.0803 141.988 91.0078C111.656 88.1364 97.6623 90.7453 77.9395 101.056C77.9395 101.056 77.3392 101.355 77.4282 101.927M141.199 104.703C124.773 101.965 112.437 105.305 106.66 111.642M141.199 104.703L141.093 106.529C129.879 104.986 113.619 104.127 106.554 113.473M106.66 111.642L78.5601 103.078C78.5601 103.078 77.5589 102.769 77.4282 101.927M106.66 111.642L106.554 113.473M77.4282 101.927L77.4551 104.568C77.7086 105.06 106.554 113.473 106.554 113.473M79.8192 102.703L105.542 110.355C110.756 106.261 116.476 103.803 124.763 103.116M128.562 102.928L123.055 91.4554M128.562 102.928C127.237 102.953 125.973 103.016 124.763 103.116M128.562 102.928C131.859 102.868 135.534 103.043 139.686 103.46M124.763 103.116L116.741 91.5971" stroke="black" stroke-width="0.251632"/>
</g>
<path id="Vector_2" d="M120.999 103.528L119.052 101.444M119.052 101.444L117.128 99.3855M119.052 101.444C117.711 101.664 116.401 101.941 115.074 102.282M119.052 101.444C122.737 100.84 126.648 100.669 131.754 100.794M117.128 99.3855L115.432 97.5711M117.128 99.3855C115.594 99.6209 114.107 99.9099 112.668 100.252M117.128 99.3855C121.488 98.7164 126.223 98.4814 131.307 98.7009M115.432 97.5711L113.682 95.6982M115.432 97.5711C113.716 97.8055 112.075 98.092 110.505 98.4271M115.432 97.5711C120.04 96.9419 125.185 96.6885 130.917 96.8806M113.682 95.6982L112.029 93.9291M113.682 95.6982C111.895 95.9609 110.139 96.2832 108.418 96.6654M113.682 95.6982C119.036 94.9114 124.673 94.6591 130.501 94.9308M112.029 93.9291L111.236 93.0808M112.029 93.9291C111.006 94.0582 109.997 94.2053 109.001 94.3708M112.029 93.9291C112.989 93.808 113.961 93.7027 114.947 93.6132M111.236 93.0808L110.483 92.2742M111.236 93.0808C110.213 93.209 109.207 93.3528 108.217 93.5119M111.236 93.0808C112.229 92.9565 113.237 92.8469 114.263 92.752M104.235 93.136L104.243 93.143M104.243 93.143L105.3 94.0349M104.243 93.143C101.16 93.7416 98.2285 94.4975 95.4175 95.4092M104.243 93.143C107.197 92.5694 110.291 92.1401 113.552 91.8565M105.3 94.0349L106.292 94.8719M105.3 94.0349C104.283 94.2365 103.284 94.4553 102.301 94.6911M105.3 94.0349C106.257 93.8453 107.229 93.671 108.217 93.5119M106.292 94.8719L108.418 96.6654M106.292 94.8719C105.298 95.0752 104.316 95.2978 103.345 95.5398M106.292 94.8719C107.185 94.6894 108.088 94.5224 109.001 94.3708M108.418 96.6654L110.505 98.4271M108.418 96.6654C106.698 97.0473 105.014 97.489 103.368 97.9909M110.505 98.4271L112.668 100.252M110.505 98.4271C108.882 98.7737 107.336 99.1723 105.864 99.6188M112.668 100.252L115.074 102.282M112.668 100.252C111.265 100.585 109.908 100.968 108.597 101.401M115.074 102.282L117.413 104.256M115.074 102.282C113.922 102.578 112.757 102.922 111.55 103.319M98.147 94.5857L99.4507 95.4359M99.4507 95.4359L100.705 96.254M99.4507 95.4359C98.5429 95.6929 97.6498 95.9652 96.7705 96.2526M99.4507 95.4359C100.385 95.1714 101.335 94.923 102.301 94.6911M100.705 96.254L103.368 97.9909M100.705 96.254C99.0225 96.7455 97.3724 97.2985 95.7486 97.9143M100.705 96.254C101.576 95.9995 102.456 95.7614 103.345 95.5398M103.368 97.9909L105.864 99.6188M103.368 97.9909C101.793 98.4712 100.253 99.0067 98.7507 99.5977M105.864 99.6188L108.597 101.401M105.864 99.6188C104.34 100.081 102.896 100.595 101.529 101.155M108.597 101.401L110.246 102.477M108.597 101.401C107.233 101.851 105.92 102.355 104.659 102.91M110.246 102.477L114.48 105.238M110.246 102.477L106.428 103.809M110.246 102.477L110.381 102.43M92.8202 96.2722L92.8588 96.2939M92.8588 96.2939L94.3118 97.1086M92.8588 96.2939C90.9069 97.0115 89.0112 97.8079 87.1603 98.6827M92.8588 96.2939C93.701 95.9843 94.5536 95.6894 95.4175 95.4092M94.3118 97.1086L95.7486 97.9143M94.3118 97.1086C93.3662 97.4584 92.4366 97.8265 91.522 98.2127M94.3118 97.1086C95.1194 96.8099 95.9388 96.5245 96.7705 96.2526M95.7486 97.9143L98.7507 99.5977M95.7486 97.9143C93.9772 98.5861 92.2371 99.3326 90.5209 100.155M98.7507 99.5977L101.529 101.155M98.7507 99.5977C98.2321 99.8018 97.718 100.012 97.2086 100.23M101.529 101.155L102.937 101.945M101.529 101.155C101.09 101.335 100.66 101.52 100.237 101.709M102.937 101.945L104.659 102.91M102.937 101.945L98.2857 104.355M102.937 101.945L102.953 101.937M104.659 102.91L111.302 106.636M104.659 102.91C103.135 103.582 101.686 104.33 100.316 105.153M87.0666 98.6417L87.1603 98.6827M87.1603 98.6827L88.8377 99.4177M87.1603 98.6827C84.6043 99.8907 82.1337 101.248 79.7187 102.753M88.8377 99.4177L90.5209 100.155M88.8377 99.4177C88.0631 99.7865 87.2991 100.169 86.5451 100.565M88.8377 99.4177C89.7184 98.9983 90.6128 98.5966 91.522 98.2127M90.5209 100.155L94.0404 101.697M90.5209 100.155C89.0051 100.882 87.5078 101.668 86.0239 102.514M94.0404 101.697L94.0759 101.713M94.0404 101.697C92.022 102.71 90.0874 103.836 88.2452 105.076M94.0404 101.697C95.0749 101.178 96.1313 100.689 97.2086 100.23M108.3 108.291L100.316 105.153M100.316 105.153L98.2857 104.355M100.316 105.153C99.0495 105.913 97.8495 106.736 96.7174 107.623M98.2857 104.355L96.461 103.638M98.2857 104.355L98.2609 104.368M96.461 103.638L92.9591 102.261M96.461 103.638C95.0086 104.48 93.668 105.386 92.433 106.347M96.461 103.638C97.6445 102.951 98.9021 102.307 100.237 101.709M84.8655 99.8652L86.5451 100.565M86.5451 100.565L88.2701 101.283M86.5451 100.565C85.7452 100.985 84.9565 101.42 84.1781 101.87M89.96 103.889L86.0239 102.514M86.0239 102.514L84.1781 101.87M86.0239 102.514C85.3011 102.927 84.5814 103.354 83.8643 103.795M84.1781 101.87L82.4603 101.27M84.1781 101.87C83.394 102.323 82.6204 102.791 81.8563 103.275M97.1605 100.206L97.2086 100.23M97.2086 100.23L100.237 101.709M100.237 101.709L100.254 101.717M93.0511 98.9867L91.522 98.2127M91.522 98.2127L90.0399 97.4625M98.0348 97.0409L96.7705 96.2526M96.7705 96.2526L95.4175 95.4092M95.4175 95.4092L95.3889 95.3914M103.415 95.5968L103.345 95.5398M103.345 95.5398L102.301 94.6911M102.301 94.6911L101.287 93.8664M109.006 94.3757L109.001 94.3708M109.001 94.3708L108.217 93.5119M108.217 93.5119L107.457 92.6786M114.956 93.6255L114.947 93.6132M114.947 93.6132L114.263 92.752M114.947 93.6132C119.692 93.1822 124.737 93.1168 130.173 93.3981M114.263 92.752L113.552 91.8565M114.263 92.752C116.262 92.5671 118.326 92.4385 120.46 92.3673M113.552 91.8565L113.512 91.8058M113.552 91.8565C117.577 91.5064 121.857 91.3783 126.443 91.4744M120.929 93.245L120.46 92.3673M120.46 92.3673L120.016 91.5376M120.46 92.3673C122.468 92.3003 124.538 92.2842 126.674 92.3201M126.926 93.2431L126.674 92.3201M126.674 92.3201L126.443 91.4744M126.674 92.3201C127.753 92.3382 128.849 92.3695 129.962 92.4143M126.443 91.4744L126.435 91.4448M126.443 91.4744C127.539 91.4974 128.653 91.5332 129.785 91.5818M133.096 93.583L133.095 93.5798M133.095 93.5798L132.984 92.5661M133.095 93.5798C132.109 93.5085 131.135 93.4478 130.173 93.3981M133.095 93.5798C133.965 93.6427 134.844 93.7139 135.733 93.7934M132.984 92.5661L132.893 91.746M132.984 92.5661C131.962 92.5048 130.956 92.4542 129.962 92.4143M132.984 92.5661C134.949 92.684 136.966 92.8418 139.039 93.0399M138.977 94.1282L138.978 94.1072M138.978 94.1072L139.039 93.0399M138.978 94.1072C137.87 93.9912 136.773 93.8863 135.733 93.7934M138.978 94.1072C139.957 94.2096 140.945 94.3208 141.912 94.4402M139.039 93.0399L139.042 93.0013M139.039 93.0399C140.09 93.1404 141.155 93.2511 142.234 93.3724M129.785 91.5818C133.779 91.7534 138 92.085 142.479 92.5779M129.785 91.5818L129.962 92.4143M129.785 91.5818L129.783 91.5746M129.962 92.4143L130.173 93.3981M142.234 93.3724L142.235 93.3725M142.234 93.3724L139.943 102.429M142.234 93.3724L142.42 92.6364M139.665 103.475L139.943 102.429M139.943 102.429L135.893 102.06M135.87 102.058L135.893 102.06M135.893 102.06L135.914 103.116M135.893 102.06L135.872 100.943M135.84 100.21L135.858 100.212M135.858 100.212L140.342 100.623M135.858 100.212L135.872 100.943M135.858 100.212L135.834 99.0087M135.885 98.2964L140.71 98.776M135.832 96.051L141.391 96.6536M130.173 93.3981L130.501 94.9308M135.733 93.7934L135.763 95.3133M135.872 100.943C134.412 100.876 133.045 100.825 131.754 100.794M135.872 100.943C135.925 100.945 135.979 100.948 136.033 100.95M135.834 99.0087L135.763 95.3133M135.834 99.0087C134.296 98.8672 132.787 98.7648 131.307 98.7009M135.834 99.0087C135.841 99.0093 135.848 99.01 135.855 99.0106M135.763 95.3133C133.993 95.1394 132.238 95.0118 130.501 94.9308M135.763 95.3133C135.767 95.3138 135.772 95.3143 135.777 95.3148M132.22 102.972L131.754 100.794M131.754 100.794L131.307 98.7009M131.307 98.7009L130.917 96.8806M130.917 96.8806L130.501 94.9308M130.917 96.8806C132.49 96.9333 134.107 97.0195 135.769 97.1406" stroke="black" stroke-width="0.251632"/>
</g>
<g id="keyboard_3">
<g id="outline_3">
<path d="M73.3135 66.5792C93.0363 56.269 107.03 53.66 137.362 56.5314C138.128 56.6039 138.834 57.3529 138.794 58.042L136.573 70.2263L136.467 72.0527C125.253 70.51 108.993 69.6505 101.928 78.9962C101.928 78.9962 73.0826 70.5834 72.8291 70.0919L72.8022 67.4511C72.7132 66.8787 73.3135 66.5792 73.3135 66.5792Z" fill="#FFFBE4"/>
<path d="M136.573 70.2263L138.794 58.042C138.834 57.3529 138.128 56.6039 137.362 56.5314C107.03 53.66 93.0363 56.269 73.3135 66.5792C73.3135 66.5792 72.7132 66.8787 72.8022 67.4511M136.573 70.2263C120.147 67.4886 107.811 70.829 102.034 77.1654M136.573 70.2263L136.467 72.0527C125.253 70.51 108.993 69.6505 101.928 78.9962M102.034 77.1654L73.9341 68.6016C73.9341 68.6016 72.9329 68.2922 72.8022 67.4511M102.034 77.1654L101.928 78.9962M72.8022 67.4511L72.8291 70.0919C73.0826 70.5834 101.928 78.9962 101.928 78.9962M75.1932 68.2264L100.916 75.879C106.13 71.7845 111.85 69.3268 120.137 68.6395M123.936 68.4521L118.429 56.9791M123.936 68.4521C122.611 68.4766 121.347 68.5392 120.137 68.6395M123.936 68.4521C127.233 68.3912 130.908 68.5663 135.06 68.9837M120.137 68.6395L112.115 57.1207" stroke="black" stroke-width="0.251632"/>
</g>
<path id="Vector_3" d="M116.373 69.0515L114.426 66.9677M114.426 66.9677L112.502 64.9091M114.426 66.9677C113.085 67.1875 111.775 67.4645 110.448 67.8056M114.426 66.9677C118.111 66.3636 122.023 66.1926 127.128 66.3173M112.502 64.9091L110.806 63.0947M112.502 64.9091C110.968 65.1445 109.481 65.4335 108.042 65.7754M112.502 64.9091C116.862 64.2401 121.597 64.005 126.681 64.2245M110.806 63.0947L109.056 61.2218M110.806 63.0947C109.09 63.3291 107.449 63.6156 105.879 63.9507M110.806 63.0947C115.414 62.4655 120.559 62.2121 126.291 62.4042M109.056 61.2218L107.403 59.4528M109.056 61.2218C107.269 61.4845 105.513 61.8068 103.792 62.189M109.056 61.2218C114.41 60.435 120.047 60.1827 125.875 60.4544M107.403 59.4528L106.61 58.6045M107.403 59.4528C106.38 59.5818 105.371 59.729 104.375 59.8944M107.403 59.4528C108.363 59.3316 109.335 59.2263 110.321 59.1369M106.61 58.6045L105.857 57.7978M106.61 58.6045C105.587 58.7326 104.581 58.8764 103.591 59.0356M106.61 58.6045C107.603 58.4802 108.611 58.3705 109.637 58.2756M99.6089 58.6596L99.6172 58.6666M99.6172 58.6666L100.674 59.5585M99.6172 58.6666C96.5339 59.2652 93.6025 60.0211 90.7915 60.9328M99.6172 58.6666C102.571 58.093 105.665 57.6637 108.926 57.3801M100.674 59.5585L101.666 60.3955M100.674 59.5585C99.6571 59.7602 98.6579 59.979 97.6755 60.2147M100.674 59.5585C101.631 59.369 102.603 59.1946 103.591 59.0356M101.666 60.3955L103.792 62.189M101.666 60.3955C100.672 60.5988 99.6898 60.8214 98.719 61.0634M101.666 60.3955C102.559 60.213 103.462 60.046 104.375 59.8944M103.792 62.189L105.879 63.9507M103.792 62.189C102.072 62.5709 100.388 63.0126 98.7421 63.5145M105.879 63.9507L108.042 65.7754M105.879 63.9507C104.256 64.2973 102.71 64.6959 101.238 65.1424M108.042 65.7754L110.448 67.8056M108.042 65.7754C106.639 66.1086 105.282 66.492 103.971 66.9247M110.448 67.8056L112.787 69.7797M110.448 67.8056C109.296 68.1016 108.131 68.4459 106.924 68.8428M93.521 60.1093L94.8247 60.9596M94.8247 60.9596L96.0789 61.7776M94.8247 60.9596C93.9169 61.2166 93.0238 61.4888 92.1445 61.7763M94.8247 60.9596C95.7592 60.695 96.7091 60.4467 97.6755 60.2147M96.0789 61.7776L98.7421 63.5145M96.0789 61.7776C94.3965 62.2691 92.7464 62.8221 91.1226 63.4379M96.0789 61.7776C96.95 61.5231 97.8298 61.2851 98.719 61.0634M98.7421 63.5145L101.238 65.1424M98.7421 63.5145C97.1669 63.9948 95.6268 64.5303 94.1247 65.1213M101.238 65.1424L103.971 66.9247M101.238 65.1424C99.7144 65.6047 98.2703 66.1184 96.9027 66.6791M103.971 66.9247L105.62 68.0004M103.971 66.9247C102.607 67.3747 101.294 67.8782 100.033 68.4341M105.62 68.0004L109.854 70.762M105.62 68.0004L101.802 69.3331M105.62 68.0004L105.755 67.9532M88.1942 61.7959L88.2329 61.8175M88.2329 61.8175L89.6858 62.6322M88.2329 61.8175C86.2809 62.5351 84.3852 63.3316 82.5343 64.2063M88.2329 61.8175C89.075 61.5079 89.9276 61.213 90.7915 60.9328M89.6858 62.6322L91.1226 63.4379M89.6858 62.6322C88.7402 62.982 87.8106 63.3501 86.896 63.7363M89.6858 62.6322C90.4934 62.3335 91.3128 62.0481 92.1445 61.7763M91.1226 63.4379L94.1247 65.1213M91.1226 63.4379C89.3512 64.1097 87.6111 64.8562 85.8949 65.6789M94.1247 65.1213L96.9027 66.6791M94.1247 65.1213C93.6061 65.3254 93.092 65.536 92.5826 65.7533M96.9027 66.6791L98.311 67.4688M96.9027 66.6791C96.4644 66.8588 96.0339 67.0434 95.6112 67.2326M98.311 67.4688L100.033 68.4341M98.311 67.4688L93.6597 69.8783M98.311 67.4688L98.3267 67.4606M100.033 68.4341L106.676 72.1595M100.033 68.4341C98.5088 69.1055 97.0605 69.8534 95.6897 70.6762M82.4406 64.1653L82.5343 64.2063M82.5343 64.2063L84.2117 64.9413M82.5343 64.2063C79.9783 65.4143 77.5077 66.7717 75.0928 68.277M84.2117 64.9413L85.8949 65.6789M84.2117 64.9413C83.4371 65.3101 82.6732 65.6926 81.9191 66.0885M84.2117 64.9413C85.0924 64.522 85.9868 64.1202 86.896 63.7363M85.8949 65.6789L89.4144 67.221M85.8949 65.6789C84.3791 66.4054 82.8818 67.1915 81.3979 68.0381M89.4144 67.221L89.4499 67.2366M89.4144 67.221C87.3961 68.2336 85.4614 69.3596 83.6192 70.6M89.4144 67.221C90.4489 66.7021 91.5053 66.2129 92.5826 65.7533M103.674 73.8142L95.6897 70.6762M95.6897 70.6762L93.6597 69.8783M95.6897 70.6762C94.4235 71.4361 93.2235 72.26 92.0914 73.1464M93.6597 69.8783L91.835 69.1612M93.6597 69.8783L93.6349 69.8912M91.835 69.1612L88.3331 67.7849M91.835 69.1612C90.3826 70.0036 89.042 70.9096 87.8071 71.8705M91.835 69.1612C93.0185 68.4746 94.2761 67.8303 95.6112 67.2326M80.2395 65.3888L81.9191 66.0885M81.9191 66.0885L83.6441 66.8071M81.9191 66.0885C81.1192 66.5084 80.3305 66.9435 79.5521 67.3935M85.334 69.4126L81.3979 68.0381M81.3979 68.0381L79.5521 67.3935M81.3979 68.0381C80.6751 68.4505 79.9554 68.8772 79.2383 69.3185M79.5521 67.3935L77.8343 66.7936M79.5521 67.3935C78.768 67.8467 77.9944 68.3151 77.2303 68.7984M92.5345 65.7298L92.5826 65.7533M92.5826 65.7533L95.6112 67.2326M95.6112 67.2326L95.6278 67.2407M88.4251 64.5103L86.896 63.7363M86.896 63.7363L85.4139 62.9861M93.4088 62.5645L92.1445 61.7763M92.1445 61.7763L90.7915 60.9328M90.7915 60.9328L90.7629 60.915M98.7891 61.1205L98.719 61.0634M98.719 61.0634L97.6755 60.2147M97.6755 60.2147L96.6615 59.39M104.38 59.8993L104.375 59.8944M104.375 59.8944L103.591 59.0356M103.591 59.0356L102.831 58.2022M110.33 59.1491L110.321 59.1369M110.321 59.1369L109.637 58.2756M110.321 59.1369C115.066 58.7058 120.111 58.6404 125.547 58.9217M109.637 58.2756L108.926 57.3801M109.637 58.2756C111.636 58.0907 113.7 57.9621 115.834 57.8909M108.926 57.3801L108.886 57.3294M108.926 57.3801C112.951 57.0301 117.231 56.9019 121.817 56.998M116.303 58.7686L115.834 57.8909M115.834 57.8909L115.39 57.0613M115.834 57.8909C117.842 57.8239 119.912 57.8078 122.048 57.8437M122.3 58.7668L122.048 57.8437M122.048 57.8437L121.817 56.998M122.048 57.8437C123.127 57.8618 124.223 57.8932 125.337 57.9379M121.817 56.998L121.809 56.9684M121.817 56.998C122.913 57.021 124.027 57.0568 125.159 57.1054M128.47 59.1066L128.47 59.1035M128.47 59.1035L128.358 58.0897M128.47 59.1035C127.483 59.0321 126.509 58.9715 125.547 58.9217M128.47 59.1035C129.339 59.1663 130.218 59.2375 131.107 59.317M128.358 58.0897L128.267 57.2696M128.358 58.0897C127.336 58.0284 126.33 57.9778 125.337 57.9379M128.358 58.0897C130.323 58.2077 132.34 58.3654 134.413 58.5636M134.351 59.6519L134.352 59.6308M134.352 59.6308L134.413 58.5636M134.352 59.6308C133.244 59.5148 132.147 59.41 131.107 59.317M134.352 59.6308C135.331 59.7333 136.319 59.8444 137.286 59.9638M134.413 58.5636L134.416 58.525M134.413 58.5636C135.464 58.664 136.529 58.7748 137.608 58.896M125.159 57.1054C129.153 57.277 133.374 57.6086 137.853 58.1016M125.159 57.1054L125.337 57.9379M125.159 57.1054L125.157 57.0983M125.337 57.9379L125.547 58.9217M137.608 58.896L137.609 58.8962M137.608 58.896L135.317 67.9527M137.608 58.896L137.794 58.16M135.039 68.9984L135.317 67.9527M135.317 67.9527L131.267 67.5833M131.244 67.5812L131.267 67.5833M131.267 67.5833L131.288 68.6399M131.267 67.5833L131.246 66.4663M131.214 65.7341L131.232 65.7357M131.232 65.7357L135.716 66.1461M131.232 65.7357L131.246 66.4663M131.232 65.7357L131.208 64.5323M131.259 63.82L136.084 64.2997M131.206 61.5746L136.765 62.1772M125.547 58.9217L125.875 60.4544M131.107 59.317L131.137 60.837M131.246 66.4663C129.786 66.3992 128.419 66.3488 127.128 66.3173M131.246 66.4663C131.299 66.4688 131.353 66.4713 131.407 66.4738M131.208 64.5323L131.137 60.837M131.208 64.5323C129.67 64.3909 128.161 64.2884 126.681 64.2245M131.208 64.5323C131.215 64.533 131.222 64.5336 131.229 64.5342M131.137 60.837C129.367 60.663 127.612 60.5354 125.875 60.4544M131.137 60.837C131.141 60.8374 131.146 60.8379 131.151 60.8384M127.594 68.4953L127.128 66.3173M127.128 66.3173L126.681 64.2245M126.681 64.2245L126.291 62.4042M126.291 62.4042L125.875 60.4544M126.291 62.4042C127.864 62.4569 129.481 62.5431 131.143 62.6642" stroke="black" stroke-width="0.251632"/>
</g>
<path id="stand" d="M75.2287 190.258L121.916 201.009L121.916 197.657C89.5997 169.264 87.6663 123 81.4827 70.3981C81.4827 64.6448 71.1346 62.4397 71.1346 67.5702C71.1346 122.497 75.2287 190.258 75.2287 190.258Z" fill="#5A2E2E"/>
</g>
</svg>
