<svg viewBox="0 0 286 168" preserveAspectRatio="none" fill="none" xmlns="http://www.w3.org/2000/svg">
  <defs>
    <linearGradient id="scroll-grad">
      <stop offset="2%" stop-color="hsl(43, 50%, 75%)" />
      <stop offset="9%" stop-color="hsl(43, 100%, 95%)" />
      <stop offset="87%" stop-color="hsl(43, 100%, 95%)" />
      <stop offset="92%" stop-color="hsl(43, 50%, 79%)" />
      <stop offset="96%" stop-color="hsl(43, 100%, 95%)" />
    </linearGradient>
  </defs>
<path d="M284.459 135.323C282.375 146.411 262.094 146.408 259.852 135.323L36.4821 163.827L20.9172 165.667C20.9172 165.667 2.02674 167.78 2.02674 153.223L2.02673 20.4257C2.34516 12.7752 7.16227 7.10062 15.0844 5.04387C23.3529 2.89717 33.1885 8.592 35.4118 12.83C36.1568 14.25 36.4893 15.6082 36.466 16.8742V32.1375L266.597 2.76765C275.251 1.15588 284.21 3.10979 284.459 13.5593C284.462 13.6734 284.462 13.787 284.459 13.9V135.323Z" fill="url('#scroll-grad')"/>
<path d="M259.852 16.7404C259.852 6.67581 271.15 8.41121 271.15 8.41121L271.607 20.162M259.852 16.7404C259.852 16.7404 262.115 23.584 271.607 23.5342C278.269 23.4993 284.592 19.0958 284.459 13.5593M259.852 16.7404V134.695M284.459 13.5593C284.459 34.6193 284.459 135.323 284.459 135.323C282.375 146.411 262.094 146.408 259.852 135.323L36.4821 163.827L20.9172 165.667C20.9172 165.667 2.02674 167.78 2.02674 153.223C2.02674 153.223 2.02673 45.6038 2.02673 20.4257C2.34516 12.7752 7.16227 7.10062 15.0844 5.04387C23.3529 2.89717 33.1885 8.592 35.4118 12.83C36.1568 14.25 36.4893 15.6082 36.466 16.8742M284.459 13.5593C284.21 3.10979 275.251 1.15588 266.597 2.76765L36.466 32.1375M20.9172 24.9528V13.6767C14.946 13.5615 9.21428 15.4612 10.0641 19.8864C10.9138 24.3115 20.226 27.1002 28.2125 24.9528C33.1385 23.6283 36.3963 20.6641 36.466 16.8742M36.466 16.8742V32.1375M36.466 32.1375C36.466 32.1375 30.4594 32.6835 20.9172 33.2415C12.3475 33.7426 3.93403 28.8405 2.30828 22.5969" stroke="hsl(51, 100%, 8%)" stroke-width="1" stroke-linecap="round"/>
</svg>


