<!-- new -->
<svg class="big-clare-top" viewBox="0 0 102 120" fill="none" xmlns="http://www.w3.org/2000/svg">
<defs>
<linearGradient id="grad-big-clare"  x1="30%" y1="0%" x2="100%" y2="0%">
    <stop offset="0%" style="stop-color:hsl(9, 70%, 58%);" />
    <stop offset="60%" style="stop-color:hsl(9, 70%, 65%);" />
    <stop offset="100%" style="stop-color:hsl(9, 80%, 70%);" />
  </linearGradient>
  </defs>
<g id="m-BIG-CLARE-top">
<path id="back-eye-round" d="M71.2392 17.7834C69.6396 19.893 67.2028 20.7962 65.7964 19.8008C64.39 18.8053 64.5466 16.2883 66.1462 14.1787C67.7457 12.0691 70.1826 11.1659 71.589 12.1613C72.9954 13.1568 72.8388 15.6738 71.2392 17.7834Z" fill="black"/>
<path id="back-glint" d="M68.2463 12.3262C70.0873 11.4899 70.6197 11.6994 70.1274 13.4982C69.7247 12.5271 69.2817 12.3044 68.2463 12.3262Z" fill="white"/>
<path id="antenna-rear" d="M83.6082 10.9511C82.668 10.9862 81.7255 11.6205 80.8142 12.7613M83.3637 1.8597C81.864 3.38658 81.09 4.38307 79.5949 6.37555M83.1245 1.47431C81.6429 3.18267 80.8841 4.13269 79.4136 6.18357M82.6055 1.03019C81.1114 2.81295 80.4001 3.88684 79.1005 5.81861M82.3747 0.672423C80.7663 2.80045 80.0498 3.86913 78.9356 5.6085M83.9674 10.039C83.1829 9.82323 81.9065 10.3903 80.673 11.9001M84.0502 9.48288C83.294 9.19203 81.8923 9.96186 80.6558 11.4044M84.1809 8.89752C83.4246 8.60668 81.7765 9.55062 80.54 10.9932M84.2923 8.26972C83.5394 7.97028 81.7677 9.04148 80.531 10.4762M84.3489 7.66345C83.6036 7.3957 81.7373 8.6028 80.5007 10.0144M84.4243 6.95256C83.6487 6.7128 81.6491 8.11162 80.4144 9.60018M84.4386 6.23863C83.6437 6.05133 81.5881 7.67641 80.3562 9.21102M84.4885 5.69069C83.7323 5.39985 81.5262 7.32721 80.2897 8.76976M84.4546 5.04193C83.6983 4.75108 81.4433 6.90409 80.2068 8.34664M84.3385 4.45956C83.5822 4.16872 81.3604 6.50564 80.1239 7.94819M84.3212 3.91494C83.5649 3.6241 81.2364 6.0911 79.9999 7.53365M84.0901 3.43493C83.3338 3.14408 81.1207 5.75327 79.8842 7.19582M83.7435 2.73913C82.6588 3.47098 81.0543 5.38531 79.8178 6.82786M82.0794 0.509759C80.8118 2.17059 80.0873 3.25106 78.7391 5.48383M81.7337 0.376771C80.4662 2.20531 79.7355 3.28354 78.5251 5.4015M81.4044 0.250115C80.0959 2.26283 79.383 3.36567 78.3028 5.31601M81.0587 0.117127C79.8667 2.07616 79.1528 3.17218 78.0888 5.23368M80.6475 0.178983C79.592 1.94667 78.889 2.99264 77.8501 5.14186M80.2609 0.201411C79.1991 2.09171 78.5041 3.1035 77.6032 5.04687M77.4793 4.75473C78.2877 2.98166 78.8989 2.03359 79.8579 0.266434M79.4469 0.475075C78.6342 2.00702 78.0932 2.8079 77.4539 4.28042M78.9374 0.768039C78.2687 2.15967 77.8465 2.84303 77.3876 3.96152M78.4854 1.08317C77.9604 2.18312 77.6366 2.73276 77.2884 3.62995M77.8941 1.68696C77.5869 2.39709 77.4034 2.75044 77.1892 3.32285M77.4915 2.02109L76.9999 3.25002M83.6193 2.27579C82.2802 3.3743 80.9912 4.95662 79.7269 6.5729M83.815 10.517C82.9985 10.3897 81.9303 10.8473 80.7022 12.4338M83.6002 11.0213C85.8708 5.88021 83.5297 -2.47741 78.6405 0.971737C78.6405 0.971737 77.1493 2.44483 76.3149 2.54651M79.2982 5.94341C80.4754 4.27066 81.2243 3.14465 82.902 1.14406M77.17 2.23967L76.809 3.12892M76.8742 2.4193L76.6443 2.91839" stroke="white" stroke-width="0.122517"/>
<path id="top" d="M101.088 39.9252C101.088 39.9252 103.913 28.6846 99.3872 21.7916C94.5867 14.4811 89.7227 11.406 80.2743 10.7899C70.8238 10.1737 61.3172 17.926 56.5529 28.31C55.1351 29.8762 53.6538 33.0917 54.7643 35.4448C54.5531 39.1967 54.1296 39.0399 54.1296 39.0399C52.5393 40.4312 49.482 46.11 48.7621 48.5804C47.4548 48.3109 46.7332 48.4279 45.5818 48.3814L42.0032 57.3257C42.5995 57.922 42.9971 58.3196 44.1896 58.7172L41.8043 59.5121C40.0656 62.4913 39.1426 64.6553 39.0208 68.2577L38.0266 73.8232C35.7174 78.262 33.2647 82.646 34.0501 86.9415L31.068 94.892C30.8691 96.0846 30.6082 97.2514 30.8689 98.6686C28.4437 100.723 27.8871 103.041 27.4893 106.42C28.2842 108.209 28.9145 109.448 34.0481 112.98C34.0481 112.98 39.712 122.862 65.6138 118.457C86.5326 114.899 88.8545 96.2422 88.8545 96.2422C89.8846 91.0239 92.7142 83.3874 92.0032 78.1522C93.7945 71.0799 96.7548 70.3555 96.9124 60.8285C98.344 56.2144 102.106 44.852 101.088 39.9252Z" fill="url('#grad-big-clare')"/>
<g id="arms-claws-horn">
<g id="back-claws">
<path id="back-bottom-claw" d="M23.4408 92.8548C18.5032 90.1114 23.3949 89.4829 28.8973 91.4863C27.1636 88.0304 22.1978 87.2971 23.8467 89.0168C21.7736 86.8547 24.2775 86.3937 30.5659 88.2657C26.3774 83.7771 24.5586 84.2332 23.8244 86.5026C23.2183 80.0683 31.1963 85.3656 34.322 87.0426L31.0569 94.9521C26.1636 93.2169 21.3216 89.5885 23.4408 92.8548Z" fill="#3C220E"/>
<path id="back-middle-claw" d="M29.3704 68.4587C28.2109 65.2786 33.4208 66.0854 39.0746 68.1661L37.4526 77.5754C34.174 77.8514 29.1311 70.8353 27.6892 74.7534C27.3938 72.1031 30.4358 71.8944 33.7995 73.6893C32.1509 70.1117 27.1722 70.4032 28.6256 72.2089C25.4545 71.0418 30.7642 68.1245 34.1517 70.848C31.4999 66.7008 29.4286 66.574 29.3704 68.4587Z" fill="#3C220E"/>
<path id="back-top-claw" d="M34.0453 51.9621C31.3831 54.0526 36.2352 56.1146 42.1362 57.3283L45.72 48.4784C43.0799 46.5149 35.0953 49.8167 35.9365 45.7273C34.2878 47.8234 36.7624 49.6049 40.5669 49.8537C37.2794 52.024 33.203 49.1508 35.3902 48.3831C32.0805 47.7023 35.0533 52.9811 39.3677 52.4535C34.9276 54.5788 33.1008 53.5942 34.0453 51.9621Z" fill="#3C220E"/>
</g>
<path id="horn" d="M37.5773 40.6917L38.7436 40.5725C41.3335 30.9611 43.2806 27.8776 48.3323 28.6433L49.214 28.111L53.8502 28.9766L57.1084 31.8624L55.3731 33.1057C55.3731 33.1057 49.4212 32.6376 47.9906 32.3735L47.8947 31.6296C45.029 30.5235 43.7983 34.2847 42.3341 41.9493L43.2735 42.5124L27.7583 97.8173C27.7583 97.8173 25.7755 106.719 22.6877 108.902C19.8208 110.928 16.9316 112.017 13.139 110.634C7.77347 108.677 7.21328 104.224 2.53859 103.322C1.73256 103.475 1.08895 103.44 0.713439 103.162C-1.24747 101.705 11.0404 91.7257 13.2312 93.8467C14.115 94.7023 13.6541 95.9817 12.4919 97.3286C12.2316 100.267 12.8045 104.017 16.7235 105.218C20.3736 106.336 21.6598 98.5042 21.6598 98.5042L37.5773 40.6917Z" fill="#FFD700"/>
<g id="front-claws">
<path id="front-bottom-claw" d="M25.0364 103.314C21.9691 103.312 18.0561 105.1 19.7742 103.387C16.3631 104.081 21.9469 106.717 27.4626 105.746L30.037 98.5385C24.7575 95.8947 19.4811 95.7188 22.2503 93.7278C19.46 93.1612 20.0057 99.053 25.8893 100.515C22.6982 100.014 19.3409 101.447 20.2534 98.4249C20.2534 98.4249 17.3205 101.071 25.0364 103.314Z" fill="#3C220E"/>
<path id="front-middle-claw" d="M26.0474 78.6223C24.8575 75.4534 30.0749 76.2103 35.7484 78.2369L34.2165 87.6612C30.9406 87.9685 25.8309 81.0011 24.4265 84.9328C24.1057 82.2853 27.1457 82.0476 30.5263 83.8103C28.8436 80.2486 23.8679 80.5877 25.3386 82.3794C22.1564 81.2427 27.4379 78.2747 30.8513 80.9657C28.16 76.844 26.0876 76.737 26.0474 78.6223Z" fill="#3C220E"/>
<path id="front-top-claw" d="M30.8599 64.913C25.8963 62.2169 30.7818 61.5417 36.3031 63.4924C34.5365 60.0531 29.5639 59.3674 31.2291 61.0713C29.1355 58.929 31.6348 58.4441 37.9408 60.2559C33.7096 55.8076 31.8952 56.2811 31.1828 58.5574C30.5152 52.1292 38.5435 57.3499 41.6851 58.9969L38.4958 66.9373C33.5862 65.2489 28.7096 61.667 30.8599 64.913Z" fill="#3C220E"/>
</g>
<g id="front-arms">
<path id="arm-top" d="M57.7104 58.2852C49.5587 56.9066 43.4333 58.7643 41.8713 59.4302C41.8713 59.4302 37.7867 66.4753 39.2792 68.591C40.7718 70.7067 41.9119 72.8709 50.7404 74.8161" stroke="#3C220E" stroke-width="0.818217" stroke-linecap="round"/>
<path id="arm-middle" d="M44.9611 95.2696C37.1849 92.4623 35.3481 88.8665 34.3152 87.5187C34.3152 87.5187 34.2221 79.3756 36.562 78.2671C38.9019 77.1586 40.7943 76.46 49.4385 79.1066" stroke="#3C220E" stroke-width="0.818217" stroke-linecap="round"/>
<path id="arm-bottom" d="M43.5656 117.456C31.9654 113.485 27.4238 107.617 27.3372 105.973C27.3372 105.973 28.0441 101.29 30.307 98.8836C33.0129 96.0067 44.6561 100.34 44.6561 100.34" stroke="#3C220E" stroke-width="0.818217" stroke-linecap="round"/>
</g>
</g>
<path id="snout" d="M59.1845 30.4373C58.779 32.9342 58.3025 34.14 56.6559 35.6744M59.1363 28.9991C58.8585 27.5401 57.7746 27.5372 56.6566 28.372M58.2007 29.3228L57.2393 30.9199M58.0913 31.2694L57.3268 31.6409M56.9836 28.6531L56.7478 30.7562M55.6983 30.6433L56.1916 31.2743M54.7711 33.1727L55.4354 32.8325M56.7967 34.233L56.5498 33.5401M55.665 33.6564C54.8815 35.8004 54.4807 35.6435 57.3175 36.7518M58.5576 27.9091L60.5622 28.6942M61.1839 31.1587C60.7463 33.4923 60.0884 34.6006 58.8 36.4466" stroke="#3C220E" stroke-width="0.413359"/>
<g id="front-eye">
<path id="eye-round-right" d="M75.1199 18.6666C73.5204 20.7761 71.0835 21.6793 69.6771 20.6839C68.2707 19.6885 68.4273 17.1714 70.0269 15.0619C71.6265 12.9523 74.0633 12.0491 75.4697 13.0445C76.8761 14.0399 76.7195 16.557 75.1199 18.6666Z" fill="black"/>
<path id="glint-right" d="M72.3812 13.554C74.6423 12.8919 75.5871 13.3145 75.9975 15.6344C74.7592 14.2093 73.9419 13.7918 72.3812 13.554Z" fill="white"/>
</g>
<path id="antenna-front" d="M86.5423 12.8532C87.3135 13.3922 87.7619 14.436 87.9097 15.8886M91.6744 5.3448C92.1074 7.44074 92.2179 8.69762 92.3947 11.1824M92.0842 5.15049C92.4037 7.38915 92.5266 8.5988 92.6511 11.1193M92.761 5.05844C93.0507 7.3664 93.0666 8.6544 93.1121 10.9822M93.1489 4.88287C93.3475 7.54293 93.3706 8.82933 93.3645 10.895M86.7348 11.8918C87.511 12.1356 88.2765 13.3039 88.495 15.2412M86.9665 11.3796C87.7597 11.545 88.5205 12.9515 88.7781 14.834M87.1739 10.8168C87.9671 10.9822 88.8408 12.6686 89.0983 14.551M87.4204 10.2288C88.2155 10.3851 89.124 12.2454 89.386 14.1214M87.7014 9.68858C88.4728 9.8674 89.3873 11.8932 89.6616 13.7497M88.0232 9.05028C88.805 9.26906 89.7276 11.5283 89.9586 13.4484M88.3981 8.44245C89.1676 8.71577 90.0147 11.1955 90.2184 13.1528M88.653 7.95493C89.4462 8.1203 90.2559 10.9356 90.5134 12.818M89.0331 7.42808C89.8263 7.59345 90.5548 10.6249 90.8124 12.5073M89.4463 7.00152C90.2395 7.16689 90.8405 10.3349 91.098 12.2174M89.7559 6.55313C90.5491 6.7185 91.1694 10.0537 91.4269 11.9361M90.2103 6.275C91.0035 6.44037 91.4497 9.83255 91.7072 11.715M90.8786 5.87791C91.3936 7.08078 91.7048 9.55915 91.9623 11.4416M93.4853 4.90607C93.6507 6.9888 93.6741 8.28949 93.5973 10.8966M93.848 4.98163C93.9224 7.20527 93.9522 8.50742 93.8218 10.9434M94.1933 5.0536C94.2024 7.45426 94.2039 8.76742 94.0549 10.9919M94.5559 5.12916C94.4962 7.42156 94.5022 8.72956 94.2794 11.0387M94.868 5.40398C94.7972 7.46157 94.8212 8.72161 94.5298 11.0909M95.1808 5.63232C95.0488 7.79638 95.0846 9.02335 94.7888 11.1449M95.0512 10.9665C95.3326 9.03824 95.3327 7.91024 95.4842 5.90534M95.7166 6.3034C95.5695 8.03132 95.5902 8.99761 95.3295 10.5816M95.9861 6.82575C95.794 8.35769 95.7785 9.16081 95.5581 10.3495M96.1952 7.33551C96.0404 8.54446 96.0147 9.18188 95.8212 10.1246M96.365 8.16341C96.2383 8.92666 96.2011 9.32309 96.0709 9.92026M96.5222 8.66237L96.2695 9.96164M91.234 5.55587C91.7642 7.20477 91.9901 9.23315 92.1769 11.2767M86.6038 12.3761C87.359 12.7117 88.0088 13.6751 88.1813 15.674M86.5111 12.9164C87.3886 7.36517 93.8851 1.6096 96.1252 7.15783C96.1252 7.15783 96.5803 9.20397 97.2264 9.74154M92.8783 10.9799C92.7954 8.93617 92.7761 7.58399 92.4502 4.99348M96.6739 9.02027L96.4955 9.96326M96.8253 9.33156L96.748 9.87556" stroke="white" stroke-width="0.122517"/>
<path id="chin" d="M54.1459 39.0306C55.5308 41.3525 57.715 42.7893 60.5366 42.927" stroke="#3C220E" stroke-width="0.397537"/>
<path id="flab-lines" d="M88.4614 97.0016C86.857 98.4518 85.1097 99.1984 83.1492 99.291C80.1278 100.927 77.1926 101.509 73.7918 101.351C70.8409 101.932 67.9139 101.814 64.5736 101.198M91.8386 78.2849C89.7132 79.8408 87.8107 80.7096 85.953 80.8603C83.931 82.4517 81.8044 82.9815 79.2184 82.3468C76.8619 83.5063 74.2844 83.5772 71.1789 82.4814M96.6501 61.0422C93.6591 63.7217 91.0653 64.2879 88.4614 63.8508C85.4926 65.3085 82.7356 65.1963 79.2184 63.9475" stroke="#3C220E" stroke-linecap="round"/>
</g>
</svg>
