<!-- new -->
<svg class= "big-clare-bottom" viewBox="0 0 57 49" fill="none" xmlns="http://www.w3.org/2000/svg">
<defs>
  <linearGradient id="grad-big-clare"  x1="0%" y1="30%" x2="90%" y2="0%">
    <stop offset="0%" style="stop-color:hsl(9, 70%, 58%);" />
    <stop offset="60%" style="stop-color:hsl(9, 70%, 65%);" />
    <stop offset="100%" style="stop-color:hsl(9, 80%, 70%);" />
  </linearGradient>
</defs>
<g id="m-BIG-CLARE-bottom">
<path id="bottom" d="M56.4365 19.8232C57.4128 16.2297 54.5668 4.57164 54.8981 0.341553L0.0930176 17.0839C0.953054 19.7709 1.36633 23.4801 3.12017 26.4695C6.60804 32.4145 11.6862 37.9066 14.239 37.0651C12.6415 37.8493 8.51935 40.4177 9.49295 44.7201C10.4665 49.0226 34.4616 49.4159 38.8829 47.7362C42.3078 44.8705 54.556 46.0905 56.4365 19.8232Z" fill="url('#grad-big-clare')"/>
<path id="shoe" d="M8.54699 45.1817C6.62818 42.2183 9.0452 39.6006 13.0427 37.4294C23.8566 39.5496 27.3034 43.8836 29.5192 45.755C33.0967 46.067 38.5358 46.692 38.5358 46.692C38.5358 46.692 40.5389 47.2978 38.5358 48.37C29.23 48.7116 23.7901 48.8885 14.5865 48.0985L14.4726 48.0751C11.4203 47.4481 9.79884 47.1151 8.54699 45.1817Z" fill="#EAEAEA"/>
<path id="suit" d="M13.3873 37.4419C10.5451 36.3366 4.95859 31.7606 2.44461 25.4921C21.6883 29.3118 37.8673 21.3352 56.7455 18.487C56.1087 33.7709 51.3895 42.4819 43.5656 45.7571C31.4377 41.4084 27.8269 36.2457 13.3873 37.4419Z" fill="url(#paint0_linear_609_10)"/>
</g>
<defs>
<linearGradient id="paint0_linear_609_10" x1="32.0498" y1="37.7835" x2="1.56151" y2="27.6907" gradientUnits="userSpaceOnUse">
<stop stop-color="white"/>
<stop offset="1" stop-color="#C7C7C7"/>
</linearGradient>
</defs>
</svg>
