<!-- new -->
<svg class="programmer-body" viewBox="0 0 116 165" fill="none" xmlns="http://www.w3.org/2000/svg">
<defs>
  <linearGradient id="grad-programmer"  x1="20%" y1="30%" x2="80%" y2="0%">
    <stop offset="0%" style="stop-color:hsl(9, 70%, 58%);" />
    <stop offset="60%" style="stop-color:hsl(9, 70%, 65%);" />
    <stop offset="100%" style="stop-color:hsl(9, 80%, 70%);" />
  </linearGradient>
</defs>
<g id="programmer-body">
<g id="body">
<path d="M106.386 127.46C108.31 122.53 106.3 105.524 107.409 99.5966L106.965 79.5805C106.171 72.0628 106.804 60.5059 103.639 53.6969C103.1 43.3423 106.814 41.1149 103.025 28.114C103.028 24.6863 103.112 18.7312 102.766 12.8474L35.7846 16.5081C35.1652 17.514 34.6761 19.1347 34.1205 21.4162C29.4429 22.8831 30.0849 22.7414 25.1498 23.695C23.3728 29.3241 19.3911 31.2356 20.0156 35.317C22.4008 39.2128 25.9764 43.8169 30.5671 44.8079C26.3392 44.7815 29.8642 55.8339 30.4309 56.9732C28.2606 56.1051 26.9584 54.7305 23.4859 55.1646C21.7599 57.3396 19.9772 62.3628 19.9772 65.2566C21.6131 67.8525 24.6434 73.4676 30.0692 73.757C29.782 74.3658 27.5604 82.2845 28.6195 85.6017C24.4487 84.9913 21.1935 85.1947 18.5995 85.6017C18.5995 85.6017 16.8093 87.9355 16.8093 97.9062C19.7008 101.396 25.1846 105.683 29.2726 106.73C27.1204 113.43 28.72 125.274 30.0367 128.778C31.3533 132.282 37.5589 144.691 41.6458 144.138C39.2586 145.177 34.2845 144.188 34.9608 150.003C35.6371 155.818 59.8901 158.818 59.8901 158.818C59.8901 158.818 99.7511 164.294 106.386 127.46Z" fill="url('#grad-programmer')"/>
<path d="M106.386 127.46C108.31 122.53 106.3 105.524 107.409 99.5966L106.965 79.5805C106.171 72.0628 106.804 60.5059 103.639 53.6969C103.1 43.3423 106.814 41.1149 103.025 28.114C103.028 24.6863 103.112 18.7312 102.766 12.8474L35.7846 16.5081C35.1652 17.514 34.6761 19.1347 34.1205 21.4162C29.4429 22.8831 30.0849 22.7414 25.1498 23.695C23.3728 29.3241 19.3911 31.2356 20.0156 35.317C22.4008 39.2128 25.9764 43.8169 30.5671 44.8079C26.3392 44.7815 29.8642 55.8339 30.4309 56.9732C28.2606 56.1051 26.9584 54.7305 23.4859 55.1646C21.7599 57.3396 19.9772 62.3628 19.9772 65.2566C21.6131 67.8525 24.6434 73.4676 30.0692 73.757C29.782 74.3658 27.5604 82.2845 28.6195 85.6017C24.4487 84.9913 21.1935 85.1947 18.5995 85.6017C18.5995 85.6017 16.8093 87.9355 16.8093 97.9062C19.7008 101.396 25.1846 105.683 29.2726 106.73C27.1204 113.43 28.72 125.274 30.0367 128.778C31.3533 132.282 37.5589 144.691 41.6458 144.138C39.2586 145.177 34.2845 144.188 34.9608 150.003C35.6371 155.818 59.8901 158.818 59.8901 158.818C59.8901 158.818 99.7511 164.294 106.386 127.46Z" fill="url('#grad-programmer')"/>
</g>
<path id="flab-lines" d="M102.852 28.7444C97.6384 36.3765 94.6521 37.8085 86.9241 36.6541C79.3272 47.1328 66.852 39.9429 66.852 39.9429C66.852 39.9429 55.6777 47.3319 49.526 45.808M103.508 53.1245C98.6118 58.8202 96.3194 58.9855 91.8284 58.4433C83.0531 65.7495 77.9255 69.115 66.852 68.3438C59.7838 70.1568 55.9945 70.1312 49.526 68.3438M106.715 82.3513C102.388 86.3565 99.7205 86.3981 95.4286 87.0199M106.821 102.943C104.742 106.835 101.745 107.954 95.4286 108.621C85.5752 113.301 79.4796 114.532 66.852 112.446C61.8484 113.8 58.9297 113.715 53.5763 112.446M53.5763 90.8451C66.852 94.0469 78.4709 93.1571 89.2769 85.8451" stroke="#3C220E" stroke-width="0.74" stroke-linecap="round"/>
<g id="arms -claws">
<path d="M6.6602 87.164C4.9153 82.7709 11.3435 83.4022 18.4455 85.7954L17.5346 98.9042C17.5346 98.9042 16.7196 97.7628 16.498 97.3521C9.185 82.2432 7.71606 87.4345 7.89211 87.9655C6.75078 85.6601 9.12282 85.8714 9.12282 85.8714C9.12282 85.8714 6.53368 84.487 6.6602 87.164Z" fill="#3C220E"/>
<path d="M10.2694 58.3969C7.4038 53.8402 16.1702 52.3769 23.3056 55.202L20.0271 65.3312C17.6256 59.5065 10.9858 55.5386 11.6866 58.5715C11.6866 58.5715 10.5262 56.6188 12.7932 56.4949C10.649 55.6894 9.74126 56.1692 10.2694 58.3969Z" fill="#3C220E"/>
<path d="M11.3853 22.2591C11.7324 18.1097 19.1059 18.3046 25.1102 23.7739L20.0271 34.9207C17.1954 30.7682 16.94 17.5846 13.3588 23.7739C13.3973 22.7387 13.2975 22.6529 14.4489 21.2385C12.6612 21.2495 11.8987 21.4739 11.3853 22.2591Z" fill="#3C220E"/>
<path d="M18.4455 85.7954C11.3435 83.4022 4.9153 82.7709 6.6602 87.164C6.53368 84.487 9.12282 85.8714 9.12282 85.8714C9.12282 85.8714 6.75078 85.6601 7.89211 87.9655C7.71606 87.4345 9.185 82.2432 16.498 97.3521C16.7196 97.7628 17.5346 98.9042 17.5346 98.9042M18.4455 85.7954L17.5346 98.9042M18.4455 85.7954C21.8578 85.0378 24.1622 85.234 28.529 85.8019M17.5346 98.9042C22.7651 104.121 26.0041 106.506 32.7475 107.327M23.3056 55.202C16.1702 52.3769 7.4038 53.8402 10.2694 58.3969C9.74126 56.1692 10.649 55.6894 12.7932 56.4949C10.5262 56.6188 11.6866 58.5715 11.6866 58.5715C10.9858 55.5386 17.6256 59.5065 20.0271 65.3312M23.3056 55.202L20.0271 65.3312M23.3056 55.202C26.2189 55.202 28.529 55.6443 30.3204 57.0115M20.0271 65.3312C21.9298 68.1929 25.3509 73.6675 29.8626 73.8735M25.1102 23.7739C19.1059 18.3046 11.7324 18.1097 11.3853 22.2591C11.8987 21.4739 12.6612 21.2495 14.4489 21.2385C13.2975 22.6529 13.3973 22.7387 13.3588 23.7739C16.94 17.5846 17.1954 30.7682 20.0271 34.9207M25.1102 23.7739L20.0271 34.9207M25.1102 23.7739C30.4582 23.2399 33.8448 20.498 36.6829 20.94M20.0271 34.9207C21.4793 38.6992 25.2429 43.2141 29.8626 44.8499" stroke="#3C220E" stroke-width="0.5" stroke-linecap="round"/>
</g>
<path id="gold-chain" d="M34.6815 18.2619C35.3644 18.3626 35.9998 17.8907 36.1006 17.2077C36.2013 16.5248 35.7294 15.8894 35.0464 15.7887L34.6815 18.2619ZM37.904 16.1456C37.2173 16.0744 36.603 16.5734 36.5318 17.2601C36.4606 17.9467 36.9596 18.5611 37.6462 18.6323L37.904 16.1456ZM38.6372 18.7285C39.3248 18.7908 39.9326 18.2839 39.9949 17.5964C40.0572 16.9088 39.5504 16.301 38.8628 16.2387L38.6372 18.7285ZM41.7434 16.4474C41.0541 16.4094 40.4645 16.9373 40.4265 17.6267C40.3884 18.316 40.9164 18.9056 41.6057 18.9436L41.7434 16.4474ZM42.6009 18.9931C43.2906 19.0237 43.8745 18.4893 43.905 17.7997C43.9356 17.11 43.4013 16.5261 42.7116 16.4955L42.6009 18.9931ZM45.6031 16.5796C44.9128 16.5697 44.3451 17.1212 44.3352 17.8115C44.3253 18.5018 44.8769 19.0694 45.5671 19.0793L45.6031 16.5796ZM46.5588 19.0889C47.2492 19.0924 47.8116 18.5355 47.8151 17.8452C47.8185 17.1548 47.2617 16.5924 46.5714 16.5889L46.5588 19.0889ZM49.4733 16.5647C48.7831 16.5794 48.2356 17.1509 48.2503 17.8411C48.265 18.5313 48.8365 19.0789 49.5267 19.0641L49.4733 16.5647ZM50.5126 19.039C51.2026 19.0185 51.7454 18.4425 51.725 17.7525C51.7045 17.0624 51.1285 16.5196 50.4384 16.5401L50.5126 19.039ZM53.3419 16.4188C52.6526 16.4558 52.1237 17.0446 52.1606 17.734C52.1976 18.4233 52.7864 18.9522 53.4757 18.9153L53.3419 16.4188ZM54.4616 18.8586C55.1507 18.8164 55.675 18.2236 55.6328 17.5345C55.5906 16.8454 54.9978 16.3211 54.3087 16.3633L54.4616 18.8586ZM57.2071 16.1531C56.5191 16.2106 56.0081 16.815 56.0656 17.5029C56.1231 18.1909 56.7274 18.702 57.4154 18.6444L57.2071 16.1531ZM58.4 18.5585C59.0876 18.496 59.5943 17.8881 59.5318 17.2005C59.4693 16.513 58.8613 16.0063 58.1738 16.0688L58.4 18.5585ZM61.0668 15.7748C60.3807 15.8519 59.887 16.4704 59.964 17.1565C60.041 17.8425 60.6596 18.3363 61.3457 18.2592L61.0668 15.7748ZM62.3252 18.1458C63.0107 18.064 63.5001 17.442 63.4183 16.7565C63.3366 16.071 62.7146 15.5816 62.0291 15.6634L62.3252 18.1458ZM64.9137 15.289C64.2301 15.3849 63.7536 16.0169 63.8495 16.7005C63.9454 17.3842 64.5774 17.8606 65.2611 17.7647L64.9137 15.289ZM66.2379 17.6242C66.9209 17.5236 67.393 16.8884 67.2924 16.2054C67.1918 15.5224 66.5566 15.0503 65.8736 15.1509L66.2379 17.6242ZM68.7469 14.6974C68.0661 14.8121 67.6072 15.4569 67.7218 16.1377C67.8365 16.8184 68.4813 17.2774 69.1621 17.1627L68.7469 14.6974ZM70.1343 16.9955C70.8143 16.8762 71.2687 16.2282 71.1494 15.5482C71.03 14.8683 70.3821 14.4138 69.7021 14.5332L70.1343 16.9955ZM72.5601 14.0006C71.8827 14.1342 71.442 14.7916 71.5756 15.4689C71.7092 16.1462 72.3666 16.587 73.0439 16.4534L72.5601 14.0006ZM74.0133 16.2586C74.6896 16.1201 75.1257 15.4597 74.9872 14.7833C74.8488 14.107 74.1883 13.6709 73.512 13.8094L74.0133 16.2586ZM76.3535 13.1955C75.6803 13.3487 75.2588 14.0186 75.412 14.6917C75.5652 15.3649 76.2351 15.7864 76.9083 15.6331L76.3535 13.1955ZM77.8686 15.4108C78.5406 15.2525 78.957 14.5795 78.7988 13.9075C78.6405 13.2356 77.9675 12.8191 77.2955 12.9774L77.8686 15.4108ZM80.1173 12.2782C79.4493 12.4521 79.0487 13.1347 79.2226 13.8028C79.3966 14.4709 80.0792 14.8715 80.7472 14.6975L80.1173 12.2782ZM81.7022 14.4448C82.3688 14.2654 82.7639 13.5796 82.5845 12.9129C82.4051 12.2463 81.7193 11.8513 81.0527 12.0306L81.7022 14.4448ZM83.8428 11.242C83.181 11.4384 82.8037 12.1341 83 12.7959C83.1964 13.4578 83.8921 13.8351 84.5539 13.6388L83.8428 11.242ZM85.5053 13.3518C86.1654 13.1495 86.5364 12.4504 86.334 11.7904C86.1317 11.1303 85.4326 10.7593 84.7726 10.9616L85.5053 13.3518ZM87.5298 10.0734C86.8759 10.2947 86.5251 11.0042 86.7464 11.6581C86.9677 12.3121 87.6772 12.6628 88.3312 12.4415L87.5298 10.0734ZM89.2686 12.1189C89.9202 11.8909 90.2635 11.1778 90.0355 10.5262C89.8075 9.87457 89.0944 9.53119 88.4428 9.75922L89.2686 12.1189ZM91.1583 8.7586C90.5147 9.00837 90.1954 9.73258 90.4452 10.3762C90.695 11.0198 91.4192 11.339 92.0628 11.0892L91.1583 8.7586ZM92.9824 10.726C93.6229 10.4684 93.9333 9.74035 93.6757 9.09984C93.4182 8.45934 92.6901 8.14891 92.0496 8.40648L92.9824 10.726ZM94.708 7.27596C94.0785 7.55931 93.7978 8.29933 94.0812 8.92887C94.3645 9.5584 95.1045 9.83904 95.7341 9.5557L94.708 7.27596ZM96.6332 9.14299C97.2584 8.85028 97.528 8.10614 97.2353 7.48091C96.9426 6.85568 96.1984 6.58612 95.5732 6.87883L96.6332 9.14299ZM98.1484 5.5944C97.539 5.9188 97.308 6.67578 97.6324 7.28518C97.9568 7.89457 98.7138 8.1256 99.3231 7.80121L98.1484 5.5944ZM100.198 7.32477C100.801 6.98862 101.017 6.22729 100.681 5.62431C100.345 5.02132 99.5835 4.805 98.9805 5.14115L100.198 7.32477ZM101.426 3.67081C100.847 4.0475 100.683 4.82185 101.06 5.40039C101.437 5.97892 102.211 6.14255 102.79 5.76587L101.426 3.67081ZM34.194 18.188C34.3558 18.2132 34.5183 18.2378 34.6815 18.2619L35.0464 15.7887C34.8897 15.7655 34.7336 15.7419 34.5784 15.7177L34.194 18.188ZM37.6462 18.6323C37.9743 18.6663 38.3047 18.6984 38.6372 18.7285L38.8628 16.2387C38.5408 16.2095 38.2212 16.1785 37.904 16.1456L37.6462 18.6323ZM41.6057 18.9436C41.9357 18.9618 42.2675 18.9783 42.6009 18.9931L42.7116 16.4955C42.387 16.4812 42.0643 16.4651 41.7434 16.4474L41.6057 18.9436ZM45.5671 19.0793C45.8964 19.084 46.227 19.0872 46.5588 19.0889L46.5714 16.5889C46.2472 16.5873 45.9244 16.5842 45.6031 16.5796L45.5671 19.0793ZM49.5267 19.0641C49.8544 19.0571 50.183 19.0487 50.5126 19.039L50.4384 16.5401C50.1157 16.5496 49.794 16.5579 49.4733 16.5647L49.5267 19.0641ZM53.4757 18.9153C53.8037 18.8977 54.1324 18.8788 54.4616 18.8586L54.3087 16.3633C53.9858 16.3831 53.6635 16.4016 53.3419 16.4188L53.4757 18.9153ZM57.4154 18.6444C57.7432 18.617 58.0715 18.5884 58.4 18.5585L58.1738 16.0688C57.8512 16.0981 57.5289 16.1262 57.2071 16.1531L57.4154 18.6444ZM61.3457 18.2592C61.6721 18.2226 61.9986 18.1848 62.3252 18.1458L62.0291 15.6634C61.7082 15.7017 61.3874 15.7388 61.0668 15.7748L61.3457 18.2592ZM65.2611 17.7647C65.5868 17.719 65.9125 17.6722 66.2379 17.6242L65.8736 15.1509C65.5538 15.198 65.2338 15.244 64.9137 15.289L65.2611 17.7647ZM69.1621 17.1627C69.4865 17.1081 69.8106 17.0523 70.1343 16.9955L69.7021 14.5332C69.3841 14.589 69.0656 14.6437 68.7469 14.6974L69.1621 17.1627ZM73.0439 16.4534C73.3676 16.3895 73.6908 16.3246 74.0133 16.2586L73.512 13.8094C73.1953 13.8742 72.878 13.9379 72.5601 14.0006L73.0439 16.4534ZM76.9083 15.6331C77.2292 15.5601 77.5494 15.486 77.8686 15.4108L77.2955 12.9774C76.9824 13.0511 76.6684 13.1238 76.3535 13.1955L76.9083 15.6331ZM80.7472 14.6975C81.0667 14.6144 81.3851 14.5301 81.7022 14.4448L81.0527 12.0306C80.7421 12.1142 80.4303 12.1967 80.1173 12.2782L80.7472 14.6975ZM84.5539 13.6388C84.8726 13.5442 85.1897 13.4486 85.5053 13.3518L84.7726 10.9616C84.4643 11.0561 84.1544 11.1496 83.8428 11.242L84.5539 13.6388ZM88.3312 12.4415C88.6456 12.3351 88.9581 12.2276 89.2686 12.1189L88.4428 9.75922C88.1405 9.865 87.8362 9.96974 87.5298 10.0734L88.3312 12.4415ZM92.0628 11.0892C92.3717 10.9693 92.6783 10.8482 92.9824 10.726L92.0496 8.40648C91.7551 8.52491 91.458 8.64229 91.1583 8.7586L92.0628 11.0892ZM95.7341 9.5557C96.0369 9.41941 96.3366 9.28184 96.6332 9.14299L95.5732 6.87883C95.2881 7.01229 94.9997 7.14468 94.708 7.27596L95.7341 9.5557ZM99.3231 7.80121C99.6187 7.64385 99.9104 7.48504 100.198 7.32477L98.9805 5.14115C98.7075 5.29335 98.4301 5.44444 98.1484 5.5944L99.3231 7.80121ZM102.79 5.76587C102.929 5.67481 103.068 5.58332 103.205 5.4914L101.814 3.41424C101.686 3.50004 101.556 3.58556 101.426 3.67081L102.79 5.76587Z" fill="#FFD700"/>
<path id="shoe" d="M34.6597 148.771C35.5486 143.793 39.2854 144.621 44.7273 143.941C55.5087 147.006 53.4076 153.681 56.5814 156.362C62.1277 157.618 64.9816 157.362 64.9816 157.362C64.9816 157.362 67.688 158.812 64.9816 159.947C56.2584 159.014 45.3746 156.181 45.3746 156.181C40.8687 154.773 33.8313 153.41 34.6597 148.771Z" fill="#D8D8D8"/>
<path id="suit" d="M41.4621 144.213C37.2145 144.213 29.8829 131.662 29.1789 125.936C56.7431 131.407 80.1889 119.785 107.23 115.705C109.731 132.065 99.64 152.017 81.6679 157.254C62.6918 157.254 62.0422 145.48 41.4621 144.213Z" fill="url(#paint0_linear_450_33)"/>
</g>
<defs>
<linearGradient id="paint0_linear_450_33" x1="109.858" y1="131.424" x2="31.9785" y2="146.199" gradientUnits="userSpaceOnUse">
<stop stop-color="white"/>
<stop offset="1" stop-color="#C7C7C7"/>
</linearGradient>
</defs>
</svg>
