<!-- new -->
<svg class="programmer-head" viewBox="0 0 75 91" fill="none" xmlns="http://www.w3.org/2000/svg">
<defs>
  <linearGradient id="grad-programmer"  x1="20%" y1="30%" x2="80%" y2="0%">
    <stop offset="0%" style="stop-color:hsl(9, 70%, 58%);" />
    <stop offset="60%" style="stop-color:hsl(9, 70%, 65%);" />
    <stop offset="100%" style="stop-color:hsl(9, 80%, 70%);" />
  </linearGradient>
</defs>
<ellipse id="eye-round" rx="4.43394" ry="6.81276" transform="matrix(0.951677 0.3071 -0.338176 0.941083 17.6123 31.8852)" fill="black"/>
<path id="glint" d="M15.4529 27.1163C17.5932 25.2003 18.4039 25.2581 18.501 27.9058C17.5424 26.7604 16.8472 26.6468 15.4529 27.1163Z" fill="white"/>
<path d="M40.5712 18.0633C41.6998 18.6524 42.4883 20.1879 42.9489 22.5048M46.0729 3.86187C47.0313 7.12167 47.4066 9.13284 48.093 13.1244M46.5856 3.38975C47.4181 6.92554 47.8015 8.85484 48.4243 12.9245M47.4738 2.98383C48.279 6.64407 48.5334 8.74177 49.0158 12.5267M47.9607 2.55059C48.7078 6.8203 48.9715 8.91269 49.3374 12.2888M40.6545 16.4205C41.7364 16.5256 42.9713 18.1447 43.6143 21.2265M40.8715 15.4965C41.9619 15.4671 43.2338 17.4771 43.9189 20.4545M41.0468 14.499C42.1372 14.4696 43.6106 16.8942 44.2957 19.8716M41.27 13.4453C42.3613 13.4005 43.9128 16.0959 44.6027 19.061M41.5478 12.4571C42.6116 12.4579 44.2009 15.4214 44.9039 18.35M41.8625 11.2929C42.9473 11.355 44.5898 14.6967 45.2464 17.7455M42.2536 10.1587C43.3319 10.3145 44.9133 14.0448 45.5402 17.1648M42.5062 9.26599C43.5966 9.23657 45.1888 13.529 45.8739 16.5064M42.919 8.26198C44.0094 8.23256 45.5323 12.9088 46.2174 15.8861M43.3942 7.40918C44.4846 7.37976 45.8617 12.3272 46.5468 15.3046M43.7269 6.56005C44.8173 6.53063 46.2504 11.7439 46.9355 14.7212M44.284 5.93412C45.3744 5.90469 46.5851 11.2767 47.2702 14.2541M45.1055 5.03346C46.0119 6.80363 46.8767 10.7341 47.5618 13.7114M48.416 2.46169C49.0141 5.801 49.281 7.91658 49.6503 12.2038M48.9144 2.44818C49.4165 6.05198 49.6922 8.16753 49.9589 12.1954M49.3892 2.43532C49.836 6.35291 50.0758 8.49716 50.2794 12.1867M49.8877 2.42181C50.2228 6.18858 50.4678 8.32266 50.5879 12.1784M50.3547 2.75283C50.6325 6.14026 50.8928 8.18921 50.9321 12.1691M50.8141 3.00768C51.0295 6.5921 51.2996 8.58259 51.2882 12.1594M51.6067 11.7689C51.6338 8.51328 51.4297 6.67088 51.2693 3.33902M51.652 3.90144C51.7682 6.77922 51.9709 8.34964 51.9092 11.0352M52.1069 4.65283C52.1274 7.22751 52.2521 8.54509 52.1727 10.5698M52.4787 5.40647C52.4907 7.43952 52.5717 8.49033 52.4837 10.1032M52.8556 6.69457C52.8245 7.98904 52.8465 8.65058 52.7806 9.67509M53.1562 7.45014L53.0536 9.66769M45.5224 4.37297C46.5299 6.86593 47.1992 10.0936 47.8189 13.3608M40.5683 17.2614C41.6383 17.5241 42.681 18.8517 43.2733 22.0502M48.7029 12.6112C48.222 9.30443 47.9514 7.10317 47.0466 2.99512M53.4234 7.97739L53.3547 9.58306M53.6816 8.42867L53.6764 9.34522" stroke="white" stroke-width="0.206259"/>
<path d="M40.5409 18.1785C40.709 8.78024 48.3522 -3.07349 52.3516 5.14262C52.3516 5.14262 53.3305 8.31278 54.2916 8.94681" stroke="white" stroke-width="0.515648"/>
<path id="head" d="M70.9168 49.9792C70.9168 49.9792 70.0303 33.5306 60.9887 26.0739C51.3995 18.1655 43.5037 16.0343 30.4168 19.1678C17.327 22.302 7.67723 36.8216 5.57186 52.9217C5.16516 53.2003 4.74006 52.9477 4.43211 53.2928C2.3156 55.6645 2.62011 60.6941 4.99831 63.113C5.34412 63.4647 5.70418 63.0727 6.14144 63.36C7.43114 68.5427 6.34518 66.5311 6.79025 68.5078C7.25781 77.0629 18.5478 89.5037 41.6669 88.2402C64.7859 86.9767 74.1575 71.902 73.772 64.8471C73.4251 58.945 72.6455 53.1147 70.9168 49.9792Z" fill="url('#grad-programmer')"/>
<path id="snout-Vector" d="M5.53881 53.2227C5.2064 57.3197 5.23061 59.1442 6.06518 63.0302" stroke="#3C220E" stroke-width="0.503265" stroke-linecap="round"/>
<g id="antenna left">
<path d="M35.2856 19.7262C34.2419 20.6948 33.7962 22.5897 33.8941 25.2356M25.8904 5.94258C25.7002 9.75612 25.8111 12.0457 26.0929 16.5729M25.2296 5.58082C25.2421 9.65665 25.3237 11.8599 25.6925 16.4531M24.1888 5.4006C24.2616 9.60333 24.5219 11.9514 24.9672 16.1948M23.5652 5.07341C23.853 9.91976 24.1022 12.2648 24.5674 16.0311M34.7832 17.9699C33.6666 18.4002 32.7704 20.5163 32.8686 24.0445M34.3207 17.0317C33.1613 17.3187 32.3246 19.8693 32.3519 23.2968M33.8839 16.0017C32.7245 16.2887 31.7795 19.3476 31.8067 22.7751M33.3823 14.9252C32.2181 15.1957 31.2589 18.5709 31.2781 21.9865M32.8395 13.9352C31.7158 14.2472 30.7843 17.9241 30.7804 21.3039M32.2133 12.7655C31.0829 13.1501 30.1906 17.2524 30.2662 20.749M31.5139 11.6505C30.414 12.1348 29.6843 16.6405 29.8092 20.2054M31.022 10.7569C29.8625 11.0439 29.2633 16.1621 29.2906 19.5895M30.3326 9.78932C29.1732 10.0763 28.7439 15.5902 28.7712 19.0176M29.6154 9.00402C28.456 9.29103 28.2492 15.0562 28.2765 18.4837M29.0496 8.18072C27.8902 8.46773 27.6913 14.5374 27.7186 17.9648M28.3032 7.66536C27.1438 7.95237 27.2199 14.1291 27.2472 17.5565M27.2079 6.92924C26.6969 9.11297 26.7748 13.626 26.8021 17.0535M23.0616 5.1099C23.2721 8.90424 23.5238 11.2753 24.2152 16.0301M22.5315 5.24104C22.9102 9.29396 23.1527 11.6676 23.8871 16.1113M22.0267 5.36594C22.543 9.74281 22.8306 12.137 23.5463 16.1956M21.4967 5.49708C22.0928 9.67783 22.3724 12.0625 23.2182 16.2768M21.0868 5.99244C21.6478 9.74527 21.8897 12.0422 22.8522 16.3674M20.6657 6.40305C21.3424 10.3511 21.5592 12.5876 22.4736 16.461M22.0386 16.131C21.1887 12.6102 20.9395 10.5535 20.2684 6.89529M20.006 7.61681C20.6092 10.77 20.7912 12.5314 21.5339 15.4242M19.7149 8.56426C20.3428 11.3609 20.5434 12.8255 21.1381 14.9968M19.5122 9.48986C20.0125 11.6969 20.1919 12.8596 20.6918 14.582M19.439 10.9962C19.7985 12.3902 19.9421 13.1136 20.2701 14.2048M19.312 11.9031L19.9799 14.2766M26.601 6.33553C26.1655 9.33223 26.2727 13.0264 26.4422 16.7488M35.0863 18.856C34.0222 19.4537 33.2555 21.1976 33.4366 24.8376M25.3191 16.195C24.993 12.4702 24.7235 10.0051 24.6431 5.28788M19.1633 12.5527L19.6405 14.273M19.0221 13.4487L19.3437 14.4232" stroke="white" stroke-width="0.228458"/>
<path d="M35.3467 19.842C32.7982 9.70461 21.7327 -0.908091 19.5801 9.16684C19.5801 9.16684 19.3457 12.8892 18.4902 13.8575" stroke="white" stroke-width="0.571145"/>
</g>
</svg>
