<!-- new -->
<svg class="horn-player-head" viewBox="0 0 66 66" fill="none" xmlns="http://www.w3.org/2000/svg">
<defs>
  <linearGradient id="grad-horn-player" x1="0%" y1="30%" x2="40%" y2="0%">
    <stop offset="0%" style="stop-color:hsl(9, 70%, 58%);" />
    <stop offset="60%" style="stop-color:hsl(9, 70%, 65%);" />
    <stop offset="100%" style="stop-color:hsl(9, 80%, 70%);" />
  </linearGradient>
</defs>
<g id="m-HORN-PLAYER-head">
<path id="head" d="M14.7039 47.1207C14.7039 49.2025 14.6067 50.1344 15.4705 53.143C15.4705 53.143 16.9078 68.183 42.8417 65.3307C62.579 63.1599 65.1327 43.4828 65.1327 43.4828C62.2038 37.4839 63.2125 33.3052 58.2135 30.2771C57.0074 29.0442 55.8995 27.731 54.8564 26.4625C52.6973 23.8365 50.8163 21.4018 48.918 20.2672C45.051 15.3551 34.2847 14.1906 34.2847 14.1906C27.273 19.0986 22.0576 19.0123 16.9078 24.6298C13.6338 30.0204 12.7329 33.0417 12.8684 38.419C13.088 43.7512 12.8684 44.6604 14.7039 47.1207Z" fill="url('#grad-horn-player')"/>
<path id="chin" d="M52.06 27.9807C46.7483 43.1877 35.5844 47.0224 15.0792 46.7077" stroke="#3C220E" stroke-width="0.74188" stroke-linecap="round"/>
<path id="mouth-area" d="M34.4898 35.6109C35.3357 34.4689 35.7496 33.1856 36.1014 32.06M33.7941 33.1194C34.4442 32.5331 35.3813 32.3174 35.7409 31.8758M33.2793 30.6611L35.3805 30.7704M36.3674 29.8711C35.1408 27.4063 32.6938 28.1867 32.6938 28.1867M37.089 29.8711L37.4791 29.5318M37.4386 31.1234L38.6318 30.9512M37.2447 32.3913L38.3669 33.1489M36.6421 32.06C36.9794 33.2293 36.9601 34.827 36.3674 35.795M32.4257 35.669C30.9972 33.7166 30.6061 32.3913 31.1741 29.5528M39.657 34.1775C40.3989 32.3913 40.6215 28.6417 37.0963 27.8828" stroke="#3C220E" stroke-width="0.593504"/>
<g id="eyes">
<g id="eyeball-right">
<ellipse id="eye-round" rx="4.14571" ry="4.23652" transform="matrix(-0.996829 0.0795735 0.0761786 0.997094 21.323 26.1305)" fill="black"/>
<path id="glint" d="M24.0037 23.6175C22.0215 22.1376 20.6719 22.0671 18.4923 23.7105C20.9111 23.1201 22.1174 23.1404 24.0037 23.6175Z" fill="white"/>
</g>
<g id="eyeball-left">
<ellipse id="eye-round_2" rx="4.14515" ry="4.23707" transform="matrix(-1 0 0 1 39.3454 19.867)" fill="black"/>
<path id="glint_2" d="M42.2094 17.5749C40.3459 15.9417 39.0058 15.7641 36.7076 17.2291C39.164 16.833 40.3651 16.9492 42.2094 17.5749Z" fill="white"/>
</g>
</g>
<g id="antennae">
<g id="antenna-right">
<path id="Vector 1056" d="M19.1133 22.6403C17.6927 23.3697 16.7573 24.365 16.2835 25.56M11.3181 18.8182C10.2523 20.6301 9.87242 21.6571 9.19361 23.6708M10.635 18.8299C9.74516 20.7081 9.35067 21.7031 8.75754 23.7238M9.47272 19.0282C8.62433 20.9486 8.40415 21.9622 7.97702 23.8007M8.82489 19.0458C8.08211 21.2052 7.84974 22.2204 7.55147 23.8333" stroke="white" stroke-width="0.111087"/>
<path id="Vector 1057" d="M18.9226 21.9654C17.5373 22.466 16.0326 23.6852 15.3632 25.2875" stroke="white" stroke-width="0.111087"/>
<path id="Vector 1058" d="M18.5966 21.6574C17.1935 22.1035 15.6611 23.5072 14.9322 25.0821" stroke="white" stroke-width="0.111087"/>
<path id="Vector 1059" d="M18.3204 21.3001C16.9173 21.7461 15.147 23.4138 14.4181 24.9887" stroke="white" stroke-width="0.111087"/>
<path id="Vector 1060" d="M17.9798 20.9388C16.5749 21.3785 14.7181 23.1961 13.9824 24.7676" stroke="white" stroke-width="0.111087"/>
<path id="Vector 1061" d="M17.5724 20.6285C16.2051 21.0764 14.3133 23.0257 13.559 24.587" stroke="white" stroke-width="0.111087"/>
<path id="Vector 1062" d="M17.1085 20.2579C15.7173 20.7411 13.7765 22.8762 13.0879 24.47" stroke="white" stroke-width="0.111087"/>
<path id="Vector 1063" d="M16.548 19.9323C15.17 20.4533 13.3274 22.7306 12.6807 24.3426" stroke="white" stroke-width="0.111087"/>
<path id="Vector 1064" d="M16.1779 19.6528C14.7749 20.0989 12.9471 22.6237 12.2182 24.1986" stroke="white" stroke-width="0.111087"/>
<path id="Vector 1065" d="M15.5963 19.3927C14.1932 19.8387 12.474 22.5002 11.7451 24.0751" stroke="white" stroke-width="0.111087"/>
<path id="Vector 1066" d="M14.942 19.224C13.539 19.6701 12.021 22.3874 11.2921 23.9623" stroke="white" stroke-width="0.111087"/>
<path id="Vector 1067" d="M14.471 18.997C13.068 19.4431 11.4916 22.2988 10.7627 23.8737" stroke="white" stroke-width="0.111087"/>
<path id="Vector 1069" d="M13.7231 18.9609C12.3201 19.407 11.0376 22.2378 10.3087 23.8127" stroke="white" stroke-width="0.111087"/>
<path id="Vector 1070" d="M12.6212 18.9174C11.5464 20.0637 10.6352 22.126 9.90624 23.7009" stroke="white" stroke-width="0.111087"/>
<path id="Vector 1073" d="M8.23506 19.1989C7.63636 20.8936 7.40116 21.9201 7.1449 23.9281M7.59367 19.4028C7.13193 21.1714 6.88541 22.2016 6.74784 24.0543M6.98281 19.597C6.6081 21.4779 6.4092 22.5054 6.33551 24.1854M6.34142 19.8009C6.10252 21.5697 5.89643 22.5949 5.93846 24.3116M5.75803 20.1404C5.5735 21.7211 5.34332 22.7161 5.49559 24.4524M5.18042 20.4439C5.0862 22.0834 4.84048 23.0572 5.03745 24.5981M4.60817 24.5633C4.40745 23.1679 4.57595 22.2858 4.61231 20.7785M4.14906 21.1826C4.14632 22.4751 3.96583 23.239 4.18197 24.3735M3.60264 21.6987C3.70748 22.8199 3.61426 23.4418 3.81955 24.2833M3.16313 22.1808C3.25136 23.0644 3.2007 23.5526 3.39605 24.2125M2.7443 22.896C2.85031 23.4423 2.85573 23.7374 2.99257 24.1524M2.39641 23.349L2.64132 24.2641" stroke="white" stroke-width="0.111087"/>
<path id="Vector 1071" d="M12.0518 18.8074C10.8839 20.3085 10.1881 21.9849 9.55805 23.6575" stroke="white" stroke-width="0.111087"/>
<path id="Vector 1068" d="M19.0761 22.2925C17.7142 22.8562 16.4417 23.8686 15.8434 25.4999" stroke="white" stroke-width="0.111087"/>
<path id="Vector 1054" d="M19.1581 22.6773C18.4632 18.6867 8.03511 16.7801 3.31315 22.0133C3.31315 22.0133 2.21651 23.795 1.01344 24.4734" stroke="white" stroke-width="0.277717"/>
<path id="Vector 1072" d="M8.38355 23.7056C8.83321 22.0743 9.06883 21.0092 10.0225 18.8533" stroke="white" stroke-width="0.111087"/>
<path id="Vector 1074" d="M2.08112 23.6889L2.25004 24.3542" stroke="white" stroke-width="0.111087"/>
<path id="Vector 1075" d="M1.77159 23.9927L1.82448 24.3868" stroke="white" stroke-width="0.111087"/>
</g>
<g id="antenna-left">
<path id="Vector 1056_2" d="M34.339 14.1449C35.8679 13.6994 37.2154 13.7852 38.3554 14.3373M37.5483 5.93902C39.5325 6.53589 40.492 7.02927 42.3249 8.04238M38.059 5.47515C39.9575 6.24251 40.9067 6.70227 42.6811 7.77979M39.046 4.81719C40.942 5.64438 41.7751 6.23833 43.3067 7.29656M39.5347 4.38208C41.5111 5.45825 42.3542 6.04496 43.6415 7.02618" stroke="white" stroke-width="0.111087"/>
<path id="Vector 1057_2" d="M34.0327 13.5163C35.3841 12.9267 37.2991 12.7836 38.8527 13.5003" stroke="white" stroke-width="0.111087"/>
<path id="Vector 1058_2" d="M34.0689 13.064C35.3972 12.422 37.4548 12.3956 39.034 13.051" stroke="white" stroke-width="0.111087"/>
<path id="Vector 1059_2" d="M34.0357 12.6099C35.364 11.9679 37.7715 11.9712 39.3507 12.6266" stroke="white" stroke-width="0.111087"/>
<path id="Vector 1060_2" d="M34.0472 12.1082C35.3728 11.4602 37.9431 11.5141 39.5252 12.1624" stroke="white" stroke-width="0.111087"/>
<path id="Vector 1061_2" d="M34.1418 11.5979C35.445 10.982 38.1284 11.1087 39.7173 11.7365" stroke="white" stroke-width="0.111087"/>
<path id="Vector 1062_2" d="M34.238 11.0042C35.5822 10.3978 38.4247 10.6273 39.9867 11.3245" stroke="white" stroke-width="0.111087"/>
<path id="Vector 1063_2" d="M34.4352 10.3769C35.7947 9.80731 38.659 10.2096 40.2022 10.9491" stroke="white" stroke-width="0.111087"/>
<path id="Vector 1064_2" d="M34.5227 9.91509C35.8511 9.27307 38.8682 9.8678 40.4475 10.5232" stroke="white" stroke-width="0.111087"/>
<path id="Vector 1065_2" d="M34.7787 9.32122C36.107 8.6792 39.1347 9.44966 40.714 10.105" stroke="white" stroke-width="0.111087"/>
<path id="Vector 1066_2" d="M35.1487 8.74445C36.4771 8.10243 39.3936 9.05322 40.9728 9.70859" stroke="white" stroke-width="0.111087"/>
<path id="Vector 1067_2" d="M35.3453 8.25161C36.6736 7.60958 39.7247 8.62189 41.304 9.27726" stroke="white" stroke-width="0.111087"/>
<path id="Vector 1069_2" d="M35.8721 7.70766C37.2004 7.06564 40.0186 8.26285 41.5979 8.91822" stroke="white" stroke-width="0.111087"/>
<path id="Vector 1070_2" d="M36.6546 6.91356C38.2048 7.01411 40.241 7.90227 41.8202 8.55763" stroke="white" stroke-width="0.111087"/>
<path id="Vector 1073_2" d="M40.0704 4.08699C41.6331 4.92065 42.4858 5.51375 44.0038 6.81496M40.6776 3.79347C42.1883 4.77626 43.0518 5.36424 44.3797 6.63326M41.2559 3.51393C42.777 4.63962 43.6036 5.25855 44.77 6.44457M41.8631 3.22041C43.2099 4.35747 44.0404 4.9698 45.1459 6.26286M42.5174 3.06688C43.6997 4.10309 44.5279 4.67643 45.5652 6.06019M43.1436 2.89078C44.2984 4.03279 45.1239 4.57981 45.9989 5.85054M46.292 5.52804C45.516 4.36175 44.808 3.82886 43.7834 2.74424M44.392 2.72132C45.2496 3.67105 45.8882 4.10865 46.4802 5.0935M45.136 2.72336C45.801 3.62141 46.2813 4.01479 46.6873 4.77639M45.7787 2.77433C46.2987 3.48591 46.6592 3.81032 46.9522 4.43132M46.5606 3.01122C46.8441 3.48676 47.0355 3.70781 47.2095 4.10802M47.1166 3.10412L47.5421 3.94728" stroke="white" stroke-width="0.111087"/>
<path id="Vector 1071_2" d="M37.001 6.43863C38.8546 6.73611 40.4767 7.48908 42.0478 8.28479" stroke="white" stroke-width="0.111087"/>
<path id="Vector 1068_2" d="M34.1362 13.8633C35.5121 13.3363 37.1193 13.2016 38.6398 13.9888" stroke="white" stroke-width="0.111087"/>
<path id="Vector 1054_2" d="M34.3306 14.2033C32.2005 10.7845 38.6164 2.16777 45.5574 2.75473C45.5574 2.75473 47.5443 3.30809 48.8792 2.97542" stroke="white" stroke-width="0.277717"/>
<path id="Vector 1072_2" d="M42.9444 7.50786C41.5334 6.61778 40.6549 5.99656 38.5255 5.06883" stroke="white" stroke-width="0.111087"/>
<path id="Vector 1074_2" d="M47.5738 3.13631L47.8898 3.74302" stroke="white" stroke-width="0.111087"/>
<path id="Vector 1075_2" d="M48.0028 3.1459L48.2247 3.47263" stroke="white" stroke-width="0.111087"/>
</g>
</g>
</g>
</svg>
