<!-- new -->
<svg class="tard barritone" viewBox="0 0 89 141" preserveAspectRatio="none" fill="none" xmlns="http://www.w3.org/2000/svg">
<defs>
  <linearGradient id="grad-barritone"  x1="20%" y1="30%" x2="80%" y2="0%">
    <stop offset="0%" style="stop-color:hsl(9, 70%, 58%);" />
    <stop offset="60%" style="stop-color:hsl(9, 70%, 65%);" />
    <stop offset="100%" style="stop-color:hsl(9, 80%, 70%);" />
  </linearGradient>
</defs>
<g id="m-BARRITONE-PLAYER">
<path id="barritone" d="M84.9522 31.6688C90.8525 22.9472 46.6972 -1.70471 40.5488 7.50922C41.8733 10.4559 43.547 11.6528 44.671 14.6816C47.7657 23.0203 41.9945 37.2994 41.9945 37.2994C41.9945 37.2994 41.7869 48.5661 35.0802 53.9114C40.2645 57.1038 46.8901 64.451 46.8901 64.451C46.8901 64.451 67.4626 33.5687 76.0719 31.7665C79.4665 31.0559 81.5057 32.0558 84.9522 31.6688Z" fill="#FFD700"/>
<path id="outline" d="M12.7335 38.687C12.7335 38.687 9.22478 17.4651 32.7157 18.0232C56.2067 18.5813 53.031 39.6443 53.031 39.6443C56.3359 44.3524 57.8547 47.1762 59.2121 52.9502C61.4803 59.2016 61.9261 63.2897 61.6414 71.3466C63.615 79.522 63.8127 83.7771 62.7073 90.8305C64.2291 98.4591 63.9738 102.82 62.2353 110.698C63.902 119.922 63.2478 127.149 60.2782 132.367C57.3085 137.585 54.3202 138.786 54.3202 138.786C52.7911 140.54 42.6954 139.577 42.0599 138.764C39.3712 135.326 30.9415 134.609 28.8409 138.142C28.0007 139.555 14.8568 138.116 14.281 137.585C12.9369 135.814 10.2537 133.733 9.18783 131.268C8.1219 128.803 5.71934 120.527 6.62586 110.777C4.39056 103.295 4.06553 98.9367 5.188 90.8639C3.699 82.82 3.78301 78.2641 5.68324 70.0172C4.20913 62.3744 4.70635 58.3503 8.02849 51.7342C8.05681 46.0437 9.0788 43.1844 12.7335 38.687Z" fill="url('#grad-barritone')"/>
<g id="flab-lines">
<path id="Vector 1085" d="M33.452 53.7575C30.0274 54.2615 24.9629 54.809 21.8375 53.7575C17.55 53.7575 13.3138 53.7575 10.0924 51.6812" stroke="#3C220E" stroke-width="0.915782" stroke-linecap="round"/>
<path id="Vector 1086" d="M29.2515 72.526C25.555 73.8543 18.4753 73.3993 15.3027 71.896C11.0151 71.896 9.88224 71.6858 5.89188 70.4496" stroke="#3C220E" stroke-width="0.915782" stroke-linecap="round"/>
<path id="Vector 1087" d="M29.3823 93.1298C25.9577 93.6338 21.6441 93.1298 18.1891 92.4813C13.3216 93.4175 8.90819 93.2097 5.52539 90.9922" stroke="#3C220E" stroke-width="0.915782" stroke-linecap="round"/>
<path id="Vector 1088" d="M30.3649 113.734C27.5256 114.83 22.6268 113.734 19.1718 113.085C14.8842 113.085 11.0023 112.63 7.38196 111.163" stroke="#3C220E" stroke-width="0.915782" stroke-linecap="round"/>
<path id="Vector 1089" d="M35.792 55.2882C38.9741 55.7922 42.9822 55.2882 46.1926 54.6397C50.95 55.347 54.4782 55.0776 57.4976 53.2119" stroke="#3C220E" stroke-width="0.915782" stroke-linecap="round"/>
<path id="Vector 1090" d="M38.9352 73.2803C42.245 74.2018 46.2476 73.6798 49.3358 72.6318C53.3198 72.6318 57.0815 72.3655 60.7894 71.1293" stroke="#3C220E" stroke-width="0.915782" stroke-linecap="round"/>
<path id="Vector 1091" d="M42.0785 91.2725C45.108 92.4067 49.1313 91.842 52.4791 90.6239C56.463 90.6239 58.7018 91.8601 62.4096 90.6239" stroke="#3C220E" stroke-width="0.915782" stroke-linecap="round"/>
<path id="Vector 1092" d="M40.0574 112.847C43.6571 114.109 47.6131 113.511 50.458 112.199C54.172 112.912 57.7691 112.764 61.763 110.771" stroke="#3C220E" stroke-width="0.915782" stroke-linecap="round"/>
</g>
<g id="antennae">
<g id="antenna-right">
<path id="Vector 1056" d="M24.2483 18.8628C22.2045 19.2428 20.6756 20.1259 19.6554 21.4221M15.8156 11.3325C13.8325 13.1717 12.9901 14.2957 11.4214 16.5235M14.9534 11.0986C13.1677 13.0832 12.3184 14.1626 10.8548 16.4302M13.4229 10.9198C11.6743 12.9715 11.0373 14.137 9.847 16.241M12.6029 10.706C10.9019 13.0897 10.2491 14.2527 9.30088 16.1263" stroke="white" stroke-width="0.137815"/>
<path id="Vector 1057" d="M24.2488 17.9667C22.3306 18.0783 20.0069 19.0297 18.5963 20.7553" stroke="white" stroke-width="0.137815"/>
<path id="Vector 1058" d="M23.9487 17.4686C22.0277 17.5067 19.6036 18.6748 18.128 20.3451" stroke="white" stroke-width="0.137815"/>
<path id="Vector 1059" d="M23.7289 16.9288C21.8079 16.967 18.9911 18.3729 17.5155 20.0433" stroke="white" stroke-width="0.137815"/>
<path id="Vector 1060" d="M23.4296 16.3624C21.5084 16.3922 18.5297 17.9508 17.0467 19.6147" stroke="white" stroke-width="0.137815"/>
<path id="Vector 1061" d="M23.0281 15.8321C21.1514 15.8855 18.0818 17.5934 16.5791 19.2378" stroke="white" stroke-width="0.137815"/>
<path id="Vector 1062" d="M22.5772 15.2104C20.6578 15.2986 17.4606 17.2169 16.029 18.9251" stroke="white" stroke-width="0.137815"/>
<path id="Vector 1063" d="M21.9889 14.6049C20.0726 14.7443 16.9483 16.8731 15.5628 18.6189" stroke="white" stroke-width="0.137815"/>
<path id="Vector 1064" d="M21.6233 14.1273C19.7023 14.1655 16.5086 16.6038 15.0329 18.2742" stroke="white" stroke-width="0.137815"/>
<path id="Vector 1065" d="M20.9852 13.5947C19.0642 13.6329 15.9583 16.2787 14.4827 17.9491" stroke="white" stroke-width="0.137815"/>
<path id="Vector 1066" d="M20.2234 13.1499C18.3024 13.1881 15.4293 15.9757 13.9537 17.6461" stroke="white" stroke-width="0.137815"/>
<path id="Vector 1067" d="M19.7124 12.7004C17.7914 12.7386 14.7959 15.675 13.3202 17.3454" stroke="white" stroke-width="0.137815"/>
<path id="Vector 1069" d="M18.7858 12.3834C16.8648 12.4216 14.2472 15.4342 12.7716 17.1046" stroke="white" stroke-width="0.137815"/>
<path id="Vector 1070" d="M17.4173 11.9313C15.6595 12.9493 13.7815 15.1524 12.3059 16.8228" stroke="white" stroke-width="0.137815"/>
<path id="Vector 1073" d="M11.8076 10.6806C10.4529 12.5455 9.79247 13.7215 8.75653 16.0959M10.9294 10.698C9.72052 12.7035 9.04454 13.8799 8.2129 16.1067M10.0931 10.7146C8.95352 12.8898 8.33831 14.0801 7.64835 16.1179M9.21487 10.732C8.28582 12.8188 7.66237 14.0038 7.10471 16.1287M8.36133 10.9372C7.56744 12.8126 6.92451 13.9516 6.49835 16.1407M7.52787 11.1002C6.82649 13.0807 6.17157 14.1881 5.87108 16.1532M5.3442 15.9545C5.58829 14.1667 6.11358 13.144 6.69524 11.3049M5.96965 11.6331C5.50663 13.2204 5.00826 14.0935 4.87632 15.5663M5.09977 12.0687C4.83275 13.4847 4.49453 14.215 4.45316 15.3237M4.37625 12.5014C4.17288 13.6193 3.93565 14.2008 3.94637 15.0828M3.59581 13.2281C3.53473 13.9379 3.43659 14.3026 3.46089 14.8623M2.99774 13.6583L2.97999 14.8718" stroke="white" stroke-width="0.137815"/>
<path id="Vector 1071" d="M16.741 11.5878C14.7402 13.008 13.27 14.8152 11.8839 16.6416" stroke="white" stroke-width="0.137815"/>
<path id="Vector 1068" d="M24.3253 18.4244C22.4141 18.6222 20.4556 19.4037 19.1239 21.191" stroke="white" stroke-width="0.137815"/>
<path id="Vector 1054" d="M24.2914 18.927C24.8375 13.7705 12.4165 7.63718 4.62419 12.3518C4.62419 12.3518 2.61309 14.1427 0.860646 14.5391" stroke="white" stroke-width="0.344537"/>
<path id="Vector 1072" d="M10.3915 16.2734C11.5364 14.4321 12.2111 13.2089 14.1756 10.9062" stroke="white" stroke-width="0.137815"/>
<path id="Vector 1074" d="M2.48068 13.9631L2.45628 14.8421" stroke="white" stroke-width="0.137815"/>
<path id="Vector 1075" d="M1.98386 14.2248L1.91018 14.7282" stroke="white" stroke-width="0.137815"/>
</g>
<g id="antenna-left">
<path id="Vector 1056_2" d="M40.7564 19.0618C42.8536 19.4202 44.4314 20.3011 45.4947 21.6123M49.2733 11.2297C51.3302 13.0822 52.209 14.2198 53.8477 16.4762M50.1522 10.9774C52.0092 12.9817 52.8945 14.0735 54.4262 16.3722M51.7157 10.7716C53.5358 12.8449 54.2051 14.0281 55.4546 16.1635M52.5517 10.5405C54.3279 12.9544 55.0135 14.1348 56.0118 16.038" stroke="white" stroke-width="0.141047"/>
<path id="Vector 1057_2" d="M40.7424 18.1412C42.707 18.2268 45.0992 19.1656 46.5685 20.9104" stroke="white" stroke-width="0.141047"/>
<path id="Vector 1058_2" d="M41.042 17.6299C43.0085 17.6403 45.5066 18.7993 47.0416 20.4866" stroke="white" stroke-width="0.141047"/>
<path id="Vector 1059_2" d="M41.259 17.0742C43.2254 17.0845 46.1289 18.4811 47.664 20.1684" stroke="white" stroke-width="0.141047"/>
<path id="Vector 1060_2" d="M41.5568 16.4878C43.5233 16.4895 46.5948 18.04 48.1373 19.7205" stroke="white" stroke-width="0.141047"/>
<path id="Vector 1061_2" d="M41.9597 15.9399C43.8811 15.9665 47.0478 17.6683 48.6102 19.3287" stroke="white" stroke-width="0.141047"/>
<path id="Vector 1062_2" d="M42.4118 15.2937C44.3773 15.3553 47.6778 17.2706 49.1684 18.9973" stroke="white" stroke-width="0.141047"/>
<path id="Vector 1063_2" d="M43.0047 14.6688C44.9679 14.7828 48.197 16.9146 49.6409 18.6805" stroke="white" stroke-width="0.141047"/>
<path id="Vector 1064_2" d="M43.3717 14.1729C45.3381 14.1833 48.6429 16.6308 50.1779 18.3181" stroke="white" stroke-width="0.141047"/>
<path id="Vector 1065_2" d="M44.0168 13.6209C45.9832 13.6312 49.2012 16.2923 50.7362 17.9796" stroke="white" stroke-width="0.141047"/>
<path id="Vector 1066_2" d="M44.7897 13.1544C46.7561 13.1648 49.7379 15.9744 51.273 17.6617" stroke="white" stroke-width="0.141047"/>
<path id="Vector 1067_2" d="M45.3059 12.6837C47.2723 12.6941 50.3817 15.6542 51.9167 17.3415" stroke="white" stroke-width="0.141047"/>
<path id="Vector 1069_2" d="M46.2494 12.3487C48.2158 12.3591 50.9395 15.4028 52.4746 17.0901" stroke="white" stroke-width="0.141047"/>
<path id="Vector 1070_2" d="M47.6432 11.8617C49.4572 12.8772 51.412 15.1037 52.947 16.791" stroke="white" stroke-width="0.141047"/>
<path id="Vector 1073_2" d="M53.3651 10.5019C54.7793 12.3901 55.4728 13.5836 56.5684 15.998M54.2641 10.5066C55.5312 12.5408 56.2405 13.7345 57.1249 16.0009M55.1202 10.511C56.3189 12.72 56.9662 13.9289 57.7028 16.004M56.0192 10.5157C57.0011 12.6373 57.6568 13.8407 58.2593 16.0069M56.8957 10.713C57.7362 12.6203 58.4111 13.7763 58.88 16.0101M57.751 10.8673C58.4984 12.8836 59.1852 14.007 59.5221 16.0135M60.0583 15.8022C59.7818 13.9763 59.2289 12.9376 58.6062 11.0644M59.3536 11.3893C59.8512 13.0068 60.3742 13.8928 60.5313 15.398M60.2503 11.8221C60.5447 13.2671 60.9018 14.0094 60.9607 15.1434M60.9972 12.2541C61.222 13.395 61.4735 13.9866 61.4757 14.8893M61.8067 12.986C61.8798 13.7115 61.9857 14.0832 61.9692 14.6564M62.4252 13.4174L62.4615 14.659" stroke="white" stroke-width="0.141047"/>
<path id="Vector 1071_2" d="M48.33 11.502C50.3988 12.9255 51.9303 14.7528 53.3761 16.6011" stroke="white" stroke-width="0.141047"/>
<path id="Vector 1068_2" d="M40.671 18.6112C42.6298 18.7849 44.6456 19.5555 46.0351 21.3645" stroke="white" stroke-width="0.141047"/>
<path id="Vector 1054_2" d="M40.7132 19.1247C40.0772 13.856 52.6965 7.39375 60.7412 12.1018C60.7412 12.1018 62.826 13.9046 64.6253 14.2839" stroke="white" stroke-width="0.352618"/>
<path id="Vector 1072_2" d="M54.8979 16.203C53.6987 14.3359 52.99 13.0942 50.9452 10.7672" stroke="white" stroke-width="0.141047"/>
<path id="Vector 1074_2" d="M62.9588 13.7189L62.9969 14.6181" stroke="white" stroke-width="0.141047"/>
<path id="Vector 1075_2" d="M63.4711 13.9789L63.554 14.4931" stroke="white" stroke-width="0.141047"/>
</g>
</g>
<path id="suit" d="M30.997 136.473C32.8655 136.473 35.4844 136.473 38.8382 136.628C50.1165 133.882 54.0555 133.107 59.4593 133.77C63.255 128.175 63.9586 121.225 62.5351 111.716C43.9371 116.845 26.3503 116.965 6.40676 111.716C5.91862 113.451 6.04992 126.448 9.62292 132.252C14.6868 132.252 24.5405 133.727 30.997 136.473Z" fill="url(#paint0_linear_2_332)"/>
</g>
<defs>
<linearGradient id="paint0_linear_2_332" x1="6.94606" y1="122.429" x2="63.1963" y2="124.379" gradientUnits="userSpaceOnUse">
<stop stop-color="#C2C2C2"/>
<stop offset="1" stop-color="white"/>
</linearGradient>
</defs>
</svg>
