<!-- new -->
<svg class="tard reg-clare" viewBox="0 0 84 94" preserveAspectRatio="none" fill="none" xmlns="http://www.w3.org/2000/svg">
<defs>
  <linearGradient id="grad-reg-clare" x1="0%" y1="30%" x2="90%" y2="0%">
    <stop offset="0%" style="stop-color:hsl(9, 70%, 58%);" />
    <stop offset="60%" style="stop-color:hsl(9, 70%, 65%);" />
    <stop offset="100%" style="stop-color:hsl(9, 80%, 70%);" />
  </linearGradient>
</defs>
<g id="m-REG-CLARE">
<path id="outline" d="M69.0995 11.1407C64.2581 6.71382 61.1311 4.80915 54.6947 2.60936C52.9667 1.96437 51.7929 1.84332 49.4874 1.87603C39.6988 -0.966648 35.1017 -0.297495 27.6341 2.75417C15.8811 5.08427 12.9258 11.5924 10.3125 27.2465C8.90853 30.4707 8.32771 33.8033 7.56392 41.7613C7.69013 47.4456 5.32608 49.8874 9.50736 55.3477C13.6886 60.808 18.079 59.738 18.079 59.738C18.079 59.738 17.2428 62.665 20.3788 66.4282C23.5147 70.1914 24.6372 69.1459 24.6372 69.1459C24.6372 69.1459 23.8457 71.442 24.56 74.3727C25.4263 77.9268 28.7414 78.3449 28.7414 78.3449C28.7414 78.3449 24.6372 79.4544 24.6372 83.2901C24.6372 87.1257 30.4205 88.6221 42.4905 85.8044C44.6104 85.4507 45.7143 85.1555 47.3669 84.2694C48.3367 84.6304 48.8108 84.6906 49.5455 84.5762C49.4229 85.5394 45.0485 87.3348 47.3669 90.4708C48.3511 92.1963 54.6947 95.2793 63.4463 92.3524C67.733 90.9187 68.4117 87.974 70.7123 84.4794C73.0829 80.8784 74.5407 75.975 75.1538 74.3727C78.6244 69.8243 80.0017 66.8286 81.311 60.808C83.4733 53.9901 83.9953 50.0308 83.522 42.6905C83.1704 35.737 82.266 31.9518 79.1001 25.4413C79.1001 25.4413 74.5421 14.8303 69.0995 11.1407Z" fill="url('#grad-reg-clare')"/>
<path id="suit" d="M74.1497 76.4437C77.2568 72.6663 81.0263 66.091 81.0263 61.6158C76.0539 69.0744 65.3884 72.0737 56.1534 73.6503C50.4426 76.415 47.9965 76.7698 45.2545 74.851C41.3062 75.0626 37.2456 75.0517 33.1212 74.8135L31.7626 78.8891C37.8907 79.2036 41.3533 81.2115 47.1916 84.2451C47.8824 84.604 48.8371 84.8477 49.6956 84.5951C53.4016 81.0645 58.7449 79.2892 74.1497 76.4437Z" fill="url(#paint0_linear_218_63)"/>
<path id="l-shoe" d="M47.3858 84.3022C37.5526 83.0424 30.5244 82.2568 28.6449 78.3408C25.1846 78.6148 21.2565 85.9815 28.7993 87.142C35.6397 88.1944 45.4964 86.1613 47.3858 84.3022Z" fill="#EFEFEF"/>
<g id="arms-left">
<path id="arm-line-left-top" d="M20.797 57.02C20.0904 58.5533 19.4979 59.2232 18.0791 59.7379" stroke="#3C220E" stroke-width="0.446236"/>
<path id="arm-line-left-middle" d="M27.487 67.6832C26.7022 68.7939 25.9116 69.1399 24.5601 69.1466" stroke="#3C220E" stroke-width="0.446236"/>
<path id="arm-line-left-bottom" d="M32.0865 78.5532C31.0412 78.7623 29.8324 78.6556 28.7415 78.3441" stroke="#3C220E" stroke-width="0.446236"/>
</g>
<path id="chin" d="M45.7901 31.5916C42.5275 54.7584 5.63921 50.8097 12.9662 26.1019" stroke="#3C220E" stroke-width="0.687191"/>
<path id="flabby-rolls" d="M61.2097 15.9893C64.0363 29.0555 66.6824 35.6775 61.2097 45.7296C68.3351 38.0485 67.749 32.9055 65.119 24.1959M72.4212 17.5682C76.4998 26.8801 76.4085 32.3494 73.4154 40.5216C72.4212 56.3919 69.5282 63.3091 59.6822 64.544M78.3062 53.8906C76.4171 70.8877 69.9275 73.7444 57.4716 67.1588" stroke="#3C220E" stroke-width="0.687191"/>
<g id="snout">
<path id="mouth-area" d="M25.6792 38.5674C23.876 39.6176 22.8889 40.0521 21.198 40.3747M22.2007 37.1021C21.2363 37.9601 20.7748 38.2988 20.0716 38.753M18.738 35.91L18.506 37.5571M16.3343 40.6652L15.7737 41.1823M20.5559 41.8558L22.0219 42.6041M21.5946 41.406C23.2252 42.1097 24.1027 42.0816 25.6089 41.3753M26.2928 34.2103C23.7253 31.7563 21.8559 30.931 17.7785 30.4102M16.4067 30.8281C13.8979 34.8579 11.6461 36.5871 15.9907 39.6414M17.4479 32.5581C15.1523 36.1123 14.9559 36.9357 16.6485 38.4335M28.1301 38.479C27.1809 42.9902 23.4183 45.2856 19.3336 44.2456" stroke="#3C220E" stroke-width="0.687191"/>
<path id="mouth" d="M18.3962 41.1825C17.8952 41.0244 17.4896 40.7855 17.2363 40.543C16.9652 40.2835 16.9456 40.1049 16.9685 40.0322C16.9915 39.9596 17.1101 39.8246 17.481 39.7678C17.8277 39.7147 18.2969 39.752 18.7979 39.9101C19.2989 40.0683 19.7045 40.3071 19.9578 40.5497C20.2289 40.8091 20.2485 40.9878 20.2255 41.0604C20.2026 41.1331 20.084 41.2681 19.7131 41.3249C19.3664 41.378 18.8972 41.3407 18.3962 41.1825Z" stroke="#3C220E" stroke-width="0.687191"/>
</g>
<g id="horn">
<path id="clarinet" d="M17.0616 43.8068L16.6641 41.457L17.8599 40.0855L19.3336 40.5031C19.3336 40.5031 20.001 42.6004 20.1256 43.3248L19.751 43.6929L20.1364 45.9583L20.7813 45.8355L42.1682 75.1747C42.1682 75.1747 45.8109 79.6995 45.6915 81.8081C45.5806 83.766 44.996 85.336 42.8341 86.208C39.7755 87.4417 37.3492 85.7743 35.0828 87.1887C34.8445 87.5626 34.5771 87.7954 34.2926 87.8217C31.8495 88.0476 32.1353 79.2763 34.5453 79.0759C35.3135 79.0981 35.7686 79.816 35.9842 80.8318C37.3402 82.1741 39.4229 83.5394 41.5435 82.5418C43.5187 81.6125 40.1353 77.8074 40.1353 77.8074L17.6615 47.2536L18.0563 46.7553L17.5964 44.0827L17.0616 43.8068Z" fill="#FFD700"/>
<path id="leading-edge" d="M35.9752 80.8531C36.3547 83.4207 36.231 84.6982 35.2225 87.0203" stroke="#69512F" stroke-width="0.446236"/>
</g>
<g id="claws">
<path id="bottom-right-claw" d="M34.1164 72.9651C37.9291 71.2786 37.2998 70.4984 35.4047 70.1735C38.4036 71.6516 32.2053 70.6465 30.3346 71.4504L31.9434 78.7128C33.8789 78.525 40.8306 75.5331 38.2926 74.2052C39.2924 75.3386 35.8026 76.106 34.6988 74.9527C37.3044 74.3242 40.0532 73.0992 37.0604 71.9033C38.986 73.6393 35.0717 72.9867 34.1164 72.9651Z" fill="#3C220E"/>
<path id="bottom-left-claw" d="M44.9195 80.2716C42.1114 80.2435 45.7556 78.6847 48.8343 76.2974L43.9244 70.5675C39.1068 72.5715 38.3582 76.6697 40.5614 76.8423C39.5757 76.1495 39.2242 75.468 42.4464 73.9622C38.9447 78.8445 40.4488 79.9077 42.5489 78.9169C39.8037 79.1528 41.1225 78.0371 44.4641 76.5202C43.0341 78.4665 41.095 81.7937 44.9195 80.2716Z" fill="#3C220E"/>
<path id="middle-right-claw" d="M29.9961 60.7835C29.7414 58.4914 26.6963 58.6802 23.8948 62.5003L27.4837 67.9432C31.1367 65.8776 32.3673 65.3987 32.2993 64.2832C32.2705 63.8112 28.7339 65.8874 28.6743 65.0472C29.1529 61.8728 32.733 61.7185 31.4596 63.5013C33.7517 60.9545 29.2431 60.9722 26.9509 62.2456C26.9509 60.9722 29.8263 59.2554 29.9961 60.7835Z" fill="#3C220E"/>
<path id="middle-left-claw" d="M34.9181 67.9137C34.4436 68.9014 37.2648 71.6944 41.1475 66.558L37.796 60.6295C32.5762 62.2299 31.5875 67.0615 33.4707 65.7691C32.062 66.074 34.2952 63.6365 36.3906 64.1009C36.1678 66.7053 33.2528 67.4876 33.9354 66.5534C32.1055 67.6376 36.3752 68.2866 37.9535 65.5855C38.21 66.3164 35.5995 70.1006 34.9181 67.9137Z" fill="#3C220E"/>
<path id="top-right-claw" d="M17.2158 52.0713L20.792 57.3923C23.2388 54.5967 23.1663 50.7129 23.8079 53.0278C24.3228 50.3148 22.0334 51.5687 21.4968 54.0523C21.6714 50.4092 23.4517 50.0426 22.8609 51.154C23.8937 50.3135 22.5047 48.1688 19.9075 52.2072C20.2053 50.9282 21.4187 47.8857 21.9465 49.7383C22.268 47.7003 17.9925 47.7924 17.2158 52.0713Z" fill="#3C220E"/>
<path id="top-left-claw" d="M33.2606 57.0561L29.308 49.9079C27.0691 50.7486 23.088 54.8325 25.6056 55.3481C24.3512 54.93 27.0691 53.4665 28.8666 53.9334C28.2833 57.0778 25.0978 57.1987 26.4539 56.2338C24.8221 57.2596 27.2116 58.2485 29.6422 56.9141C29.3652 58.7797 27.0631 59.4084 27.4164 57.9279C25.6781 60.3284 31.194 59.8966 33.2606 57.0561Z" fill="#3C220E"/>
</g>
<path id="arms-right" d="M59.0561 70.1896C55.2929 75.2072 50.6935 76.2525 48.6028 76.2525M57.3836 57.4366C55.5209 58.8064 51.2399 63.6665 48.6028 64.963M48.6028 64.963C44.6306 67.4951 42.3309 67.2627 40.8674 66.6355M48.6028 64.963C45.2578 67.4951 43.5853 69.7715 43.7943 71.0259M43.7943 55.1369C39.4039 57.4366 38.1496 59.5272 37.5224 60.7817M51.5296 48.6553C39.7993 60.284 34.4528 58.418 32.9368 56.8912M36.686 44.6833C35.8497 46.774 29.7869 46.9832 29.1597 50.3283" stroke="#3C220E" stroke-width="0.687191"/>
<g id="eyes">
<g id="eye-left">
<path id="eye-round-left" d="M14.5384 21.011C13.8505 23.5761 15.0953 26.1388 17.3187 26.7352C19.5422 27.3315 21.9024 25.7356 22.5903 23.1706C23.2783 20.6056 22.0335 18.0428 19.81 17.4465C17.5865 16.8501 15.2264 18.446 14.5384 21.011Z" fill="black"/>
<path id="eye-glint-left" d="M22.0198 20.3247C20.6901 18.0492 19.4407 17.5054 16.778 18.5125C19.2802 18.7182 20.4126 19.1585 22.0198 20.3247Z" fill="white"/>
</g>
<g id="eye-right">
<path id="eye-round-right" d="M30.3044 27.2903C29.9576 29.9232 31.8109 32.3387 34.4439 32.6855C37.0768 33.0323 39.4923 31.179 39.8391 28.5461C40.1858 25.9131 38.3325 23.4976 35.6996 23.1508C33.0667 22.8041 30.6512 24.6574 30.3044 27.2903Z" fill="black"/>
<path id="eye-glint-right" d="M38.7051 25.7722C36.804 23.6525 35.2891 23.2496 32.4288 24.5498C35.3127 24.4762 36.6768 24.7889 38.7051 25.7722Z" fill="white"/>
</g>
</g>
<g id="antennae">
<path id="antenna-right" d="M36.9099 20.9862C38.4354 21.9911 39.4493 23.0023 39.9754 23.9834M45.1393 21.1891C46.3068 22.8014 46.7298 23.6348 47.489 25.2451M45.8667 21.4421C46.8481 23.0363 47.2861 23.8532 47.9542 25.4376M47.1077 21.9938C48.0457 23.6017 48.2985 24.3687 48.7865 25.7699M47.7977 22.2382C48.6276 23.9705 48.8934 24.7429 49.2402 25.9447M37.1005 20.5979C38.5844 21.4348 40.2085 22.8023 40.9501 24.1301M37.4421 20.5058C38.9439 21.312 40.6007 22.8147 41.4052 24.1452M37.7297 20.362C39.2314 21.1682 41.1463 22.9354 41.9508 24.2659M38.0857 20.2388C39.5893 21.0414 41.5991 22.9414 42.4108 24.2721M38.5137 20.1748C39.9774 20.9694 42.0268 22.9714 42.8581 24.3018M39.001 20.09C40.4908 20.9173 42.5957 23.0629 43.3576 24.3917M39.5918 20.0701C41.0683 20.9183 43.0712 23.1252 43.7889 24.4514M39.9807 20.013C41.4825 20.8192 43.4741 23.1888 44.2786 24.5193M40.5952 20.0447C42.0969 20.8509 43.9754 23.2743 44.78 24.6048M41.2886 20.1664C42.7903 20.9726 44.4556 23.3617 45.2601 24.6922M41.7859 20.1803C43.2877 20.9865 45.0176 23.4905 45.8221 24.821M42.5814 20.4242C44.0832 21.2304 45.4998 23.612 46.3043 24.9425M43.7538 20.7889C44.9189 21.9526 45.9264 23.6794 46.7309 25.0099M48.4283 22.5544C49.0964 23.9195 49.3654 24.7006 49.6746 26.1556M49.1148 22.9229C49.6384 24.289 49.9195 25.0767 50.0996 26.3837M49.7686 23.2739C50.2017 24.6851 50.432 25.4538 50.5409 26.6206M50.4552 23.6425C50.7416 24.9288 50.9795 25.6986 50.9659 26.8488M51.0824 24.0823C51.3075 25.2214 51.5706 25.9793 51.4399 27.1032M51.7028 24.4955C51.8328 25.6422 52.1121 26.3913 51.9303 27.3665M52.3867 27.4969C52.5751 26.6218 52.3797 25.9626 52.3137 24.9265M52.8142 25.367C52.8405 26.2452 53.0465 26.8285 52.837 27.521M53.4052 25.9134C53.314 26.6368 53.4245 27.0923 53.2212 27.5898M53.8819 26.3983C53.804 26.9664 53.8668 27.3159 53.6708 27.6937M54.3407 27.034C54.2378 27.3668 54.2374 27.5652 54.0992 27.7978M54.7193 27.4663L54.4752 27.9996M44.3581 20.9194C45.6286 22.3574 46.3998 23.7449 47.1008 25.1063M36.9431 20.7646C38.4032 21.6359 39.7762 22.7797 40.4428 24.1017M36.8629 20.9962C37.5304 18.537 48.5975 20.9847 53.7193 26.2311C53.7193 26.2311 54.9191 27.834 56.2122 28.7261M48.352 25.5603C47.8437 24.2917 47.5735 23.4842 46.5192 21.6787M55.0612 27.811L54.8934 28.202M55.3963 28.1282L55.3471 28.3767" stroke="white" stroke-width="0.137526"/>
<path id="antenna-left" d="M21.1454 15.8816C19.319 15.9204 17.9226 16.2367 16.9551 16.7869M14.0698 11.6773C12.2234 12.4203 11.4217 12.9004 9.92211 13.8589M13.3192 11.5046C11.64 12.3312 10.8345 12.7894 9.42583 13.7744M11.9749 11.3113C10.3252 12.1727 9.70307 12.6871 8.54431 13.6129M11.2607 11.1512C9.63631 12.1752 9.00028 12.6873 8.06722 13.5195M21.1912 15.4492C19.4895 15.3681 17.3868 15.6613 16.0524 16.3901M20.9509 15.1905C19.2504 15.0739 17.0481 15.464 15.6589 16.1617M20.7838 14.9165C19.0833 14.8 16.5217 15.2766 15.1325 15.9743M20.5479 14.6233C18.8477 14.5027 16.1351 15.0412 14.7399 15.7353M20.2196 14.3407C18.5575 14.2345 15.7571 14.8383 14.3453 15.5216M19.8525 14.0094C18.151 13.917 15.2271 14.6127 13.875 15.3316M19.3628 13.6795C17.6614 13.6118 14.7913 14.4137 13.478 15.1539M19.0638 13.424C17.3633 13.3075 14.4163 14.2529 13.0271 14.9506M18.5265 13.1244C16.826 13.0078 13.9461 14.0589 12.557 14.7566M17.8753 12.8582C16.1748 12.7416 13.4936 13.8771 12.1045 14.5748M17.4462 12.6067C15.7457 12.4902 12.9487 13.6885 11.5595 14.3861M16.643 12.3902C14.9425 12.2736 12.4758 13.535 11.0867 14.2326M15.4558 12.0742C13.8501 12.4392 12.0783 13.3641 10.6892 14.0618M10.5587 11.0814C9.26664 11.8809 8.62324 12.3987 7.58729 13.465M9.7813 11.0281C8.61106 11.9053 7.95392 12.4221 7.10606 13.432M9.04095 10.9774C7.92347 11.9408 7.31936 12.4686 6.60633 13.3977M8.26359 10.9241C7.33668 11.8599 6.72556 12.3845 6.1251 13.3647M7.49852 10.9626C6.70181 11.8065 6.07577 12.3077 5.58835 13.3279M6.75335 10.9822C6.03311 11.8831 5.39808 12.3683 5.03309 13.2899M4.57727 13.1575C4.88343 12.3171 5.39957 11.8634 6.00679 11.022M5.34865 11.1285C4.85904 11.8574 4.37426 12.2413 4.18319 12.9385M4.55749 11.2764C4.24985 11.9369 3.91389 12.2634 3.82129 12.7924M3.89589 11.4331C3.65959 11.9551 3.42045 12.2174 3.38536 12.6412M3.16911 11.7269C3.07924 12.0631 2.97404 12.2312 2.96724 12.5014M2.61857 11.8913L2.54155 12.4722M14.8751 11.8618C13.0343 12.4027 11.643 13.1663 10.3251 13.9451M21.2357 15.6748C19.5358 15.6354 17.7647 15.8728 16.4969 16.6367M21.1804 15.9139C21.9238 13.4786 11.2511 9.66436 4.12293 11.3789C4.12293 11.3789 2.25422 12.0968 0.684692 12.1639M9.02411 13.6647C10.1295 12.8619 10.7879 12.3225 12.6412 11.3558M2.14619 12.0015L2.08021 12.4215M1.6938 12.0912L1.60321 12.3275" stroke="white" stroke-width="0.137526"/>
</g>
<path id="r-shoe" d="M52.1182 93.1352C63.4622 95.0314 67.848 92.1202 72.6392 80.9604C61.1977 90.8763 53.0016 87.7049 49.5146 84.6538C44.8415 87.8977 45.5963 91.3021 52.1182 93.1352Z" fill="#EFEFEF"/>
</g>
<defs>
<linearGradient id="paint0_linear_218_63" x1="31.7626" y1="78.6174" x2="78.4971" y2="70.3302" gradientUnits="userSpaceOnUse">
<stop stop-color="#EFEFEF"/>
<stop offset="1" stop-color="#EFEFEF"/>
</linearGradient>
</defs>
</svg>
