<svg width="801" height="450" viewBox="0 0 801 450" fill="none" xmlns="http://www.w3.org/2000/svg">
<path d="M0.927734 0H799.379V449H0.927734V0Z" fill="#0A0900"/>
<path d="M799.373 186.107L0.922058 186.107" stroke="#1A1600" stroke-width="2"/>
<path d="M799.373 237.017L0.922058 237.017" stroke="#1A1600" stroke-width="2"/>
<path d="M799.374 396.052L0.922913 396.052" stroke="#1A1600" stroke-width="2"/>
<path d="M799.373 153.375L0.922302 153.375" stroke="#1A1600" stroke-width="2"/>
<path d="M0.923645 136.298L799.375 136.298" stroke="#1A1600" stroke-width="2"/>
<path d="M0.923645 167.539L799.375 167.539" stroke="#1A1600" stroke-width="2"/>
<path d="M799.374 28.5165L0.922607 28.5164" stroke="#1A1600" stroke-width="1.5"/>
<path d="M799.374 112.269L0.922424 112.269" stroke="#1A1600" stroke-width="1.5"/>
<path d="M799.373 209.455L0.922241 209.455" stroke="#1A1600" stroke-width="1.5"/>
<path d="M799.373 249.953L0.92218 249.953" stroke="#1A1600" stroke-width="1.5"/>
<path d="M799.373 426.218L0.92218 426.218" stroke="#1A1600" stroke-width="1.5"/>
<path d="M799.374 350.814L0.922607 350.814" stroke="#1A1600" stroke-width="1.5"/>
<path d="M799.373 324.106L0.922241 324.106" stroke="#1A1600" stroke-width="1.5"/>
<path d="M799.374 96.0635L0.922852 96.0636" stroke="#1A1600" stroke-width="1.5"/>
<path d="M799.374 57.4956L0.922424 57.4957" stroke="#1A1600" stroke-width="1.5"/>
<path d="M0.92218 380L799.373 380" stroke="#1A1600" stroke-width="1.5"/>
<path d="M0.92218 299.374L799.373 299.374" stroke="#1A1600" stroke-width="1.5"/>
<path d="M0.923645 74.2585L799.375 74.2586" stroke="#1A1600" stroke-width="1.5"/>
<path d="M0.923828 13.0806L799.375 13.0806" stroke="#1A1600" stroke-width="1.5"/>
<path d="M0.923889 283.475L799.375 283.475" stroke="#1A1600" stroke-width="1.5"/>
<path d="M799.374 63.832L0.923157 63.8321" stroke="#1F1A00"/>
<path d="M0.923523 33.0537L799.375 33.0538" stroke="#1F1A00"/>
<path d="M0.923645 83.832L799.375 83.8322" stroke="#1F1A00"/>
<path d="M0.923645 203.157L799.375 203.157" stroke="#1F1A00"/>
<path d="M0.923584 245.729L799.375 245.73" stroke="#1F1A00"/>
<path d="M0.92395 329.375L799.375 329.376" stroke="#1F1A00"/>
<path d="M0.92395 385.144L799.375 385.144" stroke="#1F1A00"/>
<path d="M799.374 269.232L0.923157 269.232" stroke="#1F1A00"/>
<path d="M799.374 416.641L0.922729 416.641" stroke="#1F1A00"/>
<path d="M799.374 355.104L0.922974 355.104" stroke="#1F1A00"/>
<path d="M799.374 278.995L0.922791 278.995" stroke="#1F1A00"/>
<path d="M798.575 256.765L0.123962 256.765" stroke="#1F1A00"/>
<path d="M799.374 143L0.922791 143" stroke="#1F1A00"/>
<path d="M799.374 91.5596L0.922791 91.5596" stroke="#1F1A00"/>
<path d="M0.923889 438.536L799.375 438.536" stroke="#1F1A00"/>
<path d="M0.924011 306.315L799.375 306.315" stroke="#1F1A00"/>
<path d="M0.923828 317.515L799.375 317.515" stroke="#1F1A00"/>
<path d="M0.923462 180.746L799.375 180.746" stroke="#1F1A00"/>
<path d="M0.923767 116.863L799.375 116.863" stroke="#1F1A00"/>
<path d="M0.92334 47.5788L799.374 47.5786" stroke="#1F1A00"/>
<path d="M798.576 2.81004L0.124512 2.81011" stroke="#241E00" stroke-width="0.75"/>
<path d="M799.374 70.2322L0.923218 70.2322" stroke="#241E00" stroke-width="0.75"/>
<path d="M799.449 128.306L0.998291 128.306" stroke="#241E00" stroke-width="0.75"/>
<path d="M0.923645 21.7173L799.375 21.7174" stroke="#241E00" stroke-width="0.75"/>
<path d="M0.923706 39.4539L799.375 39.454" stroke="#241E00" stroke-width="0.75"/>
<path d="M0.923706 78.1838L799.375 78.184" stroke="#241E00" stroke-width="0.75"/>
<path d="M0.923645 161.788L799.375 161.788" stroke="#241E00" stroke-width="0.75"/>
<path d="M0.923645 157.788L799.375 157.788" stroke="#241E00" stroke-width="0.75"/>
<path d="M0.923645 232.929L799.375 232.93" stroke="#241E00" stroke-width="0.75"/>
<path d="M0.923645 242.53L799.375 242.53" stroke="#241E00" stroke-width="0.75"/>
<path d="M0.923645 224.929L799.375 224.93" stroke="#241E00" stroke-width="0.75"/>
<path d="M0.923645 229.729L799.375 229.73" stroke="#241E00" stroke-width="0.75"/>
<path d="M0.125122 332.575L798.576 332.576" stroke="#241E00" stroke-width="0.75"/>
<path d="M0.923889 400.344L799.375 400.344" stroke="#241E00" stroke-width="0.75"/>
<path d="M0.923889 387.543L799.375 387.544" stroke="#241E00" stroke-width="0.75"/>
<path d="M799.374 218.441L0.922852 218.441" stroke="#241E00" stroke-width="0.75"/>
<path d="M799.374 375.575L0.922729 375.575" stroke="#241E00" stroke-width="0.75"/>
<path d="M799.374 372.375L0.922729 372.375" stroke="#241E00" stroke-width="0.75"/>
<path d="M799.374 421.441L0.922729 421.441" stroke="#241E00" stroke-width="0.75"/>
<path d="M799.374 363.104L0.922913 363.104" stroke="#241E00" stroke-width="0.75"/>
<path d="M799.374 291.795L0.922791 291.795" stroke="#241E00" stroke-width="0.75"/>
<path d="M799.374 287.795L0.922791 287.795" stroke="#241E00" stroke-width="0.75"/>
<path d="M799.374 274.195L0.922852 274.195" stroke="#241E00" stroke-width="0.75"/>
<path d="M799.374 265.565L0.922852 265.565" stroke="#241E00" stroke-width="0.75"/>
<path d="M798.575 253.565L0.124023 253.565" stroke="#241E00" stroke-width="0.75"/>
<path d="M799.374 147L0.922791 147" stroke="#241E00" stroke-width="0.75"/>
<path d="M799.374 131.8L0.922791 131.8" stroke="#241E00" stroke-width="0.75"/>
<path d="M799.374 122.2L0.922791 122.2" stroke="#241E00" stroke-width="0.75"/>
<path d="M0.923828 406.022L799.375 406.022" stroke="#241E00" stroke-width="0.75"/>
<path d="M0.923889 442.536L799.375 442.536" stroke="#241E00" stroke-width="0.75"/>
<path d="M0.923889 430.536L799.375 430.536" stroke="#241E00" stroke-width="0.75"/>
<path d="M0.923889 448.936L799.375 448.936" stroke="#241E00" stroke-width="0.75"/>
<path d="M0.92395 343.785L799.375 343.784" stroke="#241E00" stroke-width="0.75"/>
<path d="M0.92395 340.585L799.375 340.584" stroke="#241E00" stroke-width="0.75"/>
<path d="M0.923889 313.515L799.375 313.515" stroke="#241E00" stroke-width="0.75"/>
<path d="M0.923889 310.315L799.375 310.315" stroke="#241E00" stroke-width="0.75"/>
<path d="M0.923584 196.746L799.375 196.746" stroke="#241E00" stroke-width="0.75"/>
<path d="M0.923462 193.546L799.375 193.546" stroke="#241E00" stroke-width="0.75"/>
<path d="M0.923584 176.746L799.375 176.746" stroke="#241E00" stroke-width="0.75"/>
<path d="M0.923462 171.946L799.375 171.946" stroke="#241E00" stroke-width="0.75"/>
<path d="M0.923767 106.464L799.375 106.463" stroke="#241E00" stroke-width="0.75"/>
<path d="M0.923462 53.1789L799.375 53.1787" stroke="#241E00" stroke-width="0.75"/>
<path d="M799.324 80.9469L0.872498 80.9468" stroke="#292300" stroke-width="0.5"/>
<path d="M799.578 139.889L1.12701 139.888" stroke="#292300" stroke-width="0.5"/>
<path d="M799.324 367.539L0.872742 367.539" stroke="#292300" stroke-width="0.5"/>
<path d="M799.323 206.516L0.872314 206.516" stroke="#292300" stroke-width="0.5"/>
<path d="M799.324 124.756L0.872498 124.756" stroke="#292300" stroke-width="0.5"/>
<path d="M799.323 347.381L0.872009 347.381" stroke="#292300" stroke-width="0.5"/>
<path d="M799.323 213.932L0.872314 213.932" stroke="#292300" stroke-width="0.5"/>
<path d="M799.324 87.0796L0.872498 87.0797" stroke="#292300" stroke-width="0.5"/>
<path d="M799.324 24.417L0.872498 24.4171" stroke="#292300" stroke-width="0.5"/>
<path d="M798.7 412.132L0.248779 412.132" stroke="#292300" stroke-width="0.5"/>
<path d="M0.87439 390.949L799.325 390.949" stroke="#292300" stroke-width="0.5"/>
<path d="M0.874695 360.268L799.326 360.268" stroke="#292300" stroke-width="0.5"/>
<path d="M0.874512 295.815L799.326 295.815" stroke="#292300" stroke-width="0.5"/>
<path d="M0.874084 260.774L799.325 260.774" stroke="#292300" stroke-width="0.5"/>
<path d="M0.874146 221.254L799.325 221.254" stroke="#292300" stroke-width="0.5"/>
<path d="M0.874146 163.991L799.325 163.991" stroke="#292300" stroke-width="0.5"/>
<path d="M0.874023 35.7725L799.325 35.7725" stroke="#292300" stroke-width="0.5"/>
<path d="M0.87439 445.484L799.325 445.484" stroke="#292300" stroke-width="0.5"/>
<path d="M0.874084 119.462L799.325 119.462" stroke="#292300" stroke-width="0.5"/>
<path d="M0.874146 182.56L799.325 182.56" stroke="#292300" stroke-width="0.5"/>
<path d="M0.873962 108.715L799.325 108.715" stroke="#292300" stroke-width="0.5"/>
<path d="M1.67267 99.864L800.124 99.864" stroke="#292300" stroke-width="0.5"/>
<path d="M799.323 227.447L0.872192 227.447" stroke="#2E2700" stroke-width="0.25"/>
<path d="M799.324 419.858L0.87262 419.857" stroke="#2E2700" stroke-width="0.25"/>
<path d="M799.324 41.9977L0.872559 41.9976" stroke="#2E2700" stroke-width="0.25"/>
<path d="M799.578 149.488L1.12701 149.488" stroke="#2E2700" stroke-width="0.25"/>
<path d="M799.324 337.771L0.872498 337.771" stroke="#2E2700" stroke-width="0.25"/>
<path d="M799.324 335.371L0.872681 335.371" stroke="#2E2700" stroke-width="0.25"/>
<path d="M799.324 364.339L0.87262 364.339" stroke="#2E2700" stroke-width="0.25"/>
<path d="M799.324 369.139L0.87262 369.139" stroke="#2E2700" stroke-width="0.25"/>
<path d="M799.323 200.916L0.872314 200.916" stroke="#2E2700" stroke-width="0.25"/>
<path d="M799.323 200.116L0.872314 200.116" stroke="#2E2700" stroke-width="0.25"/>
<path d="M799.323 303.044L0.87207 303.045" stroke="#2E2700" stroke-width="0.25"/>
<path d="M799.323 216.332L0.872314 216.332" stroke="#2E2700" stroke-width="0.25"/>
<path d="M799.323 212.332L0.872375 212.332" stroke="#2E2700" stroke-width="0.25"/>
<path d="M799.324 18.1609L0.872559 18.161" stroke="#2E2700" stroke-width="0.25"/>
<path d="M799.324 87.8794L0.872498 87.8795" stroke="#2E2700" stroke-width="0.25"/>
<path d="M799.324 6.95361L0.872498 6.95374" stroke="#2E2700" stroke-width="0.25"/>
<path d="M799.324 16.3657L0.872559 16.3658" stroke="#2E2700" stroke-width="0.25"/>
<path d="M799.324 8.58911L0.872498 8.58924" stroke="#2E2700" stroke-width="0.25"/>
<path d="M799.324 0.800031L0.872498 0.800066" stroke="#2E2700" stroke-width="0.25"/>
<path d="M798.7 409.732L0.248718 409.732" stroke="#2E2700" stroke-width="0.25"/>
<path d="M798.7 412.932L0.248718 412.932" stroke="#2E2700" stroke-width="0.25"/>
<path d="M798.7 404.132L0.248718 404.132" stroke="#2E2700" stroke-width="0.25"/>
<path d="M0.87439 392.549L799.325 392.549" stroke="#2E2700" stroke-width="0.25"/>
<path d="M0.874451 320.136L799.326 320.137" stroke="#2E2700" stroke-width="0.25"/>
<path d="M0.874573 358.668L799.326 358.668" stroke="#2E2700" stroke-width="0.25"/>
<path d="M0.87439 294.215L799.325 294.215" stroke="#2E2700" stroke-width="0.25"/>
<path d="M0.874146 261.574L799.325 261.574" stroke="#2E2700" stroke-width="0.25"/>
<path d="M0.874146 262.374L799.325 262.374" stroke="#2E2700" stroke-width="0.25"/>
<path d="M0.874146 275.31L799.325 275.31" stroke="#2E2700" stroke-width="0.25"/>
<path d="M0.874146 271.31L799.325 271.31" stroke="#2E2700" stroke-width="0.25"/>
<path d="M0.874207 222.054L799.325 222.054" stroke="#2E2700" stroke-width="0.25"/>
<path d="M0.873901 66.8433L799.325 66.8433" stroke="#2E2700" stroke-width="0.25"/>
<path d="M0.874146 49.9229L799.325 49.9229" stroke="#2E2700" stroke-width="0.25"/>
<path d="M0.874146 45.1228L799.325 45.1228" stroke="#2E2700" stroke-width="0.25"/>
<path d="M0.874207 60.6914L799.325 60.6914" stroke="#2E2700" stroke-width="0.25"/>
<path d="M0.87439 433.484L799.325 433.484" stroke="#2E2700" stroke-width="0.25"/>
<path d="M0.87439 435.084L799.325 435.084" stroke="#2E2700" stroke-width="0.25"/>
<path d="M0.874207 240.504L799.325 240.504" stroke="#2E2700" stroke-width="0.25"/>
<path d="M0.874207 174.56L799.325 174.56" stroke="#2E2700" stroke-width="0.25"/>
<path d="M0.874207 189.427L799.325 189.427" stroke="#2E2700" stroke-width="0.25"/>
<path d="M0.874207 191.027L799.325 191.027" stroke="#2E2700" stroke-width="0.25"/>
<path d="M0.874023 103.115L799.325 103.115" stroke="#2E2700" stroke-width="0.25"/>
<path d="M0.874023 100.715L799.325 100.715" stroke="#2E2700" stroke-width="0.25"/>
</svg>
