<svg viewBox="0 0 526 640" fill="none" xmlns="http://www.w3.org/2000/svg">
<path d="M452.955 281.29C365.532 175.238 189.414 239.15 189.787 262.427C175.289 225.617 363.729 146.452 464.434 270.404C536.941 359.647 541.819 479.893 464.326 564.842C379.999 657.282 230.78 657.622 143.936 567.543C50.3036 470.423 80.4825 297.62 192.771 221.88C201.023 216.315 210.794 226.91 202.977 232.642C107.954 302.319 67.174 466.416 158.3 553.92C241.09 633.418 373.441 635.36 450.718 550.494C521.502 472.758 519.829 362.414 452.955 281.29Z" fill="#3700FF" stroke="#3700FF" stroke-width="9"/>
<path d="M306.867 338.081C302.469 290.793 288.965 278.279 243.163 272.836C293.039 271.633 308.741 281.889 313.297 331.802C312.688 341.721 307.29 342.631 306.867 338.081Z" fill="#3700FF" stroke="#3700FF" stroke-width="9"/>
<path d="M437.212 464.511C432.814 417.223 419.31 404.71 373.509 399.266C423.385 398.063 439.087 408.319 443.643 458.232C443.034 468.151 437.635 469.061 437.212 464.511Z" fill="#3700FF" stroke="#3700FF" stroke-width="9"/>
<path d="M270.412 376.977C220.31 379.316 213.474 312.505 205.076 313.367C195.738 314.325 201.695 393.567 260.977 393.951C277.682 394.059 284.666 376.311 270.412 376.977Z" fill="#3700FF" stroke="#3700FF" stroke-width="9"/>
<path d="M396.433 495.958C346.33 498.297 339.494 431.486 331.096 432.348C321.758 433.307 327.715 512.549 386.998 512.932C403.702 513.04 410.686 495.292 396.433 495.958Z" fill="#3700FF" stroke="#3700FF" stroke-width="9"/>
<path d="M284.978 513.103C198.813 500.948 216.636 439.322 205.96 441.537C195.284 443.753 201.457 514.821 279.567 531.113C298.42 535.046 297.809 516.959 284.978 513.103Z" fill="#3700FF" stroke="#3700FF" stroke-width="9"/>
<path d="M118.143 8.81789C97.0184 -12.5409 10.5773 11.2795 7.73903 16.7712C4.30032 23.4247 95.0095 21.6292 95.0095 21.6292C95.0095 21.6292 9.26321 101.745 4.74025 107.086C-5.74395 119.467 5.28923 124.479 8.22539 127.635C11.9829 131.675 131.694 149.665 137.309 142.247C144.008 133.398 155.548 132.81 150.358 123C143.335 109.727 41.8126 107.143 41.8126 107.143C41.8126 107.143 100.797 70.3319 121.547 30.1848C125.426 22.6785 124.084 14.8255 118.143 8.81789Z" fill="#3700FF"/>
<path d="M251.012 54.412C228.17 36.7083 173.606 36.4115 174.396 43.0117C175.187 49.612 228.354 62.3094 228.354 62.3094C228.354 62.3094 188.342 83.94 162.442 115.961C158.622 120.685 162.314 127.125 167.164 130.785C180.854 141.115 222.892 155.822 240.627 156.369C248.499 156.612 254.96 144.477 249.887 138.452C242.761 129.99 187.46 115.476 187.46 115.476C187.46 115.476 223.856 98.6585 254.105 68.3943C258.058 64.4389 255.432 57.838 251.012 54.412Z" fill="#3700FF"/>
<path d="M368.606 119.976C359.47 109.062 301.958 88.5604 302.556 92.0303C303.579 97.9668 347.66 122.566 347.66 122.566C347.66 122.566 286.919 131.929 272.835 137.556C265.893 140.329 262.453 153.377 269.303 156.369C297.899 168.863 319.678 185.478 338.529 192.148C342.004 193.377 343.703 189.446 346.389 186.923C362.307 171.971 302.154 152.709 302.154 152.709C302.154 152.709 341.852 146.03 368.835 133.51C373.63 131.285 372 124.029 368.606 119.976Z" fill="#3700FF"/>
</svg>
