<svg viewBox="0 0 284 239" fill="none" xmlns="http://www.w3.org/2000/svg">
<defs>
  <linearGradient id="grad-spokesman"  x1="20%" y1="30%" x2="80%" y2="0%">
    <stop offset="0%" style="stop-color:hsl(9, 70%, 60%);" />
    <stop offset="60%" style="stop-color:hsl(9, 70%, 70%);" />
    <stop offset="100%" style="stop-color:hsl(9, 80%, 75%);" />
  </linearGradient>
</defs>
<path d="M72.1314 53.2217C90.8385 39.3037 103.72 34.3209 126.34 29.9511C149.605 25.4564 164.447 24.473 186.99 31.7743C206.208 37.9987 217.861 47.4208 228.029 58.9757C259.281 94.4918 262.553 153.937 259.281 213.603C258.622 225.625 257.069 238.304 257.069 238.304H30.7147C26.5812 229.054 25.7238 149.762 29.5889 136.23C40.1314 99.3178 37.6541 78.8729 72.1314 53.2217Z" fill="url('#grad-spokesman')"/>
<path d="M218.348 147.847L199.022 159.029" stroke="#654B46" stroke-width="2.67395" stroke-linecap="round"/>
<path d="M239.375 90.3564C240.155 100.927 239.137 107.097 232.447 118.919M232.447 118.919C222.156 132.705 216.09 139.366 205.1 150.642C215.725 144.155 221.237 140.486 226.734 133.626L232.447 118.919Z" stroke="#654B46" stroke-width="2.67395" stroke-linecap="round"/>
<path d="M193.431 36.5133C216.611 55.4894 225.452 68.1267 230.745 95.7048" stroke="#654B46" stroke-width="2.67395" stroke-linecap="round"/>
<path d="M204.613 66.655C213.539 79.6633 217.739 86.3435 217.74 92.5437" stroke="#654B46" stroke-width="2.67395" stroke-linecap="round"/>
<path d="M195.984 62.8872C190.076 54.6069 185.112 51.0908 173.134 46.9651C161.129 45.0601 145.353 43.5103 131.767 45.3208C123.586 47.7764 118.742 50.3088 109.889 55.7735" stroke="#654B46" stroke-width="2.67395" stroke-linecap="round"/>
<path d="M179.981 133.779C179.953 146.167 167.217 156.433 150.89 156.433C144.07 156.433 136.761 154.255 131.171 150.503C125.579 146.75 121.789 141.485 121.789 135.323C121.789 122.841 131.852 111.055 150.868 111.046C167.534 112.285 178.297 121.171 179.981 133.779Z" stroke="#654B46" stroke-width="1.21543"/>
<path d="M166.826 134.738C166.826 137.966 165.049 140.679 162.06 142.612C159.063 144.551 154.879 145.676 150.213 145.676C145.546 145.676 141.425 144.551 138.491 142.615C135.567 140.687 133.841 137.974 133.841 134.738C133.841 131.486 135.584 128.454 138.524 126.215C141.465 123.976 145.577 122.556 150.213 122.556C155.938 122.556 160.093 123.988 162.805 126.202C165.507 128.408 166.826 131.429 166.826 134.738Z" stroke="#654B46" stroke-width="1.21543"/>
<ellipse rx="1.40698" ry="2.03325" transform="matrix(0.779517 -0.626381 0.868372 0.495913 140.87 128.51)" fill="#654B46"/>
<ellipse rx="1.67529" ry="1.61583" transform="matrix(0.986485 -0.163853 0.340345 0.940301 147.26 125.945)" fill="#654B46"/>
<ellipse rx="1.66365" ry="1.63784" transform="matrix(0.980237 0.197828 -0.402577 0.915386 154.523 126.024)" fill="#654B46"/>
<ellipse rx="1.4148" ry="2.02324" transform="matrix(-0.788233 -0.615376 0.8621 -0.506738 160.794 128.573)" fill="#654B46"/>
<ellipse rx="1.15276" ry="2.30926" transform="matrix(0.0144605 -0.999895 0.999978 0.00663639 163.427 134.047)" fill="#654B46"/>
<ellipse rx="1.39722" ry="2.04561" transform="matrix(0.76828 -0.640114 0.875929 0.48244 161.049 138.877)" fill="#654B46"/>
<ellipse rx="1.67023" ry="1.62545" transform="matrix(0.983791 -0.179317 0.369145 0.929372 154.312 141.844)" fill="#654B46"/>
<ellipse rx="1.64811" ry="1.66652" transform="matrix(0.971626 0.236523 -0.468619 0.8834 145.381 141.533)" fill="#654B46"/>
<ellipse rx="1.30955" ry="2.1498" transform="matrix(-0.645131 -0.764072 0.932454 -0.361288 139.156 138.113)" fill="#654B46"/>
<ellipse rx="1.15276" ry="2.30926" transform="matrix(0.0144605 -0.999895 0.999978 0.00663639 138.008 133.62)" fill="#654B46"/>
<ellipse cx="150.663" cy="134.276" rx="9.86558" ry="4.75" fill="#654B46"/>
<path d="M178.482 154.773L184.923 170.452M119.412 152.828L115.036 167.899" stroke="#654B46" stroke-width="2.63082" stroke-linecap="round"/>
<path d="M182.128 137.393C179.203 142.645 177.557 145.257 174.592 147.967C175.142 157.305 172.689 162.501 169.731 171.79C177.538 160.166 180.206 152.604 182.128 137.393Z" fill="#654B46"/>
<path d="M114.064 148.331C115.139 142.252 116.487 139.761 120.384 137.149C119.965 145.784 120.555 150.238 127.312 155.502C124.981 162.781 126.263 166.858 133.268 174.219C122.086 170.33 122.345 148.608 114.064 148.331Z" fill="#654B46"/>
<path d="M133.146 90.1123C129.257 113.97 126.34 114.178 121.478 119.89C125.41 117.506 131.688 111.504 131.688 111.504C133.14 100.14 134.278 95.3418 137.279 93.8801C142.019 91.5708 150.199 89.9985 160.007 92.057C166.443 96.2068 166.821 102.22 168.758 111.504C175.391 116.914 181.399 122.826 181.399 131.802C185.531 113.692 171.918 123.05 168.758 90.3554C168.758 90.3554 159.325 82.116 151.985 81.8474C144.629 81.5781 139.069 84.6842 133.146 90.1123Z" fill="#654B46"/>
<path d="M77.3286 74.1025C58.2537 120.233 69.7315 136.941 105.774 162.893" stroke="#654B46" stroke-width="2.63082" stroke-linecap="round"/>
<path d="M89.2689 201.449C102.429 211.419 109.513 216.386 121.356 223.57M89.2689 195.736C102.878 205.332 110.136 209.989 121.356 214.94M220.292 180.057C201.914 193.984 190.357 200.299 168.394 209.957C184.925 192.679 197.258 182.564 220.292 164.378C223.006 162.152 223.932 160.419 224.243 156.235C227.223 151.681 229.306 149.678 234.513 148.091C237.272 162.414 240.67 169.113 248.126 180.057C243.252 182.444 240.297 183.236 231.717 176.533" stroke="#654B46" stroke-width="2.67395" stroke-linecap="round"/>
<path d="M86.9596 172.278C121.125 208.531 140.992 214.827 178.117 192.697" stroke="#654B46" stroke-width="2.67395" stroke-linecap="round"/>
<path d="M232.568 191.847C219.312 197.2 212.286 201.924 200.724 214.454C201.438 219.734 202.344 222.011 204.735 225.028" stroke="#654B46" stroke-width="2.67395" stroke-linecap="round"/>
<path d="M75.0484 204.832C75.3117 213.648 73.7351 217.002 69.822 221.969L72.0098 225.494C78.5795 223.981 80.5165 220.165 81.2471 211.638" stroke="#654B46" stroke-width="2.67395" stroke-linecap="round"/>
<path d="M76.6799 203.543L74.3427 195.475L68.3612 186.707L59.5731 178.667L46.5493 175.977L39.6501 167.852L36.7061 157.746C41.625 156.424 44.8249 159.261 50.7584 166.154" stroke="#654B46" stroke-width="2.67395" stroke-linecap="round"/>
<path d="M74.2897 60.2228C74.2897 60.2228 49.164 94.5163 54.1498 118.8C60.2857 148.684 76.4224 162.458 103.49 176.533C121.558 185.928 133.718 190.42 154.051 189.295C177.344 188.006 191.632 181.424 208.989 165.837C223.686 152.639 235.972 123.054 235.972 123.054" stroke="#654B46" stroke-width="2.67395" stroke-linecap="round"/>
<path d="M80.7609 168.024C93.6571 189.35 101.287 197.827 115.644 206.431" stroke="#654B46" stroke-width="2.67395" stroke-linecap="round"/>
<circle cx="192.617" cy="62.947" r="20.2297" fill="black"/>
<path d="M178.64 52.0032C187.734 44.206 194.275 43.3578 205.49 50.3522C193.502 48.461 187.641 49.0159 178.64 52.0032Z" fill="white"/>
<circle cx="100.867" cy="65.5785" r="20.2297" fill="black"/>
<path d="M86.8903 54.6342C95.9844 46.8369 102.525 45.9888 113.741 52.9831C101.752 51.092 95.8908 51.6469 86.8903 54.6342Z" fill="white"/>
<path d="M193.742 33.1018C201.576 34.5583 207.436 37.9434 211.346 42.9115M226.064 4.23924C233.665 11.2888 236.894 15.5968 242.906 24.1358M229.369 3.34273C236.213 10.9495 239.468 15.0866 245.078 23.778M235.235 2.65739C241.937 10.5211 244.379 14.9883 248.941 23.0529M238.378 1.83785C244.897 10.9742 247.4 15.432 251.034 22.6134" stroke="white" stroke-width="0.55678"/>
<path d="M193.74 29.6568C201.092 30.085 209.999 33.7313 215.406 40.3455" stroke="white" stroke-width="0.55678"/>
<path d="M194.891 27.7536C202.254 27.9 211.545 32.3768 217.201 38.7792" stroke="white" stroke-width="0.55678"/>
<path d="M195.733 25.6859C203.096 25.8323 213.893 31.2209 219.549 37.6233" stroke="white" stroke-width="0.55678"/>
<path d="M196.881 23.508C204.244 23.622 215.661 29.5961 221.345 35.9735" stroke="white" stroke-width="0.55678"/>
<path d="M198.419 21.4794C205.613 21.6842 217.378 28.2302 223.138 34.5332" stroke="white" stroke-width="0.55678"/>
<path d="M200.148 19.0865C207.504 19.4246 219.759 26.7772 225.246 33.3247" stroke="white" stroke-width="0.55678"/>
<path d="M202.402 16.7727C209.747 17.307 221.722 25.4665 227.033 32.1581" stroke="white" stroke-width="0.55678"/>
<path d="M203.804 14.9421C211.167 15.0884 223.408 24.4342 229.064 30.8366" stroke="white" stroke-width="0.55678"/>
<path d="M206.249 12.9051C213.612 13.0515 225.517 23.1923 231.173 29.5947" stroke="white" stroke-width="0.55678"/>
<path d="M209.169 11.1997C216.532 11.346 227.544 22.0304 233.2 28.4328" stroke="white" stroke-width="0.55678"/>
<path d="M211.128 9.47458C218.491 9.62093 229.972 20.8758 235.628 27.2782" stroke="white" stroke-width="0.55678"/>
<path d="M214.679 8.26248C222.042 8.40883 232.075 19.9557 237.731 26.358" stroke="white" stroke-width="0.55678"/>
<path d="M219.925 6.52275C226.662 10.4246 233.86 18.8688 239.516 25.2712" stroke="white" stroke-width="0.55678"/>
<path d="M241.426 1.73714C246.619 8.8853 249.15 13.3925 253.121 22.4936M244.792 1.80393C249.426 9.49084 252.017 13.9997 255.204 22.5349M247.998 1.86754C252.366 10.2049 254.724 14.7673 257.368 22.5779M251.364 1.93432C254.925 9.93263 257.315 14.4746 259.452 22.6192M254.636 2.7208C257.678 9.90911 260.143 14.2747 261.776 22.6653M257.83 3.3454C260.518 10.9367 263.029 15.1811 264.18 22.713M266.2 21.9514C265.264 15.0989 263.251 11.1791 261.021 4.13028M263.803 5.38806C265.577 11.472 267.487 14.8186 267.993 20.4637M267.137 7.05769C268.16 12.4849 269.457 15.2841 269.615 19.5338M269.91 8.71618C270.689 13.0009 271.599 15.2298 271.558 18.6102M272.901 11.5014C273.135 14.2221 273.511 15.6198 273.418 17.7652M275.194 13.1504L275.262 17.8018" stroke="white" stroke-width="0.55678"/>
<path d="M222.517 5.21151C230.186 10.6551 235.821 17.5817 241.134 24.582" stroke="white" stroke-width="0.55678"/>
<path d="M193.447 31.4124C200.773 32.1702 208.279 35.1659 213.383 42.0162" stroke="white" stroke-width="0.55678"/>
<path d="M193.577 33.3393C191.484 13.5751 239.092 -9.93315 268.959 8.13725C268.959 8.13725 276.668 15.0018 283.385 16.521" stroke="white" stroke-width="1.39195"/>
<path d="M246.854 23.1712C242.465 16.1139 239.879 11.4255 232.35 2.59949" stroke="white" stroke-width="0.55678"/>
<path d="M277.175 14.3127L277.268 17.6819" stroke="white" stroke-width="0.55678"/>
<path d="M279.079 15.3121L279.362 17.2419" stroke="white" stroke-width="0.55678"/>
<path d="M92.2259 40.5572C84.1874 41.9306 78.14 45.307 74.0643 50.3327M59.5816 10.5375C51.6977 17.638 48.3292 21.9982 42.0484 30.6466M56.213 9.57068C49.0953 17.2527 45.7019 21.4377 39.8312 30.248M50.22 8.78161C43.2438 16.7287 40.6786 21.2636 35.8892 29.4482M47.0159 7.89593C40.2077 17.1481 37.5802 21.6725 33.7537 28.9672" stroke="white" stroke-width="0.569839"/>
<path d="M92.2793 37.0332C84.7493 37.3613 75.5802 40.9596 69.9485 47.6473" stroke="white" stroke-width="0.569839"/>
<path d="M91.1309 35.066C83.5938 35.1057 74.0189 39.5481 68.1352 46.0153" stroke="white" stroke-width="0.569839"/>
<path d="M90.2993 32.9381C82.7623 32.9778 71.6333 38.3308 65.7497 44.798" stroke="white" stroke-width="0.569839"/>
<path d="M89.1579 30.6937C81.6207 30.7003 69.8477 36.643 63.9357 43.0843" stroke="white" stroke-width="0.569838"/>
<path d="M87.6136 28.593C80.2493 28.695 68.1114 35.2179 62.1231 41.5819" stroke="white" stroke-width="0.569838"/>
<path d="M85.8807 26.1206C78.3473 26.3566 65.6967 33.6976 59.9835 40.3159" stroke="white" stroke-width="0.569839"/>
<path d="M83.608 23.7177C76.0835 24.1545 63.7069 32.3255 58.1723 39.0939" stroke="white" stroke-width="0.569839"/>
<path d="M82.2014 21.8239C74.6643 21.8636 61.9977 31.2445 56.1141 37.7117" stroke="white" stroke-width="0.569839"/>
<path d="M79.7291 19.7028C72.192 19.7425 59.8578 29.942 53.9742 36.4093" stroke="white" stroke-width="0.569839"/>
<path d="M76.7663 17.9141C69.2292 17.9537 57.8004 28.7228 51.9168 35.1901" stroke="white" stroke-width="0.569839"/>
<path d="M74.788 16.1195C67.251 16.1592 55.3329 27.5051 49.4493 33.9723" stroke="white" stroke-width="0.569839"/>
<path d="M71.1715 14.8249C63.6344 14.8645 53.1948 26.5309 47.3111 32.9981" stroke="white" stroke-width="0.569839"/>
<path d="M65.8294 12.966C58.8765 16.8582 51.3842 25.3919 45.5005 31.8591" stroke="white" stroke-width="0.569839"/>
<path d="M43.8978 7.74936C38.4774 14.9867 35.8194 19.5613 31.62 28.8155M40.4522 7.76736C35.5956 15.5644 32.8767 20.1398 29.4871 28.8266M37.1708 7.78452C32.5765 16.2511 30.0952 20.8848 27.2721 28.8382M33.7252 7.80252C29.9616 15.9343 27.4483 20.5466 25.1391 28.8493M30.3656 8.55843C27.1442 15.869 24.5571 20.2997 22.7601 28.8618M27.0871 9.14984C24.2225 16.8782 21.5902 21.184 20.299 28.8746M18.2438 28.065C19.3036 21.0665 21.4226 17.0853 23.8095 9.90532M20.9447 11.1509C19.0376 17.3503 17.0327 20.7465 16.4308 26.5157M17.5077 12.8096C16.3792 18.3482 15.0107 21.1933 14.7849 25.5398M14.645 14.4653C13.7833 18.8384 12.8194 21.1057 12.8109 24.5657M11.5422 17.2709C11.262 20.0516 10.8561 21.4763 10.9194 23.6732M9.17172 18.924L9.03252 23.683" stroke="white" stroke-width="0.569839"/>
<path d="M63.1968 11.5864C55.2676 17.0424 49.3974 24.0463 43.8558 31.1306" stroke="white" stroke-width="0.569839"/>
<path d="M92.5531 38.833C85.0454 39.499 77.3188 42.4523 71.9931 49.3862" stroke="white" stroke-width="0.569839"/>
<path d="M92.3914 40.8028C94.829 20.6085 46.4608 -4.16053 15.6265 13.885C15.6265 13.885 7.63554 20.7946 0.739121 22.2488" stroke="white" stroke-width="1.4246"/>
<path d="M38.0231 29.6017C42.6194 22.4453 45.336 17.6861 53.1735 8.76669" stroke="white" stroke-width="0.569839"/>
<path d="M7.12672 20.0825L6.98065 23.5289" stroke="white" stroke-width="0.569839"/>
<path d="M5.16311 21.0769L4.84525 23.0475" stroke="white" stroke-width="0.569839"/>
</svg>
