<svg width="27" height="248" viewBox="0 0 27 248" fill="none" xmlns="http://www.w3.org/2000/svg">
<g id="bus-sign">
<path id="post" d="M9.84805 2.00458L9.30646 2.00461V0.891905C10.6044 -0.123043 15.1563 -0.0695041 16.3065 0.891901V2.00461L15.6747 2.00458V247.054C14.9007 248.118 10.5997 248.061 9.84805 247.054V2.00458Z" fill="url(#paint0_linear_607_19)"/>
<path id="Vector 2158" d="M9.81058 2.12411C12.2454 1.85909 13.5428 1.84028 15.6933 2.12411" stroke="hsl(0, 0%, 34%)" stroke-width="0.25"/>
<path id="bot-back" d="M0.368362 197.219V121.279H6.35039V196.717L0.368362 197.219Z" fill="hsl(0, 0%, 18%)"/>
<g id="bot=sign">
<path d="M6.35039 120.928H26.5804V194.588L6.35039 197.668V120.928Z" fill="hsl(0, 20%, 28%)"/>
<path d="M9.21775 128.787H23.713V187.756L9.21775 189.809V128.787Z" fill="hsl(0, 0%, 60%)"/>
</g>
<g id="mid sign">
<path d="M5.46539 47.4277L23.4654 50.5258V97.4277L5.46539 96.3166V47.4277Z" fill="hsl(0, 0%, 25%)"/>
<path d="M7.27766 52.6122L21.6531 54.8344V92.2433L7.27766 91.1322V52.6122Z" fill="hsl(0, 0%, 60%)"/>
</g>
<g id="top-sign">
<path d="M23.6633 24.6736C23.8097 36.823 20.1231 46.7178 15.429 46.7744C10.7349 46.831 6.81092 37.0278 6.66453 24.8784C6.51813 12.729 10.2048 2.83415 14.8988 2.77759C19.5929 2.72103 23.5169 12.5242 23.6633 24.6736Z" fill="hsl(0, 0%, 25%)"/>
<path d="M22.7124 24.685C22.8421 35.4538 19.5745 44.2243 15.4138 44.2744C11.2531 44.3245 7.77506 35.6354 7.64531 24.8666C7.51555 14.0978 10.7832 5.32736 14.9439 5.27723C19.1046 5.2271 22.5826 13.9163 22.7124 24.685Z" fill="hsl(0, 0%, 60%)"/>
<path d="M20.9739 24.706C21.0737 32.9897 18.5601 39.7362 15.3596 39.7747C12.1591 39.8133 9.48362 33.1293 9.38381 24.8456C9.284 16.562 11.7976 9.81547 14.9981 9.7769C18.1986 9.73834 20.8741 16.4223 20.9739 24.706Z" fill="hsl(240, 25%, 36%)"/>
</g>
</g>
<defs>
<linearGradient id="paint0_linear_607_19" x1="9.84811" y1="143.876" x2="15.6765" y2="143.875" gradientUnits="userSpaceOnUse">
<stop stop-color="hsl(0, 0%, 43%)"/>
<stop offset="1" stop-color="hsl(0, 0%, 57%)"/>
</linearGradient>
</defs>
</svg>
