<svg viewBox="0 0 349 744" fill="none" xmlns="http://www.w3.org/2000/svg">
<path d="M334.206 528.229C336.941 505.472 340.73 459.956 327.966 424.555L27.9338 487.008C19.8166 542.137 15.4248 575.688 27.9338 629.684C40.5203 684.015 57.6187 711.818 79.5107 728.997C96.0929 742.009 111.127 743.396 128.298 728.997C143.213 715.776 151.011 701.896 151.011 701.896C161.375 707.666 179.252 710.649 191.272 701.896C191.272 701.896 202.526 720.369 219.36 730.147C235.881 737.046 247.94 738.668 271.25 727.588C282.168 705.27 284.175 695.509 284.175 695.509C307.257 614.207 301.936 645.694 323.927 596.896C332.49 577.894 336.265 547.231 334.206 528.229Z" fill="url(#paint0_linear_1011_103)"/>
<path d="M146.177 710.186C145.331 698.891 53.9555 697.376 57.8168 710.186C61.678 722.996 64.0312 729.379 73.4852 737.723C90.6875 739.97 129.246 739.183 131.589 736.761C133.933 734.338 144.387 721.564 146.177 710.186Z" fill="url(#paint1_linear_1011_103)"/>
<path d="M280.296 709.059C261.333 702.516 217.198 701.325 197.625 710.803C201.789 722.647 203.976 726.148 209.874 736.026C228.411 738.82 252.724 739.798 266.273 736.026C272.33 726.709 277.796 723.298 280.296 709.059Z" fill="url(#paint2_linear_1011_103)"/>
<path d="M52.2002 155.848C43.6432 187.76 45.8492 245.461 47.9679 280.215C35.3264 329.048 24.9 419.86 26.6169 480.532C26.6169 480.532 63.9338 605.298 188.648 594.402C303.605 584.358 332.332 456.715 332.332 456.715C345.21 409.261 334.278 329.017 323.883 281.78C324.016 225.997 318.003 182.162 305.671 133.449L52.2002 155.848Z" fill="url(#paint3_linear_1011_103)"/>
<g filter="url(#filter0_f_1011_103)">
<g filter="url(#filter1_f_1011_103)">
<path d="M258.472 214.981C243.735 231.234 221.065 273.643 215.863 301.883" stroke="#3C220E" stroke-width="2"/>
</g>
<g filter="url(#filter2_f_1011_103)">
<path d="M59.8143 282.678C66.3993 293.536 71.866 298.007 78.1767 303.702" stroke="#3C220E" stroke-width="2"/>
</g>
<g filter="url(#filter3_f_1011_103)">
<path d="M44.9114 445.012C58.4836 441.287 60.7775 438.06 63.2738 430.376" stroke="#3C220E" stroke-width="2"/>
</g>
<g filter="url(#filter4_f_1011_103)">
<path d="M192.772 463.012C194.38 473.063 206.048 491.493 226.414 512.483C233.203 535.228 259.966 569.92 287.32 580.119" stroke="#3C220E" stroke-width="2"/>
</g>
</g>
<g filter="url(#filter5_f_1011_103)">
<path d="M29.3832 485.336C32.4037 499.834 61.411 470.826 75.2493 474.818M47.3713 291.069C54.704 301.54 66.2804 312.946 76.6245 315.596M324.626 289.959C319.699 298.489 315.622 302.542 308.943 304.294M308.943 474.822C320.15 480.966 335.227 464.438 335.227 464.438" stroke="#3C220E" stroke-linecap="round"/>
</g>
<g filter="url(#filter6_f_1011_103)">
<path d="M322.211 440.13C293.839 430.288 294.435 378.941 314.524 363.008C285.61 372.419 269.766 376.892 273.953 412.072C271.422 442.601 288.709 438.492 322.211 440.13Z" fill="#AC594A"/>
</g>
<path d="M220.093 493.932L195.127 459.421L238.184 459.42L246.506 478.667L220.093 493.932Z" fill="#8B483C"/>
<path d="M145.385 493.089L130.562 482.142L150.63 459.421L169.787 461.617L145.385 493.089Z" fill="#8B483C"/>
<path d="M33.379 496.491L54.3955 272.052C62.3244 282.519 81.2463 303.228 81.2463 303.228L67.4231 459.589L107.577 462.407L99.6152 474.868C73.6051 470.887 51.7261 484.813 33.9747 496.112L33.379 496.491Z" fill="url(#paint4_linear_1011_103)"/>
<path d="M315.839 363.185C309.346 365.767 304.934 371.409 303.377 381.35L305.453 421.919C311.505 441.191 322.172 439.285 322.172 439.285" stroke="#3C220E" stroke-width="1.5" stroke-linecap="round"/>
<path d="M175.265 334.296C191.204 331.86 171.954 306.188 146.383 281.602L114.854 315.833C123.923 334.117 166.774 342.031 156.016 360.384C167.225 354.765 158.625 337.929 141.248 324.816C160.244 323.915 174.513 351.334 163.003 348.465C177.345 362.254 172.252 325.934 151.195 315.215C175.506 318.132 182.406 328.865 175.265 334.296Z" fill="#3C220E"/>
<path d="M102.957 223.364C134.137 251.199 135.983 251.149 144.938 280.988L118.405 316.119C96.0561 312.049 86.512 312.733 62.9189 283.218" stroke="#3C220E" stroke-width="1.5" stroke-linecap="round"/>
<path d="M299.332 282.428C280.506 313.045 264.186 331.557 252.626 333.02L217.829 310.506C216.025 295.79 239.871 238.918 264.935 212.968" stroke="#3C220E" stroke-width="1.5" stroke-linecap="round"/>
<path d="M227.625 320.174C214.184 330.787 197.769 330.836 208.81 333.532C192.436 341.825 203.524 316.974 229.692 302.802L266.439 325.342C248.713 356.915 221.44 374.079 244.911 369.173C228.517 392.601 218.664 354.897 241.664 326.699C228.687 340.386 210.842 344.753 221.078 356.883C221.078 356.883 198.398 358.146 227.625 320.174Z" fill="#3C220E"/>
<path d="M82.5194 304.079L286.958 304.079C289.791 304.079 292.153 306.25 292.398 309.079L305.37 459.027C305.646 462.224 303.132 464.973 299.93 464.973L69.5474 464.973C66.3457 464.973 63.8311 462.224 64.1077 459.027L77.0796 309.079C77.3243 306.25 79.6866 304.079 82.5194 304.079Z" fill="url(#paint5_linear_1011_103)" stroke="#823F35" stroke-width="4"/>
<path d="M113.534 303.726C144.279 424.988 246.76 424.988 264.329 303.726" stroke="#6D342C" stroke-width="6.5"/>
<path d="M290.017 392.868C278.873 386.818 293.64 375.208 304.411 377.828L307.684 433.637C295.98 421.996 292.384 427.715 294.363 432.568C287.599 427.423 294.154 419.747 300.819 419.353C304.186 419.155 289.456 401.755 291.784 413.935C287.63 413.607 289.227 397.901 297.073 397.129C294.28 390.28 288.354 384.167 290.017 392.868Z" fill="#3C220E"/>
<path d="M74.3914 418.966C86.4884 426.071 72.364 432.986 61.5058 426.555L62.5428 401.772L63.5798 376.99C70.6246 377.315 97.58 382.824 73.9255 392.287C74.6898 384.724 74.2017 383.258 67.2034 395.129C75.9466 404.111 78.4254 399.89 73.6715 395.66C88.8068 393.794 79.724 409.452 69.111 414.766C70.0593 420.23 76.634 427.795 74.3914 418.966Z" fill="#3C220E"/>
<path d="M47.2628 441.886C57.9768 441.886 62.3783 426.723 62.3783 426.723L63.6131 378.273C62.1069 366.967 51.9513 366.365 51.9513 366.365" stroke="#3C220E" stroke-width="1.5" stroke-linecap="round"/>
<path d="M151.901 703.949C169.687 708.731 178.416 708.628 191.949 703.949C234.908 668.564 262.468 669.175 295.197 658.291C302.809 651.62 327.092 597.14 328.665 585.454L327.753 585.518C223.4 592.844 133.243 599.172 19.995 579.043C18.4651 583.406 29.6976 645.711 32.7948 649.416C81.2108 656.919 106.313 663.65 151.901 703.949Z" fill="url(#paint6_linear_1011_103)"/>
<path d="M286.079 578.021C257.552 565.661 231.767 526.906 227.783 512.025C223.8 497.144 254.404 484.748 264.801 484.192C275.198 483.636 304.254 485.621 325.011 511.641" stroke="#3C220E" stroke-width="1.5" stroke-linecap="round"/>
<path d="M68.7962 571.509C94.574 562.207 117.107 526.386 120.124 510.766L98.3276 475.194C74.2757 471.429 43.6856 490.346 43.6856 490.346" stroke="#3C220E" stroke-width="1.5" stroke-linecap="round"/>
<path d="M125.761 448.193C143.279 439.55 116.731 459.474 96.3998 473.156L119.682 512.037C155.676 504.522 178.392 455.204 161.38 462.845C166.814 461.101 160.602 479.967 137.055 482.603C168.339 451.933 151.011 450.25 140.408 452.465C162.98 453.511 146.905 463.244 124.203 465.051C136.018 456.984 139.596 434.358 125.761 448.193Z" fill="#3C220E"/>
<path d="M237.73 449.404C217.158 424.534 221.446 451.024 239.303 479.321C220.091 471.967 209.145 445.835 219.879 453.696C206.383 443.813 207.907 457.448 226.308 490.019C198.462 470.117 197.937 460.145 207.754 454.967C175.905 455.286 213.302 494.992 226.038 510.768L263.989 486.389C248.332 461.199 218.855 439.885 237.73 449.404Z" fill="#3C220E"/>
<g filter="url(#filter7_f_1011_103)">
<path d="M144.832 709.775C141.454 698.676 156.889 701.537 171.856 703.502C201.293 696.746 205.607 713.204 210.945 738.502" stroke="#703C3C" stroke-width="3"/>
</g>
<path d="M57.4306 139.588C54.0362 150.485 53.9134 149.555 53.1441 166.842C138.451 200.734 230.261 193.409 296.891 170.384C292.647 133.765 317.168 160.161 302.618 126.921C298.853 118.319 294.156 107.647 291.23 99.1482C285.172 81.5557 275.94 67.2843 268.7 57.9622C258.191 25.3602 208.535 0.077638 208.535 0.077638C166.955 13.2701 142.121 3.52358 108.301 23.7481C83.8338 46.1276 74.5931 60.3357 66.4742 88.7225C58.8315 117.023 57.4306 122.995 57.4306 139.588Z" fill="url(#paint7_linear_1011_103)"/>
<path d="M162.538 137.16C167.32 140.065 173.406 141.948 178.76 143.571M176.345 136.956C178.514 139.003 178.385 141.553 180.191 142.761M189.74 137.197L186.385 142.537M188.767 147.509L190.003 148.729M181.827 147.611L181.133 150.793M175.528 146.304L170.121 148.71M178.042 144.963C171.547 145.087 163.312 144.019 159.093 141.876M164.979 131.808C175.528 127.21 186.385 127.21 198.267 132.483M163.089 153.301C170.121 158.098 192.085 159.609 199.038 150.719M203.312 137.266C203.312 137.266 204.098 144.063 189.725 145.651" stroke="#3C220E" stroke-width="1.5"/>
<path d="M107.332 93.7664C104.382 102.014 111.091 110.362 122.317 112.412C133.544 114.462 145.036 109.438 147.987 101.19C150.937 92.9423 144.228 84.5945 133.002 82.5445C121.775 80.4946 110.283 85.5188 107.332 93.7664Z" fill="black"/>
<path d="M144.594 91.9642C137.515 84.5396 131.167 82.7135 118.05 85.8188C130.595 86.6224 136.339 88.1075 144.594 91.9642Z" fill="white"/>
<path d="M204.326 92.3882C200.51 100.277 206.304 108.803 217.266 111.431C228.229 114.058 240.209 109.794 244.025 101.905C247.84 94.0158 242.046 85.4902 231.084 82.8623C220.121 80.2344 208.141 84.4993 204.326 92.3882Z" fill="black"/>
<path d="M241.627 92.7069C235.366 85.0623 229.238 82.925 215.845 85.2256C228.253 86.71 233.815 88.4806 241.627 92.7069Z" fill="white"/>
<path d="M122.769 43.023C114.777 43.908 108.674 46.3458 104.457 50.0684M91.6724 19.6973C83.6141 24.9162 80.1204 28.1492 73.5865 34.5693M88.382 18.9018C81.0584 24.5751 77.5469 27.675 71.4118 34.2255M82.4929 18.1905C75.2989 24.067 72.5919 27.4474 67.5488 33.5453M79.362 17.4595C72.2841 24.3261 69.5161 27.6974 65.4579 33.1407M122.956 40.3587C115.506 40.4629 106.312 43.0088 100.494 47.9586M121.897 38.8496C114.451 38.7355 104.824 41.912 98.7654 46.6902M121.157 37.2237C113.711 37.1097 102.514 40.945 96.4558 45.7233M120.115 35.5047C112.67 35.3656 100.815 39.6347 94.7296 44.3928M118.67 33.8877C111.392 33.8241 99.1544 38.5249 92.9966 43.2231M117.053 31.984C109.603 32.0185 96.8276 37.3281 90.9318 42.2239M114.9 30.1237C107.451 30.3102 94.9145 36.2528 89.1894 41.2654M113.583 28.6635C106.137 28.5494 93.2678 35.4014 87.2094 40.1796M111.222 27.013C103.776 26.8989 91.2039 34.3763 85.1455 39.1546M108.364 25.6034C100.918 25.4893 89.2185 33.4148 83.1601 38.193M106.479 24.2082C99.0327 24.0941 86.8278 32.4465 80.7694 37.2247M102.956 23.161C95.5101 23.0469 84.7532 31.6698 78.6948 36.4481M97.7506 21.6529C90.7345 24.4634 83.0083 30.7736 76.9499 35.5519M76.2878 17.2878C70.6576 22.6573 67.8576 26.0659 63.3563 32.9839M72.884 17.2355C67.7892 23.0391 64.9289 26.4471 61.2491 32.9516M69.6422 17.1858C64.7809 23.5007 62.1531 26.9574 59.0609 32.918M66.2383 17.1336C62.2103 23.2111 59.5517 26.651 56.9538 32.8857M62.8911 17.641C59.43 23.1079 56.7055 26.4091 54.6035 32.8496M59.6303 18.0256C56.5058 23.8152 53.7413 27.0211 52.1722 32.8123M50.1732 32.1607C51.4873 26.8885 53.7324 23.9183 56.3642 18.5342M53.487 19.4214C51.3665 24.0731 49.2566 26.6031 48.4417 30.9545M50.0289 20.6101C48.7027 24.7769 47.2424 26.9024 46.8533 30.185M47.1381 21.8075C46.1199 25.098 45.0813 26.7942 44.9408 29.4106M43.9663 23.8698C43.5833 25.9673 43.128 27.0369 43.1065 28.6995M41.5618 25.0747L41.2425 28.6709M95.203 20.5584C87.1629 24.5328 81.0973 29.7172 75.3532 34.9686M123.158 41.7249C115.717 42.085 107.972 44.1708 102.447 49.3126M122.923 43.2113C126.102 27.9864 79.2742 8.33081 48.1297 21.388C48.1297 21.388 39.973 26.4605 33.1058 27.4284M69.6506 33.7014C74.4638 28.3774 77.3287 24.8302 85.4106 18.2349M39.4977 25.9121L39.2218 28.5156M37.5201 26.6268L37.1309 28.111M209.531 31.0981C217.578 31.3683 223.892 33.3302 228.45 36.7165M238.279 5.47875C246.807 10.0619 250.598 13.0157 257.723 18.9123M241.481 4.43436C249.321 9.52649 253.116 12.3464 259.856 18.4034M247.28 3.27511C255.011 8.57955 258.031 11.7405 263.64 17.4301M250.33 2.30722C258.039 8.60709 261.12 11.7542 265.685 16.867M209.089 28.4582C216.522 27.992 225.926 29.8251 232.196 34.3116M210 26.8736C217.408 26.1902 227.303 28.6184 233.797 32.9156M210.581 25.1973C217.989 24.514 229.512 27.4785 236.006 31.7757M211.455 23.4046C218.859 22.6963 231.079 26.0427 237.598 30.3177M212.74 21.6825C219.984 21.0624 232.628 24.8095 239.213 29.0193M214.168 19.6623C221.594 19.1266 234.831 23.4392 241.174 27.8659M216.135 17.6446C223.574 17.2605 236.634 22.222 242.818 26.7783M217.308 16.0888C224.715 15.4054 238.194 21.2476 244.687 25.5448M219.502 14.2639C226.909 13.5806 240.152 20.0686 246.645 24.3658M222.214 12.6403C229.622 11.957 242.038 18.9582 248.531 23.2553M223.959 11.1063C231.367 10.423 244.327 17.8108 250.821 22.108M227.368 9.79318C234.776 9.10981 246.319 16.878 252.813 21.1752M232.41 7.89274C239.67 10.1561 247.972 15.852 254.466 20.1492M253.376 1.90135C259.5 6.82036 262.616 10.0022 267.764 16.5504M256.762 1.58886C262.394 6.98128 265.571 10.158 269.86 16.357M259.988 1.29125C265.436 7.21102 268.385 10.454 272.037 16.1561M263.374 0.978762C267.969 6.72579 270.948 9.94965 274.133 15.9626M266.757 1.22822C270.729 6.41026 273.76 9.49083 276.471 15.7469M270.043 1.36189C273.711 6.8912 276.772 9.87383 278.89 15.5237M280.819 14.7216C279.005 9.5693 276.484 6.78178 273.346 1.61879M276.298 2.28255C278.856 6.75494 281.2 9.1142 282.429 13.3873M279.857 3.2023C281.577 7.25239 283.236 9.25827 283.938 12.4991M282.852 4.17412C284.181 7.37468 285.379 8.98519 285.769 11.5812M286.209 5.98618C286.792 8.04668 287.348 9.07753 287.529 10.7324M288.72 7.00265L289.383 10.5612M234.844 6.60704C243.235 9.9517 249.775 14.653 256.001 19.4456M209.019 29.8348C216.467 29.6243 224.383 31.1098 230.38 35.81M209.396 31.2978C204.77 16.3721 249.543 -6.79427 281.824 3.83207C281.824 3.83207 290.436 8.26182 297.371 8.70071M261.561 17.7469C256.256 12.8107 253.061 9.49583 244.378 3.54309M290.857 7.67918L291.382 10.252M292.896 8.23979L293.426 9.6887" stroke="white" stroke-width="0.7"/>
<g filter="url(#filter8_f_1011_103)">
<path d="M117.757 179.896C87.2 171.503 76.4476 163.052 67.7035 138.277M290.554 126.325C290.554 143.813 273.741 160.573 247.607 168.813C223.852 213.636 150.119 218.611 117.655 179.868M243.136 172.96C219.09 186.805 151.735 202.332 118.944 180.472" stroke="#643616" stroke-width="1.5" stroke-linecap="round"/>
</g>
<g filter="url(#filter9_f_1011_103)">
<path d="M161.956 133.093C146.998 141.403 158.964 165.002 189.211 157.689" stroke="#3C220E" stroke-width="2"/>
</g>
<defs>
<filter id="filter0_f_1011_103" x="38.6467" y="208.309" width="255.023" height="378.747" filterUnits="userSpaceOnUse" color-interpolation-filters="sRGB">
<feFlood flood-opacity="0" result="BackgroundImageFix"/>
<feBlend mode="normal" in="SourceGraphic" in2="BackgroundImageFix" result="shape"/>
<feGaussianBlur stdDeviation="3" result="effect1_foregroundBlur_1011_103"/>
</filter>
<filter id="filter1_f_1011_103" x="208.879" y="208.309" width="56.3334" height="99.7549" filterUnits="userSpaceOnUse" color-interpolation-filters="sRGB">
<feFlood flood-opacity="0" result="BackgroundImageFix"/>
<feBlend mode="normal" in="SourceGraphic" in2="BackgroundImageFix" result="shape"/>
<feGaussianBlur stdDeviation="3" result="effect1_foregroundBlur_1011_103"/>
</filter>
<filter id="filter2_f_1011_103" x="52.9592" y="276.159" width="31.8874" height="34.2847" filterUnits="userSpaceOnUse" color-interpolation-filters="sRGB">
<feFlood flood-opacity="0" result="BackgroundImageFix"/>
<feBlend mode="normal" in="SourceGraphic" in2="BackgroundImageFix" result="shape"/>
<feGaussianBlur stdDeviation="3" result="effect1_foregroundBlur_1011_103"/>
</filter>
<filter id="filter3_f_1011_103" x="38.6467" y="424.067" width="31.5781" height="27.9099" filterUnits="userSpaceOnUse" color-interpolation-filters="sRGB">
<feFlood flood-opacity="0" result="BackgroundImageFix"/>
<feBlend mode="normal" in="SourceGraphic" in2="BackgroundImageFix" result="shape"/>
<feGaussianBlur stdDeviation="3" result="effect1_foregroundBlur_1011_103"/>
</filter>
<filter id="filter4_f_1011_103" x="185.785" y="456.854" width="107.885" height="130.201" filterUnits="userSpaceOnUse" color-interpolation-filters="sRGB">
<feFlood flood-opacity="0" result="BackgroundImageFix"/>
<feBlend mode="normal" in="SourceGraphic" in2="BackgroundImageFix" result="shape"/>
<feGaussianBlur stdDeviation="3" result="effect1_foregroundBlur_1011_103"/>
</filter>
<filter id="filter5_f_1011_103" x="24.884" y="285.458" width="314.842" height="208.469" filterUnits="userSpaceOnUse" color-interpolation-filters="sRGB">
<feFlood flood-opacity="0" result="BackgroundImageFix"/>
<feBlend mode="normal" in="SourceGraphic" in2="BackgroundImageFix" result="shape"/>
<feGaussianBlur stdDeviation="2" result="effect1_foregroundBlur_1011_103"/>
</filter>
<filter id="filter6_f_1011_103" x="271.288" y="361.008" width="52.9225" height="81.1218" filterUnits="userSpaceOnUse" color-interpolation-filters="sRGB">
<feFlood flood-opacity="0" result="BackgroundImageFix"/>
<feBlend mode="normal" in="SourceGraphic" in2="BackgroundImageFix" result="shape"/>
<feGaussianBlur stdDeviation="1" result="effect1_foregroundBlur_1011_103"/>
</filter>
<filter id="filter7_f_1011_103" x="137.864" y="695.152" width="79.5488" height="48.6594" filterUnits="userSpaceOnUse" color-interpolation-filters="sRGB">
<feFlood flood-opacity="0" result="BackgroundImageFix"/>
<feBlend mode="normal" in="SourceGraphic" in2="BackgroundImageFix" result="shape"/>
<feGaussianBlur stdDeviation="2.5" result="effect1_foregroundBlur_1011_103"/>
</filter>
<filter id="filter8_f_1011_103" x="62.9533" y="121.575" width="232.351" height="89.1401" filterUnits="userSpaceOnUse" color-interpolation-filters="sRGB">
<feFlood flood-opacity="0" result="BackgroundImageFix"/>
<feBlend mode="normal" in="SourceGraphic" in2="BackgroundImageFix" result="shape"/>
<feGaussianBlur stdDeviation="2" result="effect1_foregroundBlur_1011_103"/>
</filter>
<filter id="filter9_f_1011_103" x="148.524" y="126.219" width="46.9216" height="39.8555" filterUnits="userSpaceOnUse" color-interpolation-filters="sRGB">
<feFlood flood-opacity="0" result="BackgroundImageFix"/>
<feBlend mode="normal" in="SourceGraphic" in2="BackgroundImageFix" result="shape"/>
<feGaussianBlur stdDeviation="3" result="effect1_foregroundBlur_1011_103"/>
</filter>
<linearGradient id="paint0_linear_1011_103" x1="29.4393" y1="669.051" x2="336.936" y2="532.63" gradientUnits="userSpaceOnUse">
<stop stop-color="#B95746"/>
<stop offset="1" stop-color="#C36F60"/>
</linearGradient>
<linearGradient id="paint1_linear_1011_103" x1="57.5206" y1="725.305" x2="139.772" y2="715.933" gradientUnits="userSpaceOnUse">
<stop stop-color="#8D0707"/>
<stop offset="1" stop-color="#C70A0A"/>
</linearGradient>
<linearGradient id="paint2_linear_1011_103" x1="209.886" y1="740.607" x2="280.92" y2="723.009" gradientUnits="userSpaceOnUse">
<stop stop-color="#8D0707"/>
<stop offset="1" stop-color="#D00B0B"/>
</linearGradient>
<linearGradient id="paint3_linear_1011_103" x1="26.7037" y1="458.539" x2="332.995" y2="284.904" gradientUnits="userSpaceOnUse">
<stop offset="0.00283406" stop-color="#BC5F4E"/>
<stop offset="1" stop-color="#C87D6F"/>
<stop offset="1" stop-color="#C77A6B"/>
</linearGradient>
<linearGradient id="paint4_linear_1011_103" x1="47.8027" y1="408.071" x2="85.68" y2="410.948" gradientUnits="userSpaceOnUse">
<stop offset="0.0476573" stop-color="#8B483C" stop-opacity="0"/>
<stop offset="1" stop-color="#8B483C"/>
</linearGradient>
<linearGradient id="paint5_linear_1011_103" x1="68.3922" y1="404.601" x2="295.907" y2="332.501" gradientUnits="userSpaceOnUse">
<stop stop-color="#98493E"/>
<stop offset="1" stop-color="#AB5145"/>
</linearGradient>
<linearGradient id="paint6_linear_1011_103" x1="63.1352" y1="701.815" x2="329.787" y2="596.079" gradientUnits="userSpaceOnUse">
<stop offset="0.290886" stop-color="#6029FF"/>
<stop offset="1" stop-color="#7B4DFF"/>
</linearGradient>
<linearGradient id="paint7_linear_1011_103" x1="53.9716" y1="138.317" x2="244.298" y2="19.4218" gradientUnits="userSpaceOnUse">
<stop stop-color="#C16B5C"/>
<stop offset="1" stop-color="#CA8072"/>
</linearGradient>
</defs>
</svg>
