<svg viewBox="0 0 344 761" fill="none" xmlns="http://www.w3.org/2000/svg">
<path d="M92.9518 610.422C88.6643 591.891 101.163 531.773 99.7077 509.959L340.386 596.296C336.609 610.152 334.794 629.279 327.092 644.695C311.775 675.352 289.474 703.674 278.264 699.334C285.279 703.378 303.382 716.623 299.106 738.809C294.83 760.996 189.455 763.025 170.039 754.363C154.999 739.585 101.21 745.876 92.9518 610.422Z" fill="url(#paint0_linear_1011_196)"/>
<g filter="url(#filter0_f_1011_196)">
<path d="M143.684 730.373L187.171 752.79" stroke="#E3644D" stroke-width="2"/>
</g>
<path d="M298.947 741.434C307.234 725.44 296.796 711.311 279.532 699.593C232.83 711.036 217.944 734.428 208.375 744.529C192.925 746.212 169.435 749.585 169.435 749.585C169.435 749.585 160.784 752.855 169.435 758.642C209.624 760.486 233.117 761.441 272.865 757.177L273.356 757.051C286.539 753.667 293.541 751.869 298.947 741.434Z" fill="url(#paint1_linear_1011_196)"/>
<path d="M234.605 103.261C239.579 115.601 249.239 122.738 256.181 119.203C263.123 115.668 264.718 102.798 259.744 90.4582C254.771 78.1184 245.111 70.9809 238.169 74.5164C231.227 78.0518 229.632 90.9213 234.605 103.261Z" fill="black"/>
<path d="M252.387 78.8863C245.228 72.7173 242.751 73.2112 243.246 82.8109C245.852 78.3358 247.957 77.6805 252.387 78.8863Z" fill="white"/>
<path d="M187.6 55.6885C191.61 56.8608 195.089 61.0593 197.978 67.7816M196.846 10.0629C201.915 19.3562 204.344 25.2046 208.974 36.843M198.221 8.37089C203.049 18.561 205.454 24.1589 209.926 36.0659M200.852 6.67861C205.666 17.2575 207.756 23.4302 211.601 34.5554M202.166 5.11734C207.161 17.5597 209.277 23.7115 212.499 33.6694M186.879 50.7047C190.445 50.4462 195.42 54.659 199.361 63.5845M187.024 47.8105C190.537 47.143 195.867 52.5117 199.882 61.1009M186.99 44.7179C190.503 44.0504 196.736 50.5588 200.75 59.148M187.077 41.4315C190.583 40.7171 197.232 47.9984 201.255 56.5482M187.38 38.3118C190.825 37.7491 197.758 45.8166 201.801 54.2496M187.697 34.6441C191.246 34.2548 198.58 43.431 202.545 52.2504M188.279 31.0257C191.864 30.9217 199.234 41.299 203.146 50.3479M188.558 28.2074C192.071 27.5399 199.815 39.602 203.83 48.1912M189.289 24.969C192.801 24.3015 200.553 37.5543 204.567 46.1435M190.313 22.1527C193.825 21.4852 201.269 35.6311 205.283 44.2203M190.878 19.4223C194.39 18.7548 202.175 33.6701 206.189 42.2593M192.303 17.2442C195.816 16.5767 202.977 32.0876 206.991 40.6767M194.42 14.0994C198.423 18.941 203.594 30.3007 207.608 38.8899M203.582 4.6089C207.533 14.3327 209.674 20.5526 213.456 33.2482M205.188 4.30357C208.988 14.8737 211.156 21.0888 214.45 33.0592M206.717 4.01279C210.527 15.5558 212.597 21.8763 215.482 32.8629M208.323 3.70747C211.681 14.8562 213.761 21.1434 216.476 32.6739M210.035 4.45486C212.978 14.4934 215.057 20.5164 217.585 32.4631M211.676 4.9772C214.536 15.6412 216.611 21.4833 218.732 32.245M219.527 30.9016C217.651 21.0974 215.879 15.6657 213.349 5.73186M214.928 7.21982C217.04 15.8117 218.644 20.4263 220.064 28.5347M216.854 9.2377C218.474 16.969 219.672 20.8647 220.637 26.9954M218.512 11.3065C219.778 17.4136 220.674 20.5303 221.362 25.427M220.51 14.9797C221.19 18.8887 221.66 20.8663 222.065 23.982M221.939 17.0921L222.944 23.8148M195.372 11.8923C200.137 18.8537 204.251 28.2039 208.229 37.6993M187.103 53.2784C190.727 53.5004 194.906 56.9403 198.755 66.2473M187.572 56.0511C182.446 27.7011 200.041 -12.0023 217.946 10.5799C217.946 10.5799 223.028 19.5929 226.522 20.9891M210.639 34.976C207.087 25.2878 204.883 18.8122 199.475 6.93964M223.124 18.5354L223.874 23.4056M224.233 19.7552L224.771 22.5173" stroke="white" stroke-width="0.5"/>
<path d="M86.3594 183.422C86.3594 183.422 84.3447 123.7 110.012 93.7009C137.233 61.8852 160.91 51.5131 202.075 58.4032C243.249 65.2949 267.054 100.429 281.811 135.228C303.457 131.984 307.487 174.503 290.61 177.103C288.137 196.262 288.986 228.651 288.986 228.651C294.567 237.356 302.589 269.252 303.457 282.483C318.953 304.321 317.465 323.716 323.509 345.018C328.297 361.895 330.314 373.793 327.591 392.103L326.848 421.244C332.773 446.091 339.363 470.813 332.116 491.661L337.768 534.944C337.547 541.173 337.617 547.338 335.219 554.215C343.792 567.148 344.095 579.439 342.759 596.915C337.73 605.102 333.904 610.687 308.656 623.081C308.656 623.081 267.08 685.832 159.723 636.185C73.02 596.09 88.181 480.601 88.181 480.601C88.4569 453.174 83.1776 411.638 90.9516 385.968C89.6267 348.379 77.5561 341.589 85.4651 293.34C83.4706 268.537 77.5436 207.21 86.3594 183.422Z" fill="url(#paint2_linear_1011_196)"/>
<path d="M289.231 163.387C285.866 153.191 289.231 139.117 290.719 139.117M291.242 169.927C293.822 176.404 298.922 174.651 300.957 163.387M293.027 167.801L294.193 159.837M290.719 158.828L292.036 156.602M297.787 170.021L295.571 160.246M298.201 160.037L296.203 157.493M297.057 147.834L295.936 149.848M289.871 144.388L291.368 147.384M299.939 153.191C298.965 142.849 293.027 136.743 283.554 135.654M294.936 174.651L289.871 176.93M281.554 161.471C279.511 150.503 280.106 136.626 282.216 135.654" stroke="#3C220E" stroke-width="1.5"/>
<path d="M217.13 103.612C222.104 115.952 231.763 123.089 238.705 119.554C245.647 116.018 247.243 103.149 242.269 90.8089C237.295 78.4691 227.635 71.3317 220.694 74.8671C213.752 78.4025 212.156 91.272 217.13 103.612Z" fill="black"/>
<path d="M233.509 80.7067C224.387 74.9725 219.946 76.1053 216.091 87.3796C222.698 81.4973 226.587 80.2554 233.509 80.7067Z" fill="white"/>
<path d="M173.276 62.1826C169.475 64.0867 166.607 68.8801 164.663 76.0553M157.985 18.8563C154.235 28.9763 152.627 35.2028 149.627 47.5563M156.398 17.4419C153.008 28.4023 151.389 34.3773 148.582 46.9664M153.572 16.261C150.247 27.6028 149.018 34.0865 146.724 45.7869M152.063 14.9644C148.812 28.1795 147.554 34.6476 145.718 45.0794M173.315 57.1268C169.759 57.5358 165.416 62.6219 162.73 72.1683M172.781 54.2966C169.222 54.2917 164.684 60.5853 161.881 69.8134M172.396 51.2365C168.838 51.2317 163.563 58.8186 160.76 68.0467M171.867 48.0077C168.308 47.9554 162.727 56.383 159.91 65.5737M171.146 44.9842C167.669 45.0702 161.913 54.3269 159.06 63.4061M170.338 41.422C166.781 41.6988 160.779 52.1247 158.055 61.571M169.275 37.9576C165.721 38.5226 159.845 50.1413 157.205 59.8042M168.618 35.2272C165.06 35.2224 159.043 48.5742 156.239 57.8023M167.459 32.166C163.901 32.1612 158.038 46.6899 155.234 55.918M166.068 29.5758C162.51 29.571 157.071 44.924 154.268 54.1522M165.141 26.9851C161.583 26.9802 155.911 43.1567 153.108 52.3848M163.439 25.1005C159.881 25.0957 154.906 41.7439 152.102 50.972M160.925 22.3891C157.627 27.9149 154.056 40.094 151.252 49.3221M150.596 14.7254C148.009 25.062 146.736 31.6018 144.716 44.8411M148.97 14.723C146.646 25.867 145.344 32.4074 143.709 44.8397M147.421 14.7208C145.218 26.8273 144.028 33.4533 142.663 44.8381M145.794 14.7184C143.985 26.3514 142.78 32.9464 141.656 44.8366M144.205 15.7751C142.655 26.2347 141.416 32.5687 140.533 44.835M142.655 16.5965C141.272 27.6582 140.012 33.8128 139.371 44.8333M138.404 43.6551C138.933 33.6256 139.949 27.9325 141.105 17.6533M139.747 19.4164C138.822 28.2929 137.862 33.1478 137.555 41.4181M138.118 21.7675C137.563 29.7025 136.906 33.7722 136.782 40.0049M136.76 24.1189C136.336 30.3844 135.872 33.6286 135.854 38.5914M135.284 28.1177C135.14 32.1039 134.943 34.144 134.964 37.2957M134.158 30.4695L134.073 37.2944M159.687 20.3877C155.922 28.1486 153.123 38.1467 150.479 48.2627M173.441 59.7099C169.893 60.604 166.232 64.7786 163.689 74.6847M173.353 62.5346C174.584 33.5889 151.849 -2.33494 137.221 23.2963C137.221 23.2963 133.421 33.1416 130.159 35.1709M147.731 46.0228C149.93 35.7956 151.231 28.9915 154.967 16.2621M133.184 32.1153L133.101 37.0635M132.253 33.5262L132.095 36.3536" stroke="white" stroke-width="0.5"/>
<g filter="url(#filter1_f_1011_196)">
<path d="M289.013 228.587C280.968 238.84 270.285 243.78 258.033 241.489" stroke="#3F220E" stroke-width="1.5"/>
</g>
<g filter="url(#filter2_f_1011_196)">
<path d="M89.186 484.85C94.7747 493.867 101.612 499.484 109.955 502.026C121.467 513.481 133.557 519.527 148.317 522.327C160.476 528.384 173.163 530.885 188.075 531.311M91.5396 386.812C99.2723 396.914 106.666 403.313 114.515 406.039C121.771 416.211 130.434 421.136 142.121 420.669C151.204 429.015 162.219 432.101 176.554 429.857M86.3999 294.696C96.8403 311.385 107.478 316.988 119.064 317.538C130.51 328.036 142.461 330.388 158.704 327.807" stroke="#3C220E" stroke-linecap="round"/>
</g>
<path d="M78.5842 259.842C54.6675 263.629 41.1454 264.119 17.8889 264.963L16.9036 264.999C13.9345 264.999 11.4053 265.987 9.42316 267.698C6.31079 270.385 4.54724 274.854 4.54724 280.073C-0.126282 298.293 -0.615234 316.002 4.54724 362.377L7.47754 362.377C-0.847961 434.171 -0.0535274 471.827 7.47754 536.075C7.47754 544.619 13.6639 551.546 21.2951 551.546C42.8018 559.234 55.3854 560.084 78.5842 556.703C86.2154 556.703 92.4018 549.776 92.4018 541.232C95.2087 519.4 96.5881 486.357 96.5881 486.357C158.454 491.759 234.526 455.612 283.877 424.677C295.585 417.339 305.553 410.373 313.123 404.443C322.427 397.155 328.109 391.43 328.948 388.499C330.602 377.015 328.922 371.285 327.713 360.393C325.326 363.343 321.109 367.34 315.37 372.047L311.631 401.045L313.123 404.443C305.553 410.373 295.585 417.339 283.877 424.677L281.746 420.459L274.875 420.459L260.247 408.959C212.034 436.507 151.18 462.422 96.5881 459.609C92.9691 458.806 91.5346 389.604 92.4018 342.396C169.424 308.919 265.852 283.281 314.945 305.137L309.579 290.873C254.928 270.98 170.819 292.159 92.4018 326.928C95.0597 307.672 95.2959 296.451 92.4018 275.312C92.4018 266.768 86.2154 259.842 78.5842 259.842Z" fill="url(#paint3_linear_1011_196)"/>
<g filter="url(#filter3_d_1011_196)">
<path d="M21.2951 551.138C13.6639 551.138 7.47751 544.212 7.47751 535.668C-0.0535439 471.419 -0.847959 433.763 7.47751 361.97L4.54722 361.97C-0.615241 315.594 -0.126307 297.885 4.54722 279.666C4.54722 274.446 6.31079 269.978 9.42315 267.291" stroke="#87936C" stroke-width="0.5"/>
</g>
<path d="M89.1775 267.12C89.2159 273.419 16.8369 275.037 17.4175 275.177C23.2081 276.573 25.4475 355.242 16.574 358.662C11.5821 360.586 6.53254 362.301 6.53254 362.301M81.7535 382.475C56.6292 391.114 42.5419 390.751 17.4175 382.475M71.497 438.314C56.3786 443.439 47.4734 443.88 30.4712 438.314M58.4433 489.291L43.7953 497.902M58.4433 451.77L43.7954 460.381" stroke="#5A391A" stroke-width="3" stroke-linecap="round"/>
<path d="M310.031 318.982C319.497 360.141 313.961 392.502 311.71 400.85C311.71 400.85 282.638 425.307 272.76 418.694C262.882 412.081 252.94 407.302 240.712 362.95M252.356 470.68C259.802 512.407 274.313 524.373 279.542 530.616C279.542 530.616 314.896 536.948 321.15 525.797C327.403 514.646 331.6 505.484 325.385 459.441M292.617 540.467C297.699 603.412 282.426 637.213 276.002 641.112C276.002 641.112 255.981 647.732 242.261 642.206C225.855 635.598 222.146 571.681 222.146 571.681" stroke="#3C220E" stroke-width="1.5" stroke-linecap="round"/>
<path d="M292.39 460.086C306.269 484.228 307.159 458.817 296.303 431.443C312.082 438.807 317.178 463.991 309.027 456.288C319.275 465.973 320.34 452.904 309.759 421.433C330.989 440.948 329.685 450.495 320.035 455.28C348.416 455.521 321.574 416.602 313.049 401.293L279.674 420.598C289.126 444.962 307.486 469.515 292.39 460.086Z" fill="#3C220E"/>
<path d="M283.899 699.373C297.571 694.056 318.138 668.257 330.23 638.104C312.24 641.675 293.499 641.036 278.602 641.891C267.749 651.265 250.483 650.574 237.459 641.891C189.458 638.321 144.861 624.48 92.1567 616.528C93.6389 644.763 102.113 708.545 131.558 733.681C189.895 712.763 212.241 676.828 283.899 699.373Z" fill="url(#paint4_linear_1011_196)"/>
<path d="M269.386 657.785C273.664 672.817 287.159 688.611 277.069 683.429C284.951 698.831 288.976 666.494 276.909 641.304L240.966 642.304C236.482 673.165 243.069 699.349 230.264 689.542C231.621 704.283 257.298 690.481 255.632 658.893C257.847 675.474 268.972 689.216 254.133 690.454C254.133 690.454 270.108 699.825 269.386 657.785Z" fill="#3C220E"/>
<path d="M313.166 579.233C326.217 587.587 326.121 560.401 320.783 529.973L278.862 531.018C275.519 547.524 302.689 578.627 284.731 582.971C296.047 586.513 298.943 571.161 293.348 552.63C307.806 563.785 303.284 588.948 296.393 580.15C299.387 597.217 315.529 572.382 305.917 553.016C322.192 569.723 321.388 580.383 313.166 579.233Z" fill="#3C220E"/>
<g filter="url(#filter4_f_1011_196)">
<path d="M238.662 364.03C248.563 397.473 256.308 417.51 273.913 419.952C286.974 446.236 294.62 446.702 299.427 461.955M252.34 471.919C258.167 494.565 260.561 515.603 276.995 531.409C270.131 534.701 293.883 572.763 288.314 579.345M223.436 572.712C223.436 603.984 229.814 638.681 241.061 641.425C241.061 645.606 239.806 674.45 238.282 688.381M296.665 431.405L312.276 461.955M309.704 419.952L323.609 449.748M294.542 553.004C297.985 563.382 301.69 572.712 299.427 579.345M306.368 553.004C311.743 563.552 316.799 568.167 317.467 575.654M254.211 657.925L258.385 688.381M268.767 657.925L278.968 683.393" stroke="#3C220E" stroke-width="2"/>
</g>
<defs>
<filter id="filter0_f_1011_196" x="140.226" y="726.485" width="50.4036" height="30.1938" filterUnits="userSpaceOnUse" color-interpolation-filters="sRGB">
<feFlood flood-opacity="0" result="BackgroundImageFix"/>
<feBlend mode="normal" in="SourceGraphic" in2="BackgroundImageFix" result="shape"/>
<feGaussianBlur stdDeviation="1.5" result="effect1_foregroundBlur_1011_196"/>
</filter>
<filter id="filter1_f_1011_196" x="253.942" y="224.09" width="39.6571" height="22.7117" filterUnits="userSpaceOnUse" color-interpolation-filters="sRGB">
<feFlood flood-opacity="0" result="BackgroundImageFix"/>
<feBlend mode="normal" in="SourceGraphic" in2="BackgroundImageFix" result="shape"/>
<feGaussianBlur stdDeviation="2" result="effect1_foregroundBlur_1011_196"/>
</filter>
<filter id="filter2_f_1011_196" x="81.9065" y="290.189" width="110.662" height="245.628" filterUnits="userSpaceOnUse" color-interpolation-filters="sRGB">
<feFlood flood-opacity="0" result="BackgroundImageFix"/>
<feBlend mode="normal" in="SourceGraphic" in2="BackgroundImageFix" result="shape"/>
<feGaussianBlur stdDeviation="2" result="effect1_foregroundBlur_1011_196"/>
</filter>
<filter id="filter3_d_1011_196" x="0.606445" y="266.602" width="21.6887" height="285.287" filterUnits="userSpaceOnUse" color-interpolation-filters="sRGB">
<feFlood flood-opacity="0" result="BackgroundImageFix"/>
<feColorMatrix in="SourceAlpha" type="matrix" values="0 0 0 0 0 0 0 0 0 0 0 0 0 0 0 0 0 0 127 0" result="hardAlpha"/>
<feOffset dx="0.5"/>
<feGaussianBlur stdDeviation="0.25"/>
<feComposite in2="hardAlpha" operator="out"/>
<feColorMatrix type="matrix" values="0 0 0 0 0.45098 0 0 0 0 0.435294 0 0 0 0 0.435294 0 0 0 0.36 0"/>
<feBlend mode="normal" in2="BackgroundImageFix" result="effect1_dropShadow_1011_196"/>
<feBlend mode="normal" in="SourceGraphic" in2="effect1_dropShadow_1011_196" result="shape"/>
</filter>
<filter id="filter4_f_1011_196" x="216.436" y="357.746" width="114.079" height="336.77" filterUnits="userSpaceOnUse" color-interpolation-filters="sRGB">
<feFlood flood-opacity="0" result="BackgroundImageFix"/>
<feBlend mode="normal" in="SourceGraphic" in2="BackgroundImageFix" result="shape"/>
<feGaussianBlur stdDeviation="3" result="effect1_foregroundBlur_1011_196"/>
</filter>
<linearGradient id="paint0_linear_1011_196" x1="106.797" y1="688.568" x2="380.896" y2="634.541" gradientUnits="userSpaceOnUse">
<stop stop-color="#BE6655"/>
<stop offset="1" stop-color="#C77A6B"/>
</linearGradient>
<linearGradient id="paint1_linear_1011_196" x1="239.647" y1="774.958" x2="284.427" y2="704.724" gradientUnits="userSpaceOnUse">
<stop offset="0.330206" stop-color="#437068"/>
<stop offset="1" stop-color="#50867D"/>
</linearGradient>
<linearGradient id="paint2_linear_1011_196" x1="93.4259" y1="405.11" x2="335.435" y2="347.616" gradientUnits="userSpaceOnUse">
<stop stop-color="#C06959"/>
<stop offset="1" stop-color="#C87D6F"/>
</linearGradient>
<linearGradient id="paint3_linear_1011_196" x1="0.856512" y1="409.215" x2="338.556" y2="401.262" gradientUnits="userSpaceOnUse">
<stop stop-color="#5B614C"/>
<stop offset="0.258853" stop-color="#686F58"/>
<stop offset="0.297376" stop-color="#596148"/>
<stop offset="1" stop-color="#7A8462"/>
</linearGradient>
<linearGradient id="paint4_linear_1011_196" x1="194.129" y1="701.015" x2="340.784" y2="652.467" gradientUnits="userSpaceOnUse">
<stop stop-color="#4B7835"/>
<stop offset="1" stop-color="#51833A"/>
</linearGradient>
</defs>
</svg>
