<svg viewBox="0 0 360 517" fill="none" xmlns="http://www.w3.org/2000/svg">
<path d="M1.38234 436.893L1.38232 79.903" stroke="#FFD900" opacity="0.075"/>
<path d="M103.874 258.4L73.9994 186.276M103.874 258.4L73.9994 330.524M103.874 258.4L95.1822 258.4M103.874 258.4H105.43M155.007 258.4L110.196 150.214M155.007 258.4L110.196 366.585M155.007 258.4L180.373 258.4M155.007 258.4L114.383 258.4M52.8749 258.4L37.9375 222.338M52.8749 258.4L37.9375 294.462M52.8749 258.4H49.4477M52.8749 258.4H64.1232M37.9375 294.462L73.9994 330.524M37.9375 294.462L1.87573 309.399M37.9375 294.462L1.99628 258.521M73.9994 330.524L110.196 366.585M73.9994 330.524L1.87573 360.398M110.196 366.585L2.01009 411.397M110.196 366.585L128.092 384.616M2.01009 105.403L110.196 150.214M1.87573 156.402L73.9994 186.276M1.87573 207.401L37.9375 222.338M110.196 150.214L73.9994 186.276M110.196 150.214L128.092 132.184M73.9994 186.276L37.9375 222.338M37.9375 222.338L1.99628 258.279M1.95596 390.851C44.7914 389.602 80.3238 368.113 102.154 329.275C64.1912 359.436 49.8563 369.286 8.15004 369.286C6.08243 369.286 3.9968 369.209 1.89854 369.057M1.87573 287.151C4.12297 284.644 5.90541 281.564 7.2231 277.913C9.53252 271.635 10.8043 265.045 11.4395 258.4M1.87573 272.975C2.66269 268.156 3.1259 263.27 3.44722 258.4M1.87573 221.877C3.03959 227.202 3.69008 234.203 3.82729 242.882C3.91025 248.129 3.78361 253.302 3.44722 258.4M1.87573 219.182C3.12741 218.2 4.29692 217.699 5.38271 217.678C6.62593 217.654 7.7096 218.782 8.63371 221.063C9.55782 223.343 10.2249 226.254 10.6364 229.798C11.3888 236.19 11.8066 241.997 11.8892 247.218C11.9478 250.923 11.7979 254.651 11.4395 258.4M1.87573 162.422C36.2123 160.738 68.3318 185.822 78.4228 206.664L99.159 174.198C73.8484 141.061 42.0147 124.77 1.95595 125.951M3.44722 258.4H11.4395M3.44722 258.4H1.99628M11.4395 258.4L21.5007 258.4M21.5007 258.4C19.8766 263.348 19.1061 268.445 19.189 273.692C19.2738 279.053 20.82 283.271 23.8294 286.346C26.8958 289.351 30.5014 290.814 34.6439 290.734C40.5038 290.621 45.3351 289.136 49.1379 286.277C52.9994 283.347 55.096 280.173 55.6342 276.751C54.7398 276.35 53.9667 276.156 53.3156 276.168C51.54 276.202 49.715 277.804 47.6336 280.978C46.8224 282.108 45.4777 283.179 43.5988 284.19C41.7797 285.2 39.3902 285.733 36.4312 285.79C33.4713 285.847 30.8791 284.749 28.6528 282.493C26.4855 280.237 25.3688 277.021 25.3027 272.843C25.295 272.357 25.3399 271.415 25.4359 270.021C27.3357 270.332 28.9658 270.475 30.327 270.449C35.4767 270.35 40.2993 268.307 44.7945 264.32C46.7935 262.54 48.3445 260.566 49.4477 258.4M21.5007 258.4C23.1197 253.468 25.6976 248.816 29.2141 244.983C32.59 241.297 36.0233 239.421 39.5155 239.353C43.0666 239.285 45.9214 240.1 48.08 241.8C50.2964 243.428 51.4304 245.879 51.4822 249.15C51.5359 252.548 50.8577 255.631 49.4477 258.4M21.5007 258.4H27.6836M27.6836 258.4C26.9 260.773 26.2755 263.182 25.8104 265.627C28.4247 266.203 30.5304 266.475 32.129 266.444C34.9103 266.391 37.3803 265.299 39.5365 263.168C41.0969 261.627 42.3157 260.037 43.1928 258.4M27.6836 258.4C28.5579 255.752 29.6304 253.15 30.9011 250.591C33.3706 245.739 36.0844 243.284 39.0442 243.227C40.701 243.195 42.163 243.898 43.4285 245.336C44.6938 246.704 45.3412 248.329 45.371 250.208C45.4153 253.015 44.5153 255.931 43.1928 258.4M27.6836 258.4L43.1928 258.4M43.1928 258.4L49.4477 258.4M64.1232 258.4C64.002 265.658 63.9665 270.89 64.0172 274.096C64.0833 278.273 65.3846 281.973 67.9227 285.197C70.5191 288.42 73.6817 289.996 77.4106 289.924C81.1984 289.851 84.4847 288.012 87.2696 284.406C90.0545 280.801 92.0906 276.619 93.3769 271.858C94.522 267.556 95.1238 263.069 95.1822 258.4M64.1232 258.4C64.1625 256.044 64.2108 253.476 64.2682 250.693C64.5021 239.269 64.58 231.084 64.5019 226.142C64.4226 221.13 64.302 217.232 64.1392 214.45C64.8259 212.905 66.116 212.114 68.0095 212.077C68.4239 212.069 68.8394 212.131 69.256 212.262C69.4323 215.949 69.655 226.251 69.9224 243.168C69.9803 243.097 70.2415 242.779 70.7061 242.212C71.2304 241.645 71.5501 241.291 71.6666 241.149C71.7823 241.008 72.0731 240.689 72.5396 240.193C73.0041 239.627 73.3533 239.271 73.5878 239.128C73.8809 238.913 74.2614 238.628 74.7293 238.271C75.1961 237.844 75.6061 237.557 75.9585 237.411C76.3107 237.195 76.7218 236.979 77.1918 236.761C78.0741 236.396 79.1073 236.201 80.2907 236.179C84.6707 236.094 88.2264 238.184 90.958 242.449C94.0775 247.242 95.2529 252.748 95.1822 258.4M64.1232 258.4H71.0565M71.0565 258.4C70.5868 262.625 70.3896 267.119 70.4649 271.883C70.5662 278.287 71.7528 282.199 74.0249 283.617C75.0424 284.294 76.3512 284.686 77.9513 284.795C80.2592 284.751 82.3107 283.423 84.1046 280.812C88.6324 274.416 89.5776 266.029 89.3396 258.4M71.0565 258.4C71.3351 255.894 71.7095 253.484 72.1798 251.167C72.8381 247.881 73.8033 245.251 75.0747 243.278C76.345 241.233 77.8384 240.195 79.5542 240.162C82.5729 240.104 84.9419 242.008 86.6604 245.875C88.2995 249.496 89.192 253.671 89.3396 258.4M71.0565 258.4L89.3396 258.4M89.3396 258.4H95.1822M105.43 258.4C104.339 256.556 103.774 254.37 103.734 251.84C103.667 247.594 105.24 244.117 108.453 241.409C111.667 238.7 115.67 237.3 120.465 237.207C123.72 237.145 126.666 238.098 129.302 240.067C131.996 241.964 133.373 244.793 133.432 248.552C133.472 251.059 132.278 252.334 129.851 252.381C128.846 252.401 128.162 252.206 127.8 251.794C127.497 251.382 127.308 250.655 127.233 249.612C127.215 248.498 127.143 247.698 127.017 247.213C126.459 245.622 125.433 244.389 123.939 243.513C122.445 242.636 120.603 242.219 118.413 242.261C116.223 242.304 114.164 243.109 112.235 244.678C110.365 246.246 109.45 248.318 109.491 250.894C109.546 254.375 111.478 256.785 114.383 258.4M105.43 258.4L114.383 258.4M105.43 258.4C107.121 261.258 110.147 263.281 113.255 264.296C115.874 265.151 118.462 265.937 121.019 266.653C123.635 267.369 125.842 268.371 127.638 269.659C129.494 270.947 130.439 272.67 130.473 274.827C130.53 278.378 129.149 280.981 126.334 282.637C124.808 283.502 122.98 283.955 120.849 283.996C116.883 284.073 112.981 282.511 109.142 279.313C107.881 278.222 106.866 277.685 106.096 277.699C103.492 277.75 102.204 278.68 102.233 280.49C102.271 282.926 104.494 284.973 108.902 286.629C113.368 288.284 116.963 289.085 119.686 289.032C124.302 288.943 128.219 287.649 131.435 285.15C134.711 282.649 136.313 279.067 136.239 274.403C136.188 271.2 135.23 268.642 133.364 266.729C131.557 264.744 129.344 263.359 126.727 262.573C124.109 261.719 121.491 260.934 118.875 260.218C117.234 259.758 115.736 259.152 114.383 258.4" stroke="#FFD900" stroke-width="2" opacity="0.075"/>
<path d="M1.38232 515.863H358.372" stroke="#FFD900" opacity="0.075"/>
<path d="M281.878 0.901108L252.003 73.0248M333.011 0.901062L288.199 109.087M230.878 0.901138L215.941 36.963M215.941 36.963L252.003 73.0248M215.941 36.963L179.879 51.9003M215.941 36.963L179.917 0.938744M252.003 73.0248L288.199 109.087M252.003 73.0248L179.879 102.899M288.199 109.087L180.014 153.899M288.199 109.087L306.096 127.118M179.879 102.899V51.9003M179.879 102.899L107.756 73.0248M179.879 102.899L179.902 111.558M180.014 153.899L71.8281 109.087M180.014 153.899L179.879 179.398M180.014 153.899L179.959 133.353M179.879 51.9003L143.817 36.963M179.879 51.9003V29.6519M143.817 36.963L107.756 73.0248M143.817 36.963L128.88 0.901138M143.817 36.963L179.842 0.938744M107.756 73.0248L71.8281 109.087M107.756 73.0248L77.881 0.901108M71.8281 109.087L27.0162 0.901062M71.8281 109.087L53.6629 127.118M179.959 133.353C175.125 133.494 170.198 133.377 165.187 132.998C102.375 128.254 52.5022 79.0731 47.5307 11.5286C47.2679 7.95754 47.1569 4.41336 47.1916 0.901077M179.959 133.353C222.795 132.103 258.327 110.615 280.158 71.776C242.195 101.937 227.86 111.787 186.154 111.787C184.086 111.787 182 111.71 179.902 111.558M179.959 133.353L179.902 111.558M179.902 111.558C138.516 108.549 92.2161 76.0883 82.3471 22.9862C81.284 15.4662 81.0196 8.08122 81.4913 0.901108M179.879 29.6519C182.126 27.1448 183.909 24.0656 185.227 20.4141C187.536 14.1364 188.808 7.54622 189.443 0.901184M179.879 29.6519V15.4763M179.879 29.6519C176.658 33.2462 172.331 35.495 167.439 35.5893C164.715 35.5724 162.247 34.8539 160.034 33.4339C157.878 31.9443 156.134 30.202 154.8 28.208C153.465 26.1447 152.239 23.452 151.12 20.1319C149.506 15.3576 148.107 9.25618 146.923 1.82854C144.599 12.1095 142.61 19.2157 140.955 23.1472C136.901 32.627 131.205 37.4718 123.867 37.6826C119.133 37.7738 115.549 35.8232 113.118 31.8317C110.989 28.2516 109.606 23.1944 108.971 16.661C108.749 13.8796 108.61 10.714 108.554 7.16328C108.523 5.17089 108.537 3.0835 108.596 0.901123M179.879 15.4763C179.117 20.1453 177.913 23.9378 176.27 26.8539C174.485 30.0218 172.142 31.6338 169.242 31.6897C166.401 31.7444 163.868 30.6793 161.643 28.4944C159.417 26.2391 157.714 23.4168 156.536 20.0275C155.416 16.6361 154.463 12.511 153.676 7.65237C153.385 5.71268 153.109 3.4623 152.846 0.901169M179.879 15.4763C180.666 10.6572 181.129 5.7711 181.451 0.901184M179.879 15.4763V0.938744M115.31 0.901123C115.304 5.89692 115.425 10.9323 115.974 15.8997C116.378 18.9552 116.957 21.8694 117.711 24.6397C118.464 27.3415 119.534 29.4793 120.921 31.054C122.367 32.6286 124.036 33.3972 125.931 33.3607C128.653 33.3082 131.023 31.5213 133.039 28.0011C135.115 24.4787 136.701 19.9915 137.8 14.5387C138.698 10.0141 139.477 5.46791 140.137 0.901154M199.504 0.901169C197.88 5.84878 197.11 10.9462 197.193 16.1934C197.277 21.5541 198.824 25.7718 201.833 28.8474C204.899 31.8525 208.505 33.3151 212.647 33.2353C218.507 33.1224 223.339 31.6369 227.141 28.7779C231.003 25.8484 233.1 22.6744 233.638 19.252C232.743 18.851 231.97 18.6568 231.319 18.6694C229.544 18.7036 227.719 20.3055 225.637 23.4792C224.826 24.6097 223.481 25.6801 221.602 26.6915C219.783 27.7007 217.394 28.2343 214.435 28.2914C211.475 28.3484 208.883 27.2498 206.656 24.9945C204.489 22.7381 203.372 19.522 203.306 15.3443C203.299 14.8578 203.343 13.9165 203.439 12.5222C205.339 12.8335 206.969 12.9765 208.33 12.9502C213.48 12.851 218.303 10.8078 222.798 6.82152C224.797 5.04081 226.348 3.06729 227.451 0.901138M205.687 0.901169C204.903 3.27423 204.279 5.68307 203.814 8.12782C206.428 8.70378 208.534 8.97636 210.133 8.94556C212.914 8.89196 215.384 7.79984 217.54 5.66924C219.1 4.12788 220.319 2.53864 221.196 0.901154M242.127 0.901138C242.005 8.15875 241.97 13.3908 242.021 16.5972C242.087 20.7741 243.388 24.4742 245.926 27.6986C248.523 30.9209 251.685 32.4971 255.414 32.4252C259.202 32.3522 262.488 30.513 265.273 26.9076C268.058 23.3022 270.094 19.1204 271.38 14.3597C272.526 10.0568 273.127 5.57023 273.186 0.901123M249.06 0.901138C248.59 5.12608 248.393 9.6202 248.468 14.384C248.57 20.7879 249.756 24.7003 252.028 26.1183C253.046 26.7953 254.355 27.1874 255.955 27.2962C258.263 27.2518 260.314 25.9239 262.108 23.3127C266.636 16.9176 267.581 8.53004 267.343 0.901123M283.433 0.901108C285.124 3.75895 288.151 5.78267 291.259 6.79701C293.877 7.6523 296.466 8.43787 299.022 9.15465C301.639 9.87027 303.845 10.8723 305.642 12.1607C307.498 13.4479 308.443 15.1709 308.477 17.3286C308.533 20.8793 307.153 23.4825 304.337 25.1383C302.811 26.0031 300.983 26.4565 298.852 26.4976C294.887 26.574 290.985 25.0121 287.145 21.8137C285.884 20.7232 284.87 20.1858 284.1 20.2006C281.496 20.2508 280.208 21.1814 280.236 22.9914C280.275 25.4276 282.498 27.4738 286.905 29.13C291.372 30.7852 294.966 31.586 297.689 31.5335C302.306 31.4446 306.223 30.1502 309.439 27.6513C312.715 25.1503 314.316 21.5686 314.243 16.9044C314.192 13.7014 313.234 11.1433 311.368 9.2299C309.56 7.24507 307.348 5.86063 304.731 5.07469C302.112 4.22034 299.495 3.43534 296.878 2.71971C295.237 2.25966 293.74 1.65353 292.387 0.901093" stroke="#FFD900" stroke-width="2" opacity="0.075"/>
<path d="M358.927 436.893V79.903" stroke="#FFD900" opacity="0.075"/>
<path d="M358.426 360.396L286.356 330.522M358.561 411.395L250.455 366.583M358.426 309.397L322.391 294.46M322.391 294.46L286.356 330.522M322.391 294.46L307.465 258.398M322.391 294.46L358.2 258.624M286.356 330.522L250.455 366.583M286.356 330.522L256.503 258.398M250.455 366.583L205.676 258.398M250.455 366.583L232.303 384.614M205.676 258.398L250.455 150.213M205.676 258.398L180.061 258.398M205.676 258.398L225.836 258.398M256.503 258.398L286.356 186.274M256.503 258.398L225.836 258.398M256.503 258.398H260.111M307.465 258.398L322.391 222.336M307.465 258.398L293.905 258.398M307.465 258.398L318.713 258.398M250.455 150.213L286.356 186.274M250.455 150.213L358.561 105.401M250.455 150.213L232.303 132.182M286.356 186.274L322.391 222.336M286.356 186.274L358.426 156.4M322.391 222.336L358.426 207.399M322.391 222.336L358.2 258.172M358.506 390.849C353.676 390.991 348.752 390.874 343.745 390.495C280.979 385.751 231.143 336.57 226.175 269.025C225.912 265.454 225.802 261.91 225.836 258.398M358.449 369.055C317.093 366.046 270.828 333.585 260.966 280.483C259.904 272.963 259.639 265.578 260.111 258.398M358.426 287.149C355.207 290.743 350.884 292.992 345.995 293.086C343.273 293.069 340.807 292.351 338.595 290.931C336.442 289.441 334.699 287.699 333.366 285.705C332.032 283.642 330.806 280.949 329.689 277.629C328.075 272.854 326.677 266.753 325.495 259.325C323.172 269.606 321.184 276.713 319.53 280.644C315.48 290.124 309.788 294.969 302.456 295.179C297.724 295.271 294.143 293.32 291.714 289.329C289.587 285.748 288.205 280.691 287.57 274.158C287.348 271.376 287.21 268.211 287.154 264.66C287.122 262.668 287.136 260.58 287.195 258.398M358.426 272.973C357.664 277.642 356.462 281.435 354.82 284.351C353.036 287.519 350.695 289.131 347.797 289.186C344.958 289.241 342.427 288.176 340.204 285.991C337.979 283.736 336.277 280.914 335.1 277.524C333.981 274.133 333.029 270.008 332.242 265.149C331.952 263.21 331.675 260.959 331.413 258.398M358.426 162.42C306.653 164.962 263.516 206.531 260.111 258.398M358.506 125.949C354.512 126.066 350.437 126.358 346.277 126.824C282.033 134.027 226.509 190.199 225.836 258.398M260.111 258.398L287.195 258.398M287.195 258.398C287.482 247.847 288.831 235.076 291.242 220.084C292.762 219.01 293.967 218.465 294.854 218.448C295.8 218.429 296.512 218.52 296.988 218.72C296.839 220.533 296.504 223.673 295.983 228.14C295.521 232.606 295.165 236.269 294.914 239.129C294.248 246.735 293.911 253.158 293.905 258.398M287.195 258.398H293.905M293.905 258.398C293.899 263.394 294.019 268.429 294.568 273.396C294.971 276.452 295.55 279.366 296.304 282.136C297.056 284.838 298.126 286.976 299.511 288.551C300.956 290.125 302.624 290.894 304.517 290.857C307.238 290.805 309.606 289.018 311.62 285.498C313.695 281.975 315.28 277.488 316.378 272.035C317.275 267.511 318.054 262.965 318.713 258.398M318.713 258.398L331.413 258.398M318.713 258.398C319.643 251.951 320.524 245.496 321.358 239.036C322.102 233.73 322.814 230.095 323.493 228.131C325.07 226.848 326.273 226.198 327.101 226.182C327.928 226.166 328.551 226.259 328.969 226.459C329.377 229.794 329.827 235.879 330.322 244.713C330.654 249.98 331.018 254.541 331.413 258.398M331.413 258.398L358.2 258.398M357.88 219.634C358.073 220.345 358.255 221.092 358.426 221.875V220.527V219.18C358.246 219.321 358.064 219.473 357.88 219.634Z" stroke="#FFD900" stroke-width="2" opacity="0.075"/>
<path d="M1.38623 0.502625H358.376" stroke="#FFD900" opacity="0.075"/>
<path d="M281.878 515.895L252.003 443.771M333.011 515.895L288.199 407.71M230.878 515.895L215.941 479.833M27.0162 515.895L71.8281 407.71M77.881 515.895L107.756 443.771M128.88 515.895L143.817 479.833M71.8281 407.71L107.756 443.771M71.8281 407.71L180.014 362.898M71.8281 407.71L53.6629 389.679M107.756 443.771L143.817 479.833M107.756 443.771L179.879 413.897M143.817 479.833L179.879 464.896M143.817 479.833L179.809 515.825M180.014 362.898L288.199 407.71M180.014 362.898L179.879 337.398M180.014 362.898L179.959 383.446M179.879 413.897L252.003 443.771M179.879 413.897V419.917M179.879 413.897L179.959 383.446M179.879 464.896L215.941 479.833M179.879 464.896V476.677M179.879 464.896V419.917M288.199 407.71L252.003 443.771M288.199 407.71L306.096 389.679M252.003 443.771L215.941 479.833M215.941 479.833L179.949 515.825M179.879 479.372C179.708 478.589 179.526 477.842 179.332 477.132C179.516 476.97 179.699 476.818 179.879 476.677M179.879 479.372C181.043 484.697 181.694 491.699 181.831 500.377C181.914 505.624 181.787 510.797 181.451 515.895M179.879 479.372V476.677M179.879 479.372V515.825M179.879 476.677C181.131 475.695 182.3 475.194 183.386 475.173C184.629 475.149 185.713 476.277 186.637 478.558C187.561 480.838 188.228 483.749 188.64 487.293C189.392 493.685 189.81 499.492 189.893 504.713C189.951 508.418 189.801 512.146 189.443 515.895M179.879 419.917C214.216 418.233 246.335 443.317 256.426 464.16L277.163 431.694C251.852 398.556 220.018 382.265 179.959 383.446M179.879 419.917C128.068 422.459 84.8989 464.028 81.4913 515.895M179.959 383.446C175.963 383.563 171.884 383.855 167.721 384.322C103.43 391.524 47.8646 447.696 47.1916 515.895M108.596 515.895C108.883 505.344 110.233 492.573 112.645 477.581C114.167 476.507 115.372 475.962 116.26 475.945C117.207 475.926 117.919 476.017 118.396 476.217C118.247 478.03 117.912 481.17 117.39 485.637C116.928 490.103 116.571 493.766 116.321 496.626C115.654 504.232 115.317 510.655 115.31 515.895M140.137 515.895C141.067 509.448 141.949 502.993 142.784 496.533C143.528 491.227 144.241 487.592 144.92 485.628C146.498 484.345 147.702 483.695 148.531 483.679C149.359 483.663 149.982 483.756 150.4 483.956C150.808 487.291 151.259 493.376 151.754 502.21C152.087 507.477 152.451 512.038 152.846 515.895M199.504 515.895C201.123 510.963 203.701 506.311 207.218 502.478C210.594 498.792 214.027 496.916 217.519 496.849C221.07 496.78 223.925 497.595 226.083 499.295C228.3 500.923 229.434 503.374 229.486 506.645C229.539 510.043 228.861 513.126 227.451 515.895M205.687 515.895C206.561 513.248 207.634 510.645 208.905 508.086C211.374 503.234 214.088 500.779 217.048 500.722C218.705 500.69 220.167 501.393 221.432 502.831C222.697 504.199 223.345 505.824 223.374 507.703C223.419 510.51 222.519 513.426 221.196 515.895M242.127 515.895C242.166 513.54 242.214 510.971 242.272 508.189C242.506 496.764 242.584 488.579 242.505 483.637C242.426 478.625 242.306 474.727 242.143 471.945C242.829 470.4 244.12 469.609 246.013 469.572C246.427 469.564 246.843 469.626 247.26 469.757C247.436 473.444 247.658 483.747 247.926 500.663C247.984 500.592 248.245 500.274 248.71 499.707C249.234 499.14 249.554 498.786 249.67 498.644C249.786 498.503 250.077 498.185 250.543 497.688C251.008 497.122 251.357 496.767 251.591 496.623C251.884 496.409 252.265 496.123 252.733 495.766C253.2 495.339 253.61 495.052 253.962 494.906C254.314 494.69 254.725 494.474 255.195 494.256C256.078 493.891 257.111 493.697 258.294 493.674C262.674 493.589 266.23 495.679 268.962 499.944C272.081 504.737 273.256 510.243 273.186 515.895M249.06 515.895C249.339 513.39 249.713 510.979 250.183 508.662C250.842 505.376 251.807 502.747 253.078 500.773C254.349 498.729 255.842 497.69 257.558 497.657C260.576 497.599 262.945 499.503 264.664 503.37C266.303 506.991 267.196 511.166 267.343 515.895M283.433 515.895C282.343 514.051 281.777 511.865 281.737 509.335C281.67 505.089 283.244 501.612 286.457 498.904C289.67 496.195 293.674 494.795 298.468 494.702C301.724 494.64 304.669 495.593 307.305 497.562C310 499.459 311.377 502.288 311.436 506.047C311.476 508.554 310.282 509.83 307.855 509.876C306.849 509.896 306.165 509.701 305.803 509.289C305.501 508.877 305.312 508.15 305.236 507.107C305.219 505.993 305.147 505.193 305.021 504.708C304.463 503.118 303.437 501.884 301.942 501.008C300.449 500.131 298.606 499.714 296.417 499.756C294.227 499.799 292.167 500.604 290.238 502.173C288.369 503.741 287.454 505.813 287.495 508.389C287.55 511.87 289.482 514.28 292.387 515.895" stroke="#FFD900" stroke-width="2" opacity="0.075"/>
</svg>
