<svg viewBox="0 0 358 358" fill="none" xmlns="http://www.w3.org/2000/svg">
<path d="M281.387 178.563L251.513 106.439M281.387 178.563L251.513 250.687M281.387 178.563L332.521 178.563M281.387 178.563L230.388 178.563M332.521 178.563L287.709 70.3774M332.521 178.563L287.709 286.748M332.521 178.563L357.886 178.563M179.389 178.563L215.451 214.625M179.389 178.563L143.327 214.625M179.389 178.563L143.327 142.501M179.389 178.563L215.451 142.501M179.389 178.563L230.388 178.563M179.389 178.563L128.39 178.563M179.389 178.563V229.562M179.389 178.563V127.564M230.388 178.563L215.451 142.501M230.388 178.563L215.451 214.625M215.451 214.625L251.513 250.687M215.451 214.625L179.389 229.562M251.513 250.687L287.709 286.748M251.513 250.687L179.389 280.561M287.709 286.748L179.523 331.56M287.709 286.748L305.606 304.779M179.389 280.561V229.562M179.389 280.561L107.265 250.687M179.389 280.561L179.523 331.56M179.523 331.56L71.338 286.748M179.523 331.56L179.389 357.06M179.389 229.562L143.327 214.625M143.327 214.625L107.265 250.687M143.327 214.625L128.39 178.563M107.265 250.687L71.338 286.748M107.265 250.687L77.3909 178.563M71.338 286.748L26.5261 178.563M71.338 286.748L53.1727 304.779M26.5261 178.563L71.338 70.3774M26.5261 178.563L0.892212 178.563M26.5261 178.563L77.3909 178.563M77.3909 178.563L107.265 106.439M77.3909 178.563L128.39 178.563M128.39 178.563L143.327 142.501M71.338 70.3774L107.265 106.439M71.338 70.3774L179.523 25.5655M71.338 70.3774L53.1728 52.3465M107.265 106.439L143.327 142.501M107.265 106.439L179.389 76.5646M143.327 142.501L179.389 127.564M179.523 25.5655L287.709 70.3774M179.523 25.5655L179.389 0.065918M179.523 25.5655L179.389 76.5646M179.389 76.5646L251.513 106.439M179.389 76.5646V127.564M179.389 127.564L215.451 142.501M287.709 70.3774L251.513 106.439M287.709 70.3774L305.606 52.3465M251.513 106.439L215.451 142.501" stroke="black" stroke-width="2"/>
<path d="M47.0406 189.19C52.012 256.735 101.885 305.916 164.697 310.66C169.819 311.047 174.853 311.16 179.791 311.005C222.482 309.657 257.892 288.179 279.668 249.438C241.705 279.599 227.37 289.449 185.663 289.449C183.72 289.449 181.761 289.381 179.791 289.246C138.308 286.408 91.7561 253.912 81.8569 200.648C80.8432 193.477 80.5582 186.427 80.9405 179.563C83.858 127.175 125.641 85.5513 178.982 82.6064C179.251 82.5915 179.521 82.5782 179.791 82.5666C213.976 81.096 245.885 106.066 255.936 126.827L276.672 94.3613C251.429 61.3121 219.698 45.02 179.791 46.1044C175.691 46.2157 171.505 46.5105 167.231 46.9893C102.626 54.2269 46.8319 110.914 46.6956 179.563C46.6892 182.747 46.8027 185.958 47.0406 189.19Z" fill="black" stroke="black" stroke-width="2"/>
<path d="M117.906 138.885C117.757 140.698 117.421 143.838 116.9 148.304C116.438 152.771 116.081 156.434 115.831 159.294C115.165 166.885 114.828 173.297 114.82 178.531C114.819 179.213 114.824 179.875 114.834 180.516C114.922 186.086 115.138 190.434 115.484 193.561C115.887 196.617 116.467 199.531 117.221 202.301C117.974 205.003 119.044 207.141 120.431 208.716C121.877 210.29 123.546 211.059 125.441 211.022C128.163 210.97 130.533 209.183 132.549 205.663C134.625 202.14 136.211 197.653 137.31 192.2C138.21 187.665 138.991 183.109 139.651 178.531C139.795 177.535 139.933 176.537 140.065 175.539C140.865 169.953 141.608 164.507 142.294 159.201C143.038 153.894 143.751 150.26 144.43 148.296C146.008 147.013 147.212 146.363 148.041 146.347C148.869 146.331 149.492 146.424 149.91 146.624C150.318 149.959 150.769 156.044 151.264 164.878C151.596 170.13 151.958 174.681 152.353 178.531C152.616 181.106 152.894 183.366 153.186 185.314C153.973 190.173 154.926 194.298 156.046 197.689C157.224 201.079 158.927 203.901 161.153 206.156C163.378 208.341 165.911 209.406 168.752 209.351C171.652 209.295 173.995 207.683 175.78 204.516C177.565 201.348 178.831 197.145 179.577 191.908C180.204 187.508 180.665 183.049 180.963 178.531C181.298 173.443 181.423 168.281 181.341 163.045C181.206 154.5 180.573 147.581 179.443 142.287C179.256 141.414 179.056 140.584 178.842 139.799C179.044 139.622 179.245 139.456 179.443 139.303C180.674 138.349 181.826 137.862 182.896 137.841C184.139 137.817 185.223 138.945 186.147 141.225C187.071 143.505 187.738 146.417 188.15 149.961C188.902 156.353 189.32 162.159 189.403 167.381C189.461 171.076 189.312 174.793 188.956 178.531C188.809 180.075 188.626 181.622 188.409 183.173C187.663 188.479 186.439 193.447 184.737 198.076C183.429 201.698 181.665 204.758 179.443 207.254C178.868 207.899 178.264 208.506 177.628 209.076C174.592 211.781 171.033 213.172 166.949 213.251C164.225 213.234 161.757 212.516 159.543 211.096C157.388 209.606 155.644 207.864 154.31 205.87C152.975 203.806 151.749 201.114 150.63 197.794C149.015 193.019 147.616 186.918 146.433 179.49C144.109 189.771 142.12 196.877 140.465 200.809C136.411 210.289 130.715 215.133 123.377 215.344C118.643 215.436 115.059 213.485 112.628 209.493C110.499 205.913 109.116 200.856 108.48 194.323C108.259 191.541 108.12 188.376 108.064 184.825C108.032 182.823 108.047 180.725 108.107 178.531C108.396 167.986 109.745 155.226 112.155 140.249C113.677 139.175 114.882 138.629 115.77 138.612C116.717 138.594 117.429 138.685 117.906 138.885Z" fill="black"/>
<path d="M202.949 190.184C202.853 191.578 202.808 192.519 202.816 193.006C202.882 197.184 203.999 200.4 206.166 202.656C208.393 204.911 210.985 206.01 213.945 205.953C216.904 205.896 219.293 205.362 221.112 204.353C222.991 203.342 224.336 202.271 225.147 201.141C227.228 197.967 229.053 196.365 230.829 196.331C231.48 196.318 232.253 196.513 233.148 196.914C232.609 200.336 230.513 203.51 226.651 206.44C222.849 209.299 218.017 210.784 212.157 210.897C208.015 210.977 204.409 209.514 201.343 206.509C198.333 203.433 196.787 199.216 196.702 193.855C196.619 188.597 197.393 183.489 199.024 178.531C199.056 178.436 199.088 178.34 199.12 178.245C200.874 173.128 203.41 168.761 206.727 165.146C210.103 161.459 213.537 159.584 217.029 159.516C220.58 159.448 223.435 160.263 225.593 161.963C227.81 163.591 228.944 166.041 228.996 169.313C229.049 172.698 228.376 175.771 226.977 178.531C225.873 180.71 224.317 182.694 222.308 184.483C217.813 188.469 212.99 190.513 207.84 190.612C206.479 190.638 204.849 190.495 202.949 190.184ZM209.642 186.607C212.424 186.554 214.894 185.462 217.05 183.331C218.62 181.78 219.845 180.18 220.723 178.531C221.051 177.916 221.331 177.293 221.563 176.664C222.474 174.348 222.914 172.25 222.884 170.371C222.855 168.492 222.207 166.867 220.942 165.499C219.676 164.061 218.214 163.357 216.558 163.389C213.598 163.446 210.884 165.902 208.414 170.754C207.149 173.302 206.08 175.895 205.207 178.531C204.419 180.915 203.791 183.334 203.324 185.789C205.938 186.365 208.044 186.638 209.642 186.607Z" fill="black"/>
<path d="M241.653 134.613C242.339 133.067 243.629 132.277 245.523 132.24C245.937 132.232 246.353 132.294 246.769 132.425C246.946 136.112 247.168 146.414 247.436 163.331C247.494 163.26 247.755 162.942 248.219 162.375C248.744 161.808 249.063 161.454 249.18 161.312C249.296 161.171 249.587 160.852 250.053 160.356C250.518 159.79 250.867 159.434 251.101 159.291C251.394 159.076 251.775 158.791 252.243 158.434C252.709 158.006 253.12 157.72 253.472 157.574C253.824 157.358 254.235 157.142 254.705 156.923C255.588 156.559 256.621 156.364 257.804 156.341C262.184 156.257 265.74 158.347 268.471 162.612C271.202 166.807 272.609 171.551 272.693 176.841C272.702 177.407 272.703 177.971 272.696 178.531C272.64 183.212 272.038 187.709 270.89 192.021C269.604 196.782 267.568 200.964 264.783 204.569C261.998 208.175 258.712 210.014 254.924 210.087C251.195 210.159 248.032 208.583 245.436 205.36C242.898 202.136 241.597 198.436 241.531 194.259C241.48 191.048 241.515 185.805 241.637 178.531C241.676 176.185 241.725 173.626 241.782 170.856C242.016 159.431 242.093 151.247 242.015 146.305C241.936 141.293 241.815 137.395 241.653 134.613ZM255.465 204.958C257.773 204.913 259.824 203.586 261.618 200.974C265.267 195.821 267.017 188.58 266.869 179.251C266.865 179.01 266.86 178.77 266.852 178.531C266.701 173.816 265.809 169.651 264.174 166.038C262.455 162.171 260.086 160.267 257.068 160.325C255.352 160.358 253.858 161.396 252.588 163.441C251.317 165.414 250.352 168.044 249.693 171.33C249.225 173.637 248.852 176.037 248.573 178.531C248.101 182.765 247.903 187.27 247.978 192.046C248.08 198.45 249.266 202.362 251.538 203.78C252.556 204.457 253.865 204.849 255.465 204.958Z" fill="black"/>
<path d="M304.53 167.376C303.973 165.785 302.946 164.551 301.452 163.675C299.959 162.799 298.116 162.382 295.926 162.424C293.736 162.466 291.677 163.272 289.748 164.841C287.879 166.409 286.964 168.481 287.005 171.056C287.045 173.632 287.965 175.669 289.765 177.166C290.414 177.665 291.106 178.12 291.84 178.531C293.208 179.298 294.724 179.915 296.388 180.381C299.005 181.097 301.622 181.882 304.241 182.736C306.858 183.522 309.07 184.907 310.878 186.892C312.744 188.805 313.702 191.363 313.752 194.566C313.826 199.23 312.225 202.812 308.949 205.313C305.733 207.812 301.816 209.106 297.199 209.195C294.476 209.248 290.882 208.447 286.415 206.792C282.008 205.135 279.785 203.089 279.746 200.653C279.718 198.843 281.005 197.912 283.61 197.862C284.38 197.847 285.394 198.385 286.655 199.475C290.495 202.674 294.397 204.236 298.362 204.159C300.493 204.118 302.321 203.665 303.847 202.8C306.663 201.144 308.043 198.541 307.987 194.99C307.953 192.833 307.008 191.11 305.152 189.822C303.355 188.534 301.149 187.532 298.532 186.816C295.975 186.1 293.387 185.314 290.769 184.459C288.151 183.604 285.908 182.15 284.039 180.097C283.621 179.606 283.249 179.084 282.925 178.531C281.846 176.694 281.287 174.518 281.247 172.003C281.18 167.757 282.754 164.28 285.966 161.572C289.18 158.863 293.184 157.463 297.978 157.37C301.234 157.308 304.179 158.261 306.815 160.229C309.51 162.127 310.886 164.955 310.946 168.715C310.985 171.222 309.791 172.497 307.365 172.544C306.359 172.563 305.675 172.368 305.313 171.957C305.011 171.545 304.822 170.818 304.746 169.775C304.729 168.661 304.657 167.861 304.53 167.376Z" fill="black"/>
<path d="M117.906 138.885C117.757 140.698 117.421 143.838 116.9 148.304C116.438 152.771 116.081 156.434 115.831 159.294C115.165 166.885 114.828 173.297 114.82 178.531C114.819 179.213 114.824 179.875 114.834 180.516C114.922 186.086 115.138 190.434 115.484 193.561C115.887 196.617 116.467 199.531 117.221 202.301C117.974 205.003 119.044 207.141 120.431 208.716C121.877 210.29 123.546 211.059 125.441 211.022C128.163 210.97 130.533 209.183 132.549 205.663C134.625 202.14 136.211 197.653 137.31 192.2C138.21 187.665 138.991 183.109 139.651 178.531C139.795 177.535 139.933 176.537 140.065 175.539C140.865 169.953 141.608 164.507 142.294 159.201C143.038 153.894 143.751 150.26 144.43 148.296C146.008 147.013 147.212 146.363 148.041 146.347C148.869 146.331 149.492 146.424 149.91 146.624C150.318 149.959 150.769 156.044 151.264 164.878C151.596 170.13 151.958 174.681 152.353 178.531C152.616 181.106 152.894 183.366 153.186 185.314C153.973 190.173 154.926 194.298 156.046 197.689C157.224 201.079 158.927 203.901 161.153 206.156C163.378 208.341 165.911 209.406 168.752 209.351C171.652 209.295 173.995 207.683 175.78 204.516C177.565 201.348 178.831 197.145 179.577 191.908C180.204 187.508 180.665 183.049 180.963 178.531C181.298 173.443 181.423 168.281 181.341 163.045C181.206 154.5 180.573 147.581 179.443 142.287C179.256 141.414 179.056 140.584 178.842 139.799C179.044 139.622 179.245 139.456 179.443 139.303C180.674 138.349 181.826 137.862 182.896 137.841C184.139 137.817 185.223 138.945 186.147 141.225C187.071 143.505 187.738 146.417 188.15 149.961C188.902 156.353 189.32 162.159 189.403 167.381C189.461 171.076 189.312 174.793 188.956 178.531C188.809 180.075 188.626 181.622 188.409 183.173C187.663 188.479 186.439 193.447 184.737 198.076C183.429 201.698 181.665 204.758 179.443 207.254C178.868 207.899 178.264 208.506 177.628 209.076C174.592 211.781 171.033 213.172 166.949 213.251C164.225 213.234 161.757 212.516 159.543 211.096C157.388 209.606 155.644 207.864 154.31 205.87C152.975 203.806 151.749 201.114 150.63 197.794C149.015 193.019 147.616 186.918 146.433 179.49C144.109 189.771 142.12 196.877 140.465 200.809C136.411 210.289 130.715 215.133 123.377 215.344C118.643 215.436 115.059 213.485 112.628 209.493C110.499 205.913 109.116 200.856 108.48 194.323C108.259 191.541 108.12 188.376 108.064 184.825C108.032 182.823 108.047 180.725 108.107 178.531C108.396 167.986 109.745 155.226 112.155 140.249C113.677 139.175 114.882 138.629 115.77 138.612C116.717 138.594 117.429 138.685 117.906 138.885Z" stroke="black" stroke-width="5"/>
<path d="M202.949 190.184C202.853 191.578 202.808 192.519 202.816 193.006C202.882 197.184 203.999 200.4 206.166 202.656C208.393 204.911 210.985 206.01 213.945 205.953C216.904 205.896 219.293 205.362 221.112 204.353C222.991 203.342 224.336 202.271 225.147 201.141C227.228 197.967 229.053 196.365 230.829 196.331C231.48 196.318 232.253 196.513 233.148 196.914C232.609 200.336 230.513 203.51 226.651 206.44C222.849 209.299 218.017 210.784 212.157 210.897C208.015 210.977 204.409 209.514 201.343 206.509C198.333 203.433 196.787 199.216 196.702 193.855C196.619 188.597 197.393 183.489 199.024 178.531C199.056 178.436 199.088 178.34 199.12 178.245C200.874 173.128 203.41 168.761 206.727 165.146C210.103 161.459 213.537 159.584 217.029 159.516C220.58 159.448 223.435 160.263 225.593 161.963C227.81 163.591 228.944 166.041 228.996 169.313C229.049 172.698 228.376 175.771 226.977 178.531C225.873 180.71 224.317 182.694 222.308 184.483C217.813 188.469 212.99 190.513 207.84 190.612C206.479 190.638 204.849 190.495 202.949 190.184ZM209.642 186.607C212.424 186.554 214.894 185.462 217.05 183.331C218.62 181.78 219.845 180.18 220.723 178.531C221.051 177.916 221.331 177.293 221.563 176.664C222.474 174.348 222.914 172.25 222.884 170.371C222.855 168.492 222.207 166.867 220.942 165.499C219.676 164.061 218.214 163.357 216.558 163.389C213.598 163.446 210.884 165.902 208.414 170.754C207.149 173.302 206.08 175.895 205.207 178.531C204.419 180.915 203.791 183.334 203.324 185.789C205.938 186.365 208.044 186.638 209.642 186.607Z" stroke="black" stroke-width="5"/>
<path d="M241.653 134.613C242.339 133.067 243.629 132.277 245.523 132.24C245.937 132.232 246.353 132.294 246.769 132.425C246.946 136.112 247.168 146.414 247.436 163.331C247.494 163.26 247.755 162.942 248.219 162.375C248.744 161.808 249.063 161.454 249.18 161.312C249.296 161.171 249.587 160.852 250.053 160.356C250.518 159.79 250.867 159.434 251.101 159.291C251.394 159.076 251.775 158.791 252.243 158.434C252.709 158.006 253.12 157.72 253.472 157.574C253.824 157.358 254.235 157.142 254.705 156.923C255.588 156.559 256.621 156.364 257.804 156.341C262.184 156.257 265.74 158.347 268.471 162.612C271.202 166.807 272.609 171.551 272.693 176.841C272.702 177.407 272.703 177.971 272.696 178.531C272.64 183.212 272.038 187.709 270.89 192.021C269.604 196.782 267.568 200.964 264.783 204.569C261.998 208.175 258.712 210.014 254.924 210.087C251.195 210.159 248.032 208.583 245.436 205.36C242.898 202.136 241.597 198.436 241.531 194.259C241.48 191.048 241.515 185.805 241.637 178.531C241.676 176.185 241.725 173.626 241.782 170.856C242.016 159.431 242.093 151.247 242.015 146.305C241.936 141.293 241.815 137.395 241.653 134.613ZM255.465 204.958C257.773 204.913 259.824 203.586 261.618 200.974C265.267 195.821 267.017 188.58 266.869 179.251C266.865 179.01 266.86 178.77 266.852 178.531C266.701 173.816 265.809 169.651 264.174 166.038C262.455 162.171 260.086 160.267 257.068 160.325C255.352 160.358 253.858 161.396 252.588 163.441C251.317 165.414 250.352 168.044 249.693 171.33C249.225 173.637 248.852 176.037 248.573 178.531C248.101 182.765 247.903 187.27 247.978 192.046C248.08 198.45 249.266 202.362 251.538 203.78C252.556 204.457 253.865 204.849 255.465 204.958Z" stroke="black" stroke-width="5"/>
<path d="M304.53 167.376C303.973 165.785 302.946 164.551 301.452 163.675C299.959 162.799 298.116 162.382 295.926 162.424C293.736 162.466 291.677 163.272 289.748 164.841C287.879 166.409 286.964 168.481 287.005 171.056C287.045 173.632 287.965 175.669 289.765 177.166C290.414 177.665 291.106 178.12 291.84 178.531C293.208 179.298 294.724 179.915 296.388 180.381C299.005 181.097 301.622 181.882 304.241 182.736C306.858 183.522 309.07 184.907 310.878 186.892C312.744 188.805 313.702 191.363 313.752 194.566C313.826 199.23 312.225 202.812 308.949 205.313C305.733 207.812 301.816 209.106 297.199 209.195C294.476 209.248 290.882 208.447 286.415 206.792C282.008 205.135 279.785 203.089 279.746 200.653C279.718 198.843 281.005 197.912 283.61 197.862C284.38 197.847 285.394 198.385 286.655 199.475C290.495 202.674 294.397 204.236 298.362 204.159C300.493 204.118 302.321 203.665 303.847 202.8C306.663 201.144 308.043 198.541 307.987 194.99C307.953 192.833 307.008 191.11 305.152 189.822C303.355 188.534 301.149 187.532 298.532 186.816C295.975 186.1 293.387 185.314 290.769 184.459C288.151 183.604 285.908 182.15 284.039 180.097C283.621 179.606 283.249 179.084 282.925 178.531C281.846 176.694 281.287 174.518 281.247 172.003C281.18 167.757 282.754 164.28 285.966 161.572C289.18 158.863 293.184 157.463 297.978 157.37C301.234 157.308 304.179 158.261 306.815 160.229C309.51 162.127 310.886 164.955 310.946 168.715C310.985 171.222 309.791 172.497 307.365 172.544C306.359 172.563 305.675 172.368 305.313 171.957C305.011 171.545 304.822 170.818 304.746 169.775C304.729 168.661 304.657 167.861 304.53 167.376Z" stroke="black" stroke-width="5"/>
</svg>
