<svg width="479" height="256" viewBox="0 0 479 256" fill="none" xmlns="http://www.w3.org/2000/svg">
<path d="M152.977 132.599L162.66 133.455C167.23 133.455 169.553 133.252 171.493 132.844C173.503 132.356 174.716 132.112 175.131 132.112C177.278 132.112 178.349 132.763 178.344 134.066C178.338 135.857 177.121 137.242 174.695 138.219C172.337 139.196 169.565 139.767 166.38 139.929C162.465 140.032 165.08 140.052 161.164 140.052C158.879 139.97 158.769 139.807 155.238 139.563C151.707 139.237 149.665 139.075 149.111 139.075C147.173 139.075 146.205 138.626 146.208 137.73C146.212 136.346 147.498 134.961 150.065 133.578C151.244 132.925 152.215 132.599 152.977 132.599Z" fill="#FFD900"/>
<path d="M202.788 83.9985C202.573 86.116 202.11 89.7804 201.399 94.9923C200.758 100.205 200.258 104.481 199.901 107.82C198.828 117.837 198.28 126.102 198.257 132.617C198.235 139.133 198.39 144.223 198.724 147.887C199.126 151.47 199.738 154.891 200.558 158.148C201.377 161.325 202.581 163.849 204.167 165.722C205.823 167.596 207.758 168.532 209.974 168.532C213.159 168.532 215.97 166.496 218.408 162.424C220.915 158.352 222.871 153.14 224.279 146.788C225.685 140.354 226.885 133.879 227.877 127.365C228.938 120.85 229.929 114.498 230.852 108.308C231.842 102.119 232.757 97.8839 233.596 95.6031C235.47 94.1381 236.892 93.4045 237.862 93.4045C238.831 93.4045 239.558 93.5273 240.042 93.7707C240.444 97.6799 240.834 104.806 241.214 115.149C241.664 125.41 242.259 133.391 243.001 139.092C243.812 144.792 244.834 149.638 246.066 153.629C247.368 157.619 249.296 160.958 251.849 163.646C254.402 166.251 257.34 167.554 260.664 167.554C264.056 167.554 266.833 165.722 268.992 162.057C271.151 158.392 272.726 153.506 273.716 147.398C275.485 136.486 276.389 125.247 276.429 113.683C276.47 102.038 275.67 92.9571 274.032 86.4416C275.767 84.9758 277.363 84.2428 278.816 84.2428C280.271 84.2428 281.513 85.5866 282.542 88.2741C283.572 90.9614 284.286 94.3815 284.687 98.5352C285.423 106.028 285.781 112.828 285.76 118.935C285.739 125.043 285.233 131.193 284.242 137.381C283.251 143.57 281.707 149.352 279.611 154.728C277.585 160.022 274.731 164.257 271.05 167.432C267.439 170.527 263.245 172.074 258.467 172.074C255.282 171.993 252.411 171.097 249.855 169.386C247.368 167.596 245.368 165.519 243.853 163.157C242.338 160.714 240.964 157.537 239.731 153.629C237.95 148.009 236.451 140.842 235.235 132.129C232.286 144.1 229.798 152.366 227.774 156.926C222.82 167.921 216.05 173.459 207.464 173.54C201.924 173.54 197.777 171.178 195.024 166.455C192.615 162.22 191.112 156.275 190.516 148.62C190.319 145.362 190.228 141.657 190.243 137.503C190.29 123.904 192.219 106.558 196.032 85.4644C197.835 84.2428 199.257 83.6321 200.296 83.6321C201.404 83.6321 202.235 83.7542 202.788 83.9985Z" fill="#FFD900"/>
<path d="M301.089 145.909C300.945 147.537 300.871 148.637 300.869 149.206C300.852 154.093 302.086 157.88 304.57 160.567C307.123 163.255 310.129 164.598 313.592 164.598C317.054 164.598 319.86 164.028 322.011 162.889C324.231 161.748 325.827 160.527 326.802 159.223C329.307 155.558 331.478 153.726 333.555 153.726C334.317 153.726 335.217 153.971 336.253 154.46C335.547 158.45 333.023 162.115 328.441 165.454C323.93 168.711 318.246 170.34 311.391 170.34C306.544 170.34 302.36 168.548 298.842 164.965C295.392 161.3 293.679 156.333 293.7 150.061C293.722 143.791 294.782 137.724 296.879 131.86C299.046 125.915 302.11 120.866 306.071 116.712C310.103 112.477 314.16 110.361 318.246 110.361C322.4 110.361 325.721 111.379 328.207 113.415C330.762 115.369 332.033 118.26 332.02 122.087C331.995 129.172 329.274 135.037 323.857 139.678C318.51 144.239 312.824 146.52 306.799 146.52C305.207 146.52 303.303 146.316 301.089 145.909ZM308.997 141.877C312.251 141.877 315.164 140.655 317.734 138.212C320.304 135.769 322.113 133.204 323.161 130.517C324.279 127.829 324.841 125.386 324.849 123.187C324.857 120.989 324.136 119.074 322.687 117.446C321.24 115.735 319.546 114.88 317.607 114.88C314.144 114.88 310.915 117.69 307.918 123.309C304.991 128.929 302.893 134.751 301.626 140.778C304.67 141.511 307.127 141.877 308.997 141.877Z" fill="#FFD900"/>
<path d="M347.604 81.7915C348.442 79.9999 349.968 79.104 352.184 79.104C352.669 79.104 353.153 79.1855 353.637 79.3483C353.76 83.6645 353.789 95.7177 353.72 115.507C353.789 115.426 354.102 115.06 354.658 114.407C355.284 113.756 355.666 113.349 355.805 113.186C355.944 113.023 356.291 112.657 356.848 112.087C357.404 111.436 357.82 111.028 358.098 110.865C358.445 110.621 358.897 110.295 359.452 109.888C360.008 109.399 360.494 109.074 360.909 108.91C361.326 108.666 361.811 108.422 362.366 108.178C363.406 107.771 364.619 107.567 366.003 107.567C371.127 107.567 375.239 110.091 378.337 115.141C381.436 120.108 382.975 125.687 382.953 131.876C382.932 138.065 382.115 143.97 380.503 149.589C378.892 155.127 376.416 159.972 373.078 164.126C369.74 168.279 365.855 170.356 361.424 170.356C357.061 170.356 353.398 168.442 350.434 164.615C347.539 160.787 346.1 156.43 346.117 151.544C346.134 146.576 346.408 137.454 346.938 124.181C347.469 110.825 347.745 101.255 347.765 95.4731C347.785 89.6099 347.732 85.049 347.604 81.7915ZM362.172 164.37C364.872 164.37 367.301 162.864 369.458 159.85C373.841 153.906 376.051 145.477 376.088 134.564C376.109 128.7 375.158 123.528 373.234 119.05C371.311 114.489 368.584 112.209 365.052 112.209C363.045 112.209 361.275 113.39 359.743 115.752C358.212 118.031 357.024 121.085 356.18 124.913C354.562 132.161 353.738 140.223 353.707 149.101C353.681 156.592 354.981 161.195 357.606 162.904C358.781 163.719 360.303 164.207 362.172 164.37Z" fill="#FFD900"/>
<path d="M420.4 121.525C419.784 119.652 418.611 118.186 416.884 117.128C415.157 116.068 413.012 115.54 410.449 115.54C407.887 115.54 405.461 116.436 403.17 118.226C400.948 120.018 399.831 122.421 399.821 125.434C399.811 128.447 400.841 130.85 402.912 132.642C405.053 134.352 407.611 135.655 410.585 136.551C413.628 137.447 416.672 138.424 419.715 139.482C422.758 140.46 425.314 142.129 427.383 144.491C429.523 146.771 430.585 149.784 430.572 153.531C430.553 158.987 428.6 163.14 424.712 165.991C420.895 168.841 416.285 170.266 410.884 170.266C407.698 170.266 403.513 169.249 398.326 167.212C393.209 165.176 390.656 162.733 390.665 159.883C390.673 157.766 392.2 156.706 395.247 156.706C396.147 156.706 397.322 157.358 398.772 158.662C403.19 162.488 407.718 164.403 412.358 164.403C414.851 164.403 416.999 163.914 418.803 162.937C422.133 161.064 423.806 158.051 423.82 153.897C423.829 151.373 422.763 149.336 420.621 147.789C418.549 146.242 415.991 145.02 412.947 144.125C409.973 143.229 406.964 142.252 403.921 141.192C400.879 140.134 398.288 138.383 396.149 135.94C394.081 133.415 393.053 130.239 393.066 126.411C393.084 121.444 395.002 117.413 398.821 114.318C402.64 111.223 407.354 109.675 412.963 109.675C416.771 109.675 420.195 110.856 423.233 113.218C426.341 115.498 427.888 118.837 427.873 123.235C427.863 126.168 426.437 127.633 423.598 127.633C422.422 127.633 421.626 127.389 421.212 126.9C420.868 126.411 420.663 125.557 420.598 124.335C420.603 123.031 420.537 122.095 420.4 121.525Z" fill="#FFD900"/>
<path d="M152.977 132.599L162.66 133.455C167.23 133.455 169.553 133.252 171.493 132.844C173.503 132.356 174.716 132.112 175.131 132.112C177.278 132.112 178.349 132.763 178.344 134.066C178.338 135.857 177.121 137.242 174.695 138.219C172.337 139.196 169.565 139.767 166.38 139.929C162.465 140.032 165.08 140.052 161.164 140.052C158.879 139.97 158.769 139.807 155.238 139.563C151.707 139.237 149.665 139.075 149.111 139.075C147.173 139.075 146.205 138.626 146.208 137.73C146.212 136.346 147.498 134.961 150.065 133.578C151.244 132.925 152.215 132.599 152.977 132.599Z" stroke="#FFD900" stroke-width="6.25906"/>
<path d="M202.788 83.9985C202.573 86.116 202.11 89.7804 201.399 94.9923C200.758 100.205 200.258 104.481 199.901 107.82C198.828 117.837 198.28 126.102 198.257 132.617C198.235 139.133 198.39 144.223 198.724 147.887C199.126 151.47 199.738 154.891 200.558 158.148C201.377 161.325 202.581 163.849 204.167 165.722C205.823 167.596 207.758 168.532 209.974 168.532C213.159 168.532 215.97 166.496 218.408 162.424C220.915 158.352 222.871 153.14 224.279 146.788C225.685 140.354 226.885 133.879 227.877 127.365C228.938 120.85 229.929 114.498 230.852 108.308C231.842 102.119 232.757 97.8839 233.596 95.6031C235.47 94.1381 236.892 93.4045 237.862 93.4045C238.831 93.4045 239.558 93.5273 240.042 93.7707C240.444 97.6799 240.834 104.806 241.214 115.149C241.664 125.41 242.259 133.391 243.001 139.092C243.812 144.792 244.834 149.638 246.066 153.629C247.368 157.619 249.296 160.958 251.849 163.646C254.402 166.251 257.34 167.554 260.664 167.554C264.056 167.554 266.833 165.722 268.992 162.057C271.151 158.392 272.726 153.506 273.716 147.398C275.485 136.486 276.389 125.247 276.429 113.683C276.47 102.038 275.67 92.9571 274.032 86.4416C275.767 84.9758 277.363 84.2428 278.816 84.2428C280.271 84.2428 281.513 85.5866 282.542 88.2741C283.572 90.9614 284.286 94.3815 284.687 98.5352C285.423 106.028 285.781 112.828 285.76 118.935C285.739 125.043 285.233 131.193 284.242 137.381C283.251 143.57 281.707 149.352 279.611 154.728C277.585 160.022 274.731 164.257 271.05 167.432C267.439 170.527 263.245 172.074 258.467 172.074C255.282 171.993 252.411 171.097 249.855 169.386C247.368 167.596 245.368 165.519 243.853 163.157C242.338 160.714 240.964 157.537 239.731 153.629C237.95 148.009 236.451 140.842 235.235 132.129C232.286 144.1 229.798 152.366 227.774 156.926C222.82 167.921 216.05 173.459 207.464 173.54C201.924 173.54 197.777 171.178 195.024 166.455C192.615 162.22 191.112 156.275 190.516 148.62C190.319 145.362 190.228 141.657 190.243 137.503C190.29 123.904 192.219 106.558 196.032 85.4644C197.835 84.2428 199.257 83.6321 200.296 83.6321C201.404 83.6321 202.235 83.7542 202.788 83.9985Z" stroke="#FFD900" stroke-width="6.25906"/>
<path d="M301.089 145.909C300.945 147.537 300.871 148.637 300.869 149.206C300.852 154.093 302.086 157.88 304.57 160.567C307.123 163.255 310.129 164.598 313.592 164.598C317.054 164.598 319.86 164.028 322.011 162.889C324.231 161.748 325.827 160.527 326.802 159.223C329.307 155.558 331.478 153.726 333.555 153.726C334.317 153.726 335.217 153.971 336.253 154.46C335.547 158.45 333.023 162.115 328.441 165.454C323.93 168.711 318.246 170.34 311.391 170.34C306.544 170.34 302.36 168.548 298.842 164.965C295.392 161.3 293.679 156.333 293.7 150.061C293.722 143.791 294.782 137.724 296.879 131.86C299.046 125.915 302.11 120.866 306.071 116.712C310.103 112.477 314.16 110.361 318.246 110.361C322.4 110.361 325.721 111.379 328.207 113.415C330.762 115.369 332.033 118.26 332.02 122.087C331.995 129.172 329.274 135.037 323.857 139.678C318.51 144.239 312.824 146.52 306.799 146.52C305.207 146.52 303.303 146.316 301.089 145.909ZM308.997 141.877C312.251 141.877 315.164 140.655 317.734 138.212C320.304 135.769 322.113 133.204 323.161 130.517C324.279 127.829 324.841 125.386 324.849 123.187C324.857 120.989 324.136 119.074 322.687 117.446C321.24 115.735 319.546 114.88 317.607 114.88C314.144 114.88 310.915 117.69 307.918 123.309C304.991 128.929 302.893 134.751 301.626 140.778C304.67 141.511 307.127 141.877 308.997 141.877Z" stroke="#FFD900" stroke-width="6.25906"/>
<path d="M347.604 81.7915C348.442 79.9999 349.968 79.104 352.184 79.104C352.669 79.104 353.153 79.1855 353.637 79.3483C353.76 83.6645 353.789 95.7177 353.72 115.507C353.789 115.426 354.102 115.06 354.658 114.407C355.284 113.756 355.666 113.349 355.805 113.186C355.944 113.023 356.291 112.657 356.848 112.087C357.404 111.436 357.82 111.028 358.098 110.865C358.445 110.621 358.897 110.295 359.452 109.888C360.008 109.399 360.494 109.074 360.909 108.91C361.326 108.666 361.811 108.422 362.366 108.178C363.406 107.771 364.619 107.567 366.003 107.567C371.127 107.567 375.239 110.091 378.337 115.141C381.436 120.108 382.975 125.687 382.953 131.876C382.932 138.065 382.115 143.97 380.503 149.589C378.892 155.127 376.416 159.972 373.078 164.126C369.74 168.279 365.855 170.356 361.424 170.356C357.061 170.356 353.398 168.442 350.434 164.615C347.539 160.787 346.1 156.43 346.117 151.544C346.134 146.576 346.408 137.454 346.938 124.181C347.469 110.825 347.745 101.255 347.765 95.4731C347.785 89.6099 347.732 85.049 347.604 81.7915ZM362.172 164.37C364.872 164.37 367.301 162.864 369.458 159.85C373.841 153.906 376.051 145.477 376.088 134.564C376.109 128.7 375.158 123.528 373.234 119.05C371.311 114.489 368.584 112.209 365.052 112.209C363.045 112.209 361.275 113.39 359.743 115.752C358.212 118.031 357.024 121.085 356.18 124.913C354.562 132.161 353.738 140.223 353.707 149.101C353.681 156.592 354.981 161.195 357.606 162.904C358.781 163.719 360.303 164.207 362.172 164.37Z" stroke="#FFD900" stroke-width="6.25906"/>
<path d="M420.4 121.525C419.784 119.652 418.611 118.186 416.884 117.128C415.157 116.068 413.012 115.54 410.449 115.54C407.887 115.54 405.461 116.436 403.17 118.226C400.948 120.018 399.831 122.421 399.821 125.434C399.811 128.447 400.841 130.85 402.912 132.642C405.053 134.352 407.611 135.655 410.585 136.551C413.628 137.447 416.672 138.424 419.715 139.482C422.758 140.46 425.314 142.129 427.383 144.491C429.523 146.771 430.585 149.784 430.572 153.531C430.553 158.987 428.6 163.14 424.712 165.991C420.895 168.841 416.285 170.266 410.884 170.266C407.698 170.266 403.513 169.249 398.326 167.212C393.209 165.176 390.656 162.733 390.665 159.883C390.673 157.766 392.2 156.706 395.247 156.706C396.147 156.706 397.322 157.358 398.772 158.662C403.19 162.488 407.718 164.403 412.358 164.403C414.851 164.403 416.999 163.914 418.803 162.937C422.133 161.064 423.806 158.051 423.82 153.897C423.829 151.373 422.763 149.336 420.621 147.789C418.549 146.242 415.991 145.02 412.947 144.125C409.973 143.229 406.964 142.252 403.921 141.192C400.879 140.134 398.288 138.383 396.149 135.94C394.081 133.415 393.053 130.239 393.066 126.411C393.084 121.444 395.002 117.413 398.821 114.318C402.64 111.223 407.354 109.675 412.963 109.675C416.771 109.675 420.195 110.856 423.233 113.218C426.341 115.498 427.888 118.837 427.873 123.235C427.863 126.168 426.437 127.633 423.598 127.633C422.422 127.633 421.626 127.389 421.212 126.9C420.868 126.411 420.663 125.557 420.598 124.335C420.603 123.031 420.537 122.095 420.4 121.525Z" stroke="#FFD900" stroke-width="6.25906"/>
<path d="M239.256 128.314L312.828 128.314M239.256 128.314L291.279 156.093M239.256 128.314V167.6M239.256 128.314L187.234 156.093M239.256 128.314L165.685 128.314M239.256 128.314L187.234 100.535M239.256 128.314V89.0282M239.256 128.314L291.279 100.535M386.399 128.314L459.971 128.314M386.399 128.314L312.828 128.314M386.399 128.314L343.302 72.7556M386.399 128.314L343.302 183.872M459.971 128.314L395.325 44.9764M459.971 128.314L395.325 211.652M459.971 128.314L478.364 128.314M312.828 128.314L291.279 100.535M312.828 128.314L291.279 156.093M343.302 183.872L291.279 156.093M343.302 183.872L395.325 211.652M343.302 183.872L239.256 206.885M291.279 156.093L239.256 167.6M395.325 211.652L239.256 246.171M395.325 211.652L408.331 218.596M239.256 206.885V246.171M239.256 206.885V167.6M239.256 206.885L135.211 183.872M239.256 246.171L83.1878 211.652M239.256 246.171V255.993M239.256 167.6L187.234 156.093M135.211 183.872L187.234 156.093M135.211 183.872L83.1878 211.652M135.211 183.872L92.1135 128.314M187.234 156.093L165.685 128.314M83.1878 211.652L18.5421 128.314M83.1878 211.652L70.1821 218.596M92.1135 128.314L18.5421 128.314M92.1135 128.314L165.685 128.314M92.1135 128.314L135.211 72.7556M18.5421 128.314L83.1878 44.9764M18.5421 128.314L0.149231 128.314M165.685 128.314L187.234 100.535M135.211 72.7556L83.1878 44.9764M135.211 72.7556L187.234 100.535M135.211 72.7556L239.256 49.7425M83.1878 44.9764L239.256 10.4568M83.1878 44.9764L70.1821 38.0316M187.234 100.535L239.256 89.0282M239.256 49.7425V10.4568M239.256 49.7425V89.0282M239.256 49.7425L343.302 72.7556M239.256 10.4568L395.325 44.9764M239.256 10.4568V0.635376M239.256 89.0282L291.279 100.535M343.302 72.7556L395.325 44.9764M343.302 72.7556L291.279 100.535M395.325 44.9764L408.331 38.0316" stroke="#FFD900" stroke-width="2"/>
<path d="M39.2077 132.26C41.6374 165.271 66.0119 189.308 96.7097 191.626C120.859 193.451 141.026 182.829 152.899 161.705C134.346 176.446 127.34 181.26 106.957 181.26C86.0148 181.26 61.2913 165.128 56.2234 137.86C51.9469 107.608 74.2061 81.7975 103.691 80.1697C120.547 79.239 136.35 91.5553 141.301 101.782L151.435 85.9147C137.831 68.1033 120.371 60.2507 97.9484 62.7626C64.909 66.4639 36.585 96.6268 39.2077 132.26Z" fill="#FFD900" stroke="#FFD900" stroke-width="3"/>
</svg>
