<svg viewBox="0 0 217 70" fill="none" xmlns="http://www.w3.org/2000/svg">
<defs>
    <linearGradient id="grad-hero-button" x1="0%" y1="0%" x2="0%" y2="100%">
      <stop offset="0%" style="stop-color:hsl(348, 83%, 42%);stop-opacity:1" />
      <stop offset="19%" style="stop-color:hsl(348, 83%, 38%);stop-opacity:1" />
      <stop offset="19%" style="stop-color:hsl(348, 83%, 29%);stop-opacity:1" />
      <stop offset="40%" style="stop-color:hsl(348, 83%, 37%);stop-opacity:1" />
      <stop offset="53%" style="stop-color:hsl(348, 83%, 60%);stop-opacity:1" />
      <stop offset="66%" style="stop-color:hsl(348, 83%, 37%);stop-opacity:1" />
      <stop offset="81%" style="stop-color:hsl(348, 83%, 30%);stop-opacity:1" />
      <stop offset="81%" style="stop-color:hsl(348, 83%, 38%);stop-opacity:1" />
      <stop offset="100%" style="stop-color:hsl(348, 83%, 42%);stop-opacity:1" />
    </linearGradient>
    <linearGradient id="grad-windshield" x1="50%" y1="0%" x2="0%" y2="100%">
    <stop offset="0%" style="stop-color:hsl(59, 88%, 23%);stop-opacity:1" />
    <stop offset="100%" style="stop-color:hsl(59, 88%, 63%);stop-opacity:1" />
    </linearGradient>
  </defs>
<path d="M185.429 23.7824C180.983 22.5936 167.838 20.1787 158.646 18.4931C140.553 15.1753 97.0449 12.7643 86.411 14.0276L72.129 9.19388L57.1181 5.69801L42.1318 3.219L25.6412 1.50911L14.3532 0.79416C14.3532 0.79416 5.18658 0.695074 4.14816 0.773802C3.10973 0.852525 0.942245 1.35292 0.373337 2.12456C-0.156021 2.84256 0.105835 3.65116 1.33652 4.15444C2.5672 4.65772 23.8583 15.8815 23.8583 15.8815C23.8583 15.8815 15.3331 16.0447 14.2717 16.2398C13.2103 16.435 12.4689 17.2645 12.4689 17.2645L12.5962 34.9635L12.5156 34.9636L12.6321 52.7601C12.6321 52.7601 13.3848 53.5878 14.4489 53.7804C15.513 53.973 24.0402 54.1159 24.0402 54.1159C24.0402 54.1159 2.90368 65.3903 1.67993 65.8966C0.456178 66.4028 0.205453 67.212 0.744646 67.9287C1.32415 68.699 3.49847 69.1942 4.53796 69.2704C5.57745 69.3467 14.7425 69.2256 14.7425 69.2256L26.0205 68.4837L42.4874 66.7344L57.4394 64.2196L72.4021 60.6879L86.6174 55.82C97.2684 57.0579 140.743 54.5453 158.79 51.1842C167.959 49.4767 181.07 47.0304 185.499 45.8309C186.624 45.5263 187.837 45.2124 189.119 44.8808C192.884 43.9063 197.242 42.7787 201.691 41.2845C207.458 39.348 214.533 36.732 215.456 35.8439C216.253 35.0772 216.023 34.8297 215.945 34.7763L216.005 34.7762C216.005 34.7762 216.457 34.5836 215.522 33.6977C214.586 32.8118 207.476 30.2128 201.683 28.29C197.213 26.8065 192.84 25.6893 189.061 24.7239C187.775 24.3953 186.557 24.0843 185.429 23.7824Z" fill="url('#grad-hero-button')"/>
<!-- <path d="M23.9402 15.7297L86.0573 13.9805" stroke="hsl(348, 100%, 20%)" stroke-width="0.5" stroke-linecap="round"/> -->
<!-- <path d="M24.0901 54.281L86.2868 55.8246" stroke="hsl(348, 100%, 20%)" stroke-width="0.5" stroke-linecap="round"/> -->
<path d="M12.7824 35.575H161.817" stroke="hsl(348, 100%, 20%)" stroke-width="0.5" stroke-linecap="round"/>
<path d="M12.7824 25.951C73.8506 24.0743 113.421 22.4122 161.864 26.5844" stroke="hsl(348, 100%, 65%)" stroke-width="0.5" stroke-linecap="round"/>
<path d="M12.7824 45.199C73.8506 47.0757 113.421 48.732 161.864 44.5656" stroke="hsl(348, 100%, 68%)" stroke-width="0.5" stroke-linecap="round"/>
<path d="M187.215 24.4554C186.977 25.8246 185.931 26.9579 184.306 27.6062C182.682 28.2544 180.613 28.3644 178.554 27.912C176.495 27.4596 174.615 26.4818 173.328 25.1937C172.041 23.9057 171.451 22.4129 171.689 21.0437L179.452 22.7496L187.215 24.4554Z" fill="url('#grad-windshield')"/>
</svg>
