<svg class="hero-lamppost" viewBox="0 0 233 731" fill="none" xmlns="http://www.w3.org/2000/svg">
  <defs>
    <linearGradient id="grad-post-right" x1="100%" y1="0%" x2="0%" y2="0%">
      <stop offset="0%" style="stop-color:hsl(37, 100%, 21%);stop-opacity:1" />
      <stop offset="45%" style="stop-color:hsl(37, 100%, 26%);stop-opacity:1" />
      <stop offset="65%" style="stop-color:hsl(59, 88%, 83%);stop-opacity:1" />
      <stop offset="100%" style="stop-color:hsl(59, 88%, 100%);stop-opacity:1" />
    </linearGradient>
  </defs>
  <path fill="url('#grad-post-right')" class="lapmpostBody" fill-rule="evenodd" clip-rule="evenodd" d="M223.279 12.8199C229.111 8.75549 232.113 4.39929 232.113 2.92866e-06L0 0C0 4.39928 3.00189 8.75549 8.83428 12.8199C14.6667 16.8843 23.2153 20.5773 33.9922 23.6881C42.5034 26.1449 52.2728 28.2005 62.9405 29.7855C60.5758 30.1199 58.256 30.7458 56.035 31.6529C52.5094 33.0928 49.3019 35.2131 46.5957 37.8926C44.6022 39.8665 42.9094 42.1154 41.5666 44.5665C38.419 45.0192 36 47.7271 36 51C36 54.5899 38.9101 57.5 42.5 57.5C46.0899 57.5 49 54.5899 49 51C49 49.8148 48.6828 48.7036 48.1286 47.7468C49.1046 46.034 50.3112 44.4585 51.7178 43.0657C53.7447 41.0588 56.147 39.4708 58.7876 38.3924C61.4281 37.3139 64.2553 36.7661 67.1076 36.7802C69.9598 36.7943 72.7814 37.3701 75.4112 38.4747C78.0409 39.5792 80.4274 41.191 82.4343 43.2178C84.4412 45.2447 86.0292 47.647 87.1077 50.2876C88.1861 52.9281 88.7339 55.7553 88.7198 58.6076C88.708 61.0024 88.3001 63.3755 87.5159 65.6317C86.586 66.4561 86 67.6596 86 69C86 71.4853 88.0147 73.5 90.5 73.5C92.9853 73.5 95 71.4853 95 69C95 68.38 94.8746 67.7894 94.6479 67.2519C95.5279 64.4717 95.9852 61.5698 95.9996 58.6436C96.003 57.9625 95.9824 57.2824 95.938 56.6046C97.7082 61.2979 101.857 65.1927 107.292 67.4343C105.235 69.7648 104 72.7481 104 76C104 80.8938 106.797 85.1795 110.984 87.5469L110.659 108.386C107.225 109.206 105 110.519 105 112C105 113.465 107.177 114.766 110.547 115.587L107.942 282.704C104.902 283.525 103 284.697 103 285.998C103 287.285 104.859 288.445 107.84 289.265L105.007 471.034C98.9553 473.567 95 477.758 95 482.498C95 486.089 97.2692 489.364 101 491.842V499.498H101.423C95.6605 504.176 92 511.176 92 518.998C92 525.132 94.2504 530.759 98 535.159V540L81 560V567L91 575H91.4688L87 646.5H88L77 660V667.5H80V672.5H79L53 705.066L72 730H163.5L182 705.066L158 672.5H156V667.5H160V660L150 646.5L144.536 574.972L155 567V560L138.425 540.5H139V535.159C142.75 530.759 145 525.132 145 518.998C145 511.176 141.339 504.176 135.577 499.498H136V491.842C139.731 489.364 142 486.089 142 482.498C142 477.501 137.606 473.116 130.993 470.638L129.579 289.145C132.314 288.334 134 287.223 134 285.998C134 284.766 132.294 283.65 129.53 282.837L128.225 115.385C131.152 114.56 133 113.349 133 112C133 110.642 131.13 109.425 128.172 108.6L128 86.5H127.615C130.9 84.0251 133 80.2409 133 76C133 72.6024 131.652 69.498 129.427 67.125C134.508 64.8442 138.371 61.0888 140.062 56.6047C140.018 57.2824 139.997 57.9625 140 58.6436C140.015 61.5698 140.472 64.4717 141.352 67.2519C141.125 67.7894 141 68.38 141 69C141 71.4853 143.015 73.5 145.5 73.5C147.985 73.5 150 71.4853 150 69C150 67.6596 149.414 66.4561 148.484 65.6317C147.7 63.3755 147.292 61.0024 147.28 58.6076C147.266 55.7553 147.814 52.9281 148.892 50.2876C149.971 47.647 151.559 45.2447 153.566 43.2178C155.573 41.191 157.959 39.5792 160.589 38.4747C163.219 37.3701 166.04 36.7943 168.892 36.7802C171.745 36.7661 174.572 37.3139 177.212 38.3924C179.853 39.4708 182.255 41.0588 184.282 43.0657C185.689 44.4585 186.895 46.034 187.871 47.7468C187.317 48.7036 187 49.8148 187 51C187 54.5899 189.91 57.5 193.5 57.5C197.09 57.5 200 54.5899 200 51C200 47.7271 197.581 45.0192 194.433 44.5665C193.091 42.1154 191.398 39.8665 189.404 37.8926C186.698 35.2131 183.491 33.0928 179.965 31.6529C177.016 30.4484 173.893 29.7397 170.721 29.5511C180.787 27.9998 190.023 26.0255 198.121 23.6881C208.898 20.5773 217.446 16.8843 223.279 12.8199ZM159.658 31.046C145.81 32.6664 131.005 33.5 116.057 33.5C103.064 33.5 90.179 32.8702 77.9368 31.6414C78.0349 31.6813 78.1327 31.7218 78.2304 31.7628C81.7415 33.2376 84.9279 35.3895 87.6074 38.0957C90.2869 40.8019 92.4072 44.0094 93.8471 47.535C94.3073 48.6618 94.6952 49.8139 95.0093 50.9846C95.3579 41.2818 105.518 33.5 118 33.5C130.482 33.5 140.642 41.2818 140.991 50.9846C141.305 49.8139 141.693 48.6618 142.153 47.535C143.593 44.0094 145.713 40.8019 148.393 38.0957C151.072 35.3895 154.258 33.2376 157.77 31.7628C158.391 31.5016 159.021 31.2626 159.658 31.046Z" />
  <path d="M74.2147 724.5L65.2848 711.5H170.256L161.296 724.5H74.2147Z" stroke="#663f00" stroke-width="13"/>
  <path d="M79.5 669.5H156.5" stroke="#836259" stroke-width="3"/>
  <path d="M91 576.5H144.5" stroke="#836259" stroke-width="3"/>
  <path d="M98.5 537.5H138.5" stroke="#836259" stroke-width="3"/>
  <path d="M101 496H135.5" stroke="#836259" stroke-width="3"/>
  <path d="M108 290C116.726 291.489 121.272 291.247 129 290" stroke="#836259" stroke-width="2"/>
  <path d="M111 117C118.064 118.368 121.744 118.146 128 117" stroke="#836259" stroke-width="2"/>
  <path d="M111 89C118.064 90.6415 121.744 90.3748 128 89" stroke="#836259" stroke-width="2"/>
  <path d="M107 68.8333C116.557 72.0541 121.536 71.6933 130 68.8333" stroke="#836259" stroke-width="2" stroke-linecap="round"/>
  </svg>
