<svg viewBox="0 0 157 68" fill="none" xmlns="http://www.w3.org/2000/svg">
<defs>
  <linearGradient id="grad-menu-button" x1="0%" y1="0%" x2="0%" y2="100%">
    <stop offset="0%" style="stop-color:hsl(49, 100%, 46%);stop-opacity:1" />
    <stop offset="22%" style="stop-color:hsl(49, 100%, 46%);stop-opacity:1" />
    <stop offset="22%" style="stop-color:hsl(48, 100%, 35%);stop-opacity:1" />
    <stop offset="55%" style="stop-color:hsl(51, 100%, 80%);stop-opacity:1" />
    <stop offset="78%" style="stop-color:hsl(48, 100%, 37%);stop-opacity:1" />
    <stop offset="78%" style="stop-color:hsl(49, 100%, 46%);stop-opacity:1" />
    <stop offset="100%" style="stop-color:hsl(49, 100%, 46%);stop-opacity:1" />
  </linearGradient>
  <linearGradient id="grad-windshield" x1="0%" y1="0%" x2="50%" y2="100%">
  <stop offset="0%" style="stop-color:hsl(51, 100%, 14%);stop-opacity:1" />
  <stop offset="100%" style="stop-color:hsl(51, 100%, 29%);stop-opacity:1" />
  </linearGradient>
</defs>
<path d="M42.2422 17.9364C55.3702 14.6936 86.2136 12.3372 93.9294 13.572C112.177 6.05782 134.579 -1.32611 153.618 0.61824C155.126 0.772273 158.081 2.58771 155.658 3.92233C154.765 4.41421 139.184 15.3563 139.184 15.3563C139.184 15.3563 145.384 15.5936 146.154 15.7843C146.924 15.9751 147.462 16.7857 147.462 16.7857V51.4274C147.462 51.4274 146.916 52.2364 146.144 52.4246C145.372 52.6129 139.184 52.7525 139.184 52.7525C139.184 52.7525 154.521 63.7717 155.409 64.2664C157.826 65.6132 154.832 67.416 153.335 67.5639C134.316 69.443 111.985 61.9918 93.7796 54.4181C86.0514 55.6279 55.2325 53.1722 42.1378 49.8872C31.6119 47.2466 20.9403 44.7037 11.0098 40.2117C6.82561 38.319 1.69237 35.7622 1.02252 34.8942C0.509631 34.2296 0.460388 33.4528 0.974716 32.7966C1.6534 31.9308 6.81263 29.3906 11.016 27.5114C20.9857 23.0544 31.6857 20.5439 42.2422 17.9364Z" fill="url('#grad-menu-button')"/>
<path d="M42.2365 18.0368C42.6812 19.6842 42.0017 21.5626 40.3476 23.2589C38.6935 24.9551 36.2002 26.3302 33.4163 27.0816C30.6324 27.8331 27.7858 27.8993 25.5028 27.2658C23.2198 26.6323 21.6875 25.3509 21.2428 23.7035L31.7397 20.8701L42.2365 18.0368Z" fill="url('#grad-windshield')"/>
<path d="M94.0117 13.5565C86.4777 12.8151 72.2254 13.7512 57.15 15.4097C79.4188 15.3749 147.437 18.8669 147.437 18.8669V16.7681C147.224 16.1729 146.363 15.8477 146.207 15.8008C145.895 15.3945 94.0117 13.5565 94.0117 13.5565Z" fill="hsl(49, 100%, 34%)"/>
<path d="M93.9483 54.2926C86.4143 55.0341 72.162 54.0979 57.0865 52.4394C79.3554 52.4742 147.387 49.3097 147.387 49.3097V51.4085C147.175 52.0037 146.313 52.3289 146.157 52.3758C145.845 52.7821 93.9483 54.2926 93.9483 54.2926Z" fill="hsl(49, 100%, 36%)"/>
<path d="M147.298 26.7532C147.298 26.7532 68.1918 23.7532 50.3193 25.7532" stroke="hsl(51, 100%, 100%)" stroke-width="1"/>
<path d="M147.298 34.7532H50.3193" stroke="hsl(51, 100%, 35%)" stroke-width="1"/>
<path d="M147.298 42.7532C147.298 42.7532 68.1918 45.7532 50.3193 43.7532" stroke="hsl(51, 100%, 100%)" stroke-width="1"/>
</svg>
