<svg viewBox="0 0 213 110" fill="none" xmlns="http://www.w3.org/2000/svg">
<path d="M16.3222 11.5466C16.1368 13.8024 15.7195 17.7083 15.0706 23.2646C14.496 28.8206 14.0523 33.3769 13.7407 36.9345C12.8047 47.6074 12.3915 56.4076 12.501 63.3349C12.6106 70.2634 12.8795 75.6726 13.3099 79.5623C13.8113 83.3632 14.5321 86.9885 15.4701 90.4345C16.4068 93.7955 17.7381 96.4548 19.4628 98.4138C21.2619 100.372 23.3386 101.329 25.6951 101.283C29.0816 101.218 32.0294 98.9951 34.5374 94.616C37.1199 90.2343 39.0933 84.6524 40.4596 77.8693C41.8236 70.9998 42.9669 64.0903 43.8874 57.1431C44.8822 50.1945 45.8064 43.4199 46.66 36.8192C47.586 30.2183 48.4724 25.6967 49.3174 23.2543C51.2804 21.6582 52.7779 20.849 53.8089 20.8292C54.8389 20.8093 55.6143 20.925 56.1339 21.1739C56.6418 25.3223 57.2027 32.8918 57.8187 43.8812C58.5068 54.7829 59.3031 63.2565 60.2089 69.303C61.1881 75.347 62.3739 80.4784 63.7665 84.6972C65.2323 88.9134 67.3505 92.4242 70.12 95.2296C72.888 97.9476 76.0386 99.2725 79.5728 99.2044C83.1804 99.1349 86.0949 97.1297 88.3154 93.1889C90.5359 89.2481 92.1113 84.0203 93.0386 77.5057C94.6961 65.866 95.4271 53.8977 95.2327 41.6008C95.0369 29.2176 94.0009 19.5788 92.1248 12.6845C93.9401 11.0903 95.622 10.2783 97.1676 10.2485C98.7141 10.2187 100.062 11.622 101.212 14.4586C102.361 17.2948 103.191 20.9168 103.703 25.3252C104.639 33.277 105.159 40.4997 105.261 46.9945C105.364 53.4892 104.952 60.0382 104.025 66.6391C103.098 73.24 101.575 79.4197 99.4569 85.1781C97.4106 90.8488 94.4631 95.4102 90.6145 98.8622C86.8379 102.226 82.4097 103.958 77.33 104.055C73.9412 104.034 70.8708 103.141 68.1177 101.374C65.4368 99.5211 63.2675 97.3538 61.6079 94.8734C59.9469 92.3067 58.4213 88.9572 57.0302 84.827C55.0214 78.888 53.281 71.2981 51.8091 62.0584C48.9183 74.8475 46.4431 83.6873 44.3844 88.578C39.3418 100.37 32.2565 106.397 23.1284 106.659C17.2388 106.773 12.7805 104.346 9.7568 99.3811C7.10807 94.9276 5.38823 88.6366 4.59731 80.5094C4.32146 77.0494 4.14913 73.1115 4.0793 68.6946C3.85066 54.2336 5.5467 35.7499 9.16841 13.2437C11.0612 11.9078 12.5608 11.2293 13.6651 11.208C14.8429 11.1853 15.7293 11.2982 16.3222 11.5466Z" fill="hsl(42, 100%, 36%)"/>
<path d="M122.113 75.3609C121.994 77.0953 121.938 78.2663 121.947 78.8714C122.029 84.0684 123.419 88.0691 126.115 90.876C128.884 93.6814 132.109 95.0481 135.791 94.9771C139.472 94.9062 142.444 94.2424 144.707 92.9869C147.044 91.7288 148.717 90.3972 149.726 88.991C152.315 85.043 154.585 83.0503 156.794 83.0077C157.604 82.9921 158.566 83.2337 159.678 83.7324C159.009 87.9898 156.401 91.9381 151.597 95.5823C146.867 99.1388 140.857 100.987 133.567 101.127C128.414 101.226 123.929 99.407 120.115 95.6688C116.371 91.8429 114.448 86.5962 114.342 79.9278C114.237 73.2604 115.239 66.7875 117.349 60.5091C119.531 54.1441 122.686 48.7121 126.813 44.2143C131.012 39.6288 135.283 37.2954 139.627 37.2117C144.045 37.1266 147.596 38.1406 150.281 40.2548C153.038 42.2801 154.449 45.3287 154.513 49.3981C154.633 56.9318 151.859 63.223 146.194 68.2695C140.602 73.2282 134.603 75.7699 128.197 75.8933C126.504 75.926 124.476 75.7481 122.113 75.3609ZM130.439 70.9117C133.899 70.845 136.971 69.4865 139.653 66.8361C142.337 64.1857 144.208 61.4215 145.267 58.5423C146.401 55.6616 146.948 53.0524 146.911 50.7145C146.874 48.3766 146.069 46.3556 144.495 44.6539C142.921 42.8647 141.102 41.9899 139.041 42.0297C135.359 42.1006 131.983 45.1551 128.911 51.1908C125.914 57.2263 123.803 63.4604 122.579 69.8945C125.831 70.6109 128.45 70.95 130.439 70.9117Z" fill="hsl(42, 100%, 36%)"/>
<path d="M170.258 6.2326C171.113 4.31039 172.717 3.32653 175.073 3.28114C175.588 3.2712 176.105 3.34791 176.623 3.51113C176.843 8.098 177.12 20.9134 177.452 41.9566C177.524 41.8689 177.849 41.4731 178.427 40.768C179.08 40.0626 179.477 39.6222 179.622 39.4456C179.766 39.2702 180.128 38.8737 180.708 38.256C181.286 37.552 181.72 37.1097 182.012 36.9315C182.377 36.6644 182.85 36.3088 183.432 35.8649C184.013 35.3335 184.523 34.9772 184.961 34.795C185.399 34.5265 185.911 34.2577 186.495 33.9863C187.593 33.5324 188.878 33.2907 190.35 33.2623C195.799 33.1573 200.222 35.7571 203.62 41.0628C207.017 46.281 208.767 52.1818 208.871 58.7629C208.975 65.3439 208.228 71.6393 206.629 77.6466C205.029 83.5688 202.496 88.7707 199.032 93.2557C195.567 97.7407 191.479 100.029 186.767 100.119C182.129 100.209 178.195 98.2481 174.965 94.2397C171.808 90.2287 170.189 85.6259 170.107 80.4301C170.023 75.1468 170.127 65.4429 170.419 51.3182C170.71 37.1061 170.807 26.9253 170.709 20.7768C170.611 14.5421 170.461 9.69366 170.258 6.2326ZM187.44 93.7392C190.311 93.6839 192.863 92.0321 195.095 88.7839C199.633 82.3735 201.81 73.3656 201.627 61.7613C201.528 55.5254 200.411 50.0463 198.274 45.324C196.136 40.5142 193.189 38.1449 189.434 38.2173C187.3 38.2584 185.442 39.5504 183.862 42.0932C182.28 44.5486 181.079 47.8201 180.26 51.9077C178.689 59.6478 177.978 68.2367 178.127 77.6768C178.253 85.6431 179.729 90.51 182.556 92.2739C183.821 93.1161 185.45 93.6038 187.44 93.7392Z" fill="hsl(42, 100%, 36%)"/>
<path d="M16.3222 11.5466C16.1368 13.8024 15.7195 17.7083 15.0706 23.2646C14.496 28.8206 14.0523 33.3769 13.7407 36.9345C12.8047 47.6074 12.3915 56.4076 12.501 63.3349C12.6106 70.2634 12.8795 75.6726 13.3099 79.5623C13.8113 83.3632 14.5321 86.9885 15.4701 90.4345C16.4068 93.7955 17.7381 96.4548 19.4628 98.4138C21.2619 100.372 23.3386 101.329 25.6951 101.283C29.0816 101.218 32.0294 98.9951 34.5374 94.616C37.1199 90.2343 39.0933 84.6524 40.4596 77.8693C41.8236 70.9998 42.9669 64.0903 43.8874 57.1431C44.8822 50.1945 45.8064 43.4199 46.66 36.8192C47.586 30.2183 48.4724 25.6967 49.3174 23.2543C51.2804 21.6582 52.7779 20.849 53.8089 20.8292C54.8389 20.8093 55.6143 20.925 56.1339 21.1739C56.6418 25.3223 57.2027 32.8918 57.8187 43.8812C58.5068 54.7829 59.3031 63.2565 60.2089 69.303C61.1881 75.347 62.3739 80.4784 63.7665 84.6972C65.2323 88.9134 67.3505 92.4242 70.12 95.2296C72.888 97.9476 76.0386 99.2725 79.5728 99.2044C83.1804 99.1349 86.0949 97.1297 88.3154 93.1889C90.5359 89.2481 92.1113 84.0203 93.0386 77.5057C94.6961 65.866 95.4271 53.8977 95.2327 41.6008C95.0369 29.2176 94.0009 19.5788 92.1248 12.6845C93.9401 11.0903 95.622 10.2783 97.1676 10.2485C98.7141 10.2187 100.062 11.622 101.212 14.4586C102.361 17.2948 103.191 20.9168 103.703 25.3252C104.639 33.277 105.159 40.4997 105.261 46.9945C105.364 53.4892 104.952 60.0382 104.025 66.6391C103.098 73.24 101.575 79.4197 99.4569 85.1781C97.4106 90.8488 94.4631 95.4102 90.6145 98.8622C86.8379 102.226 82.4097 103.958 77.33 104.055C73.9412 104.034 70.8708 103.141 68.1177 101.374C65.4368 99.5211 63.2675 97.3538 61.6079 94.8734C59.9469 92.3067 58.4213 88.9572 57.0302 84.827C55.0214 78.888 53.281 71.2981 51.8091 62.0584C48.9183 74.8475 46.4431 83.6873 44.3844 88.578C39.3418 100.37 32.2565 106.397 23.1284 106.659C17.2388 106.773 12.7805 104.346 9.7568 99.3811C7.10807 94.9276 5.38823 88.6366 4.59731 80.5094C4.32146 77.0494 4.14913 73.1115 4.0793 68.6946C3.85066 54.2336 5.5467 35.7499 9.16841 13.2437C11.0612 11.9078 12.5608 11.2293 13.6651 11.208C14.8429 11.1853 15.7293 11.2982 16.3222 11.5466Z" stroke="hsl(42, 100%, 36%)" stroke-width="6.25906"/>
<path d="M122.113 75.3609C121.994 77.0953 121.938 78.2663 121.947 78.8714C122.029 84.0684 123.419 88.0691 126.115 90.876C128.884 93.6814 132.109 95.0481 135.791 94.9771C139.472 94.9062 142.444 94.2424 144.707 92.9869C147.044 91.7288 148.717 90.3972 149.726 88.991C152.315 85.043 154.585 83.0503 156.794 83.0077C157.604 82.9921 158.566 83.2337 159.678 83.7324C159.009 87.9898 156.401 91.9381 151.597 95.5823C146.867 99.1388 140.857 100.987 133.567 101.127C128.414 101.226 123.929 99.407 120.115 95.6688C116.371 91.8429 114.448 86.5962 114.342 79.9278C114.237 73.2604 115.239 66.7875 117.349 60.5091C119.531 54.1441 122.686 48.7121 126.813 44.2143C131.012 39.6288 135.283 37.2954 139.627 37.2117C144.045 37.1266 147.596 38.1406 150.281 40.2548C153.038 42.2801 154.449 45.3287 154.513 49.3981C154.633 56.9318 151.859 63.223 146.194 68.2695C140.602 73.2282 134.603 75.7699 128.197 75.8933C126.504 75.926 124.476 75.7481 122.113 75.3609ZM130.439 70.9117C133.899 70.845 136.971 69.4865 139.653 66.8361C142.337 64.1857 144.208 61.4215 145.267 58.5423C146.401 55.6616 146.948 53.0524 146.911 50.7145C146.874 48.3766 146.069 46.3556 144.495 44.6539C142.921 42.8647 141.102 41.9899 139.041 42.0297C135.359 42.1006 131.983 45.1551 128.911 51.1908C125.914 57.2263 123.803 63.4604 122.579 69.8945C125.831 70.6109 128.45 70.95 130.439 70.9117Z" stroke="hsl(42, 100%, 36%)" stroke-width="6.25906"/>
<path d="M170.258 6.2326C171.113 4.31039 172.717 3.32653 175.073 3.28114C175.588 3.2712 176.105 3.34791 176.623 3.51113C176.843 8.098 177.12 20.9134 177.452 41.9566C177.524 41.8689 177.849 41.4731 178.427 40.768C179.08 40.0626 179.477 39.6222 179.622 39.4456C179.766 39.2702 180.128 38.8737 180.708 38.256C181.286 37.552 181.72 37.1097 182.012 36.9315C182.377 36.6644 182.85 36.3088 183.432 35.8649C184.013 35.3335 184.523 34.9772 184.961 34.795C185.399 34.5265 185.911 34.2577 186.495 33.9863C187.593 33.5324 188.878 33.2907 190.35 33.2623C195.799 33.1573 200.222 35.7571 203.62 41.0628C207.017 46.281 208.767 52.1818 208.871 58.7629C208.975 65.3439 208.228 71.6393 206.629 77.6466C205.029 83.5688 202.496 88.7707 199.032 93.2557C195.567 97.7407 191.479 100.029 186.767 100.119C182.129 100.209 178.195 98.2481 174.965 94.2397C171.808 90.2287 170.189 85.6259 170.107 80.4301C170.023 75.1468 170.127 65.4429 170.419 51.3182C170.71 37.1061 170.807 26.9253 170.709 20.7768C170.611 14.5421 170.461 9.69366 170.258 6.2326ZM187.44 93.7392C190.311 93.6839 192.863 92.0321 195.095 88.7839C199.633 82.3735 201.81 73.3656 201.627 61.7613C201.528 55.5254 200.411 50.0463 198.274 45.324C196.136 40.5142 193.189 38.1449 189.434 38.2173C187.3 38.2584 185.442 39.5504 183.862 42.0932C182.28 44.5486 181.079 47.8201 180.26 51.9077C178.689 59.6478 177.978 68.2367 178.127 77.6768C178.253 85.6431 179.729 90.51 182.556 92.2739C183.821 93.1161 185.45 93.6038 187.44 93.7392Z" stroke="hsl(42, 100%, 36%)" stroke-width="6.25906"/>
</svg>
