<svg width="53" height="53" viewBox="0 0 53 53" fill="none" xmlns="http://www.w3.org/2000/svg">
<rect width="53" height="53" fill="#3477F2"/>
<path d="M45.0192 26.6922C45.0192 35.5182 38.8943 42.8899 30.6918 44.7705V29.3547H35.1213V24.207H30.647V23.058C30.647 20.8517 31.6061 19.0584 33.8879 19.0584C34.8022 19.0584 35.5333 19.197 36.1277 19.3805L36.4003 14.0025C35.4413 13.7271 34.257 13.5418 32.7036 13.5418C30.6953 13.5418 28.274 14.1419 26.5401 15.7957C24.53 17.6349 23.7086 20.6222 23.7086 23.3333V24.2061H20.7859V29.3539H23.7077V45C14.8986 43.6065 8.15385 35.9524 8.15385 26.6922C8.15385 16.4435 16.4072 8.13461 26.5874 8.13461C36.7676 8.13373 45.0192 16.4426 45.0192 26.6922Z" fill="white"/>
</svg>
