<svg width="53" height="53" viewBox="0 0 53 53" fill="none" xmlns="http://www.w3.org/2000/svg">
<rect width="53" height="53" fill="#F77737"/>
<path d="M26.5001 7C21.2041 7 20.5401 7.02247 18.4602 7.11738C16.3846 7.21206 14.9671 7.54166 13.7267 8.02375C12.4444 8.52207 11.3569 9.18888 10.2729 10.273C9.18881 11.357 8.522 12.4445 8.02368 13.7268C7.54158 14.9671 7.21199 16.3846 7.11731 18.4602C7.02239 20.5401 7 21.2041 7 26.5001C7 31.7959 7.02239 32.4599 7.11731 34.5398C7.21199 36.6154 7.54158 38.0329 8.02368 39.2732C8.522 40.5555 9.18881 41.643 10.2729 42.7272C11.3569 43.8112 12.4444 44.478 13.7267 44.9763C14.9671 45.4583 16.3846 45.788 18.4602 45.8827C20.5401 45.9775 21.2041 46 26.5001 46C31.7959 46 32.4599 45.9775 34.5398 45.8827C36.6154 45.788 38.0329 45.4583 39.2732 44.9763C40.5555 44.478 41.643 43.8112 42.7272 42.7272C43.8112 41.643 44.478 40.5555 44.9763 39.2732C45.4583 38.0329 45.788 36.6154 45.8827 34.5398C45.9775 32.4599 46 31.7959 46 26.5001C46 21.2041 45.9775 20.5401 45.8827 18.4602C45.788 16.3846 45.4583 14.9671 44.9763 13.7268C44.478 12.4445 43.8112 11.357 42.7272 10.273C41.643 9.18888 40.5555 8.52207 39.2732 8.02375C38.0329 7.54166 36.6154 7.21206 34.5398 7.11738C32.4599 7.02247 31.7959 7 26.5001 7V7ZM26.5001 10.5136C31.7067 10.5136 32.3235 10.5334 34.3797 10.6272C36.2809 10.714 37.3134 11.0316 38.0006 11.2986C38.9107 11.6524 39.5603 12.075 40.2427 12.7573C40.9251 13.4397 41.3476 14.0893 41.7014 14.9994C41.9684 15.6866 42.2861 16.7191 42.3728 18.6203C42.4666 20.6766 42.4865 21.2933 42.4865 26.5001C42.4865 31.7067 42.4666 32.3235 42.3728 34.3797C42.2861 36.2809 41.9684 37.3134 41.7014 38.0006C41.3476 38.9107 40.9251 39.5603 40.2427 40.2427C39.5603 40.9251 38.9107 41.3476 38.0006 41.7014C37.3134 41.9684 36.2809 42.2861 34.3797 42.3728C32.3238 42.4666 31.7071 42.4865 26.5001 42.4865C21.2929 42.4865 20.6763 42.4666 18.6203 42.3728C16.7191 42.2861 15.6866 41.9684 14.9994 41.7014C14.0893 41.3476 13.4397 40.9251 12.7572 40.2427C12.0749 39.5603 11.6523 38.9107 11.2986 38.0006C11.0316 37.3134 10.7139 36.2809 10.6272 34.3797C10.5333 32.3235 10.5135 31.7067 10.5135 26.5001C10.5135 21.2933 10.5333 20.6766 10.6272 18.6203C10.7139 16.7191 11.0316 15.6866 11.2986 14.9994C11.6523 14.0893 12.0749 13.4397 12.7572 12.7573C13.4397 12.075 14.0893 11.6524 14.9994 11.2986C15.6866 11.0316 16.7191 10.714 18.6203 10.6272C20.6766 10.5334 21.2933 10.5136 26.5001 10.5136V10.5136Z" fill="white"/>
<path d="M26.5006 32.9993C22.9107 32.9993 20.0005 30.0892 20.0005 26.4994C20.0005 22.9095 22.9107 19.9993 26.5006 19.9993C30.0904 19.9993 33.0005 22.9095 33.0005 26.4994C33.0005 30.0892 30.0904 32.9993 26.5006 32.9993ZM26.5006 16.4858C20.9702 16.4858 16.487 20.969 16.487 26.4994C16.487 32.0297 20.9702 36.5129 26.5006 36.5129C32.0308 36.5129 36.514 32.0297 36.514 26.4994C36.514 20.969 32.0308 16.4858 26.5006 16.4858V16.4858Z" fill="white"/>
<path d="M39.2496 16.0907C39.2496 17.3831 38.2019 18.4307 36.9096 18.4307C35.6172 18.4307 34.5696 17.3831 34.5696 16.0907C34.5696 14.7984 35.6172 13.7508 36.9096 13.7508C38.2019 13.7508 39.2496 14.7984 39.2496 16.0907V16.0907Z" fill="white"/>
</svg>
