<svg width="53" height="53" viewBox="0 0 53 53" fill="none" xmlns="http://www.w3.org/2000/svg">
<rect width="53" height="53" fill="#1DA1F2"/>
<path d="M21.4498 40C33.9889 40 40.8474 29.6114 40.8474 20.6024C40.8474 20.3074 40.8474 20.0137 40.8274 19.7212C42.1616 18.7561 43.3134 17.5612 44.2287 16.1924C42.9845 16.7437 41.6645 17.1052 40.313 17.265C41.7359 16.4132 42.8015 15.0725 43.3102 13.4941C41.9721 14.2882 40.5079 14.8479 38.9812 15.149C37.6922 13.7782 35.8919 13 34.0104 13C30.2668 13 27.1865 16.0804 27.1865 19.8238C27.1865 20.3432 27.2458 20.8609 27.3631 21.3667C21.8844 21.0921 16.7728 18.5006 13.3127 14.2438C11.5134 17.3412 12.4444 21.3553 15.4234 23.3444C14.3386 23.3123 13.2771 23.0196 12.3291 22.4911V22.5775C12.3301 25.8104 14.6297 28.6204 17.7986 29.2605C16.795 29.5342 15.7417 29.5742 14.7203 29.3775C15.6112 32.1477 18.1802 34.0573 21.0896 34.1119C18.676 36.0087 15.6927 37.0391 12.6229 37.036C12.0805 37.035 11.5385 37.0021 11 36.9376C14.1174 38.9382 17.7457 39.9996 21.4498 39.9947" fill="white"/>
</svg>
