<svg width="53" height="53" viewBox="0 0 53 53" fill="none" xmlns="http://www.w3.org/2000/svg">
<rect width="53" height="53" fill="#FF001D"/>
<path fill-rule="evenodd" clip-rule="evenodd" d="M41.0964 14.7647C42.6869 15.1766 43.9411 16.3823 44.3692 17.9119C45.1647 20.7057 45.1341 26.5294 45.1341 26.5294C45.1341 26.5294 45.1341 32.3234 44.3695 35.1176C43.9411 36.6469 42.6872 37.8529 41.0964 38.2645C38.1905 39 26.5671 39 26.5671 39C26.5671 39 14.974 39 12.0377 38.2353C10.447 37.8234 9.19302 36.6175 8.76466 35.0881C8 32.3234 8 26.5 8 26.5C8 26.5 8 20.7057 8.76466 17.9119C9.19274 16.3825 10.4776 15.1471 12.0375 14.7355C14.9434 14 26.5668 14 26.5668 14C26.5668 14 38.1905 14 41.0964 14.7647ZM32.5316 26.5L22.8659 31.853V21.1471L32.5316 26.5Z" fill="white"/>
</svg>
