<svg width="48" height="57" viewBox="0 0 48 57" fill="none" xmlns="http://www.w3.org/2000/svg">
<path d="M46.3738 18.8535C43.4974 15.2465 39.4548 13.1532 35.637 13.1532C30.597 13.1532 28.4651 15.5661 24.9634 15.5661C21.3529 15.5661 18.6099 13.1602 14.2512 13.1602C9.96983 13.1602 5.41099 15.7768 2.52045 20.2514C-1.54317 26.5523 -0.847759 38.3989 5.73763 48.4895C8.09432 52.1001 11.2413 56.1602 15.3576 56.1953C19.0208 56.2304 20.0534 53.8456 25.0161 53.821C29.9789 53.7929 30.9201 56.2269 34.5764 56.1883C38.6962 56.1567 42.0152 51.6575 44.3719 48.047C46.0613 45.4585 46.6899 44.1554 48 41.2333C38.4714 37.6052 36.9436 24.0551 46.3738 18.8535Z" fill="black"/>
<path d="M34.5342 0C31.5383 0.20722 28.0366 2.12488 25.996 4.62206C24.1345 6.88744 22.6032 10.2521 23.2003 13.522C26.4737 13.6238 29.8559 11.6605 31.8157 9.1212C33.6491 6.75748 35.0364 3.41386 34.5342 0Z" fill="black"/>
</svg>
