<svg width="49" height="49" viewBox="0 0 49 49" fill="none" xmlns="http://www.w3.org/2000/svg">
<circle cx="24.5" cy="24.5" r="22" fill="white" stroke="black" stroke-width="5"/>
<path d="M36.0291 22.4415L24.8773 11.2989C24.7724 11.1942 24.6309 11.1364 24.4826 11.1364C24.3344 11.1364 24.1928 11.1954 24.088 11.3L12.9696 22.4415C12.8102 22.6007 12.7633 22.8401 12.8492 23.0483C12.9361 23.2564 13.139 23.3912 13.3642 23.3912H19.4953V37.307C19.4953 37.6142 19.745 37.8636 20.0526 37.8636H28.9706C29.2782 37.8636 29.528 37.6142 29.528 37.307V23.3911H35.6356C35.8608 23.3911 36.0637 23.2553 36.1506 23.0471C36.2376 22.839 36.1885 22.6007 36.0291 22.4415Z" fill="black"/>
</svg>
