<svg width="47" height="26" viewBox="0 0 47 26" fill="none" xmlns="http://www.w3.org/2000/svg">
<path d="M8.49413 23.4258H0V26H8.49413V23.4258Z" fill="black"/>
<path d="M8.49413 20.0796H0V22.6548H8.49413V20.0796Z" fill="black"/>
<path d="M8.49413 16.7335H0V19.3087H8.49413V16.7335Z" fill="black"/>
<path d="M8.49413 13.3869H0V15.9607H8.49413V13.3869Z" fill="black"/>
<path d="M8.49413 10.0408H0V12.6141H8.49413V10.0408Z" fill="black"/>
<path d="M18.0192 23.4258H9.52412V26H18.0192V23.4258Z" fill="black"/>
<path d="M18.0192 20.0796H9.52412V22.6548H18.0192V20.0796Z" fill="black"/>
<path d="M18.0192 16.7335H9.52412V19.3087H18.0192V16.7335Z" fill="black"/>
<path d="M27.5442 23.4258H19.0492V26H27.5442V23.4258Z" fill="black"/>
<path d="M27.5442 20.0796H19.0492V22.6548H27.5442V20.0796Z" fill="black"/>
<path d="M27.5442 16.7335H19.0492V19.3087H27.5442V16.7335Z" fill="black"/>
<path d="M27.5442 13.3869H19.0492V15.9607H27.5442V13.3869Z" fill="black"/>
<path d="M27.5442 10.0408H19.0492V12.6141H27.5442V10.0408Z" fill="black"/>
<path d="M27.5442 6.69368H19.0492V9.26792H27.5442V6.69368Z" fill="black"/>
<path d="M27.5442 3.34755H19.0492V5.92226H27.5442V3.34755Z" fill="black"/>
<path d="M37.0688 23.4258H28.5733V26H37.0688V23.4258Z" fill="black"/>
<path d="M37.0688 20.0796H28.5733V22.6548H37.0688V20.0796Z" fill="black"/>
<path d="M37.0688 16.7335H28.5733V19.3087H37.0688V16.7335Z" fill="black"/>
<path d="M37.0688 13.3869H28.5733V15.9607H37.0688V13.3869Z" fill="black"/>
<path d="M37.0688 10.0408H28.5733V12.6141H37.0688V10.0408Z" fill="black"/>
<path d="M46.5934 23.4258H38.0983V26H46.5934V23.4258Z" fill="black"/>
<path d="M46.5934 20.0796H38.0983V22.6548H46.5934V20.0796Z" fill="black"/>
<path d="M46.5934 16.7325H38.0983V19.3068H46.5934V16.7325Z" fill="black"/>
<path d="M46.5934 13.3869H38.0983V15.9611H46.5934V13.3869Z" fill="black"/>
<path d="M46.5934 10.0398H38.0983V12.6145H46.5934V10.0398Z" fill="black"/>
<path d="M46.5934 6.69417H38.0983V9.26745H46.5934V6.69417Z" fill="black"/>
<path d="M46.5934 3.34709H38.0983V5.92038H46.5934V3.34709Z" fill="black"/>
<path d="M46.5934 0H38.0983V2.57424H46.5934V0Z" fill="black"/>
</svg>
