<svg width="62" height="67" viewBox="0 0 62 67" fill="none" xmlns="http://www.w3.org/2000/svg">
<path d="M7.27091 59.1722H47.4554L45.5362 53.0165L50.127 56.9193L54.3345 60.6545L62 67V6.90937C61.8084 3.17412 58.5618 0 54.5375 0L7.285 0.008375C3.26345 0.008375 0 3.18808 0 6.92333V52.26C0 56.199 3.25782 59.1722 7.27091 59.1722V59.1722ZM36.9971 15.865L36.9041 15.8985L36.9379 15.865H36.9971ZM15.4915 19.4077C20.6573 15.6836 25.4454 15.8623 25.4454 15.8623L25.8315 16.2391C19.5103 17.7327 16.6442 20.5299 16.6442 20.5299C16.6442 20.5299 17.4107 20.1586 18.7494 19.5919C27.2631 16.2754 36.5603 16.5155 45.167 20.7142C45.167 20.7142 42.2953 18.0984 36.363 16.4234L36.8872 15.9125C37.7073 15.9153 42.0473 16.066 46.6916 19.43C46.6916 19.43 51.8884 28.2237 51.8884 39.0275C51.7165 38.8209 48.6644 43.6784 40.8101 43.8459C40.8101 43.8459 39.4799 42.3552 38.533 41.0543C43.1266 39.7478 44.8457 37.1348 44.8457 37.1348C43.338 38.0755 41.9627 38.6339 40.8467 39.1922C39.1305 39.9404 37.4114 40.3089 35.6951 40.6858C27.5675 41.9923 23.0048 39.8064 18.693 38.0727L17.2191 37.3302C17.2191 37.3302 18.9354 39.9432 23.3458 41.2497C22.1875 42.559 21.0405 44.0469 21.0405 44.0469C13.1891 43.8627 10.3258 39.0052 10.3258 39.0052C10.3258 28.1847 15.4915 19.4077 15.4915 19.4077V19.4077Z" fill="black"/>
<path d="M37.5 36C39.4291 36 41 34.2056 41 31.9925C41 29.7944 39.4372 28 37.5 28V28.009C35.5791 28.009 34.0054 29.7974 34 32.0105C34 34.2056 35.5709 36 37.5 36Z" fill="black"/>
<path d="M24.5 36C26.4291 36 28 34.2056 28 31.9925C28 29.7944 26.4399 28 24.5109 28L24.5 28.009C22.5709 28.009 21 29.7974 21 32.0105C21 34.2056 22.5709 36 24.5 36V36Z" fill="black"/>
</svg>
