<svg width="42" height="43" viewBox="0 0 42 43" fill="none" xmlns="http://www.w3.org/2000/svg">
<path d="M21.4242 43C33.7874 43 42 34.2911 42 21.9988C42 20.5913 41.8543 19.5048 41.6515 18.4212H21.4271V25.8115H33.5874C33.0904 28.9505 29.9053 35.0794 21.4271 35.0794C14.1228 35.0794 8.15833 29.0078 8.15833 21.5C8.15833 13.9922 14.12 7.91773 21.4271 7.91773C25.6062 7.91773 28.3828 9.70653 29.9625 11.2316L35.7784 5.63013C32.0335 2.11273 27.2116 0 21.4242 0C9.58661 0 0 9.62053 0 21.5C0 33.3795 9.58661 43 21.4242 43V43Z" fill="black"/>
</svg>
