<svg width="48" height="48" viewBox="0 0 48 48" fill="none" xmlns="http://www.w3.org/2000/svg">
<path d="M24.001 0C10.75 0 0 10.736 0 23.9874C0 37.2514 10.75 48 24.0009 48C37.2591 48 48 37.2513 48 23.9874C48.0001 10.736 37.2591 0 24.001 0ZM25.7113 37.3416C25.1539 37.8377 24.5079 38.087 23.776 38.087C23.0189 38.087 22.3584 37.8421 21.7946 37.3515C21.23 36.8618 20.9471 36.1761 20.9471 35.2952C20.9471 34.5137 21.2208 33.8559 21.7666 33.3229C22.3124 32.7898 22.9818 32.5232 23.776 32.5232C24.5575 32.5232 25.2153 32.7898 25.7493 33.3229C26.2824 33.8559 26.5498 34.5136 26.5498 35.2952C26.5488 36.1635 26.2696 36.8457 25.7113 37.3416ZM32.662 20.1105C32.2338 20.9047 31.7251 21.5895 31.1351 22.1669C30.5469 22.7442 29.4889 23.7145 27.9619 25.0788C27.5409 25.4637 27.2021 25.8015 26.9482 26.0924C26.6943 26.3843 26.5046 26.6507 26.3808 26.8929C26.2561 27.135 26.1604 27.3772 26.0926 27.6193C26.0248 27.8605 25.9227 28.2861 25.7844 28.894C25.5496 30.1842 24.8114 30.8292 23.5708 30.8292C22.9257 30.8292 22.3836 30.6187 21.9418 30.1968C21.5017 29.7749 21.2822 29.1488 21.2822 28.3176C21.2822 27.2759 21.4439 26.3733 21.7665 25.6099C22.0873 24.8465 22.5164 24.177 23.0495 23.5997C23.5835 23.0224 24.3027 22.3375 25.2089 21.5433C26.0031 20.8486 26.5769 20.3246 26.9301 19.9713C27.2842 19.6171 27.5816 19.2232 27.8228 18.7895C28.0659 18.3549 28.1851 17.8842 28.1851 17.3756C28.1851 16.3827 27.8174 15.5461 27.0784 14.864C26.3402 14.1819 25.3879 13.8403 24.2214 13.8403C22.8562 13.8403 21.8515 14.1845 21.2064 14.873C20.5613 15.5614 20.0165 16.5751 19.5692 17.915C19.1464 19.3173 18.3459 20.0183 17.1685 20.0183C16.4737 20.0183 15.8874 19.7734 15.4094 19.2837C14.9324 18.794 14.6938 18.2637 14.6938 17.6927C14.6938 16.5145 15.0724 15.3201 15.8287 14.1104C16.5859 12.9007 17.69 11.8987 19.1418 11.1054C20.5928 10.3112 22.287 9.91366 24.2214 9.91366C26.0203 9.91366 27.6078 10.2461 28.9848 10.9102C30.3617 11.5733 31.426 12.476 32.1768 13.6179C32.9268 14.759 33.3026 15.9995 33.3026 17.3394C33.3044 18.3921 33.0903 19.3164 32.662 20.1105Z" fill="#010002"/>
</svg>
