<svg viewBox="0 0 48 48" fill="none" xmlns="http://www.w3.org/2000/svg">
<path d="M2.50506 17.6924C2.55953 18.0008 2.73412 18.2749 2.99074 18.4545C3.19068 18.5943 3.42714 18.6678 3.66786 18.6678C3.73618 18.6678 3.80498 18.662 3.87315 18.6499L17.8263 16.1865C18.4685 16.0732 18.8972 15.4607 18.7838 14.8186L18.2364 11.7179C18.1231 11.0757 17.511 10.6471 16.8683 10.7604L11.0542 11.7869C11.8722 10.8204 12.7979 9.93861 13.8289 9.14924C16.94 6.76774 20.6552 5.50891 24.5731 5.50891C30.1491 5.50891 35.2831 8.03776 38.6585 12.447C41.0482 15.5686 42.3099 19.2908 42.307 23.2109C42.3066 23.863 42.8349 24.3919 43.487 24.3924L46.6357 24.3948C46.636 24.3948 46.6361 24.3948 46.6364 24.3948C46.9493 24.3948 47.2495 24.2705 47.4707 24.0495C47.6924 23.8282 47.8169 23.5279 47.8172 23.2148C47.8208 18.0718 46.1668 13.1901 43.0339 9.09744C38.6078 3.31602 31.8779 0 24.5693 0C19.4315 0 14.5593 1.65069 10.4795 4.77385C9.00312 5.90406 7.66761 7.21092 6.50481 8.65332L5.46811 2.78122C5.35476 2.13905 4.74266 1.7102 4.10001 1.82371L0.999364 2.3711C0.357193 2.48446 -0.0714976 3.09687 0.0418544 3.73904L2.50506 17.6924Z" fill="#231F20"/>
<path d="M45.312 30.3075C45.2575 29.9993 45.0828 29.725 44.8263 29.5454C44.5697 29.3659 44.2523 29.2954 43.9441 29.35L29.9909 31.8134C29.3487 31.9267 28.92 32.5391 29.0334 33.1813L29.5808 36.2819C29.6941 36.9241 30.3064 37.3523 30.9487 37.2395L36.763 36.213C35.945 37.1796 35.0193 38.0613 33.9883 38.8506C30.8774 41.2321 27.1621 42.491 23.2442 42.491C17.6681 42.491 12.5342 39.9621 9.15869 35.5529C6.76901 32.4313 5.50734 28.7091 5.51017 24.789C5.51064 24.1369 4.9823 23.6079 4.33021 23.6075L1.18154 23.6051C1.18123 23.6051 1.18107 23.6051 1.18076 23.6051C0.867936 23.6051 0.567868 23.7293 0.346517 23.9504C0.124851 24.1717 0.000320799 24.4719 5.93258e-06 24.7851C-0.00361503 29.9281 1.65038 34.8098 4.7833 38.9024C9.20938 44.684 15.9393 48 23.2477 48C28.3855 48 33.2578 46.3492 37.3377 43.226C38.8141 42.0958 40.1496 40.7889 41.3124 39.3465L42.3491 45.2187C42.4502 45.7914 42.9483 46.1944 43.5105 46.1944C43.5786 46.1944 43.6478 46.1884 43.7172 46.1762L46.8178 45.6288C47.46 45.5154 47.8887 44.903 47.7754 44.2607L45.312 30.3075Z" fill="#231F20"/>
</svg>
