<svg width="150" height="204" viewBox="0 0 150 204" fill="none" xmlns="http://www.w3.org/2000/svg">
<path d="M118.717 148.799C125.608 128.987 122.645 118.363 115.736 112.473C127.904 109.534 138.466 106.612 139.659 105.083C145.429 97.661 139.622 78.251 128.717 80.329C124.889 81.058 116.323 85.021 106.838 89.855C109.592 85.405 111.495 80.402 112.369 75.037C118.608 72.995 123.472 66.092 123.507 58.723C123.513 57.658 123.413 56.583 123.19 55.515C121.868 49.194 117.99 43.861 113.346 41.706C112.133 38.761 110.315 35.163 107.671 31.524C105.511 28.517 102.725 25.489 99.253 22.836C98.027 17.757 96.705 12.899 95.338 8.992C94.456 6.477 93.561 4.358 92.634 2.8C91.675 1.296 90.757 0.092 89.15 0C89.046 0 88.919 0.009 88.77 0.03C86.345 0.526 84.67 2.996 82.851 6.224C81.511 8.691 80.207 11.71 78.994 14.83C77.182 14.626 75.308 14.505 73.33 14.511C68.73 14.514 63.697 15.101 58.177 16.411C53.126 17.609 48.693 19.138 44.768 20.915C43.484 19.262 42.185 17.704 40.922 16.358C38.408 13.764 36.171 11.842 33.751 11.757C33.565 11.76 33.379 11.78 33.193 11.807C31.865 12.07 31.183 13.156 30.672 14.38C29.266 17.871 28.845 24.503 28.78 32.117C27.172 33.846 25.767 35.629 24.583 37.432C18.849 46.159 17.725 55.186 17.725 61.051C17.719 61.231 17.725 61.399 17.732 61.573C16.03 64.601 15.018 68.346 15.003 72.241C14.997 72.285 15.003 72.336 15.007 72.383C15.132 81.55 23.012 89.249 30.919 89.305C30.925 89.305 30.931 89.305 30.937 89.311C32.802 89.305 34.654 88.824 36.379 87.838C40.339 95.153 46.499 101.095 53.945 104.845C36.246 104.111 15.151 103.623 12.908 105.273C5.226 110.924 5.226 131.096 16.325 131.908C21.047 132.257 33.798 129.806 46.899 126.894C44.116 130.896 41.794 135.337 40.238 140.08C21.426 137.731 9.236 138.498 2.569 142.361L2.581 142.379C1.049 143.268 0.007 144.905 0 146.809C0 149.658 2.306 151.962 5.148 151.962C6.092 151.959 6.957 151.688 7.715 151.251L7.724 151.263C11.149 149.285 19.331 147.874 38.281 150.203C37.667 160.517 41.256 171.664 51.947 182.483C28.382 170.896 13.515 178.599 24.12 202.064C36.241 205.532 72.856 201.577 76.482 199.101C78.607 197.637 68.836 174.435 66.67 154.874C68.228 155.062 69.718 155.178 71.123 155.172C77.324 155.178 82.031 153.28 85.168 149.515C90.421 143.211 89.074 133.903 87.653 128.552C111.959 133.324 99.872 167.301 103.401 169.087C112.694 173.771 135.832 170.014 147.406 165.183C154.081 140.02 140.131 133.831 118.717 148.799ZM29.452 54.866C28.853 54.742 28.242 54.668 27.646 54.674C26.359 54.692 25.123 54.99 23.966 55.503C24.552 51.307 25.946 46.42 28.874 41.629C29 46.249 29.218 50.823 29.452 54.866ZM59.522 22.09C64.647 20.874 69.229 20.346 73.331 20.346C74.582 20.352 75.782 20.42 76.943 20.512C76.037 23.171 75.231 25.718 74.582 27.878C73.791 27.836 73.003 27.763 72.212 27.766C65.2 27.76 58.613 29.537 52.858 32.65C51.549 30.578 50.028 28.229 48.384 25.868C48.356 25.826 48.325 25.782 48.298 25.738C51.574 24.333 55.287 23.105 59.522 22.09ZM77.255 142.938C75.654 144.836 71.814 145.346 66.384 144.432C67.006 136.653 69.908 130.573 76.864 128.516C78.188 132.016 79.899 139.766 77.255 142.938ZM100.074 89.268C98.109 89.08 96.22 88.988 94.392 88.95L89.658 77.85L87.579 89.085C79.729 89.607 73.478 91.307 68.755 93.178L61.936 84.814L63.078 95.852C59.512 97.834 57.733 99.476 57.733 99.476C51.763 93.47 46.973 83.112 44.792 78.587C47.522 76.687 50.402 75.016 53.367 73.541L60.755 81.733L59.067 70.979C67.668 67.512 76.597 65.511 84.436 64.369L89.404 73.444L90.229 63.658C95.752 63.085 100.426 62.932 103.557 62.917C103.63 76.067 101.486 85.03 100.074 89.268ZM101.582 33.201C102.057 33.785 102.52 34.367 102.954 34.954C104.461 37.029 105.652 39.095 106.6 41.019C105.569 41.323 104.559 41.825 103.607 42.545C103.546 42.462 103.461 42.398 103.396 42.312C102.875 39.538 102.255 36.436 101.582 33.201Z" fill="black"/>
</svg>
