<svg id="monstercat-logo" width="900" height="204" viewBox="0 0 900 204" fill="none" xmlns="http://www.w3.org/2000/svg">
<path d="M118.717 148.799C125.608 128.987 122.645 118.363 115.736 112.473C127.904 109.534 138.466 106.612 139.659 105.083C145.429 97.661 139.622 78.251 128.717 80.329C124.889 81.058 116.323 85.021 106.838 89.855C109.592 85.405 111.495 80.402 112.369 75.037C118.608 72.995 123.472 66.092 123.507 58.723C123.513 57.658 123.413 56.583 123.19 55.515C121.868 49.194 117.99 43.861 113.346 41.706C112.133 38.761 110.315 35.163 107.671 31.524C105.511 28.517 102.725 25.489 99.253 22.836C98.027 17.757 96.705 12.899 95.338 8.992C94.456 6.477 93.561 4.358 92.634 2.8C91.675 1.296 90.757 0.092 89.15 0C89.046 0 88.919 0.009 88.77 0.03C86.345 0.526 84.67 2.996 82.851 6.224C81.511 8.691 80.207 11.71 78.994 14.83C77.182 14.626 75.308 14.505 73.33 14.511C68.73 14.514 63.697 15.101 58.177 16.411C53.126 17.609 48.693 19.138 44.768 20.915C43.484 19.262 42.185 17.704 40.922 16.358C38.408 13.764 36.171 11.842 33.751 11.757C33.565 11.76 33.379 11.78 33.193 11.807C31.865 12.07 31.183 13.156 30.672 14.38C29.266 17.871 28.845 24.503 28.78 32.117C27.172 33.846 25.767 35.629 24.583 37.432C18.849 46.159 17.725 55.186 17.725 61.051C17.719 61.231 17.725 61.399 17.732 61.573C16.03 64.601 15.018 68.346 15.003 72.241C14.997 72.285 15.003 72.336 15.007 72.383C15.132 81.55 23.012 89.249 30.919 89.305C30.925 89.305 30.931 89.305 30.937 89.311C32.802 89.305 34.654 88.824 36.379 87.838C40.339 95.153 46.499 101.095 53.945 104.845C36.246 104.111 15.151 103.623 12.908 105.273C5.226 110.924 5.226 131.096 16.325 131.908C21.047 132.257 33.798 129.806 46.899 126.894C44.116 130.896 41.794 135.337 40.238 140.08C21.426 137.731 9.236 138.498 2.569 142.361L2.581 142.379C1.049 143.268 0.007 144.905 0 146.809C0 149.658 2.306 151.962 5.148 151.962C6.092 151.959 6.957 151.688 7.715 151.251L7.724 151.263C11.149 149.285 19.331 147.874 38.281 150.203C37.667 160.517 41.256 171.664 51.947 182.483C28.382 170.896 13.515 178.599 24.12 202.064C36.241 205.532 72.856 201.577 76.482 199.101C78.607 197.637 68.836 174.435 66.67 154.874C68.228 155.062 69.718 155.178 71.123 155.172C77.324 155.178 82.031 153.28 85.168 149.515C90.421 143.211 89.074 133.903 87.653 128.552C111.959 133.324 99.872 167.301 103.401 169.087C112.694 173.771 135.832 170.014 147.406 165.183C154.081 140.02 140.131 133.831 118.717 148.799ZM29.452 54.866C28.853 54.742 28.242 54.668 27.646 54.674C26.359 54.692 25.123 54.99 23.966 55.503C24.552 51.307 25.946 46.42 28.874 41.629C29 46.249 29.218 50.823 29.452 54.866ZM59.522 22.09C64.647 20.874 69.229 20.346 73.331 20.346C74.582 20.352 75.782 20.42 76.943 20.512C76.037 23.171 75.231 25.718 74.582 27.878C73.791 27.836 73.003 27.763 72.212 27.766C65.2 27.76 58.613 29.537 52.858 32.65C51.549 30.578 50.028 28.229 48.384 25.868C48.356 25.826 48.325 25.782 48.298 25.738C51.574 24.333 55.287 23.105 59.522 22.09ZM77.255 142.938C75.654 144.836 71.814 145.346 66.384 144.432C67.006 136.653 69.908 130.573 76.864 128.516C78.188 132.016 79.899 139.766 77.255 142.938ZM100.074 89.268C98.109 89.08 96.22 88.988 94.392 88.95L89.658 77.85L87.579 89.085C79.729 89.607 73.478 91.307 68.755 93.178L61.936 84.814L63.078 95.852C59.512 97.834 57.733 99.476 57.733 99.476C51.763 93.47 46.973 83.112 44.792 78.587C47.522 76.687 50.402 75.016 53.367 73.541L60.755 81.733L59.067 70.979C67.668 67.512 76.597 65.511 84.436 64.369L89.404 73.444L90.229 63.658C95.752 63.085 100.426 62.932 103.557 62.917C103.63 76.067 101.486 85.03 100.074 89.268ZM101.582 33.201C102.057 33.785 102.52 34.367 102.954 34.954C104.461 37.029 105.652 39.095 106.6 41.019C105.569 41.323 104.559 41.825 103.607 42.545C103.546 42.462 103.461 42.398 103.396 42.312C102.875 39.538 102.255 36.436 101.582 33.201Z" fill="black"/>
<path d="M256.732 106.765V145.285H237.251V106.25C237.251 100.747 236.413 96.704 234.734 94.124C233.058 91.543 230.348 90.253 226.606 90.253C222.867 90.253 219.553 91.652 216.672 94.446C213.792 97.241 212.351 101.347 212.351 106.765V145.285H193V76.558H212.351V82.641C217.681 76.62 223.787 73.609 230.669 73.609C235.058 73.609 239.033 74.9 242.604 77.48C246.172 80.061 248.861 83.201 250.667 86.899C253.332 82.686 256.923 79.416 261.439 77.093C265.957 74.771 270.49 73.609 275.05 73.609C283.222 73.609 289.8 76.042 294.791 80.899C299.778 85.759 302.272 92.791 302.272 101.992V145.285H282.791V106.25C282.791 95.587 278.878 90.253 271.051 90.253C267.182 90.253 263.826 91.652 260.988 94.446C258.152 97.241 256.732 101.347 256.732 106.765Z" fill="black"/>
<path d="M385.644 109.475C385.644 119.538 382.162 128.01 375.194 134.891C368.229 141.773 359.476 145.211 348.94 145.211C338.404 145.211 329.654 141.773 322.686 134.891C315.721 128.01 312.236 119.538 312.236 109.475C312.236 99.413 315.721 90.919 322.686 83.996C329.654 77.073 338.404 73.609 348.94 73.609C359.476 73.609 368.229 77.073 375.194 83.996C382.162 90.92 385.644 99.414 385.644 109.475ZM331.717 109.475C331.717 115.152 333.331 119.776 336.557 123.344C339.783 126.913 343.909 128.698 348.94 128.698C353.971 128.698 358.101 126.914 361.326 123.344C364.552 119.776 366.163 115.152 366.163 109.475C366.163 103.798 364.552 99.155 361.326 95.542C358.1 91.929 353.972 90.124 348.94 90.124C343.908 90.124 339.782 91.93 336.557 95.542C333.332 99.154 331.717 103.799 331.717 109.475Z" fill="black"/>
<path d="M414.736 105.476V145.285H395.384V76.494H414.736V82.512C420.585 76.577 427.163 73.61 434.476 73.61C441.787 73.61 447.913 76.191 452.859 81.351C457.805 86.513 460.279 93.394 460.279 101.993V145.286H440.928V104.961C440.928 94.297 437.011 88.964 429.185 88.964C425.316 88.964 421.94 90.363 419.06 93.156C416.176 95.952 414.736 100.058 414.736 105.476Z" fill="black"/>
<path d="M527.492 122.57C527.492 129.408 524.977 134.891 519.945 139.019C514.914 143.148 508.527 145.211 500.786 145.211C495.628 145.211 490.251 144.285 484.661 142.439C479.068 140.589 474.037 137.858 469.565 134.246L478.08 122.118C485.305 127.711 493.001 130.504 501.173 130.504C503.667 130.504 505.645 130.012 507.108 129.022C508.569 128.035 509.301 126.721 509.301 125.086C509.301 123.454 508.288 121.947 506.27 120.57C504.249 119.197 501.324 117.905 497.497 116.7C493.669 115.497 490.744 114.465 488.726 113.604C486.705 112.745 484.403 111.497 481.824 109.862C476.576 106.595 473.953 101.757 473.953 95.349C473.953 88.941 476.535 83.717 481.694 79.674C486.855 75.632 493.519 73.609 501.691 73.609C509.863 73.609 518.032 76.364 526.204 81.867L518.978 94.768C512.957 90.639 506.957 88.575 500.982 88.575C495.003 88.575 492.016 90.21 492.016 93.478C492.016 95.285 492.96 96.704 494.852 97.735C496.744 98.767 499.884 99.972 504.269 101.347C508.658 102.724 511.774 103.779 513.624 104.508C515.472 105.239 517.687 106.379 520.268 107.927C525.084 110.852 527.492 115.733 527.492 122.57Z" fill="black"/>
<path d="M563.347 88.705V119.797C563.347 122.464 564.035 124.55 565.413 126.054C566.785 127.559 567.467 128.039 570.331 128.072L579.405 128.041V145.286C579.405 145.286 574.273 145.286 567.608 145.286C560.941 145.286 555.37 143.019 550.768 138.633C546.164 134.247 543.866 128.27 543.866 120.701V88.705H533.333V73.67H543.866V54H563.346V73.67H579.332V88.705H563.347Z" fill="black"/>
<path d="M883.847 88.705V119.797C883.847 122.464 884.535 124.55 885.913 126.054C887.285 127.559 887.967 128.039 890.831 128.072L899.905 128.041V145.286C899.905 145.286 894.773 145.286 888.108 145.286C881.441 145.286 875.87 143.019 871.268 138.633C866.664 134.247 864.366 128.27 864.366 120.701V88.705H853.833V73.67H864.366V54H883.846V73.67H899.832V88.705H883.847Z" fill="black"/>
<path d="M648.929 133.864C641.103 141.262 631.921 144.959 621.386 144.959C610.85 144.959 600.63 141.715 593.75 135.219C586.868 128.727 583.43 120.019 583.43 109.095C583.43 98.173 586.933 89.485 593.943 83.034C600.952 76.583 610.744 73.357 620.292 73.357C629.836 73.357 637.942 76.24 644.609 82.002C651.273 87.766 654.608 95.678 654.608 105.74V116.061H604.033C604.636 119.847 606.615 122.943 609.968 125.349C613.323 127.757 617.108 128.961 621.322 128.961C628.116 128.961 633.709 126.683 638.093 122.123L648.929 133.864ZM630.352 92.71C627.687 90.475 624.438 89.356 620.613 89.356C616.785 89.356 613.279 90.518 610.097 92.838C606.916 95.161 605.066 98.303 604.549 102.257H634.996C634.566 98.128 633.017 94.947 630.352 92.71Z" fill="black"/>
<path d="M702.47 91.549C696.706 91.549 692.407 93.593 689.568 97.677C686.732 101.763 685.312 107.158 685.312 113.868V145.285H665.961V73.67H685.312V83.68C687.806 80.84 690.922 78.434 694.665 76.455C698.407 74.477 702.214 73.444 706.083 73.357L706.213 91.548H702.47V91.549Z" fill="black"/>
<path d="M748.69 127.801C755.138 127.801 760.946 124.575 766.105 118.125L777.588 131.026C768.64 140.315 758.965 144.959 748.56 144.959C738.151 144.959 729.356 141.67 722.176 135.091C714.992 128.511 711.404 119.911 711.404 109.288C711.404 98.667 715.038 90.022 722.306 83.356C729.572 76.692 738.195 73.357 748.173 73.357C753.16 73.357 758.213 74.39 763.33 76.455C768.447 78.52 772.942 81.572 776.814 85.613L766.751 98.773C764.514 96.108 761.783 94.044 758.558 92.581C755.332 91.119 752.127 90.388 748.947 90.388C743.871 90.388 739.506 92.044 735.852 95.355C732.196 98.667 730.369 103.27 730.369 109.159C730.369 115.053 732.196 119.632 735.852 122.9C739.505 126.169 743.784 127.801 748.69 127.801Z" fill="black"/>
<path d="M846.865 145.285H828.674V135.542C823.687 141.82 817.516 144.959 810.161 144.959C802.806 144.959 796.636 142.831 791.647 138.574C786.657 134.315 784.164 128.638 784.164 121.545C784.164 114.448 786.746 109.139 791.904 105.611C797.066 102.086 804.117 100.32 813.064 100.32H827.513V99.933C827.513 92.538 823.597 88.839 815.774 88.839C812.419 88.839 808.871 89.506 805.128 90.838C801.386 92.173 798.226 93.827 795.646 95.805L787.002 83.292C796.118 76.669 806.524 73.356 818.223 73.356C826.652 73.356 833.531 75.464 838.867 79.679C844.197 83.893 846.865 90.56 846.865 99.674V145.285ZM827.383 117.48V114.126H815.257C807.516 114.126 803.644 116.534 803.644 121.351C803.644 123.846 804.568 125.758 806.418 127.09C808.269 128.426 810.912 129.09 814.354 129.09C817.792 129.09 820.823 128.038 823.45 125.929C826.071 123.824 827.383 121.008 827.383 117.48Z" fill="black"/>
</svg>
