<svg width="52" height="52" viewBox="0 0 52 52" fill="none" xmlns="http://www.w3.org/2000/svg">
<path d="M51.9412 15.4642V3.89557C51.9412 3.7185 51.9412 3.48241 51.8825 3.30533C51.765 2.479 51.3537 1.65267 50.7661 1.06243C50.1198 0.413167 49.2972 0 48.3571 0C48.1808 0 48.0633 4.39762e-09 47.887 0.0590238L20.9763 4.13167C19.9774 4.24972 19.096 4.72191 18.4497 5.37117C17.8034 6.02043 17.3921 6.90579 17.3921 7.96822V19.5959V38.4835C17.2746 38.4245 17.2158 38.3655 17.1571 38.3655C15.3356 37.0079 12.8678 36.1816 10.165 36.1816C7.46215 36.1816 4.99435 37.0079 3.17288 38.3655C1.2339 39.7821 0 41.8479 0 44.0908C0 46.3337 1.17514 48.3995 3.17288 49.8161C4.99435 51.1737 7.46215 52 10.165 52C12.8678 52 15.3356 51.1737 17.1571 49.8161C19.096 48.3995 20.3299 46.3337 20.3299 44.0908C20.3299 44.0318 20.3299 43.9137 20.3299 43.8547V20.8944L49.0034 17.1759V34.4109C48.9446 34.3519 48.8859 34.3519 48.8271 34.2928C47.0056 32.9353 44.5378 32.109 41.835 32.109C39.1322 32.109 36.6644 32.9353 34.8429 34.2928C32.904 35.7094 31.6701 37.7753 31.6701 40.0182C31.6701 42.2611 32.8452 44.3269 34.8429 45.7435C36.6644 47.101 39.1322 47.9274 41.835 47.9274C44.5378 47.9274 47.0056 47.101 48.8271 45.7435C50.7661 44.3269 52 42.2611 52 40.0182C52 39.9591 52 39.8411 52 39.7821V15.6413C51.9412 15.5823 51.9412 15.5233 51.9412 15.4642Z" fill="black"/>
</svg>
