<svg width="48" height="48" viewBox="0 0 48 48" fill="none" xmlns="http://www.w3.org/2000/svg">
<path d="M18.0001 48.0001H2.00029C1.45827 48.0001 0.989474 47.8023 0.593684 47.4064C0.197785 47.0106 0 46.542 0 46.0003V2.00031C0 1.45872 0.197785 0.989706 0.593684 0.594135C0.989802 0.198236 1.4586 1.50158e-05 2.00029 1.50158e-05H18.0005C18.5422 1.50158e-05 19.0109 0.198236 19.4067 0.594135C19.8026 0.989596 20.0004 1.45861 20.0004 2.00031V46.0003C20.0004 46.5423 19.8026 47.0106 19.4063 47.4064C19.0106 47.8023 18.5418 48.0001 18.0001 48.0001Z" fill="black"/>
<path d="M47.4055 47.4064C47.0096 47.8023 46.541 48.0001 45.9994 48.0001H29.9991C29.4574 48.0001 28.9881 47.8023 28.593 47.4064C28.1966 47.0108 27.9984 46.542 27.9984 46.0003V2.00031C27.9984 1.45872 28.1966 0.989706 28.593 0.594135C28.988 0.198236 29.4573 1.50158e-05 29.9991 1.50158e-05H45.9994C46.541 1.50158e-05 47.0096 0.198236 47.4056 0.594135C47.8011 0.989596 47.9989 1.45861 47.9989 2.00031V46.0003C47.9988 46.5423 47.8014 47.0106 47.4055 47.4064Z" fill="black"/>
</svg>
