<svg width="51" height="50" viewBox="0 0 51 50" fill="none" xmlns="http://www.w3.org/2000/svg">
<path d="M25.0324 49.5C28.2834 49.5008 31.5016 48.8508 34.4974 47.5885C35.0455 47.3581 35.4796 46.9194 35.7042 46.3689C35.9289 45.8184 35.9256 45.2013 35.6952 44.6532C35.4648 44.1051 35.0261 43.671 34.4756 43.4464C33.9251 43.2217 33.308 43.225 32.7599 43.4554C29.11 44.9888 25.0873 45.4055 21.2006 44.6527C17.3138 43.8999 13.7376 42.0115 10.9241 39.2263C8.11056 36.441 6.18615 32.884 5.3942 29.005C4.60225 25.126 4.97832 21.0993 6.47487 17.4341C7.97141 13.7689 10.5212 10.6297 13.8018 8.41363C17.0824 6.19753 20.9465 5.004 24.9055 4.98398C28.8644 4.96396 32.7404 6.11834 36.0432 8.30115C39.3461 10.484 41.9275 13.5972 43.4611 17.2471L43.4668 17.2607L43.4733 17.2739C43.7256 17.7872 44.1645 18.1847 44.7003 18.3849C45.2361 18.5851 45.8281 18.573 46.3552 18.3509C46.8823 18.1288 47.3045 17.7137 47.5355 17.1904C47.7665 16.6672 47.7887 16.0754 47.5976 15.5363L47.5928 15.5229L47.5873 15.5097C45.8702 11.423 43.0765 7.87871 39.504 5.25451C35.9314 2.6303 31.7138 1.02452 27.3006 0.608266C22.8874 0.192016 18.4439 0.980895 14.4437 2.89084C10.4435 4.80079 7.03643 7.76024 4.58551 11.4538C2.1346 15.1474 0.731707 19.4368 0.526318 23.8648C0.320928 28.2928 1.32074 32.6936 3.41922 36.5983C5.51769 40.5029 8.6362 43.765 12.4424 46.0371C16.2486 48.309 20.5998 49.5058 25.0324 49.5ZM25.0324 49.5C25.0323 49.5 25.0322 49.5 25.032 49.5L25.0321 49L25.0328 49.5C25.0327 49.5 25.0326 49.5 25.0324 49.5Z" fill="black" stroke="black"/>
<path d="M47.213 19.5331H47.2127H47.1987H47.1949V19.5331L33.5607 19.4286C33.5603 19.4286 33.5599 19.4286 33.5596 19.4286C32.9655 19.4262 32.3967 19.188 31.9781 18.7664C31.5592 18.3445 31.3251 17.7736 31.3273 17.1791C31.3294 16.5846 31.5676 16.0153 31.9895 15.5965C32.4112 15.1779 32.9818 14.9438 33.576 14.9457M47.213 19.5331L33.575 15.4457M47.213 19.5331C47.8045 19.5326 48.3718 19.2986 48.7915 18.8819C49.2112 18.4652 49.4494 17.8996 49.4541 17.3082L49.4541 17.308L49.5572 3.67193C49.5572 3.67185 49.5572 3.67177 49.5572 3.6717C49.5595 3.37731 49.5038 3.08534 49.3932 2.8125L48.9363 2.99771L49.3932 2.81249C49.2826 2.53958 49.1193 2.29115 48.9125 2.08143C48.7058 1.87171 48.4598 1.70481 48.1885 1.59027L47.9951 2.04823L48.1885 1.59027C47.9172 1.47573 47.626 1.41581 47.3315 1.41394V1.41393H47.3283H47.3158C47.3158 1.41393 47.3158 1.41393 47.3158 1.41393C46.7244 1.41391 46.157 1.6476 45.7371 2.06408C45.3173 2.48056 45.0791 3.04609 45.0743 3.63745L45.0743 3.63764L44.9876 15.0325M47.213 19.5331L45.4876 15.0363M33.576 14.9457C33.5762 14.9457 33.5765 14.9457 33.5768 14.9457L33.575 15.4457M33.576 14.9457H33.575V15.4457M33.576 14.9457H33.5875H33.5913V14.9457L44.9876 15.0325M33.575 15.4457H33.5875L44.9838 15.5325L44.9876 15.0325M44.9876 15.0325L45.4876 15.0363M45.4876 15.0363L45.5743 3.64145L45.4876 15.0363Z" fill="black" stroke="black"/>
</svg>
