<svg width="55" height="57" viewBox="0 0 55 57" fill="none" xmlns="http://www.w3.org/2000/svg">
<path d="M54.162 51.887L40.604 37.786C44.09 33.642 46 28.428 46 23C46 10.318 35.682 0 23 0C10.318 0 0 10.318 0 23C0 35.682 10.318 46 23 46C27.761 46 32.298 44.564 36.177 41.838L49.838 56.046C50.409 56.639 51.177 56.966 52 56.966C52.779 56.966 53.518 56.669 54.079 56.129C55.271 54.982 55.309 53.08 54.162 51.887ZM23 6C32.374 6 40 13.626 40 23C40 32.374 32.374 40 23 40C13.626 40 6 32.374 6 23C6 13.626 13.626 6 23 6Z" fill="black"/>
</svg>
