<svg width="67" height="48" viewBox="0 0 67 48" fill="none" xmlns="http://www.w3.org/2000/svg">
<path d="M40.3523 8.28452C33.1994 8.28452 29.2757 10.0943 26.8493 13.467L26.7463 13.6153L26.3595 14.1726L25.9417 13.6382L25.7772 13.4278C23.159 10.2015 18.7616 8.38741 12.0064 8.28876C12.0058 8.28875 12.0053 8.28875 12.0048 8.28874L11.4205 8.28452H11.419L0.76136 8.28452C0.66497 8.28452 0.590843 8.31797 0.547249 8.3551C0.504715 8.39134 0.5 8.42061 0.5 8.43314V13.6221C0.5 13.6346 0.504715 13.6639 0.547249 13.7001C0.590843 13.7373 0.66497 13.7707 0.76136 13.7707L11.4205 13.7707C14.6693 13.7707 17.0475 14.2515 18.8311 15.433C20.6255 16.6218 21.7398 18.4671 22.5765 21.0159L22.5766 21.0159L22.5788 21.0231L22.7871 21.6916L22.7872 21.6916L22.7892 21.6984C22.8237 21.8149 22.8578 21.9328 22.8914 22.0522L22.8915 22.0522L22.893 22.058L23.0873 22.78L23.0874 22.78L23.09 22.7904L23.2765 23.5488L23.2766 23.5488L23.2782 23.5559L23.3418 23.8319L23.3668 23.9401L23.3436 24.0488L23.1829 24.8003L23.1829 24.8003L23.1814 24.807L22.9836 25.6741L22.9836 25.6741L22.9821 25.6804C22.3049 28.4814 21.2443 30.6482 19.3895 32.1012C17.5367 33.5526 14.9712 34.2293 11.4205 34.2293H0.76136C0.66497 34.2293 0.590843 34.2627 0.547249 34.2999C0.504715 34.3361 0.5 34.3654 0.5 34.3779V39.5669C0.5 39.5794 0.504715 39.6087 0.547249 39.6449C0.590843 39.682 0.66497 39.7155 0.76136 39.7155H11.4205C18.9925 39.7155 23.6571 37.5499 25.8038 34.565C25.8043 34.5643 25.8048 34.5636 25.8053 34.5629L25.9446 34.3644L26.3741 33.7523L26.7757 34.3832L26.9324 34.6294C28.9434 37.6576 32.7683 39.6153 39.8034 39.7118C39.804 39.7118 39.8046 39.7118 39.8052 39.7118L40.3523 39.7155H40.354H47.2045H47.7045V40.2155V47.3503C47.7045 47.3673 47.7116 47.4128 47.795 47.4577C47.8768 47.5019 47.9862 47.5143 48.0833 47.4813L48.1572 47.4462L66.414 37.0773C66.4576 37.0526 66.4782 37.0276 66.4877 37.0119C66.4974 36.9959 66.5 36.9826 66.5 36.9724C66.5 36.9621 66.4974 36.9488 66.4877 36.9328C66.4782 36.9171 66.4576 36.8922 66.414 36.8675L48.1413 26.4896C48.0402 26.4322 47.9144 26.4318 47.8141 26.4776C47.713 26.5236 47.7045 26.5778 47.7045 26.5945V33.7293V34.2293H47.2045H40.3523C37.6239 34.2293 35.5975 33.7604 34.0424 32.55C32.4933 31.3443 31.4921 29.4641 30.6692 26.8292L30.6692 26.8292L30.6674 26.8232L30.4494 26.0929L30.4492 26.093L30.4463 26.0822L30.2342 25.3095L30.233 25.3047C30.1623 25.0369 30.0925 24.7622 30.0233 24.4803L30.023 24.4789L29.9534 24.1917L29.9252 24.0753L29.9528 23.9587L30.1682 23.049L30.1681 23.049L30.1706 23.0395L30.3751 22.2458L30.375 22.2457L30.3781 22.235L30.5897 21.4838L30.5895 21.4837L30.5934 21.4712L30.8135 20.7617L30.8134 20.7617L30.8157 20.7547C31.5971 18.3594 32.5787 16.6118 34.058 15.4633C35.5419 14.3113 37.4546 13.8174 39.9778 13.7739L39.9822 13.7738L40.348 13.7707H40.3523H47.2045H47.7045V14.2707V21.4055C47.7045 21.4226 47.7116 21.468 47.795 21.513C47.8768 21.5571 47.9862 21.5695 48.0833 21.5365L48.1572 21.5014L66.414 11.1325C66.4576 11.1078 66.4782 11.0829 66.4877 11.0672C66.4974 11.0512 66.5 11.0378 66.5 11.0276C66.5 11.0174 66.4974 11.0041 66.4877 10.9881C66.4782 10.9724 66.4576 10.9474 66.414 10.9227L48.1413 0.5448C48.0402 0.487396 47.9144 0.487053 47.8141 0.532784C47.713 0.578861 47.7045 0.633072 47.7045 0.649712V7.78452V8.28452H47.2045H40.3523Z" fill="black" stroke="white"/>
</svg>
