<svg width="57" height="26" viewBox="0 0 57 26" fill="none" xmlns="http://www.w3.org/2000/svg">
<path d="M2.7535 23.7185C2.87111 23.7185 2.97067 23.6218 2.98758 23.4856L3.62693 18.4181L2.98948 13.2353C2.97048 13.099 2.87111 13.0016 2.7535 13.0016C2.63285 13.0016 2.53006 13.1011 2.5141 13.2353L1.95531 18.4181L2.5141 23.4839C2.53006 23.6199 2.63285 23.7185 2.7535 23.7185Z" fill="black"/>
<path d="M0.645432 21.7912C0.760953 21.7912 0.854623 21.7013 0.871533 21.567L1.36705 18.4179L0.871533 15.2099C0.854433 15.0798 0.760953 14.9857 0.645432 14.9857C0.524782 14.9857 0.431301 15.0798 0.414201 15.2118L0 18.4181L0.414201 21.5662C0.431301 21.6994 0.524782 21.7912 0.645432 21.7912Z" fill="black"/>
<path d="M5.2748 12.2706C5.2596 12.1059 5.13895 11.9856 4.98923 11.9856C4.84065 11.9856 4.71981 12.1059 4.70594 12.2706L4.17184 18.4181L4.70594 24.3412C4.71981 24.505 4.84065 24.6237 4.98923 24.6237C5.13895 24.6237 5.2596 24.505 5.2748 24.3412L5.879 18.4181L5.2748 12.2706Z" fill="black"/>
<path d="M7.2489 24.8623C7.42408 24.8623 7.56582 24.7181 7.58292 24.5297L8.15387 18.42L7.58292 12.101C7.56582 11.9111 7.42408 11.7686 7.2489 11.7686C7.07125 11.7686 6.92742 11.9113 6.91526 12.1019L6.41061 18.42L6.91526 24.5297C6.92742 24.7183 7.07125 24.8623 7.2489 24.8623Z" fill="black"/>
<path d="M9.52416 24.9615C9.72822 24.9615 9.892 24.7981 9.90891 24.5794L9.90701 24.581L10.4447 18.42L9.90701 12.5571C9.89181 12.3421 9.72822 12.1762 9.52397 12.1762C9.31687 12.1762 9.15404 12.3421 9.14169 12.5589L8.66631 18.4202L9.14169 24.5796C9.15423 24.7981 9.31706 24.9615 9.52416 24.9615Z" fill="black"/>
<path d="M12.7551 18.4215L12.2507 8.8888C12.2366 8.64712 12.0483 8.45446 11.8173 8.45446C11.5879 8.45446 11.4002 8.64693 11.3862 8.8888L10.9397 18.4215L11.3862 24.581C11.4002 24.8238 11.5881 25.0138 11.8173 25.0138C12.0485 25.0138 12.2366 24.8238 12.2507 24.581V24.5827L12.7551 18.4215Z" fill="black"/>
<path d="M14.1334 25.0238C14.3878 25.0238 14.5989 24.8127 14.6109 24.5433V24.5473L15.0824 18.423L14.6109 6.70835C14.5989 6.43893 14.3878 6.22784 14.1334 6.22784C13.8731 6.22784 13.6639 6.43893 13.6498 6.70835L13.2347 18.423L13.6517 24.5452C13.6639 24.8127 13.8731 25.0238 14.1334 25.0238Z" fill="black"/>
<path d="M16.4626 5.20089C16.1761 5.20089 15.9449 5.43611 15.9331 5.7327L15.5468 18.4249L15.9331 24.4829C15.945 24.778 16.1761 25.0117 16.4626 25.0117C16.7484 25.0117 16.9813 24.7799 16.9914 24.482V24.485L17.4297 18.4249L16.9914 5.7327C16.9813 5.43421 16.7482 5.20089 16.4626 5.20089Z" fill="black"/>
<path d="M18.812 25.0238C19.1266 25.0238 19.3772 24.77 19.389 24.4432V24.4468L19.7943 18.4251L19.389 5.30653C19.377 4.98086 19.1266 4.72588 18.812 4.72588C18.4954 4.72588 18.241 4.98086 18.2361 5.30653L17.872 18.4251L18.2361 24.4468C18.241 24.77 18.4954 25.0238 18.812 25.0238Z" fill="black"/>
<path d="M21.1807 25.0178C21.5202 25.0178 21.7957 24.7398 21.806 24.3873V24.3929L22.179 18.4261L21.806 5.64112C21.7957 5.28885 21.5202 5.01202 21.1807 5.01202C20.8387 5.01202 20.5632 5.28866 20.5531 5.64112L20.2254 18.4261L20.5552 24.39C20.5632 24.7398 20.8387 25.0178 21.1807 25.0178Z" fill="black"/>
<path d="M24.5783 18.4261L24.2407 6.1072C24.2325 5.72719 23.9349 5.4287 23.566 5.4287C23.196 5.4287 22.8983 5.72719 22.8905 6.10967L22.5876 18.4261L22.8905 24.3537C22.8983 24.7307 23.1958 25.0294 23.566 25.0294C23.9347 25.0294 24.2325 24.7307 24.2407 24.3482V24.3537L24.5783 18.4261Z" fill="black"/>
<path d="M25.9697 25.0404C26.3618 25.0404 26.6865 24.7141 26.6926 24.313V24.3163L26.9991 18.4293L26.6926 3.77018C26.6867 3.36757 26.362 3.04191 25.9697 3.04191C25.5777 3.04191 25.2539 3.36909 25.246 3.77227L24.9735 18.4234L25.246 24.3165C25.2539 24.7141 25.5777 25.0404 25.9697 25.0404Z" fill="black"/>
<path d="M28.3654 1.66289C27.9419 1.66289 27.5984 2.0142 27.5913 2.44246L27.2746 18.4312L27.5932 24.2312C27.5984 24.6539 27.9421 25.0041 28.3654 25.0041C28.7824 25.0041 29.1324 24.6537 29.1343 24.2241V24.2312L29.4801 18.4312L29.1343 2.44246C29.1324 2.01268 28.7824 1.66289 28.3654 1.66289Z" fill="black"/>
<path d="M30.5559 25.0459C30.573 25.0474 49.8643 25.0565 49.9882 25.0565C53.8614 25.0565 57 21.8793 57 17.9587C57 14.0401 53.8612 10.8623 49.9882 10.8623C49.027 10.8623 48.1112 11.0588 47.276 11.4147C46.7208 5.01716 41.4211 0 34.9559 0C33.3755 0 31.8344 0.315781 30.4732 0.849113C29.9435 1.05621 29.8018 1.26977 29.7976 1.6836V24.2061C29.8037 24.6412 30.1354 25.0028 30.5559 25.0459Z" fill="black"/>
</svg>
