<svg width="42" height="45" viewBox="0 0 42 45" fill="none" xmlns="http://www.w3.org/2000/svg">
<path d="M27.8944 44.6432C27.3376 44.9088 26.6816 44.8384 26.2016 44.4512L10.6368 32H3.2C1.4368 32 0 30.5632 0 28.8V16C0 14.2336 1.4368 12.8 3.2 12.8H10.6368L26.1984 0.348809C26.4896 0.118409 26.8448 8.20143e-06 27.2 8.20143e-06C27.4368 8.20143e-06 27.6736 0.0544088 27.8944 0.160009C28.448 0.425609 28.8 0.985608 28.8 1.60001V43.2C28.8 43.8144 28.448 44.3744 27.8944 44.6432Z" fill="black"/>
<path d="M36.8992 33.7152C36.2688 34.336 35.2576 34.3264 34.6368 33.7024C34.016 33.072 34.0224 32.0608 34.6496 31.4368C37.0688 29.0496 38.4 25.84 38.4 22.4C38.4 18.96 37.0688 15.7504 34.6496 13.3632C34.0224 12.7456 34.016 11.7312 34.6368 11.1008C34.9504 10.784 35.3632 10.6272 35.7728 10.6272C36.1792 10.6272 36.5856 10.7808 36.8992 11.0912C39.9328 14.0768 41.6 18.096 41.6 22.4C41.6 26.704 39.9328 30.7232 36.8992 33.7152Z" fill="black"/>
</svg>
