<svg width="55" height="45" viewBox="0 0 55 45" fill="none" xmlns="http://www.w3.org/2000/svg">
<path d="M27.8944 44.6432C27.3376 44.9088 26.6816 44.8384 26.2016 44.4512L10.6368 32H3.2C1.4368 32 0 30.5632 0 28.8V16C0 14.2336 1.4368 12.8 3.2 12.8H10.6368L26.1984 0.348809C26.4896 0.118409 26.8448 8.20143e-06 27.2 8.20143e-06C27.4368 8.20143e-06 27.6736 0.0544088 27.8944 0.160009C28.448 0.425609 28.8 0.985608 28.8 1.60001V43.2C28.8 43.8144 28.448 44.3744 27.8944 44.6432Z" fill="black"/>
<path d="M36.8992 33.7152C36.2688 34.336 35.2576 34.3264 34.6368 33.7024C34.016 33.072 34.0224 32.0608 34.6496 31.4368C37.0688 29.0496 38.4 25.84 38.4 22.4C38.4 18.96 37.0688 15.7504 34.6496 13.3632C34.0224 12.7456 34.016 11.7312 34.6368 11.1008C34.9504 10.784 35.3632 10.6272 35.7728 10.6272C36.1792 10.6272 36.5856 10.7808 36.8992 11.0912C39.9328 14.0768 41.6 18.096 41.6 22.4C41.6 26.704 39.9328 30.7232 36.8992 33.7152Z" fill="black"/>
<path d="M41.4144 38.224C40.784 38.848 39.7728 38.8416 39.1488 38.2144C38.528 37.5872 38.5344 36.5728 39.1584 35.952C42.7968 32.3456 44.8 27.5328 44.8 22.4C44.8 17.2672 42.7968 12.4576 39.1584 8.8512C38.5344 8.2272 38.528 7.2128 39.1488 6.5856C39.4656 6.272 39.8752 6.1152 40.2848 6.1152C40.6912 6.1152 41.1008 6.2688 41.4144 6.5792C45.664 10.7872 48 16.4064 48 22.4C48 28.3936 45.664 34.0128 41.4144 38.224Z" fill="black"/>
<path d="M47.2216 42.4012C46.4771 43.2058 45.2827 43.1975 44.5457 42.3888C43.8125 41.5801 43.82 40.2721 44.557 39.4717C48.8544 34.8216 51.2204 28.6159 51.2204 21.9977C51.2204 15.3794 48.8544 9.17791 44.557 4.52781C43.82 3.72322 43.8125 2.41525 44.5457 1.60653C44.9199 1.20218 45.4037 1 45.8874 1C46.3675 1 46.8512 1.19805 47.2216 1.59828C52.2409 7.02409 55 14.2695 55 21.9977C55 29.7258 52.2409 36.9712 47.2216 42.4012Z" fill="black"/>
</svg>
