<svg width="48" height="38" viewBox="0 0 48 38" fill="none" xmlns="http://www.w3.org/2000/svg">
<g clip-path="url(#clip0)">
<path d="M6.50043 28.5536C6.33751 28.7689 6.11459 29.026 5.84878 29.3133C6.01614 29.2773 6.17426 29.2405 6.32327 29.203C8.90147 28.5278 11.2133 27.4522 13.2706 25.9813L13.7851 25.6135L14.4076 25.725C15.9327 25.9982 17.4161 26.1333 18.8577 26.1333C22.0836 26.1344 25.0386 25.5529 27.7399 24.4055C30.4485 23.255 32.5215 21.7183 34.0199 19.8227C35.5071 17.9416 36.2141 15.9522 36.2141 13.8175C36.2141 11.6827 35.5072 9.6934 34.0195 7.81224C32.5212 5.91693 30.4483 4.37985 27.7395 3.22913C25.038 2.08172 22.0831 1.5 18.857 1.5C15.6313 1.5 12.6763 2.08209 9.97435 3.22921C7.2657 4.37982 5.19299 5.91665 3.69461 7.81202C2.20703 9.69378 1.5 11.6829 1.5 13.8176C1.5 15.6413 2.03519 17.3691 3.14815 19.0275C4.27461 20.7057 5.83913 22.1494 7.88298 23.3449L9.01069 24.0046L8.51207 25.2122C8.31882 25.6802 8.11741 26.116 7.90715 26.52L7.90656 26.5212C7.67578 26.9636 7.40351 27.3853 7.09121 27.7868C6.83395 28.1179 6.63706 28.3737 6.49883 28.5557" stroke="black" stroke-width="3"/>
<path d="M46.0981 26.7844C47.3664 24.9044 48 22.8856 48 20.7264C48 18.5132 47.3296 16.4429 45.9908 14.5181C44.6513 12.5934 42.8297 10.9919 40.5263 9.71448C40.9367 11.0637 41.1421 12.431 41.1421 13.8166C41.1421 16.2272 40.5446 18.5121 39.3474 20.6713C38.151 22.8299 36.4367 24.7368 34.2046 26.3923C32.1331 27.9035 29.7759 29.0636 27.1329 29.8735C24.4906 30.6828 21.7315 31.0879 18.8564 31.0879C18.3209 31.0879 17.5351 31.0523 16.4995 30.9804C20.0886 33.3548 24.303 34.5426 29.1421 34.5426C30.678 34.5426 32.2493 34.3983 33.8566 34.1105C36.0707 35.6942 38.5531 36.8452 41.303 37.5652C41.9458 37.7276 42.7137 37.8712 43.6066 37.997C43.8208 38.0151 44.0176 37.952 44.196 37.8081C44.3746 37.6642 44.4908 37.4668 44.5441 37.2152C44.5358 37.1072 44.5441 37.0479 44.571 37.0393C44.5974 37.0308 44.5929 36.972 44.5575 36.8642C44.5222 36.7561 44.5042 36.7021 44.5042 36.7021L44.4374 36.5675C44.4189 36.532 44.3886 36.4822 44.3437 36.4194C44.2991 36.357 44.2635 36.3114 44.2365 36.2845C44.2102 36.2577 44.1703 36.2124 44.1164 36.1499C44.0631 36.0875 44.0272 36.0467 44.0092 36.0287C43.9199 35.9206 43.7147 35.6958 43.3933 35.3539C43.0716 35.0123 42.8399 34.747 42.697 34.5582C42.5541 34.3692 42.3532 34.1085 42.0943 33.7753C41.8356 33.4428 41.6121 33.0964 41.4245 32.7364C41.2371 32.3767 41.0541 31.9807 40.8755 31.5492C43.0898 30.2527 44.8305 28.665 46.0981 26.7844Z" fill="black"/>
</g>
<defs>
<clipPath id="clip0">
<rect width="48" height="38" fill="white"/>
</clipPath>
</defs>
</svg>
