<svg width="44" height="44" viewBox="0 0 44 44" fill="none" xmlns="http://www.w3.org/2000/svg">
<path d="M22 44C34.144 44 44 34.144 44 22C44 9.856 34.144 0 22 0C9.856 0 0 9.856 0 22C0 34.144 9.856 44 22 44ZM30.932 32.3693V32.3712C29.4525 32.3712 24.7793 27.1865 11.6453 29.8778C11.2988 29.9677 10.846 30.1088 10.5893 30.1088C8.91183 30.1088 8.591 27.599 10.395 27.2158C17.6605 25.6117 25.0855 25.7528 31.4178 29.5405C32.9285 30.5048 32.2868 32.3693 30.932 32.3693V32.3693ZM33.3208 26.5522C33.1137 26.4972 33.1742 26.6787 32.2263 26.18C26.6805 22.8983 18.4158 21.5747 11.0605 23.5712C10.6352 23.6867 10.4042 23.8022 10.0045 23.8022C8.041 23.8022 7.52033 20.8487 9.65983 20.2455C18.3058 17.8163 27.5807 19.2335 34.0377 23.0743C34.7563 23.4997 35.0405 24.0515 35.0405 24.8215C35.0313 25.7785 34.287 26.5522 33.3208 26.5522V26.5522ZM8.338 12.8297C16.6302 10.4023 29.1793 11.1687 36.982 15.7227C38.9822 16.8758 38.1957 19.7927 36.069 19.7927L36.0672 19.7908C35.6052 19.7908 35.321 19.6753 34.9213 19.4443C28.6092 15.675 17.314 14.7712 10.0063 16.8117C9.6855 16.8997 9.28583 17.0408 8.8605 17.0408C7.689 17.0408 6.79433 16.126 6.79433 14.9472C6.79433 13.7427 7.5405 13.0607 8.338 12.8297V12.8297Z" fill="black"/>
</svg>
