<svg width="48" height="40" viewBox="0 0 48 40" fill="none" xmlns="http://www.w3.org/2000/svg">
<path d="M15.0951 39.0024C33.2083 39.0024 43.1155 23.9958 43.1155 10.982C43.1155 10.5558 43.1155 10.1315 43.0868 9.70903C45.0141 8.31487 46.6778 6.58884 48 4.61147C46.2027 5.40787 44.2959 5.93006 42.3437 6.16087C44.3991 4.9305 45.9383 2.99381 46.6732 0.713812C44.7402 1.86084 42.6251 2.66934 40.4198 3.10425C38.5578 1.12416 35.9572 0 33.2393 0C27.8316 0 23.3819 4.44975 23.3819 9.85725C23.3819 10.6074 23.4676 11.3553 23.6371 12.086C15.7229 11.6893 8.33897 7.94587 3.34078 1.79672C0.741656 6.27103 2.0865 12.0695 6.38972 14.9429C4.82269 14.8965 3.28931 14.4737 1.92 13.7103V13.8351C1.92131 18.5051 5.24316 22.5642 9.82078 23.4889C8.37103 23.8842 6.84956 23.942 5.37413 23.6578C6.66103 27.6595 10.372 30.4179 14.5748 30.4969C11.0882 33.2369 6.77878 34.7253 2.34431 34.7209C1.56075 34.7194 0.777938 34.6719 0 34.5787C4.50319 37.4686 9.74438 39.0019 15.0951 38.9947" fill="black"/>
</svg>
