<svg width="69" height="49" viewBox="0 0 69 49" fill="none" xmlns="http://www.w3.org/2000/svg">
<path d="M67.5784 7.55948C66.7829 4.6036 64.4524 2.27363 61.4971 1.47768C56.0975 0 34.4993 0 34.4993 0C34.4993 0 12.9016 0 7.5021 1.42135C4.6036 2.21678 2.21625 4.60412 1.42082 7.55948C0 12.9585 0 24.1556 0 24.1556C0 24.1556 0 35.409 1.42082 40.7517C2.21678 43.707 4.54674 46.0375 7.50262 46.8335C12.9585 48.3112 34.4999 48.3112 34.4999 48.3112C34.4999 48.3112 56.0975 48.3112 61.4971 46.8898C64.453 46.0944 66.7829 43.7639 67.5789 40.8085C68.9997 35.409 68.9997 24.2124 68.9997 24.2124C68.9997 24.2124 69.0566 12.9585 67.5784 7.55948Z" fill="black"/>
<path id="fill-white" d="M27.6226 34.4999L45.5828 24.1556L27.6226 13.8113V34.4999Z" fill="white"/>
</svg>
