<svg width="867" height="605" viewBox="0 0 867 605" fill="none" xmlns="http://www.w3.org/2000/svg">
<path opacity="0.5" d="M790.734 3.48291H69.9145C32.1744 6.51778 5.82326 35.1184 3.25009 67.7007V534.963C3.25009 569.401 31.974 599.182 67.4681 601.628H800.165C831.351 598.869 859.251 575.358 863.771 539.856V63.4426C856.93 21.9286 822.916 3.48291 790.734 3.48291Z" stroke="black" stroke-width="5"/>
<path d="M458.142 498.156V417.429H470.125V429.622H470.966C472.437 425.628 475.1 422.387 478.954 419.899C482.809 417.411 487.153 416.168 491.989 416.168C492.9 416.168 494.038 416.185 495.405 416.22C496.771 416.255 497.805 416.308 498.506 416.378V428.991C498.085 428.886 497.122 428.729 495.615 428.518C494.143 428.273 492.584 428.151 490.937 428.151C487.013 428.151 483.509 428.974 480.426 430.621C477.378 432.232 474.96 434.475 473.173 437.348C471.421 440.186 470.545 443.427 470.545 447.071V498.156H458.142ZM528.084 500.048C522.968 500.048 518.326 499.085 514.156 497.158C509.987 495.196 506.676 492.375 504.223 488.696C501.771 484.982 500.544 480.497 500.544 475.241C500.544 470.616 501.455 466.867 503.277 463.994C505.099 461.086 507.534 458.809 510.583 457.162C513.631 455.515 516.995 454.289 520.674 453.483C524.388 452.642 528.119 451.976 531.868 451.486C536.773 450.855 540.75 450.382 543.799 450.067C546.882 449.716 549.124 449.138 550.526 448.332C551.962 447.527 552.681 446.125 552.681 444.128V443.707C552.681 438.522 551.262 434.492 548.424 431.619C545.62 428.746 541.363 427.31 535.652 427.31C529.731 427.31 525.088 428.606 521.725 431.199C518.361 433.792 515.996 436.56 514.629 439.503L502.857 435.298C504.959 430.393 507.762 426.574 511.266 423.841C514.805 421.073 518.659 419.146 522.828 418.06C527.033 416.938 531.167 416.378 535.232 416.378C537.825 416.378 540.803 416.693 544.166 417.324C547.565 417.92 550.841 419.163 553.995 421.055C557.183 422.947 559.828 425.803 561.931 429.622C564.033 433.441 565.084 438.557 565.084 444.969V498.156H552.681V487.224H552.05C551.209 488.976 549.808 490.851 547.845 492.848C545.883 494.845 543.273 496.545 540.014 497.946C536.756 499.348 532.779 500.048 528.084 500.048ZM529.976 488.906C534.881 488.906 539.016 487.943 542.379 486.016C545.778 484.089 548.336 481.601 550.053 478.553C551.805 475.504 552.681 472.298 552.681 468.935V457.582C552.155 458.213 550.999 458.791 549.212 459.317C547.46 459.807 545.428 460.245 543.115 460.631C540.838 460.981 538.613 461.296 536.441 461.577C534.303 461.822 532.569 462.032 531.237 462.207C528.014 462.628 525.001 463.311 522.198 464.257C519.43 465.168 517.187 466.552 515.47 468.409C513.789 470.231 512.948 472.719 512.948 475.872C512.948 480.182 514.542 483.44 517.73 485.648C520.954 487.82 525.036 488.906 529.976 488.906ZM613.951 417.429V427.94H572.116V417.429H613.951ZM584.309 398.088H596.712V475.031C596.712 478.535 597.22 481.163 598.236 482.915C599.287 484.632 600.619 485.788 602.231 486.384C603.877 486.944 605.612 487.224 607.434 487.224C608.8 487.224 609.921 487.154 610.797 487.014C611.673 486.839 612.374 486.699 612.9 486.594L615.422 497.736C614.582 498.051 613.408 498.366 611.901 498.682C610.394 499.032 608.485 499.207 606.172 499.207C602.669 499.207 599.235 498.454 595.871 496.947C592.543 495.441 589.775 493.146 587.567 490.062C585.395 486.979 584.309 483.09 584.309 478.395V398.088ZM623.729 498.156V417.429H636.132V498.156H623.729ZM630.035 403.974C627.618 403.974 625.533 403.151 623.781 401.504C622.064 399.857 621.206 397.878 621.206 395.565C621.206 393.253 622.064 391.273 623.781 389.626C625.533 387.98 627.618 387.156 630.035 387.156C632.453 387.156 634.52 387.98 636.237 389.626C637.989 391.273 638.865 393.253 638.865 395.565C638.865 397.878 637.989 399.857 636.237 401.504C634.52 403.151 632.453 403.974 630.035 403.974ZM662.373 449.594V498.156H649.97V417.429H661.953V430.043H663.004C664.896 425.943 667.769 422.65 671.623 420.162C675.477 417.639 680.453 416.378 686.549 416.378C692.015 416.378 696.798 417.499 700.897 419.741C704.997 421.949 708.185 425.312 710.462 429.832C712.74 434.317 713.879 439.993 713.879 446.861V498.156H701.475V447.702C701.475 441.36 699.829 436.42 696.535 432.881C693.241 429.307 688.721 427.52 682.975 427.52C679.016 427.52 675.477 428.378 672.359 430.095C669.275 431.812 666.84 434.317 665.053 437.611C663.266 440.904 662.373 444.899 662.373 449.594ZM760.249 530.111C754.258 530.111 749.107 529.34 744.797 527.798C740.488 526.292 736.896 524.295 734.023 521.807C731.185 519.354 728.925 516.726 727.243 513.923L737.124 506.986C738.245 508.457 739.664 510.139 741.381 512.031C743.098 513.958 745.446 515.623 748.424 517.024C751.437 518.461 755.379 519.179 760.249 519.179C766.766 519.179 772.144 517.602 776.384 514.449C780.624 511.295 782.743 506.355 782.743 499.628V483.23H781.692C780.781 484.702 779.485 486.524 777.803 488.696C776.156 490.833 773.774 492.743 770.655 494.425C767.572 496.071 763.402 496.895 758.147 496.895C751.63 496.895 745.778 495.353 740.593 492.27C735.442 489.187 731.36 484.702 728.347 478.815C725.369 472.929 723.88 465.781 723.88 457.372C723.88 449.103 725.334 441.903 728.242 435.771C731.15 429.605 735.197 424.839 740.383 421.476C745.568 418.077 751.56 416.378 758.357 416.378C763.613 416.378 767.782 417.254 770.866 419.006C773.984 420.723 776.366 422.685 778.013 424.892C779.695 427.064 780.991 428.851 781.902 430.253H783.164V417.429H795.147V500.469C795.147 507.406 793.57 513.047 790.417 517.392C787.298 521.772 783.094 524.978 777.803 527.01C772.547 529.077 766.696 530.111 760.249 530.111ZM759.829 485.753C764.804 485.753 769.009 484.614 772.442 482.337C775.876 480.059 778.486 476.783 780.273 472.509C782.06 468.234 782.954 463.118 782.954 457.162C782.954 451.346 782.078 446.213 780.326 441.763C778.574 437.313 775.981 433.827 772.547 431.304C769.114 428.781 764.874 427.52 759.829 427.52C754.573 427.52 750.193 428.851 746.689 431.514C743.221 434.177 740.61 437.751 738.858 442.236C737.142 446.721 736.283 451.696 736.283 457.162C736.283 462.768 737.159 467.726 738.911 472.036C740.698 476.31 743.326 479.674 746.795 482.126C750.298 484.544 754.643 485.753 759.829 485.753Z" fill="black"/>
<path d="M597.732 87.4418H650.372L748.508 354.402H695.116L670.3 287.85H577.052L552.612 354.402H499.22L597.732 87.4418ZM660.9 251.378L624.052 141.21L585.7 251.378H660.9Z" fill="black"/>
<path d="M398.107 50.3896V555.264" stroke="black" stroke-width="5"/>
<path d="M81.4146 445L70.9205 479.99H65.9634L78.3297 441.599H81.441L81.4146 445ZM89.9048 479.99L79.4107 445L79.358 441.599H82.4957L94.8619 479.99H89.9048ZM89.9048 465.778V469.944H71.3951V465.778H89.9048ZM119.041 467.782H123.892C123.769 470.418 123.233 472.695 122.284 474.611C121.352 476.509 119.99 477.968 118.197 478.988C116.421 480.007 114.198 480.517 111.526 480.517C109.61 480.517 107.878 480.139 106.332 479.383C104.785 478.627 103.458 477.546 102.35 476.14C101.26 474.716 100.425 473.011 99.8453 471.025C99.2652 469.039 98.9752 466.806 98.9752 464.328V457.235C98.9752 454.774 99.2652 452.55 99.8453 450.564C100.443 448.578 101.295 446.881 102.403 445.475C103.528 444.051 104.89 442.961 106.49 442.206C108.107 441.45 109.935 441.072 111.974 441.072C114.47 441.072 116.58 441.573 118.302 442.575C120.043 443.559 121.378 445.009 122.31 446.925C123.259 448.824 123.787 451.153 123.892 453.913H119.041C118.918 451.891 118.601 450.248 118.091 448.982C117.582 447.699 116.826 446.758 115.824 446.161C114.839 445.545 113.556 445.238 111.974 445.238C110.568 445.238 109.346 445.519 108.309 446.082C107.29 446.644 106.446 447.453 105.778 448.507C105.128 449.544 104.635 450.801 104.301 452.278C103.985 453.737 103.827 455.372 103.827 457.182V464.328C103.827 466.015 103.959 467.588 104.222 469.047C104.503 470.506 104.943 471.79 105.541 472.897C106.156 473.987 106.956 474.839 107.94 475.455C108.924 476.07 110.12 476.377 111.526 476.377C113.301 476.377 114.708 476.087 115.745 475.507C116.782 474.927 117.546 474.004 118.039 472.739C118.548 471.473 118.882 469.821 119.041 467.782ZM149.679 467.782H154.531C154.408 470.418 153.872 472.695 152.922 474.611C151.991 476.509 150.628 477.968 148.836 478.988C147.06 480.007 144.836 480.517 142.165 480.517C140.249 480.517 138.517 480.139 136.97 479.383C135.423 478.627 134.096 477.546 132.989 476.14C131.899 474.716 131.064 473.011 130.484 471.025C129.904 469.039 129.614 466.806 129.614 464.328V457.235C129.614 454.774 129.904 452.55 130.484 450.564C131.082 448.578 131.934 446.881 133.042 445.475C134.167 444.051 135.529 442.961 137.128 442.206C138.746 441.45 140.574 441.072 142.613 441.072C145.109 441.072 147.218 441.573 148.941 442.575C150.681 443.559 152.017 445.009 152.949 446.925C153.898 448.824 154.425 451.153 154.531 453.913H149.679C149.556 451.891 149.24 450.248 148.73 448.982C148.22 447.699 147.464 446.758 146.462 446.161C145.478 445.545 144.195 445.238 142.613 445.238C141.207 445.238 139.985 445.519 138.948 446.082C137.928 446.644 137.085 447.453 136.417 448.507C135.766 449.544 135.274 450.801 134.94 452.278C134.624 453.737 134.465 455.372 134.465 457.182V464.328C134.465 466.015 134.597 467.588 134.861 469.047C135.142 470.506 135.582 471.79 136.179 472.897C136.794 473.987 137.594 474.839 138.579 475.455C139.563 476.07 140.758 476.377 142.165 476.377C143.94 476.377 145.346 476.087 146.383 475.507C147.42 474.927 148.185 474.004 148.677 472.739C149.187 471.473 149.521 469.821 149.679 467.782ZM161.123 441.599H171.854C174.35 441.599 176.442 442.039 178.129 442.917C179.835 443.796 181.118 445.097 181.979 446.82C182.858 448.525 183.297 450.625 183.297 453.122C183.297 454.879 183.007 456.488 182.427 457.947C181.847 459.388 181.003 460.619 179.896 461.638C178.789 462.64 177.444 463.387 175.862 463.879L174.544 464.433H164.972L164.919 460.293H171.801C173.278 460.293 174.508 459.977 175.493 459.344C176.477 458.694 177.215 457.824 177.708 456.734C178.2 455.644 178.446 454.44 178.446 453.122C178.446 451.645 178.226 450.353 177.787 449.246C177.347 448.138 176.644 447.286 175.677 446.688C174.728 446.073 173.454 445.765 171.854 445.765H165.974V479.99H161.123V441.599ZM179.553 479.99L171.907 462.587L176.943 462.561L184.748 479.673V479.99H179.553ZM210.429 475.85V479.99H193.765V475.85H210.429ZM194.635 441.599V479.99H189.784V441.599H194.635ZM208.188 458.105V462.245H193.765V458.105H208.188ZM210.166 441.599V445.765H193.765V441.599H210.166ZM225.327 479.99H218.788L218.84 475.85H225.327C227.629 475.85 229.502 475.411 230.943 474.532C232.384 473.635 233.448 472.317 234.133 470.577C234.819 468.819 235.162 466.648 235.162 464.064V457.499C235.162 455.459 234.968 453.702 234.582 452.225C234.195 450.749 233.615 449.536 232.841 448.586C232.068 447.637 231.092 446.934 229.915 446.477C228.737 446.002 227.357 445.765 225.775 445.765H218.656V441.599H225.775C227.937 441.599 229.888 441.942 231.628 442.627C233.369 443.295 234.863 444.306 236.111 445.66C237.359 446.996 238.308 448.657 238.959 450.643C239.627 452.629 239.961 454.932 239.961 457.551V464.064C239.961 466.683 239.627 468.986 238.959 470.972C238.308 472.958 237.35 474.62 236.085 475.956C234.819 477.292 233.281 478.302 231.47 478.988C229.677 479.656 227.629 479.99 225.327 479.99ZM221.477 441.599V479.99H216.626V441.599H221.477ZM252.538 441.599V479.99H247.686V441.599H252.538ZM272.524 441.599V479.99H267.725V441.599H272.524ZM282.623 441.599V445.765H257.653V441.599H282.623ZM308.937 475.85V479.99H292.273V475.85H308.937ZM293.143 441.599V479.99H288.292V441.599H293.143ZM306.696 458.105V462.245H292.273V458.105H306.696ZM308.673 441.599V445.765H292.273V441.599H308.673ZM323.835 479.99H317.295L317.348 475.85H323.835C326.137 475.85 328.009 475.411 329.451 474.532C330.892 473.635 331.956 472.317 332.641 470.577C333.327 468.819 333.669 466.648 333.669 464.064V457.499C333.669 455.459 333.476 453.702 333.089 452.225C332.703 450.749 332.123 449.536 331.349 448.586C330.576 447.637 329.6 446.934 328.422 446.477C327.245 446.002 325.865 445.765 324.283 445.765H317.164V441.599H324.283C326.445 441.599 328.396 441.942 330.136 442.627C331.877 443.295 333.371 444.306 334.619 445.66C335.867 446.996 336.816 448.657 337.466 450.643C338.134 452.629 338.468 454.932 338.468 457.551V464.064C338.468 466.683 338.134 468.986 337.466 470.972C336.816 472.958 335.858 474.62 334.592 475.956C333.327 477.292 331.789 478.302 329.978 478.988C328.185 479.656 326.137 479.99 323.835 479.99ZM319.985 441.599V479.99H315.133V441.599H319.985ZM110.287 520.034H102.482L102.429 515.947H109.68C110.77 515.947 111.737 515.701 112.581 515.208C113.424 514.716 114.084 514.013 114.558 513.099C115.05 512.167 115.296 511.06 115.296 509.777C115.296 508.371 115.086 507.228 114.664 506.349C114.259 505.453 113.635 504.802 112.792 504.398C111.965 503.976 110.911 503.765 109.628 503.765H103.51V537.99H98.6588V499.599H109.628C111.28 499.599 112.756 499.801 114.057 500.206C115.358 500.592 116.457 501.208 117.353 502.051C118.267 502.877 118.961 503.932 119.436 505.215C119.911 506.499 120.148 508.037 120.148 509.83C120.148 511.412 119.788 512.844 119.067 514.127C118.364 515.393 117.379 516.43 116.114 517.239C114.848 518.047 113.389 518.566 111.737 518.794L110.287 520.034ZM110.102 537.99H100.478L103.299 533.85H110.102C111.368 533.85 112.44 533.569 113.319 533.006C114.198 532.444 114.866 531.653 115.323 530.633C115.797 529.596 116.035 528.375 116.035 526.968C116.035 525.544 115.841 524.314 115.455 523.277C115.068 522.24 114.453 521.44 113.609 520.877C112.765 520.315 111.658 520.034 110.287 520.034H104.038L104.09 515.947H112.528L113.609 517.423C115.191 517.582 116.518 518.109 117.59 519.005C118.68 519.884 119.498 521.009 120.043 522.38C120.605 523.751 120.886 525.263 120.886 526.916C120.886 529.306 120.438 531.328 119.542 532.98C118.663 534.615 117.415 535.863 115.797 536.724C114.18 537.568 112.282 537.99 110.102 537.99ZM146.199 499.599H151.05V526.625C151.05 529.508 150.497 531.82 149.389 533.56C148.282 535.3 146.823 536.566 145.012 537.357C143.219 538.13 141.286 538.517 139.211 538.517C136.997 538.517 135.002 538.13 133.226 537.357C131.451 536.566 130.036 535.3 128.981 533.56C127.944 531.82 127.425 529.508 127.425 526.625V499.599H132.251V526.625C132.251 528.629 132.532 530.194 133.094 531.319C133.674 532.444 134.483 533.235 135.52 533.692C136.575 534.149 137.805 534.377 139.211 534.377C140.635 534.377 141.866 534.149 142.903 533.692C143.958 533.235 144.766 532.444 145.329 531.319C145.909 530.194 146.199 528.629 146.199 526.625V499.599ZM175.255 528.287C175.255 527.39 175.15 526.599 174.939 525.914C174.728 525.21 174.359 524.578 173.832 524.015C173.304 523.453 172.566 522.917 171.617 522.407C170.668 521.897 169.463 521.378 168.004 520.851C166.422 520.289 164.99 519.665 163.707 518.979C162.423 518.276 161.325 517.476 160.411 516.58C159.514 515.683 158.82 514.655 158.328 513.495C157.836 512.334 157.589 511.007 157.589 509.513C157.589 508.019 157.844 506.639 158.354 505.374C158.881 504.108 159.62 503.009 160.569 502.078C161.536 501.128 162.696 500.39 164.049 499.863C165.403 499.335 166.915 499.072 168.585 499.072C171.081 499.072 173.181 499.625 174.886 500.733C176.609 501.823 177.91 503.255 178.789 505.031C179.668 506.789 180.107 508.669 180.107 510.673H175.255C175.255 509.232 175.018 507.958 174.544 506.85C174.086 505.725 173.366 504.846 172.381 504.213C171.415 503.563 170.149 503.238 168.585 503.238C167.178 503.238 166.018 503.51 165.104 504.055C164.208 504.6 163.54 505.338 163.1 506.27C162.678 507.202 162.467 508.265 162.467 509.46C162.467 510.269 162.608 511.007 162.889 511.675C163.17 512.326 163.601 512.932 164.181 513.495C164.779 514.057 165.517 514.576 166.396 515.05C167.293 515.525 168.347 515.982 169.56 516.421C171.441 517.037 173.049 517.722 174.385 518.478C175.721 519.234 176.811 520.086 177.655 521.036C178.499 521.967 179.114 523.031 179.501 524.226C179.905 525.404 180.107 526.74 180.107 528.234C180.107 529.798 179.843 531.213 179.316 532.479C178.806 533.745 178.059 534.826 177.075 535.722C176.09 536.619 174.904 537.313 173.515 537.805C172.127 538.28 170.562 538.517 168.822 538.517C167.31 538.517 165.825 538.271 164.366 537.779C162.924 537.287 161.615 536.548 160.437 535.564C159.259 534.58 158.319 533.367 157.616 531.925C156.913 530.466 156.561 528.779 156.561 526.863H161.413C161.413 528.181 161.606 529.315 161.993 530.264C162.379 531.196 162.916 531.969 163.601 532.584C164.287 533.2 165.069 533.657 165.948 533.956C166.844 534.237 167.802 534.377 168.822 534.377C170.228 534.377 171.406 534.131 172.355 533.639C173.322 533.147 174.043 532.444 174.517 531.53C175.009 530.616 175.255 529.535 175.255 528.287ZM191.524 499.599V537.99H186.672V499.599H191.524ZM225.063 499.599V537.99H220.185L204.813 508.379V537.99H199.961V499.599H204.813L220.264 529.289V499.599H225.063ZM254.093 533.85V537.99H237.429V533.85H254.093ZM238.299 499.599V537.99H233.448V499.599H238.299ZM251.852 516.105V520.245H237.429V516.105H251.852ZM253.83 499.599V503.765H237.429V499.599H253.83ZM277.086 528.287C277.086 527.39 276.98 526.599 276.769 525.914C276.558 525.21 276.189 524.578 275.662 524.015C275.134 523.453 274.396 522.917 273.447 522.407C272.498 521.897 271.294 521.378 269.835 520.851C268.253 520.289 266.82 519.665 265.537 518.979C264.253 518.276 263.155 517.476 262.241 516.58C261.344 515.683 260.65 514.655 260.158 513.495C259.666 512.334 259.419 511.007 259.419 509.513C259.419 508.019 259.674 506.639 260.184 505.374C260.711 504.108 261.45 503.009 262.399 502.078C263.366 501.128 264.526 500.39 265.879 499.863C267.233 499.335 268.745 499.072 270.415 499.072C272.911 499.072 275.011 499.625 276.716 500.733C278.439 501.823 279.74 503.255 280.619 505.031C281.498 506.789 281.937 508.669 281.937 510.673H277.086C277.086 509.232 276.848 507.958 276.374 506.85C275.917 505.725 275.196 504.846 274.211 504.213C273.245 503.563 271.979 503.238 270.415 503.238C269.008 503.238 267.848 503.51 266.934 504.055C266.038 504.6 265.37 505.338 264.93 506.27C264.508 507.202 264.297 508.265 264.297 509.46C264.297 510.269 264.438 511.007 264.719 511.675C265.001 512.326 265.431 512.932 266.011 513.495C266.609 514.057 267.347 514.576 268.226 515.05C269.123 515.525 270.177 515.982 271.39 516.421C273.271 517.037 274.879 517.722 276.215 518.478C277.551 519.234 278.641 520.086 279.485 521.036C280.329 521.967 280.944 523.031 281.331 524.226C281.735 525.404 281.937 526.74 281.937 528.234C281.937 529.798 281.673 531.213 281.146 532.479C280.636 533.745 279.889 534.826 278.905 535.722C277.92 536.619 276.734 537.313 275.345 537.805C273.957 538.28 272.392 538.517 270.652 538.517C269.14 538.517 267.655 538.271 266.196 537.779C264.754 537.287 263.445 536.548 262.267 535.564C261.089 534.58 260.149 533.367 259.446 531.925C258.743 530.466 258.391 528.779 258.391 526.863H263.243C263.243 528.181 263.436 529.315 263.823 530.264C264.21 531.196 264.746 531.969 265.431 532.584C266.117 533.2 266.899 533.657 267.778 533.956C268.674 534.237 269.632 534.377 270.652 534.377C272.058 534.377 273.236 534.131 274.185 533.639C275.152 533.147 275.873 532.444 276.347 531.53C276.839 530.616 277.086 529.535 277.086 528.287ZM305.087 528.287C305.087 527.39 304.982 526.599 304.771 525.914C304.56 525.21 304.191 524.578 303.664 524.015C303.136 523.453 302.398 522.917 301.449 522.407C300.5 521.897 299.295 521.378 297.836 520.851C296.254 520.289 294.822 519.665 293.539 518.979C292.255 518.276 291.157 517.476 290.243 516.58C289.346 515.683 288.652 514.655 288.16 513.495C287.668 512.334 287.421 511.007 287.421 509.513C287.421 508.019 287.676 506.639 288.186 505.374C288.713 504.108 289.452 503.009 290.401 502.078C291.368 501.128 292.528 500.39 293.881 499.863C295.235 499.335 296.747 499.072 298.417 499.072C300.913 499.072 303.013 499.625 304.718 500.733C306.441 501.823 307.742 503.255 308.621 505.031C309.5 506.789 309.939 508.669 309.939 510.673H305.087C305.087 509.232 304.85 507.958 304.376 506.85C303.919 505.725 303.198 504.846 302.213 504.213C301.247 503.563 299.981 503.238 298.417 503.238C297.01 503.238 295.85 503.51 294.936 504.055C294.04 504.6 293.372 505.338 292.932 506.27C292.51 507.202 292.299 508.265 292.299 509.46C292.299 510.269 292.44 511.007 292.721 511.675C293.003 512.326 293.433 512.932 294.013 513.495C294.611 514.057 295.349 514.576 296.228 515.05C297.125 515.525 298.179 515.982 299.392 516.421C301.273 517.037 302.881 517.722 304.217 518.478C305.553 519.234 306.643 520.086 307.487 521.036C308.331 521.967 308.946 523.031 309.333 524.226C309.737 525.404 309.939 526.74 309.939 528.234C309.939 529.798 309.675 531.213 309.148 532.479C308.638 533.745 307.891 534.826 306.907 535.722C305.922 536.619 304.736 537.313 303.347 537.805C301.959 538.28 300.394 538.517 298.654 538.517C297.142 538.517 295.657 538.271 294.198 537.779C292.756 537.287 291.447 536.548 290.269 535.564C289.091 534.58 288.151 533.367 287.448 531.925C286.745 530.466 286.393 528.779 286.393 526.863H291.245C291.245 528.181 291.438 529.315 291.825 530.264C292.211 531.196 292.748 531.969 293.433 532.584C294.119 533.2 294.901 533.657 295.78 533.956C296.676 534.237 297.634 534.377 298.654 534.377C300.06 534.377 301.238 534.131 302.187 533.639C303.154 533.147 303.875 532.444 304.349 531.53C304.841 530.616 305.087 529.535 305.087 528.287Z" fill="black"/>
<path d="M315.544 419.752C314.904 419.752 314.292 419.656 313.708 419.464C313.124 419.264 312.664 419.008 312.328 418.696L312.772 417.76C313.092 418.04 313.5 418.272 313.996 418.456C314.492 418.64 315.008 418.732 315.544 418.732C316.032 418.732 316.428 418.676 316.732 418.564C317.036 418.452 317.26 418.3 317.404 418.108C317.548 417.908 317.62 417.684 317.62 417.436C317.62 417.148 317.524 416.916 317.332 416.74C317.148 416.564 316.904 416.424 316.6 416.32C316.304 416.208 315.976 416.112 315.616 416.032C315.256 415.952 314.892 415.86 314.524 415.756C314.164 415.644 313.832 415.504 313.528 415.336C313.232 415.168 312.992 414.944 312.808 414.664C312.624 414.376 312.532 414.008 312.532 413.56C312.532 413.128 312.644 412.732 312.868 412.372C313.1 412.004 313.452 411.712 313.924 411.496C314.404 411.272 315.012 411.16 315.748 411.16C316.236 411.16 316.72 411.224 317.2 411.352C317.68 411.48 318.096 411.664 318.448 411.904L318.052 412.864C317.692 412.624 317.312 412.452 316.912 412.348C316.512 412.236 316.124 412.18 315.748 412.18C315.276 412.18 314.888 412.24 314.584 412.36C314.28 412.48 314.056 412.64 313.912 412.84C313.776 413.04 313.708 413.264 313.708 413.512C313.708 413.808 313.8 414.044 313.984 414.22C314.176 414.396 314.42 414.536 314.716 414.64C315.02 414.744 315.352 414.84 315.712 414.928C316.072 415.008 316.432 415.1 316.792 415.204C317.16 415.308 317.492 415.444 317.788 415.612C318.092 415.78 318.336 416.004 318.52 416.284C318.704 416.564 318.796 416.924 318.796 417.364C318.796 417.788 318.68 418.184 318.448 418.552C318.216 418.912 317.856 419.204 317.368 419.428C316.888 419.644 316.28 419.752 315.544 419.752ZM319.59 419.656V411.256H320.574L324.342 417.604H323.814L327.534 411.256H328.518L328.53 419.656H327.378L327.366 413.068H327.642L324.33 418.636H323.778L320.442 413.068H320.742V419.656H319.59Z" fill="black"/>
<path d="M94.9665 419.656V342.656H132.586C142.266 342.656 149.526 344.49 154.366 348.156C159.28 351.823 161.736 356.663 161.736 362.676C161.736 366.71 160.746 370.23 158.766 373.236C156.786 376.17 154.073 378.443 150.626 380.056C147.18 381.67 143.22 382.476 138.746 382.476L140.836 377.966C145.676 377.966 149.966 378.773 153.706 380.386C157.446 381.926 160.343 384.236 162.396 387.316C164.523 390.396 165.586 394.173 165.586 398.646C165.586 405.246 162.983 410.416 157.776 414.156C152.57 417.823 144.906 419.656 134.786 419.656H94.9665ZM112.676 406.236H133.466C138.086 406.236 141.57 405.503 143.916 404.036C146.336 402.496 147.546 400.076 147.546 396.776C147.546 393.55 146.336 391.166 143.916 389.626C141.57 388.013 138.086 387.206 133.466 387.206H111.356V374.226H130.386C134.713 374.226 138.013 373.493 140.286 372.026C142.633 370.486 143.806 368.176 143.806 365.096C143.806 362.09 142.633 359.853 140.286 358.386C138.013 356.846 134.713 356.076 130.386 356.076H112.676V406.236ZM170.278 419.656V342.656H207.898C217.578 342.656 224.838 344.49 229.678 348.156C234.591 351.823 237.048 356.663 237.048 362.676C237.048 366.71 236.058 370.23 234.078 373.236C232.098 376.17 229.384 378.443 225.938 380.056C222.491 381.67 218.531 382.476 214.058 382.476L216.148 377.966C220.988 377.966 225.278 378.773 229.018 380.386C232.758 381.926 235.654 384.236 237.708 387.316C239.834 390.396 240.898 394.173 240.898 398.646C240.898 405.246 238.294 410.416 233.088 414.156C227.881 417.823 220.218 419.656 210.098 419.656H170.278ZM187.988 406.236H208.778C213.398 406.236 216.881 405.503 219.228 404.036C221.648 402.496 222.858 400.076 222.858 396.776C222.858 393.55 221.648 391.166 219.228 389.626C216.881 388.013 213.398 387.206 208.778 387.206H186.668V374.226H205.698C210.024 374.226 213.324 373.493 215.598 372.026C217.944 370.486 219.118 368.176 219.118 365.096C219.118 362.09 217.944 359.853 215.598 358.386C213.324 356.846 210.024 356.076 205.698 356.076H187.988V406.236ZM245.589 419.656V342.656H283.209C292.889 342.656 300.149 344.49 304.989 348.156C309.902 351.823 312.359 356.663 312.359 362.676C312.359 366.71 311.369 370.23 309.389 373.236C307.409 376.17 304.696 378.443 301.249 380.056C297.802 381.67 293.842 382.476 289.369 382.476L291.459 377.966C296.299 377.966 300.589 378.773 304.329 380.386C308.069 381.926 310.966 384.236 313.019 387.316C315.146 390.396 316.209 394.173 316.209 398.646C316.209 405.246 313.606 410.416 308.399 414.156C303.192 417.823 295.529 419.656 285.409 419.656H245.589ZM263.299 406.236H284.089C288.709 406.236 292.192 405.503 294.539 404.036C296.959 402.496 298.169 400.076 298.169 396.776C298.169 393.55 296.959 391.166 294.539 389.626C292.192 388.013 288.709 387.206 284.089 387.206H261.979V374.226H281.009C285.336 374.226 288.636 373.493 290.909 372.026C293.256 370.486 294.429 368.176 294.429 365.096C294.429 362.09 293.256 359.853 290.909 358.386C288.636 356.846 285.336 356.076 281.009 356.076H263.299V406.236Z" fill="black"/>
<path d="M270.498 292.183H139.546L133.853 307.447H169.753L176.634 329.032H234.212L240.773 307.447H275.479L270.498 292.183Z" fill="black"/>
<path d="M182.236 184.796L177.482 181.425C158.94 202.828 153.024 215.149 155.058 228.198C156.805 239.399 168.173 248.858 181.066 256.68C191.071 264.067 200.949 270.399 201.672 272.835C202.585 275.058 202.225 277.784 200.775 281.073L206.378 283.46C212.708 271.6 229.097 260.152 228.653 240.451C226.725 226.044 219.62 220.069 205.049 210.079C191.712 200.578 180.735 193.867 180.4 189.505C180.319 187.564 180.808 186.543 182.236 184.796Z" fill="black"/>
<path d="M208.55 80.6774L205.099 77.6865C176.058 111.208 168.783 126.154 171.97 146.592C174.705 164.135 191.348 178.284 211.541 190.535C232.059 205.898 239.826 210.204 239.024 221.094C238.222 231.985 238.239 230.057 235.123 236.549L238.575 239.54C268.253 197.667 281.712 186.049 277.801 162.927C275.631 150.099 266.342 138.656 243.521 123.01C221.85 104.416 205.991 100.783 206.71 90.3403C206.884 87.8106 206.669 84.0132 208.55 80.6774Z" fill="black"/>
</svg>
